<svg width="32" height="32" viewBox="0 0 32 32" fill="none" xmlns="http://www.w3.org/2000/svg">
<path d="M4 25.942C4 28.1739 5.76327 30 7.91837 30H24.0816C26.2367 30 28 28.0725 28 25.8406V6.4297C28 5.1297 26.4099 4.5297 25.5155 5.4297L20.9736 10H11.1617L6.5 5.4297C5.6 4.5297 4 5.1297 4 6.4297V25.942Z" fill="url(#paint0_linear_6898_5229)"/>
<path d="M4 25.942C4 28.1739 5.76327 30 7.91837 30H24.0816C26.2367 30 28 28.0725 28 25.8406V6.4297C28 5.1297 26.4099 4.5297 25.5155 5.4297L20.9736 10H11.1617L6.5 5.4297C5.6 4.5297 4 5.1297 4 6.4297V25.942Z" fill="url(#paint1_radial_6898_5229)"/>
<path d="M4 25.942C4 28.1739 5.76327 30 7.91837 30H24.0816C26.2367 30 28 28.0725 28 25.8406V6.4297C28 5.1297 26.4099 4.5297 25.5155 5.4297L20.9736 10H11.1617L6.5 5.4297C5.6 4.5297 4 5.1297 4 6.4297V25.942Z" fill="url(#paint2_linear_6898_5229)"/>
<path d="M4 25.942C4 28.1739 5.76327 30 7.91837 30H24.0816C26.2367 30 28 28.0725 28 25.8406V6.4297C28 5.1297 26.4099 4.5297 25.5155 5.4297L20.9736 10H11.1617L6.5 5.4297C5.6 4.5297 4 5.1297 4 6.4297V25.942Z" fill="url(#paint3_linear_6898_5229)"/>
<path d="M4 25.942C4 28.1739 5.76327 30 7.91837 30H24.0816C26.2367 30 28 28.0725 28 25.8406V6.4297C28 5.1297 26.4099 4.5297 25.5155 5.4297L20.9736 10H11.1617L6.5 5.4297C5.6 4.5297 4 5.1297 4 6.4297V25.942Z" fill="url(#paint4_linear_6898_5229)"/>
<path d="M4 25.942C4 28.1739 5.76327 30 7.91837 30H24.0816C26.2367 30 28 28.0725 28 25.8406V6.4297C28 5.1297 26.4099 4.5297 25.5155 5.4297L20.9736 10H11.1617L6.5 5.4297C5.6 4.5297 4 5.1297 4 6.4297V25.942Z" fill="url(#paint5_linear_6898_5229)"/>
<path d="M4 25.942C4 28.1739 5.76327 30 7.91837 30H24.0816C26.2367 30 28 28.0725 28 25.8406V6.4297C28 5.1297 26.4099 4.5297 25.5155 5.4297L20.9736 10H11.1617L6.5 5.4297C5.6 4.5297 4 5.1297 4 6.4297V25.942Z" fill="url(#paint6_radial_6898_5229)"/>
<path d="M4 25.942C4 28.1739 5.76327 30 7.91837 30H24.0816C26.2367 30 28 28.0725 28 25.8406V6.4297C28 5.1297 26.4099 4.5297 25.5155 5.4297L20.9736 10H11.1617L6.5 5.4297C5.6 4.5297 4 5.1297 4 6.4297V25.942Z" fill="url(#paint7_radial_6898_5229)"/>
<path d="M4 25.942C4 28.1739 5.76327 30 7.91837 30H24.0816C26.2367 30 28 28.0725 28 25.8406V6.4297C28 5.1297 26.4099 4.5297 25.5155 5.4297L20.9736 10H11.1617L6.5 5.4297C5.6 4.5297 4 5.1297 4 6.4297V25.942Z" fill="url(#paint8_radial_6898_5229)"/>
<path d="M4 25.942C4 28.1739 5.76327 30 7.91837 30H24.0816C26.2367 30 28 28.0725 28 25.8406V6.4297C28 5.1297 26.4099 4.5297 25.5155 5.4297L20.9736 10H11.1617L6.5 5.4297C5.6 4.5297 4 5.1297 4 6.4297V25.942Z" fill="url(#paint9_radial_6898_5229)"/>
<path d="M4 25.942C4 28.1739 5.76327 30 7.91837 30H24.0816C26.2367 30 28 28.0725 28 25.8406V6.4297C28 5.1297 26.4099 4.5297 25.5155 5.4297L20.9736 10H11.1617L6.5 5.4297C5.6 4.5297 4 5.1297 4 6.4297V25.942Z" fill="url(#paint10_radial_6898_5229)"/>
<path d="M4 25.942C4 28.1739 5.76327 30 7.91837 30H24.0816C26.2367 30 28 28.0725 28 25.8406V6.4297C28 5.1297 26.4099 4.5297 25.5155 5.4297L20.9736 10H11.1617L6.5 5.4297C5.6 4.5297 4 5.1297 4 6.4297V25.942Z" fill="url(#paint11_radial_6898_5229)"/>
<path d="M4 25.942C4 28.1739 5.76327 30 7.91837 30H24.0816C26.2367 30 28 28.0725 28 25.8406V6.4297C28 5.1297 26.4099 4.5297 25.5155 5.4297L20.9736 10H11.1617L6.5 5.4297C5.6 4.5297 4 5.1297 4 6.4297V25.942Z" fill="url(#paint12_radial_6898_5229)"/>
<path d="M4 25.942C4 28.1739 5.76327 30 7.91837 30H24.0816C26.2367 30 28 28.0725 28 25.8406V6.4297C28 5.1297 26.4099 4.5297 25.5155 5.4297L20.9736 10H11.1617L6.5 5.4297C5.6 4.5297 4 5.1297 4 6.4297V25.942Z" fill="url(#paint13_radial_6898_5229)"/>
<path d="M4 25.942C4 28.1739 5.76327 30 7.91837 30H24.0816C26.2367 30 28 28.0725 28 25.8406V6.4297C28 5.1297 26.4099 4.5297 25.5155 5.4297L20.9736 10H11.1617L6.5 5.4297C5.6 4.5297 4 5.1297 4 6.4297V25.942Z" fill="url(#paint14_radial_6898_5229)"/>
<path d="M4 25.942C4 28.1739 5.76327 30 7.91837 30H24.0816C26.2367 30 28 28.0725 28 25.8406V6.4297C28 5.1297 26.4099 4.5297 25.5155 5.4297L20.9736 10H11.1617L6.5 5.4297C5.6 4.5297 4 5.1297 4 6.4297V25.942Z" fill="url(#paint15_radial_6898_5229)"/>
<path d="M4 25.942C4 28.1739 5.76327 30 7.91837 30H24.0816C26.2367 30 28 28.0725 28 25.8406V6.4297C28 5.1297 26.4099 4.5297 25.5155 5.4297L20.9736 10H11.1617L6.5 5.4297C5.6 4.5297 4 5.1297 4 6.4297V25.942Z" fill="url(#paint16_radial_6898_5229)"/>
<path d="M6.13255 13.5034L8.93255 10.9034C9.25255 10.6034 9.25255 10.1234 8.93255 9.83344L5.91787 7.15626C5.53505 6.82032 4.74255 6.9297 4.74255 7.76344V12.9634C4.74255 13.7969 5.62255 13.9834 6.13255 13.5034Z" fill="url(#paint17_linear_6898_5229)"/>
<path d="M6.13255 13.5034L8.93255 10.9034C9.25255 10.6034 9.25255 10.1234 8.93255 9.83344L5.91787 7.15626C5.53505 6.82032 4.74255 6.9297 4.74255 7.76344V12.9634C4.74255 13.7969 5.62255 13.9834 6.13255 13.5034Z" fill="#FBA430"/>
<path d="M6.13255 13.5034L8.93255 10.9034C9.25255 10.6034 9.25255 10.1234 8.93255 9.83344L5.91787 7.15626C5.53505 6.82032 4.74255 6.9297 4.74255 7.76344V12.9634C4.74255 13.7969 5.62255 13.9834 6.13255 13.5034Z" fill="url(#paint18_radial_6898_5229)"/>
<path d="M6.13255 13.5034L8.93255 10.9034C9.25255 10.6034 9.25255 10.1234 8.93255 9.83344L5.91787 7.15626C5.53505 6.82032 4.74255 6.9297 4.74255 7.76344V12.9634C4.74255 13.7969 5.62255 13.9834 6.13255 13.5034Z" fill="url(#paint19_radial_6898_5229)"/>
<path d="M6.13255 13.5034L8.93255 10.9034C9.25255 10.6034 9.25255 10.1234 8.93255 9.83344L5.91787 7.15626C5.53505 6.82032 4.74255 6.9297 4.74255 7.76344V12.9634C4.74255 13.7969 5.62255 13.9834 6.13255 13.5034Z" fill="url(#paint20_radial_6898_5229)"/>
<path fill-rule="evenodd" clip-rule="evenodd" d="M29.9128 20.4685C30.0553 20.7677 29.9283 21.1257 29.6292 21.2682L25.8245 23.0807C25.5253 23.2232 25.1673 23.0962 25.0247 22.7971C24.8822 22.4979 25.0092 22.1399 25.3084 21.9974L29.1131 20.1849C29.4122 20.0424 29.7703 20.1693 29.9128 20.4685Z" fill="url(#paint21_linear_6898_5229)"/>
<path fill-rule="evenodd" clip-rule="evenodd" d="M29.9128 20.4685C30.0553 20.7677 29.9283 21.1257 29.6292 21.2682L25.8245 23.0807C25.5253 23.2232 25.1673 23.0962 25.0247 22.7971C24.8822 22.4979 25.0092 22.1399 25.3084 21.9974L29.1131 20.1849C29.4122 20.0424 29.7703 20.1693 29.9128 20.4685Z" fill="url(#paint22_linear_6898_5229)"/>
<path fill-rule="evenodd" clip-rule="evenodd" d="M29.9128 20.4685C30.0553 20.7677 29.9283 21.1257 29.6292 21.2682L25.8245 23.0807C25.5253 23.2232 25.1673 23.0962 25.0247 22.7971C24.8822 22.4979 25.0092 22.1399 25.3084 21.9974L29.1131 20.1849C29.4122 20.0424 29.7703 20.1693 29.9128 20.4685Z" fill="url(#paint23_radial_6898_5229)"/>
<path fill-rule="evenodd" clip-rule="evenodd" d="M29.9128 20.4685C30.0553 20.7677 29.9283 21.1257 29.6292 21.2682L25.8245 23.0807C25.5253 23.2232 25.1673 23.0962 25.0247 22.7971C24.8822 22.4979 25.0092 22.1399 25.3084 21.9974L29.1131 20.1849C29.4122 20.0424 29.7703 20.1693 29.9128 20.4685Z" fill="url(#paint24_radial_6898_5229)"/>
<path fill-rule="evenodd" clip-rule="evenodd" d="M29.9128 20.4685C30.0553 20.7677 29.9283 21.1257 29.6292 21.2682L25.8245 23.0807C25.5253 23.2232 25.1673 23.0962 25.0247 22.7971C24.8822 22.4979 25.0092 22.1399 25.3084 21.9974L29.1131 20.1849C29.4122 20.0424 29.7703 20.1693 29.9128 20.4685Z" fill="url(#paint25_radial_6898_5229)"/>
<path fill-rule="evenodd" clip-rule="evenodd" d="M29.9065 26.7473C29.7635 27.0462 29.4052 27.1726 29.1063 27.0295L25.3047 25.2105C25.0058 25.0674 24.8794 24.7092 25.0225 24.4103C25.1655 24.1114 25.5238 23.985 25.8227 24.128L29.6242 25.9471C29.9231 26.0901 30.0495 26.4484 29.9065 26.7473Z" fill="url(#paint26_linear_6898_5229)"/>
<path fill-rule="evenodd" clip-rule="evenodd" d="M29.9065 26.7473C29.7635 27.0462 29.4052 27.1726 29.1063 27.0295L25.3047 25.2105C25.0058 25.0674 24.8794 24.7092 25.0225 24.4103C25.1655 24.1114 25.5238 23.985 25.8227 24.128L29.6242 25.9471C29.9231 26.0901 30.0495 26.4484 29.9065 26.7473Z" fill="url(#paint27_linear_6898_5229)"/>
<path fill-rule="evenodd" clip-rule="evenodd" d="M29.9065 26.7473C29.7635 27.0462 29.4052 27.1726 29.1063 27.0295L25.3047 25.2105C25.0058 25.0674 24.8794 24.7092 25.0225 24.4103C25.1655 24.1114 25.5238 23.985 25.8227 24.128L29.6242 25.9471C29.9231 26.0901 30.0495 26.4484 29.9065 26.7473Z" fill="url(#paint28_radial_6898_5229)"/>
<path fill-rule="evenodd" clip-rule="evenodd" d="M29.9065 26.7473C29.7635 27.0462 29.4052 27.1726 29.1063 27.0295L25.3047 25.2105C25.0058 25.0674 24.8794 24.7092 25.0225 24.4103C25.1655 24.1114 25.5238 23.985 25.8227 24.128L29.6242 25.9471C29.9231 26.0901 30.0495 26.4484 29.9065 26.7473Z" fill="url(#paint29_radial_6898_5229)"/>
<path fill-rule="evenodd" clip-rule="evenodd" d="M29.9065 26.7473C29.7635 27.0462 29.4052 27.1726 29.1063 27.0295L25.3047 25.2105C25.0058 25.0674 24.8794 24.7092 25.0225 24.4103C25.1655 24.1114 25.5238 23.985 25.8227 24.128L29.6242 25.9471C29.9231 26.0901 30.0495 26.4484 29.9065 26.7473Z" fill="url(#paint30_radial_6898_5229)"/>
<path fill-rule="evenodd" clip-rule="evenodd" d="M2.18531 26.759C2.32834 27.0579 2.68661 27.1843 2.98552 27.0412L6.78708 25.2222C7.08599 25.0792 7.21236 24.7209 7.06933 24.422C6.9263 24.1231 6.56804 23.9967 6.26912 24.1397L2.46756 25.9588C2.16865 26.1018 2.04228 26.4601 2.18531 26.759Z" fill="url(#paint31_linear_6898_5229)"/>
<path fill-rule="evenodd" clip-rule="evenodd" d="M2.18531 26.759C2.32834 27.0579 2.68661 27.1843 2.98552 27.0412L6.78708 25.2222C7.08599 25.0792 7.21236 24.7209 7.06933 24.422C6.9263 24.1231 6.56804 23.9967 6.26912 24.1397L2.46756 25.9588C2.16865 26.1018 2.04228 26.4601 2.18531 26.759Z" fill="url(#paint32_linear_6898_5229)"/>
<path fill-rule="evenodd" clip-rule="evenodd" d="M2.18531 26.759C2.32834 27.0579 2.68661 27.1843 2.98552 27.0412L6.78708 25.2222C7.08599 25.0792 7.21236 24.7209 7.06933 24.422C6.9263 24.1231 6.56804 23.9967 6.26912 24.1397L2.46756 25.9588C2.16865 26.1018 2.04228 26.4601 2.18531 26.759Z" fill="url(#paint33_radial_6898_5229)"/>
<path fill-rule="evenodd" clip-rule="evenodd" d="M2.18531 26.759C2.32834 27.0579 2.68661 27.1843 2.98552 27.0412L6.78708 25.2222C7.08599 25.0792 7.21236 24.7209 7.06933 24.422C6.9263 24.1231 6.56804 23.9967 6.26912 24.1397L2.46756 25.9588C2.16865 26.1018 2.04228 26.4601 2.18531 26.759Z" fill="url(#paint34_radial_6898_5229)"/>
<path fill-rule="evenodd" clip-rule="evenodd" d="M2.18531 26.759C2.32834 27.0579 2.68661 27.1843 2.98552 27.0412L6.78708 25.2222C7.08599 25.0792 7.21236 24.7209 7.06933 24.422C6.9263 24.1231 6.56804 23.9967 6.26912 24.1397L2.46756 25.9588C2.16865 26.1018 2.04228 26.4601 2.18531 26.759Z" fill="url(#paint35_radial_6898_5229)"/>
<path fill-rule="evenodd" clip-rule="evenodd" d="M2.18317 20.4752C2.04213 20.7751 2.17088 21.1325 2.47074 21.2735L6.28431 23.0673C6.58417 23.2083 6.94159 23.0796 7.08263 22.7797C7.22367 22.4798 7.09492 22.1224 6.79506 21.9814L2.98149 20.1877C2.68163 20.0466 2.32421 20.1754 2.18317 20.4752Z" fill="url(#paint36_linear_6898_5229)"/>
<path fill-rule="evenodd" clip-rule="evenodd" d="M2.18317 20.4752C2.04213 20.7751 2.17088 21.1325 2.47074 21.2735L6.28431 23.0673C6.58417 23.2083 6.94159 23.0796 7.08263 22.7797C7.22367 22.4798 7.09492 22.1224 6.79506 21.9814L2.98149 20.1877C2.68163 20.0466 2.32421 20.1754 2.18317 20.4752Z" fill="url(#paint37_linear_6898_5229)"/>
<path fill-rule="evenodd" clip-rule="evenodd" d="M2.18317 20.4752C2.04213 20.7751 2.17088 21.1325 2.47074 21.2735L6.28431 23.0673C6.58417 23.2083 6.94159 23.0796 7.08263 22.7797C7.22367 22.4798 7.09492 22.1224 6.79506 21.9814L2.98149 20.1877C2.68163 20.0466 2.32421 20.1754 2.18317 20.4752Z" fill="url(#paint38_radial_6898_5229)"/>
<path fill-rule="evenodd" clip-rule="evenodd" d="M2.18317 20.4752C2.04213 20.7751 2.17088 21.1325 2.47074 21.2735L6.28431 23.0673C6.58417 23.2083 6.94159 23.0796 7.08263 22.7797C7.22367 22.4798 7.09492 22.1224 6.79506 21.9814L2.98149 20.1877C2.68163 20.0466 2.32421 20.1754 2.18317 20.4752Z" fill="url(#paint39_radial_6898_5229)"/>
<path fill-rule="evenodd" clip-rule="evenodd" d="M2.18317 20.4752C2.04213 20.7751 2.17088 21.1325 2.47074 21.2735L6.28431 23.0673C6.58417 23.2083 6.94159 23.0796 7.08263 22.7797C7.22367 22.4798 7.09492 22.1224 6.79506 21.9814L2.98149 20.1877C2.68163 20.0466 2.32421 20.1754 2.18317 20.4752Z" fill="url(#paint40_radial_6898_5229)"/>
<path d="M25.8329 13.5034L23.0329 10.9034C22.7129 10.6034 22.7129 10.1234 23.0329 9.83344L26.0476 7.15626C26.4304 6.82032 27.2229 6.9297 27.2229 7.76344V12.9634C27.2229 13.7969 26.3429 13.9834 25.8329 13.5034Z" fill="#FFCD45"/>
<path d="M25.8329 13.5034L23.0329 10.9034C22.7129 10.6034 22.7129 10.1234 23.0329 9.83344L26.0476 7.15626C26.4304 6.82032 27.2229 6.9297 27.2229 7.76344V12.9634C27.2229 13.7969 26.3429 13.9834 25.8329 13.5034Z" fill="url(#paint41_linear_6898_5229)"/>
<path d="M25.8329 13.5034L23.0329 10.9034C22.7129 10.6034 22.7129 10.1234 23.0329 9.83344L26.0476 7.15626C26.4304 6.82032 27.2229 6.9297 27.2229 7.76344V12.9634C27.2229 13.7969 26.3429 13.9834 25.8329 13.5034Z" fill="url(#paint42_radial_6898_5229)"/>
<path d="M25.8329 13.5034L23.0329 10.9034C22.7129 10.6034 22.7129 10.1234 23.0329 9.83344L26.0476 7.15626C26.4304 6.82032 27.2229 6.9297 27.2229 7.76344V12.9634C27.2229 13.7969 26.3429 13.9834 25.8329 13.5034Z" fill="url(#paint43_radial_6898_5229)"/>
<path d="M25.8329 13.5034L23.0329 10.9034C22.7129 10.6034 22.7129 10.1234 23.0329 9.83344L26.0476 7.15626C26.4304 6.82032 27.2229 6.9297 27.2229 7.76344V12.9634C27.2229 13.7969 26.3429 13.9834 25.8329 13.5034Z" fill="url(#paint44_radial_6898_5229)"/>
<path d="M25.8329 13.5034L23.0329 10.9034C22.7129 10.6034 22.7129 10.1234 23.0329 9.83344L26.0476 7.15626C26.4304 6.82032 27.2229 6.9297 27.2229 7.76344V12.9634C27.2229 13.7969 26.3429 13.9834 25.8329 13.5034Z" fill="url(#paint45_radial_6898_5229)"/>
<path d="M25.8329 13.5034L23.0329 10.9034C22.7129 10.6034 22.7129 10.1234 23.0329 9.83344L26.0476 7.15626C26.4304 6.82032 27.2229 6.9297 27.2229 7.76344V12.9634C27.2229 13.7969 26.3429 13.9834 25.8329 13.5034Z" fill="url(#paint46_radial_6898_5229)"/>
<path d="M15.2265 20.2066L15.2908 20.1916C15.7644 20.0811 16.2577 20.0863 16.7289 20.2066C17.25 20.3047 17.561 20.902 17.121 21.332L16.5703 21.9336C16.3003 22.2036 15.7075 22.2036 15.4375 21.9336L14.8945 21.332C14.4453 20.8242 14.7265 20.3164 15.2265 20.2066Z" fill="url(#paint47_radial_6898_5229)"/>
<path d="M15.2265 20.2066L15.2908 20.1916C15.7644 20.0811 16.2577 20.0863 16.7289 20.2066C17.25 20.3047 17.561 20.902 17.121 21.332L16.5703 21.9336C16.3003 22.2036 15.7075 22.2036 15.4375 21.9336L14.8945 21.332C14.4453 20.8242 14.7265 20.3164 15.2265 20.2066Z" fill="url(#paint48_radial_6898_5229)" fill-opacity="0.8"/>
<path d="M20.418 23.0547C20.418 25.4947 18.4361 27.3906 15.9961 27.3906C13.5561 27.3906 11.6836 25.4478 11.6836 23.0078C11.6836 23.0078 13.4883 25.1406 15.9961 23.0078C18.3477 25.0859 20.418 23.0547 20.418 23.0547Z" fill="url(#paint49_linear_6898_5229)"/>
<path d="M12.0019 20.5226C12.2023 20.5629 12.405 20.4896 12.5406 20.3367C13.3353 19.4405 14.5784 17.6125 14.6904 15.7429C14.9488 13.2412 12.0717 12.2663 10.8957 14.0433C10.7788 14.2198 10.6289 14.4263 10.5314 14.6088C10.4789 14.707 10.3476 14.7587 10.2455 14.7145C10.0006 14.6086 9.65129 14.4928 9.42807 14.4299C7.76819 13.962 5.70213 15.9889 7.60989 18.2207C8.37074 19.2397 10.7079 20.2624 12.0019 20.5226Z" fill="url(#paint50_radial_6898_5229)"/>
<path d="M12.0019 20.5226C12.2023 20.5629 12.405 20.4896 12.5406 20.3367C13.3353 19.4405 14.5784 17.6125 14.6904 15.7429C14.9488 13.2412 12.0717 12.2663 10.8957 14.0433C10.7788 14.2198 10.6289 14.4263 10.5314 14.6088C10.4789 14.707 10.3476 14.7587 10.2455 14.7145C10.0006 14.6086 9.65129 14.4928 9.42807 14.4299C7.76819 13.962 5.70213 15.9889 7.60989 18.2207C8.37074 19.2397 10.7079 20.2624 12.0019 20.5226Z" fill="url(#paint51_radial_6898_5229)"/>
<path d="M12.0019 20.5226C12.2023 20.5629 12.405 20.4896 12.5406 20.3367C13.3353 19.4405 14.5784 17.6125 14.6904 15.7429C14.9488 13.2412 12.0717 12.2663 10.8957 14.0433C10.7788 14.2198 10.6289 14.4263 10.5314 14.6088C10.4789 14.707 10.3476 14.7587 10.2455 14.7145C10.0006 14.6086 9.65129 14.4928 9.42807 14.4299C7.76819 13.962 5.70213 15.9889 7.60989 18.2207C8.37074 19.2397 10.7079 20.2624 12.0019 20.5226Z" fill="url(#paint52_radial_6898_5229)"/>
<path d="M12.0019 20.5226C12.2023 20.5629 12.405 20.4896 12.5406 20.3367C13.3353 19.4405 14.5784 17.6125 14.6904 15.7429C14.9488 13.2412 12.0717 12.2663 10.8957 14.0433C10.7788 14.2198 10.6289 14.4263 10.5314 14.6088C10.4789 14.707 10.3476 14.7587 10.2455 14.7145C10.0006 14.6086 9.65129 14.4928 9.42807 14.4299C7.76819 13.962 5.70213 15.9889 7.60989 18.2207C8.37074 19.2397 10.7079 20.2624 12.0019 20.5226Z" fill="url(#paint53_radial_6898_5229)"/>
<path d="M12.0019 20.5226C12.2023 20.5629 12.405 20.4896 12.5406 20.3367C13.3353 19.4405 14.5784 17.6125 14.6904 15.7429C14.9488 13.2412 12.0717 12.2663 10.8957 14.0433C10.7788 14.2198 10.6289 14.4263 10.5314 14.6088C10.4789 14.707 10.3476 14.7587 10.2455 14.7145C10.0006 14.6086 9.65129 14.4928 9.42807 14.4299C7.76819 13.962 5.70213 15.9889 7.60989 18.2207C8.37074 19.2397 10.7079 20.2624 12.0019 20.5226Z" fill="url(#paint54_linear_6898_5229)"/>
<path d="M12.0019 20.5226C12.2023 20.5629 12.405 20.4896 12.5406 20.3367C13.3353 19.4405 14.5784 17.6125 14.6904 15.7429C14.9488 13.2412 12.0717 12.2663 10.8957 14.0433C10.7788 14.2198 10.6289 14.4263 10.5314 14.6088C10.4789 14.707 10.3476 14.7587 10.2455 14.7145C10.0006 14.6086 9.65129 14.4928 9.42807 14.4299C7.76819 13.962 5.70213 15.9889 7.60989 18.2207C8.37074 19.2397 10.7079 20.2624 12.0019 20.5226Z" fill="url(#paint55_linear_6898_5229)"/>
<path d="M12.0019 20.5226C12.2023 20.5629 12.405 20.4896 12.5406 20.3367C13.3353 19.4405 14.5784 17.6125 14.6904 15.7429C14.9488 13.2412 12.0717 12.2663 10.8957 14.0433C10.7788 14.2198 10.6289 14.4263 10.5314 14.6088C10.4789 14.707 10.3476 14.7587 10.2455 14.7145C10.0006 14.6086 9.65129 14.4928 9.42807 14.4299C7.76819 13.962 5.70213 15.9889 7.60989 18.2207C8.37074 19.2397 10.7079 20.2624 12.0019 20.5226Z" fill="url(#paint56_radial_6898_5229)"/>
<path d="M12.0019 20.5226C12.2023 20.5629 12.405 20.4896 12.5406 20.3367C13.3353 19.4405 14.5784 17.6125 14.6904 15.7429C14.9488 13.2412 12.0717 12.2663 10.8957 14.0433C10.7788 14.2198 10.6289 14.4263 10.5314 14.6088C10.4789 14.707 10.3476 14.7587 10.2455 14.7145C10.0006 14.6086 9.65129 14.4928 9.42807 14.4299C7.76819 13.962 5.70213 15.9889 7.60989 18.2207C8.37074 19.2397 10.7079 20.2624 12.0019 20.5226Z" fill="url(#paint57_radial_6898_5229)"/>
<path d="M12.0019 20.5226C12.2023 20.5629 12.405 20.4896 12.5406 20.3367C13.3353 19.4405 14.5784 17.6125 14.6904 15.7429C14.9488 13.2412 12.0717 12.2663 10.8957 14.0433C10.7788 14.2198 10.6289 14.4263 10.5314 14.6088C10.4789 14.707 10.3476 14.7587 10.2455 14.7145C10.0006 14.6086 9.65129 14.4928 9.42807 14.4299C7.76819 13.962 5.70213 15.9889 7.60989 18.2207C8.37074 19.2397 10.7079 20.2624 12.0019 20.5226Z" fill="url(#paint58_radial_6898_5229)"/>
<path d="M12.0019 20.5226C12.2023 20.5629 12.405 20.4896 12.5406 20.3367C13.3353 19.4405 14.5784 17.6125 14.6904 15.7429C14.9488 13.2412 12.0717 12.2663 10.8957 14.0433C10.7788 14.2198 10.6289 14.4263 10.5314 14.6088C10.4789 14.707 10.3476 14.7587 10.2455 14.7145C10.0006 14.6086 9.65129 14.4928 9.42807 14.4299C7.76819 13.962 5.70213 15.9889 7.60989 18.2207C8.37074 19.2397 10.7079 20.2624 12.0019 20.5226Z" fill="url(#paint59_radial_6898_5229)"/>
<path d="M12.0019 20.5226C12.2023 20.5629 12.405 20.4896 12.5406 20.3367C13.3353 19.4405 14.5784 17.6125 14.6904 15.7429C14.9488 13.2412 12.0717 12.2663 10.8957 14.0433C10.7788 14.2198 10.6289 14.4263 10.5314 14.6088C10.4789 14.707 10.3476 14.7587 10.2455 14.7145C10.0006 14.6086 9.65129 14.4928 9.42807 14.4299C7.76819 13.962 5.70213 15.9889 7.60989 18.2207C8.37074 19.2397 10.7079 20.2624 12.0019 20.5226Z" fill="url(#paint60_radial_6898_5229)"/>
<path d="M12.0019 20.5226C12.2023 20.5629 12.405 20.4896 12.5406 20.3367C13.3353 19.4405 14.5784 17.6125 14.6904 15.7429C14.9488 13.2412 12.0717 12.2663 10.8957 14.0433C10.7788 14.2198 10.6289 14.4263 10.5314 14.6088C10.4789 14.707 10.3476 14.7587 10.2455 14.7145C10.0006 14.6086 9.65129 14.4928 9.42807 14.4299C7.76819 13.962 5.70213 15.9889 7.60989 18.2207C8.37074 19.2397 10.7079 20.2624 12.0019 20.5226Z" fill="url(#paint61_radial_6898_5229)"/>
<path d="M12.0019 20.5226C12.2023 20.5629 12.405 20.4896 12.5406 20.3367C13.3353 19.4405 14.5784 17.6125 14.6904 15.7429C14.9488 13.2412 12.0717 12.2663 10.8957 14.0433C10.7788 14.2198 10.6289 14.4263 10.5314 14.6088C10.4789 14.707 10.3476 14.7587 10.2455 14.7145C10.0006 14.6086 9.65129 14.4928 9.42807 14.4299C7.76819 13.962 5.70213 15.9889 7.60989 18.2207C8.37074 19.2397 10.7079 20.2624 12.0019 20.5226Z" fill="url(#paint62_radial_6898_5229)"/>
<path d="M12.0019 20.5226C12.2023 20.5629 12.405 20.4896 12.5406 20.3367C13.3353 19.4405 14.5784 17.6125 14.6904 15.7429C14.9488 13.2412 12.0717 12.2663 10.8957 14.0433C10.7788 14.2198 10.6289 14.4263 10.5314 14.6088C10.4789 14.707 10.3476 14.7587 10.2455 14.7145C10.0006 14.6086 9.65129 14.4928 9.42807 14.4299C7.76819 13.962 5.70213 15.9889 7.60989 18.2207C8.37074 19.2397 10.7079 20.2624 12.0019 20.5226Z" fill="url(#paint63_radial_6898_5229)"/>
<path d="M19.5395 20.3274C19.6751 20.4803 19.881 20.544 20.0814 20.5038C21.2556 20.2676 23.3494 19.5582 24.5656 18.1339C26.2797 16.2933 24.5715 13.7813 22.562 14.4905C22.3624 14.5609 22.1183 14.6354 21.9305 14.7222C21.8295 14.7689 21.6935 14.7311 21.6386 14.6342C21.5071 14.4021 21.2981 14.0991 21.1579 13.9144C20.1154 12.5406 17.2451 12.9128 17.4223 15.8434C17.4153 17.1151 18.6638 19.3399 19.5395 20.3274Z" fill="url(#paint64_radial_6898_5229)"/>
<path d="M19.5395 20.3274C19.6751 20.4803 19.881 20.544 20.0814 20.5038C21.2556 20.2676 23.3494 19.5582 24.5656 18.1339C26.2797 16.2933 24.5715 13.7813 22.562 14.4905C22.3624 14.5609 22.1183 14.6354 21.9305 14.7222C21.8295 14.7689 21.6935 14.7311 21.6386 14.6342C21.5071 14.4021 21.2981 14.0991 21.1579 13.9144C20.1154 12.5406 17.2451 12.9128 17.4223 15.8434C17.4153 17.1151 18.6638 19.3399 19.5395 20.3274Z" fill="url(#paint65_radial_6898_5229)"/>
<path d="M19.5395 20.3274C19.6751 20.4803 19.881 20.544 20.0814 20.5038C21.2556 20.2676 23.3494 19.5582 24.5656 18.1339C26.2797 16.2933 24.5715 13.7813 22.562 14.4905C22.3624 14.5609 22.1183 14.6354 21.9305 14.7222C21.8295 14.7689 21.6935 14.7311 21.6386 14.6342C21.5071 14.4021 21.2981 14.0991 21.1579 13.9144C20.1154 12.5406 17.2451 12.9128 17.4223 15.8434C17.4153 17.1151 18.6638 19.3399 19.5395 20.3274Z" fill="url(#paint66_radial_6898_5229)"/>
<path d="M19.5395 20.3274C19.6751 20.4803 19.881 20.544 20.0814 20.5038C21.2556 20.2676 23.3494 19.5582 24.5656 18.1339C26.2797 16.2933 24.5715 13.7813 22.562 14.4905C22.3624 14.5609 22.1183 14.6354 21.9305 14.7222C21.8295 14.7689 21.6935 14.7311 21.6386 14.6342C21.5071 14.4021 21.2981 14.0991 21.1579 13.9144C20.1154 12.5406 17.2451 12.9128 17.4223 15.8434C17.4153 17.1151 18.6638 19.3399 19.5395 20.3274Z" fill="url(#paint67_radial_6898_5229)"/>
<path d="M19.5395 20.3274C19.6751 20.4803 19.881 20.544 20.0814 20.5038C21.2556 20.2676 23.3494 19.5582 24.5656 18.1339C26.2797 16.2933 24.5715 13.7813 22.562 14.4905C22.3624 14.5609 22.1183 14.6354 21.9305 14.7222C21.8295 14.7689 21.6935 14.7311 21.6386 14.6342C21.5071 14.4021 21.2981 14.0991 21.1579 13.9144C20.1154 12.5406 17.2451 12.9128 17.4223 15.8434C17.4153 17.1151 18.6638 19.3399 19.5395 20.3274Z" fill="url(#paint68_linear_6898_5229)"/>
<path d="M19.5395 20.3274C19.6751 20.4803 19.881 20.544 20.0814 20.5038C21.2556 20.2676 23.3494 19.5582 24.5656 18.1339C26.2797 16.2933 24.5715 13.7813 22.562 14.4905C22.3624 14.5609 22.1183 14.6354 21.9305 14.7222C21.8295 14.7689 21.6935 14.7311 21.6386 14.6342C21.5071 14.4021 21.2981 14.0991 21.1579 13.9144C20.1154 12.5406 17.2451 12.9128 17.4223 15.8434C17.4153 17.1151 18.6638 19.3399 19.5395 20.3274Z" fill="url(#paint69_linear_6898_5229)"/>
<path d="M19.5395 20.3274C19.6751 20.4803 19.881 20.544 20.0814 20.5038C21.2556 20.2676 23.3494 19.5582 24.5656 18.1339C26.2797 16.2933 24.5715 13.7813 22.562 14.4905C22.3624 14.5609 22.1183 14.6354 21.9305 14.7222C21.8295 14.7689 21.6935 14.7311 21.6386 14.6342C21.5071 14.4021 21.2981 14.0991 21.1579 13.9144C20.1154 12.5406 17.2451 12.9128 17.4223 15.8434C17.4153 17.1151 18.6638 19.3399 19.5395 20.3274Z" fill="url(#paint70_radial_6898_5229)"/>
<path d="M19.5395 20.3274C19.6751 20.4803 19.881 20.544 20.0814 20.5038C21.2556 20.2676 23.3494 19.5582 24.5656 18.1339C26.2797 16.2933 24.5715 13.7813 22.562 14.4905C22.3624 14.5609 22.1183 14.6354 21.9305 14.7222C21.8295 14.7689 21.6935 14.7311 21.6386 14.6342C21.5071 14.4021 21.2981 14.0991 21.1579 13.9144C20.1154 12.5406 17.2451 12.9128 17.4223 15.8434C17.4153 17.1151 18.6638 19.3399 19.5395 20.3274Z" fill="url(#paint71_radial_6898_5229)"/>
<path d="M19.5395 20.3274C19.6751 20.4803 19.881 20.544 20.0814 20.5038C21.2556 20.2676 23.3494 19.5582 24.5656 18.1339C26.2797 16.2933 24.5715 13.7813 22.562 14.4905C22.3624 14.5609 22.1183 14.6354 21.9305 14.7222C21.8295 14.7689 21.6935 14.7311 21.6386 14.6342C21.5071 14.4021 21.2981 14.0991 21.1579 13.9144C20.1154 12.5406 17.2451 12.9128 17.4223 15.8434C17.4153 17.1151 18.6638 19.3399 19.5395 20.3274Z" fill="url(#paint72_radial_6898_5229)"/>
<path d="M19.5395 20.3274C19.6751 20.4803 19.881 20.544 20.0814 20.5038C21.2556 20.2676 23.3494 19.5582 24.5656 18.1339C26.2797 16.2933 24.5715 13.7813 22.562 14.4905C22.3624 14.5609 22.1183 14.6354 21.9305 14.7222C21.8295 14.7689 21.6935 14.7311 21.6386 14.6342C21.5071 14.4021 21.2981 14.0991 21.1579 13.9144C20.1154 12.5406 17.2451 12.9128 17.4223 15.8434C17.4153 17.1151 18.6638 19.3399 19.5395 20.3274Z" fill="url(#paint73_radial_6898_5229)"/>
<path d="M19.5395 20.3274C19.6751 20.4803 19.881 20.544 20.0814 20.5038C21.2556 20.2676 23.3494 19.5582 24.5656 18.1339C26.2797 16.2933 24.5715 13.7813 22.562 14.4905C22.3624 14.5609 22.1183 14.6354 21.9305 14.7222C21.8295 14.7689 21.6935 14.7311 21.6386 14.6342C21.5071 14.4021 21.2981 14.0991 21.1579 13.9144C20.1154 12.5406 17.2451 12.9128 17.4223 15.8434C17.4153 17.1151 18.6638 19.3399 19.5395 20.3274Z" fill="url(#paint74_radial_6898_5229)"/>
<path d="M19.5395 20.3274C19.6751 20.4803 19.881 20.544 20.0814 20.5038C21.2556 20.2676 23.3494 19.5582 24.5656 18.1339C26.2797 16.2933 24.5715 13.7813 22.562 14.4905C22.3624 14.5609 22.1183 14.6354 21.9305 14.7222C21.8295 14.7689 21.6935 14.7311 21.6386 14.6342C21.5071 14.4021 21.2981 14.0991 21.1579 13.9144C20.1154 12.5406 17.2451 12.9128 17.4223 15.8434C17.4153 17.1151 18.6638 19.3399 19.5395 20.3274Z" fill="url(#paint75_radial_6898_5229)"/>
<path d="M19.5395 20.3274C19.6751 20.4803 19.881 20.544 20.0814 20.5038C21.2556 20.2676 23.3494 19.5582 24.5656 18.1339C26.2797 16.2933 24.5715 13.7813 22.562 14.4905C22.3624 14.5609 22.1183 14.6354 21.9305 14.7222C21.8295 14.7689 21.6935 14.7311 21.6386 14.6342C21.5071 14.4021 21.2981 14.0991 21.1579 13.9144C20.1154 12.5406 17.2451 12.9128 17.4223 15.8434C17.4153 17.1151 18.6638 19.3399 19.5395 20.3274Z" fill="url(#paint76_radial_6898_5229)"/>
<path d="M19.5395 20.3274C19.6751 20.4803 19.881 20.544 20.0814 20.5038C21.2556 20.2676 23.3494 19.5582 24.5656 18.1339C26.2797 16.2933 24.5715 13.7813 22.562 14.4905C22.3624 14.5609 22.1183 14.6354 21.9305 14.7222C21.8295 14.7689 21.6935 14.7311 21.6386 14.6342C21.5071 14.4021 21.2981 14.0991 21.1579 13.9144C20.1154 12.5406 17.2451 12.9128 17.4223 15.8434C17.4153 17.1151 18.6638 19.3399 19.5395 20.3274Z" fill="url(#paint77_radial_6898_5229)"/>
<defs>
<linearGradient id="paint0_linear_6898_5229" x1="7.90668" y1="1.34978" x2="7.90668" y2="30.99" gradientUnits="userSpaceOnUse">
<stop offset="0.288159" stop-color="#FFCE2C"/>
<stop offset="0.762024" stop-color="#F79B22"/>
<stop offset="0.9925" stop-color="#E3821D"/>
<stop offset="1" stop-color="#E3801D"/>
</linearGradient>
<radialGradient id="paint1_radial_6898_5229" cx="0" cy="0" r="1" gradientUnits="userSpaceOnUse" gradientTransform="translate(23.9499 16.7886) rotate(90) scale(10.3023 9.89025)">
<stop stop-color="#FFDE68"/>
<stop offset="1" stop-color="#FFDD68" stop-opacity="0"/>
</radialGradient>
<linearGradient id="paint2_linear_6898_5229" x1="16.4007" y1="13.9648" x2="4" y2="12.2364" gradientUnits="userSpaceOnUse">
<stop stop-color="#E99E20" stop-opacity="0"/>
<stop offset="1" stop-color="#FF9F3D"/>
</linearGradient>
<linearGradient id="paint3_linear_6898_5229" x1="26.7911" y1="12.033" x2="30.245" y2="12.033" gradientUnits="userSpaceOnUse">
<stop stop-color="#E99E20" stop-opacity="0"/>
<stop offset="0.9925" stop-color="#E3821D"/>
<stop offset="1" stop-color="#E3801D"/>
</linearGradient>
<linearGradient id="paint4_linear_6898_5229" x1="16.001" y1="-1.59459" x2="16" y2="30.99" gradientUnits="userSpaceOnUse">
<stop offset="0.77079" stop-color="#F59639" stop-opacity="0"/>
<stop offset="1" stop-color="#FF63C4"/>
</linearGradient>
<linearGradient id="paint5_linear_6898_5229" x1="16" y1="11.2521" x2="16" y2="32.475" gradientUnits="userSpaceOnUse">
<stop offset="0.854227" stop-color="white" stop-opacity="0"/>
<stop offset="0.985362" stop-color="white"/>
</linearGradient>
<radialGradient id="paint6_radial_6898_5229" cx="0" cy="0" r="1" gradientUnits="userSpaceOnUse" gradientTransform="translate(22.1755 4.47688) rotate(55.4547) scale(5.37104 10.6707)">
<stop stop-color="#FFA720"/>
<stop offset="0.921158" stop-color="#FFA720" stop-opacity="0"/>
</radialGradient>
<radialGradient id="paint7_radial_6898_5229" cx="0" cy="0" r="1" gradientUnits="userSpaceOnUse" gradientTransform="translate(3.47479 23.6769) scale(6.09045 8.66347)">
<stop offset="0.260619" stop-color="#C57310" stop-opacity="0.8"/>
<stop offset="0.590058" stop-color="#CB750D" stop-opacity="0.37"/>
<stop offset="0.921158" stop-color="#D77A09" stop-opacity="0"/>
</radialGradient>
<radialGradient id="paint8_radial_6898_5229" cx="0" cy="0" r="1" gradientUnits="userSpaceOnUse" gradientTransform="translate(25.4052 22.6255) rotate(63.9247) scale(0.741389 1.12753)">
<stop offset="0.380208" stop-color="#D77A09"/>
<stop offset="1" stop-color="#D77A09" stop-opacity="0"/>
</radialGradient>
<radialGradient id="paint9_radial_6898_5229" cx="0" cy="0" r="1" gradientUnits="userSpaceOnUse" gradientTransform="translate(27.0729 25.879) rotate(111.218) scale(0.967272 2.82507)">
<stop offset="0.380208" stop-color="#D77A09"/>
<stop offset="1" stop-color="#D77A09" stop-opacity="0"/>
</radialGradient>
<radialGradient id="paint10_radial_6898_5229" cx="0" cy="0" r="1" gradientUnits="userSpaceOnUse" gradientTransform="translate(15.2813 21.4687) rotate(140.08) scale(0.99829 1.31398)">
<stop offset="0.493447" stop-color="#D77A09" stop-opacity="0.5"/>
<stop offset="1" stop-color="#D77A09" stop-opacity="0"/>
</radialGradient>
<radialGradient id="paint11_radial_6898_5229" cx="0" cy="0" r="1" gradientUnits="userSpaceOnUse" gradientTransform="translate(9.35938 18.5469) rotate(-142.75) scale(3.76883 1.92872)">
<stop offset="0.616663" stop-color="#D77A09" stop-opacity="0.7"/>
<stop offset="1" stop-color="#D77A09" stop-opacity="0"/>
</radialGradient>
<radialGradient id="paint12_radial_6898_5229" cx="0" cy="0" r="1" gradientUnits="userSpaceOnUse" gradientTransform="translate(18.7656 18.0625) rotate(-115.145) scale(3.38309 1.42248)">
<stop offset="0.616663" stop-color="#D77A09" stop-opacity="0.7"/>
<stop offset="1" stop-color="#D77A09" stop-opacity="0"/>
</radialGradient>
<radialGradient id="paint13_radial_6898_5229" cx="0" cy="0" r="1" gradientUnits="userSpaceOnUse" gradientTransform="translate(20.4062 19.0312) rotate(-77.4211) scale(1.93712 2.01843)">
<stop offset="0.616663" stop-color="#D77A09" stop-opacity="0.7"/>
<stop offset="1" stop-color="#D77A09" stop-opacity="0"/>
</radialGradient>
<radialGradient id="paint14_radial_6898_5229" cx="0" cy="0" r="1" gradientUnits="userSpaceOnUse" gradientTransform="translate(8.10508 6.83318) rotate(44.113) scale(5.58911 1.56071)">
<stop offset="0.293395" stop-color="#FFDE68"/>
<stop offset="1" stop-color="#FFDD68" stop-opacity="0"/>
</radialGradient>
<radialGradient id="paint15_radial_6898_5229" cx="0" cy="0" r="1" gradientUnits="userSpaceOnUse" gradientTransform="translate(10.4058 8.24278) rotate(-65.2905) scale(3.21524 2.19727)">
<stop offset="0.257229" stop-color="#FFDE68"/>
<stop offset="1" stop-color="#FFDD68" stop-opacity="0"/>
</radialGradient>
<radialGradient id="paint16_radial_6898_5229" cx="0" cy="0" r="1" gradientUnits="userSpaceOnUse" gradientTransform="translate(27.5443 5.76246) rotate(101.957) scale(2.5607 1.41151)">
<stop stop-color="#FFDE68"/>
<stop offset="1" stop-color="#FFDD68" stop-opacity="0"/>
</radialGradient>
<linearGradient id="paint17_linear_6898_5229" x1="10.6023" y1="10.6172" x2="4.74255" y2="10.0703" gradientUnits="userSpaceOnUse">
<stop offset="0.437473" stop-color="#ED8C1B"/>
<stop offset="1" stop-color="#FFB03A"/>
</linearGradient>
<radialGradient id="paint18_radial_6898_5229" cx="0" cy="0" r="1" gradientUnits="userSpaceOnUse" gradientTransform="translate(5.13129 10.3713) scale(0.311177 3.07294)">
<stop stop-color="white" stop-opacity="0.3"/>
<stop offset="1" stop-color="white" stop-opacity="0"/>
</radialGradient>
<radialGradient id="paint19_radial_6898_5229" cx="0" cy="0" r="1" gradientUnits="userSpaceOnUse" gradientTransform="translate(7.66041 12.1316) rotate(46.1691) scale(0.936482 9.24798)">
<stop stop-color="#ED8C1B" stop-opacity="0.8"/>
<stop offset="1" stop-color="#ED8C1B" stop-opacity="0"/>
</radialGradient>
<radialGradient id="paint20_radial_6898_5229" cx="0" cy="0" r="1" gradientUnits="userSpaceOnUse" gradientTransform="translate(7.43558 8.4694) rotate(-49.1362) scale(0.907259 8.9594)">
<stop stop-color="#ED8C1B" stop-opacity="0.5"/>
<stop offset="1" stop-color="#ED8C1B" stop-opacity="0"/>
</radialGradient>
<linearGradient id="paint21_linear_6898_5229" x1="25.2899" y1="22.9453" x2="29.3711" y2="21.0078" gradientUnits="userSpaceOnUse">
<stop offset="0.15625" stop-color="#D64A38"/>
<stop offset="1" stop-color="#FB7425"/>
</linearGradient>
<linearGradient id="paint22_linear_6898_5229" x1="27.3247" y1="21.0378" x2="27.8471" y2="22.1228" gradientUnits="userSpaceOnUse">
<stop stop-color="white" stop-opacity="0"/>
<stop offset="0.520833" stop-color="white" stop-opacity="0.2"/>
<stop offset="1" stop-color="white" stop-opacity="0"/>
</linearGradient>
<radialGradient id="paint23_radial_6898_5229" cx="0" cy="0" r="1" gradientUnits="userSpaceOnUse" gradientTransform="translate(24.9647 22.8374) rotate(-26.8937) scale(1.04481)">
<stop stop-color="#D64A38"/>
<stop offset="1" stop-color="#D64A38" stop-opacity="0"/>
</radialGradient>
<radialGradient id="paint24_radial_6898_5229" cx="0" cy="0" r="1" gradientUnits="userSpaceOnUse" gradientTransform="translate(29.9731 20.5061) rotate(151.353) scale(0.967535)">
<stop stop-color="#FB7425"/>
<stop offset="1" stop-color="#FB7425" stop-opacity="0"/>
</radialGradient>
<radialGradient id="paint25_radial_6898_5229" cx="0" cy="0" r="1" gradientUnits="userSpaceOnUse" gradientTransform="translate(29.4461 20.5037) rotate(125.032) scale(0.468717)">
<stop stop-color="white" stop-opacity="0.3"/>
<stop offset="1" stop-color="white" stop-opacity="0"/>
</radialGradient>
<linearGradient id="paint26_linear_6898_5229" x1="25.0739" y1="24.7097" x2="29.1465" y2="26.6651" gradientUnits="userSpaceOnUse">
<stop offset="0.15625" stop-color="#D64A38"/>
<stop offset="1" stop-color="#FB7425"/>
</linearGradient>
<linearGradient id="paint27_linear_6898_5229" x1="27.8366" y1="25.0927" x2="27.3213" y2="26.1811" gradientUnits="userSpaceOnUse">
<stop stop-color="white" stop-opacity="0"/>
<stop offset="0.520833" stop-color="white" stop-opacity="0.2"/>
<stop offset="1" stop-color="white" stop-opacity="0"/>
</linearGradient>
<radialGradient id="paint28_radial_6898_5229" cx="0" cy="0" r="1" gradientUnits="userSpaceOnUse" gradientTransform="translate(24.9534 24.3889) rotate(24.15) scale(1.04481)">
<stop stop-color="#D64A38"/>
<stop offset="1" stop-color="#D64A38" stop-opacity="0"/>
</radialGradient>
<radialGradient id="paint29_radial_6898_5229" cx="0" cy="0" r="1" gradientUnits="userSpaceOnUse" gradientTransform="translate(29.9152 26.8178) rotate(-157.603) scale(0.967535)">
<stop stop-color="#FB7425"/>
<stop offset="1" stop-color="#FB7425" stop-opacity="0"/>
</radialGradient>
<radialGradient id="paint30_radial_6898_5229" cx="0" cy="0" r="1" gradientUnits="userSpaceOnUse" gradientTransform="translate(29.6005 26.2805) rotate(154.486) scale(0.578723)">
<stop stop-color="white" stop-opacity="0.3"/>
<stop offset="1" stop-color="white" stop-opacity="0"/>
</radialGradient>
<linearGradient id="paint31_linear_6898_5229" x1="7.01786" y1="24.7214" x2="2.94525" y2="26.6768" gradientUnits="userSpaceOnUse">
<stop offset="0.15625" stop-color="#D64A38"/>
<stop offset="1" stop-color="#FB7425"/>
</linearGradient>
<linearGradient id="paint32_linear_6898_5229" x1="4.25522" y1="25.1044" x2="4.77052" y2="26.1928" gradientUnits="userSpaceOnUse">
<stop stop-color="white" stop-opacity="0"/>
<stop offset="0.520833" stop-color="white" stop-opacity="0.2"/>
<stop offset="1" stop-color="white" stop-opacity="0"/>
</linearGradient>
<radialGradient id="paint33_radial_6898_5229" cx="0" cy="0" r="1" gradientUnits="userSpaceOnUse" gradientTransform="translate(7.13839 24.4007) rotate(155.85) scale(1.04481)">
<stop stop-color="#D64A38"/>
<stop offset="1" stop-color="#D64A38" stop-opacity="0"/>
</radialGradient>
<radialGradient id="paint34_radial_6898_5229" cx="0" cy="0" r="1" gradientUnits="userSpaceOnUse" gradientTransform="translate(2.17661 26.8295) rotate(-22.3971) scale(0.967535)">
<stop stop-color="#FB7425"/>
<stop offset="1" stop-color="#FB7425" stop-opacity="0"/>
</radialGradient>
<radialGradient id="paint35_radial_6898_5229" cx="0" cy="0" r="1" gradientUnits="userSpaceOnUse" gradientTransform="translate(6.53878 24.5667) rotate(141.872) scale(0.496749)">
<stop stop-color="white" stop-opacity="0.3"/>
<stop offset="1" stop-color="white" stop-opacity="0"/>
</radialGradient>
<linearGradient id="paint36_linear_6898_5229" x1="6.81819" y1="22.9292" x2="2.7275" y2="21.0119" gradientUnits="userSpaceOnUse">
<stop offset="0.15625" stop-color="#D64A38"/>
<stop offset="1" stop-color="#FB7425"/>
</linearGradient>
<linearGradient id="paint37_linear_6898_5229" x1="4.77403" y1="21.0318" x2="4.25698" y2="22.1194" gradientUnits="userSpaceOnUse">
<stop stop-color="white" stop-opacity="0"/>
<stop offset="0.520833" stop-color="white" stop-opacity="0.2"/>
<stop offset="1" stop-color="white" stop-opacity="0"/>
</linearGradient>
<radialGradient id="paint38_radial_6898_5229" cx="0" cy="0" r="1" gradientUnits="userSpaceOnUse" gradientTransform="translate(7.14282 22.8197) rotate(-153.389) scale(1.04481)">
<stop stop-color="#D64A38"/>
<stop offset="1" stop-color="#D64A38" stop-opacity="0"/>
</radialGradient>
<radialGradient id="paint39_radial_6898_5229" cx="0" cy="0" r="1" gradientUnits="userSpaceOnUse" gradientTransform="translate(2.12305 20.5131) rotate(28.3641) scale(0.967535)">
<stop stop-color="#FB7425"/>
<stop offset="1" stop-color="#FB7425" stop-opacity="0"/>
</radialGradient>
<radialGradient id="paint40_radial_6898_5229" cx="0" cy="0" r="1" gradientUnits="userSpaceOnUse" gradientTransform="translate(6.63491 22.4603) rotate(-167.367) scale(0.496749)">
<stop stop-color="white" stop-opacity="0.3"/>
<stop offset="1" stop-color="white" stop-opacity="0"/>
</radialGradient>
<linearGradient id="paint41_linear_6898_5229" x1="26.5398" y1="15.5078" x2="25.2898" y2="12.0391" gradientUnits="userSpaceOnUse">
<stop stop-color="#EF8A47"/>
<stop offset="1" stop-color="#EF8A47" stop-opacity="0"/>
</linearGradient>
<radialGradient id="paint42_radial_6898_5229" cx="0" cy="0" r="1" gradientUnits="userSpaceOnUse" gradientTransform="translate(24.305 12.1316) rotate(133.831) scale(0.936482 9.24798)">
<stop stop-color="#FFA319"/>
<stop offset="1" stop-color="#FFBA19" stop-opacity="0"/>
</radialGradient>
<radialGradient id="paint43_radial_6898_5229" cx="0" cy="0" r="1" gradientUnits="userSpaceOnUse" gradientTransform="translate(27.2229 10.2812) scale(0.771161 7.6154)">
<stop stop-color="#FF9419"/>
<stop offset="1" stop-color="#FFBA19" stop-opacity="0"/>
</radialGradient>
<radialGradient id="paint44_radial_6898_5229" cx="0" cy="0" r="1" gradientUnits="userSpaceOnUse" gradientTransform="translate(24.5299 8.4694) rotate(-130.864) scale(0.907259 8.9594)">
<stop stop-color="#FF9B19" stop-opacity="0.5"/>
<stop offset="1" stop-color="#FFBA19" stop-opacity="0"/>
</radialGradient>
<radialGradient id="paint45_radial_6898_5229" cx="0" cy="0" r="1" gradientUnits="userSpaceOnUse" gradientTransform="translate(24.9267 11.6233) rotate(-45.7638) scale(0.502944 2.40101)">
<stop stop-color="white" stop-opacity="0.3"/>
<stop offset="1" stop-color="white" stop-opacity="0"/>
</radialGradient>
<radialGradient id="paint46_radial_6898_5229" cx="0" cy="0" r="1" gradientUnits="userSpaceOnUse" gradientTransform="translate(25.1828 8.87328) rotate(-132.184) scale(0.409519 2.45272)">
<stop stop-color="white" stop-opacity="0.2"/>
<stop offset="1" stop-color="white" stop-opacity="0"/>
</radialGradient>
<radialGradient id="paint47_radial_6898_5229" cx="0" cy="0" r="1" gradientUnits="userSpaceOnUse" gradientTransform="translate(16.4461 21.1797) rotate(-153.246) scale(2.11729 2.12981)">
<stop stop-color="#FF2BA3"/>
<stop offset="1" stop-color="#F9326A"/>
</radialGradient>
<radialGradient id="paint48_radial_6898_5229" cx="0" cy="0" r="1" gradientUnits="userSpaceOnUse" gradientTransform="translate(16.5286 20.7017) rotate(90) scale(0.467818 0.822375)">
<stop stop-color="white" stop-opacity="0.5"/>
<stop offset="1" stop-color="white" stop-opacity="0"/>
</radialGradient>
<linearGradient id="paint49_linear_6898_5229" x1="16.0467" y1="27.5225" x2="16.0467" y2="23.1004" gradientUnits="userSpaceOnUse">
<stop stop-color="#E61E27"/>
<stop offset="1" stop-color="#672A7A"/>
</linearGradient>
<radialGradient id="paint50_radial_6898_5229" cx="0" cy="0" r="1" gradientUnits="userSpaceOnUse" gradientTransform="translate(9.0787 11.7187) rotate(70.2075) scale(9.2603 9.53588)">
<stop stop-color="#F12E52"/>
<stop offset="0.67675" stop-color="#FF3B79"/>
<stop offset="1" stop-color="#FF4EC6"/>
</radialGradient>
<radialGradient id="paint51_radial_6898_5229" cx="0" cy="0" r="1" gradientUnits="userSpaceOnUse" gradientTransform="translate(12.5628 14.9536) rotate(124.646) scale(7.54431 14.1312)">
<stop offset="0.483055" stop-color="#B91D43" stop-opacity="0"/>
<stop offset="0.833898" stop-color="#B91D43"/>
</radialGradient>
<radialGradient id="paint52_radial_6898_5229" cx="0" cy="0" r="1" gradientUnits="userSpaceOnUse" gradientTransform="translate(12.3176 16.9822) rotate(-177.004) scale(6.54405 9.25093)">
<stop offset="0.40984" stop-color="#B91D43" stop-opacity="0"/>
<stop offset="0.833898" stop-color="#B91D43"/>
</radialGradient>
<radialGradient id="paint53_radial_6898_5229" cx="0" cy="0" r="1" gradientUnits="userSpaceOnUse" gradientTransform="translate(10.7465 16.2989) rotate(71.6593) scale(5.69548)">
<stop offset="0.671096" stop-color="#FF7AF2" stop-opacity="0"/>
<stop offset="0.933555" stop-color="#FFBCE6"/>
</radialGradient>
<linearGradient id="paint54_linear_6898_5229" x1="11.553" y1="16.734" x2="14.6039" y2="18.6123" gradientUnits="userSpaceOnUse">
<stop offset="0.694491" stop-color="#FF7AF2" stop-opacity="0"/>
<stop offset="0.933555" stop-color="#FFBCE6"/>
</linearGradient>
<linearGradient id="paint55_linear_6898_5229" x1="11.3177" y1="16.9324" x2="9.70926" y2="20.6764" gradientUnits="userSpaceOnUse">
<stop offset="0.694491" stop-color="#FF7AF2" stop-opacity="0"/>
<stop offset="0.933555" stop-color="#FFBCE6"/>
</linearGradient>
<radialGradient id="paint56_radial_6898_5229" cx="0" cy="0" r="1" gradientUnits="userSpaceOnUse" gradientTransform="translate(11.4242 15.7955) rotate(146.277) scale(4.952 5.22975)">
<stop offset="0.802083" stop-color="#FF73A6" stop-opacity="0"/>
<stop offset="1" stop-color="#FF93BA" stop-opacity="0.6"/>
</radialGradient>
<radialGradient id="paint57_radial_6898_5229" cx="0" cy="0" r="1" gradientUnits="userSpaceOnUse" gradientTransform="translate(10.4204 14.8734) rotate(-108.341) scale(3.41142 4.06467)">
<stop stop-color="#FC0D1A" stop-opacity="0.6"/>
<stop offset="0.802083" stop-color="#FC1020" stop-opacity="0"/>
</radialGradient>
<radialGradient id="paint58_radial_6898_5229" cx="0" cy="0" r="1" gradientUnits="userSpaceOnUse" gradientTransform="translate(13.3935 14.0483) rotate(110.886) scale(2.93559 1.93802)">
<stop stop-color="#FF93BA" stop-opacity="0.5"/>
<stop offset="1" stop-color="#FF73A6" stop-opacity="0"/>
</radialGradient>
<radialGradient id="paint59_radial_6898_5229" cx="0" cy="0" r="1" gradientUnits="userSpaceOnUse" gradientTransform="translate(10.0122 16.0248) rotate(27.25) scale(0.949961 0.627146)">
<stop stop-color="#FF93BA" stop-opacity="0.4"/>
<stop offset="1" stop-color="#FF73A6" stop-opacity="0"/>
</radialGradient>
<radialGradient id="paint60_radial_6898_5229" cx="0" cy="0" r="1" gradientUnits="userSpaceOnUse" gradientTransform="translate(12.1532 13.6809) rotate(157.938) scale(0.853528 0.5546)">
<stop stop-color="#FF93BA" stop-opacity="0.3"/>
<stop offset="1" stop-color="#FF73A6" stop-opacity="0"/>
</radialGradient>
<radialGradient id="paint61_radial_6898_5229" cx="0" cy="0" r="1" gradientUnits="userSpaceOnUse" gradientTransform="translate(8.25548 14.9949) rotate(-17.2698) scale(0.741064 0.379149)">
<stop stop-color="#FF93BA" stop-opacity="0.3"/>
<stop offset="1" stop-color="#FF73A6" stop-opacity="0"/>
</radialGradient>
<radialGradient id="paint62_radial_6898_5229" cx="0" cy="0" r="1" gradientUnits="userSpaceOnUse" gradientTransform="translate(11.3306 15.9087) rotate(-108.341) scale(1.66883 0.610112)">
<stop stop-color="#FA1E3A" stop-opacity="0.7"/>
<stop offset="1" stop-color="#FA1E3A" stop-opacity="0"/>
</radialGradient>
<radialGradient id="paint63_radial_6898_5229" cx="0" cy="0" r="1" gradientUnits="userSpaceOnUse" gradientTransform="translate(12.7979 14.8735) rotate(-170.331) scale(1.83016)">
<stop stop-color="#FA1E3A" stop-opacity="0.7"/>
<stop offset="1" stop-color="#FA1E3A" stop-opacity="0"/>
</radialGradient>
<radialGradient id="paint64_radial_6898_5229" cx="0" cy="0" r="1" gradientUnits="userSpaceOnUse" gradientTransform="translate(22.5133 11.5404) rotate(107.273) scale(9.2603 9.53588)">
<stop stop-color="#F12E52"/>
<stop offset="0.67675" stop-color="#FF3B79"/>
<stop offset="1" stop-color="#FF4EC6"/>
</radialGradient>
<radialGradient id="paint65_radial_6898_5229" cx="0" cy="0" r="1" gradientUnits="userSpaceOnUse" gradientTransform="translate(23.3436 16.2217) rotate(161.711) scale(7.54431 14.1312)">
<stop offset="0.483055" stop-color="#B91D43" stop-opacity="0"/>
<stop offset="0.833898" stop-color="#B91D43"/>
</radialGradient>
<radialGradient id="paint66_radial_6898_5229" cx="0" cy="0" r="1" gradientUnits="userSpaceOnUse" gradientTransform="translate(21.9253 17.6926) rotate(-139.939) scale(6.54405 9.25093)">
<stop offset="0.40984" stop-color="#B91D43" stop-opacity="0"/>
<stop offset="0.833898" stop-color="#B91D43"/>
</radialGradient>
<radialGradient id="paint67_radial_6898_5229" cx="0" cy="0" r="1" gradientUnits="userSpaceOnUse" gradientTransform="translate(21.0835 16.2005) rotate(108.724) scale(5.69548)">
<stop offset="0.671096" stop-color="#FF7AF2" stop-opacity="0"/>
<stop offset="0.933555" stop-color="#FFBCE6"/>
</radialGradient>
<linearGradient id="paint68_linear_6898_5229" x1="21.4648" y1="17.0337" x2="22.7671" y2="20.3714" gradientUnits="userSpaceOnUse">
<stop offset="0.694491" stop-color="#FF7AF2" stop-opacity="0"/>
<stop offset="0.933555" stop-color="#FFBCE6"/>
</linearGradient>
<linearGradient id="paint69_linear_6898_5229" x1="21.1575" y1="17.0502" x2="17.6174" y2="19.0683" gradientUnits="userSpaceOnUse">
<stop offset="0.694491" stop-color="#FF7AF2" stop-opacity="0"/>
<stop offset="0.933555" stop-color="#FFBCE6"/>
</linearGradient>
<radialGradient id="paint70_radial_6898_5229" cx="0" cy="0" r="1" gradientUnits="userSpaceOnUse" gradientTransform="translate(21.9277 16.2072) rotate(-176.658) scale(4.952 5.22975)">
<stop offset="0.802083" stop-color="#FF73A6" stop-opacity="0"/>
<stop offset="1" stop-color="#FF93BA" stop-opacity="0.6"/>
</radialGradient>
<radialGradient id="paint71_radial_6898_5229" cx="0" cy="0" r="1" gradientUnits="userSpaceOnUse" gradientTransform="translate(21.6824 14.8664) rotate(-71.2755) scale(3.41142 4.06467)">
<stop stop-color="#FC0D1A" stop-opacity="0.6"/>
<stop offset="0.802083" stop-color="#FC1020" stop-opacity="0"/>
</radialGradient>
<radialGradient id="paint72_radial_6898_5229" cx="0" cy="0" r="1" gradientUnits="userSpaceOnUse" gradientTransform="translate(24.5522 16) rotate(147.951) scale(2.93559 1.93802)">
<stop stop-color="#FF93BA" stop-opacity="0.5"/>
<stop offset="1" stop-color="#FF73A6" stop-opacity="0"/>
</radialGradient>
<radialGradient id="paint73_radial_6898_5229" cx="0" cy="0" r="1" gradientUnits="userSpaceOnUse" gradientTransform="translate(20.6627 15.5391) rotate(64.3152) scale(0.949961 0.627146)">
<stop stop-color="#FF93BA" stop-opacity="0.4"/>
<stop offset="1" stop-color="#FF73A6" stop-opacity="0"/>
</radialGradient>
<radialGradient id="paint74_radial_6898_5229" cx="0" cy="0" r="1" gradientUnits="userSpaceOnUse" gradientTransform="translate(23.7839 14.9592) rotate(-164.997) scale(0.853528 0.5546)">
<stop stop-color="#FF93BA" stop-opacity="0.3"/>
<stop offset="1" stop-color="#FF73A6" stop-opacity="0"/>
</radialGradient>
<radialGradient id="paint75_radial_6898_5229" cx="0" cy="0" r="1" gradientUnits="userSpaceOnUse" gradientTransform="translate(19.8817 13.6585) rotate(19.7953) scale(0.741064 0.379149)">
<stop stop-color="#FF93BA" stop-opacity="0.3"/>
<stop offset="1" stop-color="#FF73A6" stop-opacity="0"/>
</radialGradient>
<radialGradient id="paint76_radial_6898_5229" cx="0" cy="0" r="1" gradientUnits="userSpaceOnUse" gradientTransform="translate(21.7847 16.2411) rotate(-71.2755) scale(1.66883 0.610112)">
<stop stop-color="#FA1E3A" stop-opacity="0.7"/>
<stop offset="1" stop-color="#FA1E3A" stop-opacity="0"/>
</radialGradient>
<radialGradient id="paint77_radial_6898_5229" cx="0" cy="0" r="1" gradientUnits="userSpaceOnUse" gradientTransform="translate(23.5795 16.2995) rotate(-133.266) scale(1.83016)">
<stop stop-color="#FA1E3A" stop-opacity="0.7"/>
<stop offset="1" stop-color="#FA1E3A" stop-opacity="0"/>
</radialGradient>
</defs>
</svg>
