<svg width="32" height="32" viewBox="0 0 32 32" fill="none" xmlns="http://www.w3.org/2000/svg">
<path d="M4 25.942C4 28.1739 5.76327 30 7.91837 30H24.0816C26.2367 30 28 28.0725 28 25.8406V6.4297C28 5.1297 26.4099 4.5297 25.5155 5.4297L20.9736 10H11.1617L6.5 5.4297C5.6 4.5297 4 5.1297 4 6.4297V25.942Z" fill="url(#paint0_linear_6896_5275)"/>
<path d="M4 25.942C4 28.1739 5.76327 30 7.91837 30H24.0816C26.2367 30 28 28.0725 28 25.8406V6.4297C28 5.1297 26.4099 4.5297 25.5155 5.4297L20.9736 10H11.1617L6.5 5.4297C5.6 4.5297 4 5.1297 4 6.4297V25.942Z" fill="url(#paint1_radial_6896_5275)"/>
<path d="M4 25.942C4 28.1739 5.76327 30 7.91837 30H24.0816C26.2367 30 28 28.0725 28 25.8406V6.4297C28 5.1297 26.4099 4.5297 25.5155 5.4297L20.9736 10H11.1617L6.5 5.4297C5.6 4.5297 4 5.1297 4 6.4297V25.942Z" fill="url(#paint2_linear_6896_5275)"/>
<path d="M4 25.942C4 28.1739 5.76327 30 7.91837 30H24.0816C26.2367 30 28 28.0725 28 25.8406V6.4297C28 5.1297 26.4099 4.5297 25.5155 5.4297L20.9736 10H11.1617L6.5 5.4297C5.6 4.5297 4 5.1297 4 6.4297V25.942Z" fill="url(#paint3_linear_6896_5275)"/>
<path d="M4 25.942C4 28.1739 5.76327 30 7.91837 30H24.0816C26.2367 30 28 28.0725 28 25.8406V6.4297C28 5.1297 26.4099 4.5297 25.5155 5.4297L20.9736 10H11.1617L6.5 5.4297C5.6 4.5297 4 5.1297 4 6.4297V25.942Z" fill="url(#paint4_linear_6896_5275)"/>
<path d="M4 25.942C4 28.1739 5.76327 30 7.91837 30H24.0816C26.2367 30 28 28.0725 28 25.8406V6.4297C28 5.1297 26.4099 4.5297 25.5155 5.4297L20.9736 10H11.1617L6.5 5.4297C5.6 4.5297 4 5.1297 4 6.4297V25.942Z" fill="url(#paint5_linear_6896_5275)"/>
<path d="M4 25.942C4 28.1739 5.76327 30 7.91837 30H24.0816C26.2367 30 28 28.0725 28 25.8406V6.4297C28 5.1297 26.4099 4.5297 25.5155 5.4297L20.9736 10H11.1617L6.5 5.4297C5.6 4.5297 4 5.1297 4 6.4297V25.942Z" fill="url(#paint6_radial_6896_5275)"/>
<path d="M4 25.942C4 28.1739 5.76327 30 7.91837 30H24.0816C26.2367 30 28 28.0725 28 25.8406V6.4297C28 5.1297 26.4099 4.5297 25.5155 5.4297L20.9736 10H11.1617L6.5 5.4297C5.6 4.5297 4 5.1297 4 6.4297V25.942Z" fill="url(#paint7_radial_6896_5275)"/>
<path d="M4 25.942C4 28.1739 5.76327 30 7.91837 30H24.0816C26.2367 30 28 28.0725 28 25.8406V6.4297C28 5.1297 26.4099 4.5297 25.5155 5.4297L20.9736 10H11.1617L6.5 5.4297C5.6 4.5297 4 5.1297 4 6.4297V25.942Z" fill="url(#paint8_radial_6896_5275)"/>
<path d="M4 25.942C4 28.1739 5.76327 30 7.91837 30H24.0816C26.2367 30 28 28.0725 28 25.8406V6.4297C28 5.1297 26.4099 4.5297 25.5155 5.4297L20.9736 10H11.1617L6.5 5.4297C5.6 4.5297 4 5.1297 4 6.4297V25.942Z" fill="url(#paint9_radial_6896_5275)"/>
<path d="M4 25.942C4 28.1739 5.76327 30 7.91837 30H24.0816C26.2367 30 28 28.0725 28 25.8406V6.4297C28 5.1297 26.4099 4.5297 25.5155 5.4297L20.9736 10H11.1617L6.5 5.4297C5.6 4.5297 4 5.1297 4 6.4297V25.942Z" fill="url(#paint10_radial_6896_5275)"/>
<path d="M4 25.942C4 28.1739 5.76327 30 7.91837 30H24.0816C26.2367 30 28 28.0725 28 25.8406V6.4297C28 5.1297 26.4099 4.5297 25.5155 5.4297L20.9736 10H11.1617L6.5 5.4297C5.6 4.5297 4 5.1297 4 6.4297V25.942Z" fill="url(#paint11_radial_6896_5275)"/>
<path d="M4 25.942C4 28.1739 5.76327 30 7.91837 30H24.0816C26.2367 30 28 28.0725 28 25.8406V6.4297C28 5.1297 26.4099 4.5297 25.5155 5.4297L20.9736 10H11.1617L6.5 5.4297C5.6 4.5297 4 5.1297 4 6.4297V25.942Z" fill="url(#paint12_radial_6896_5275)"/>
<path d="M4 25.942C4 28.1739 5.76327 30 7.91837 30H24.0816C26.2367 30 28 28.0725 28 25.8406V6.4297C28 5.1297 26.4099 4.5297 25.5155 5.4297L20.9736 10H11.1617L6.5 5.4297C5.6 4.5297 4 5.1297 4 6.4297V25.942Z" fill="url(#paint13_radial_6896_5275)"/>
<path d="M4 25.942C4 28.1739 5.76327 30 7.91837 30H24.0816C26.2367 30 28 28.0725 28 25.8406V6.4297C28 5.1297 26.4099 4.5297 25.5155 5.4297L20.9736 10H11.1617L6.5 5.4297C5.6 4.5297 4 5.1297 4 6.4297V25.942Z" fill="url(#paint14_radial_6896_5275)"/>
<path d="M4 25.942C4 28.1739 5.76327 30 7.91837 30H24.0816C26.2367 30 28 28.0725 28 25.8406V6.4297C28 5.1297 26.4099 4.5297 25.5155 5.4297L20.9736 10H11.1617L6.5 5.4297C5.6 4.5297 4 5.1297 4 6.4297V25.942Z" fill="url(#paint15_radial_6896_5275)"/>
<path d="M4 25.942C4 28.1739 5.76327 30 7.91837 30H24.0816C26.2367 30 28 28.0725 28 25.8406V6.4297C28 5.1297 26.4099 4.5297 25.5155 5.4297L20.9736 10H11.1617L6.5 5.4297C5.6 4.5297 4 5.1297 4 6.4297V25.942Z" fill="url(#paint16_radial_6896_5275)"/>
<path d="M6.13255 13.5034L8.93255 10.9034C9.25255 10.6034 9.25255 10.1234 8.93255 9.83344L5.91787 7.15626C5.53505 6.82032 4.74255 6.9297 4.74255 7.76344V12.9634C4.74255 13.7969 5.62255 13.9834 6.13255 13.5034Z" fill="url(#paint17_linear_6896_5275)"/>
<path d="M6.13255 13.5034L8.93255 10.9034C9.25255 10.6034 9.25255 10.1234 8.93255 9.83344L5.91787 7.15626C5.53505 6.82032 4.74255 6.9297 4.74255 7.76344V12.9634C4.74255 13.7969 5.62255 13.9834 6.13255 13.5034Z" fill="#FBA430"/>
<path d="M6.13255 13.5034L8.93255 10.9034C9.25255 10.6034 9.25255 10.1234 8.93255 9.83344L5.91787 7.15626C5.53505 6.82032 4.74255 6.9297 4.74255 7.76344V12.9634C4.74255 13.7969 5.62255 13.9834 6.13255 13.5034Z" fill="url(#paint18_radial_6896_5275)"/>
<path d="M6.13255 13.5034L8.93255 10.9034C9.25255 10.6034 9.25255 10.1234 8.93255 9.83344L5.91787 7.15626C5.53505 6.82032 4.74255 6.9297 4.74255 7.76344V12.9634C4.74255 13.7969 5.62255 13.9834 6.13255 13.5034Z" fill="url(#paint19_radial_6896_5275)"/>
<path d="M6.13255 13.5034L8.93255 10.9034C9.25255 10.6034 9.25255 10.1234 8.93255 9.83344L5.91787 7.15626C5.53505 6.82032 4.74255 6.9297 4.74255 7.76344V12.9634C4.74255 13.7969 5.62255 13.9834 6.13255 13.5034Z" fill="url(#paint20_radial_6896_5275)"/>
<path fill-rule="evenodd" clip-rule="evenodd" d="M29.9128 20.4685C30.0553 20.7677 29.9283 21.1257 29.6292 21.2682L25.8245 23.0807C25.5253 23.2232 25.1673 23.0962 25.0247 22.7971C24.8822 22.4979 25.0092 22.1399 25.3084 21.9974L29.1131 20.1849C29.4122 20.0424 29.7703 20.1693 29.9128 20.4685Z" fill="url(#paint21_linear_6896_5275)"/>
<path fill-rule="evenodd" clip-rule="evenodd" d="M29.9128 20.4685C30.0553 20.7677 29.9283 21.1257 29.6292 21.2682L25.8245 23.0807C25.5253 23.2232 25.1673 23.0962 25.0247 22.7971C24.8822 22.4979 25.0092 22.1399 25.3084 21.9974L29.1131 20.1849C29.4122 20.0424 29.7703 20.1693 29.9128 20.4685Z" fill="url(#paint22_linear_6896_5275)"/>
<path fill-rule="evenodd" clip-rule="evenodd" d="M29.9128 20.4685C30.0553 20.7677 29.9283 21.1257 29.6292 21.2682L25.8245 23.0807C25.5253 23.2232 25.1673 23.0962 25.0247 22.7971C24.8822 22.4979 25.0092 22.1399 25.3084 21.9974L29.1131 20.1849C29.4122 20.0424 29.7703 20.1693 29.9128 20.4685Z" fill="url(#paint23_radial_6896_5275)"/>
<path fill-rule="evenodd" clip-rule="evenodd" d="M29.9128 20.4685C30.0553 20.7677 29.9283 21.1257 29.6292 21.2682L25.8245 23.0807C25.5253 23.2232 25.1673 23.0962 25.0247 22.7971C24.8822 22.4979 25.0092 22.1399 25.3084 21.9974L29.1131 20.1849C29.4122 20.0424 29.7703 20.1693 29.9128 20.4685Z" fill="url(#paint24_radial_6896_5275)"/>
<path fill-rule="evenodd" clip-rule="evenodd" d="M29.9128 20.4685C30.0553 20.7677 29.9283 21.1257 29.6292 21.2682L25.8245 23.0807C25.5253 23.2232 25.1673 23.0962 25.0247 22.7971C24.8822 22.4979 25.0092 22.1399 25.3084 21.9974L29.1131 20.1849C29.4122 20.0424 29.7703 20.1693 29.9128 20.4685Z" fill="url(#paint25_radial_6896_5275)"/>
<path fill-rule="evenodd" clip-rule="evenodd" d="M29.9065 26.7473C29.7635 27.0462 29.4052 27.1726 29.1063 27.0295L25.3047 25.2105C25.0058 25.0674 24.8794 24.7092 25.0225 24.4103C25.1655 24.1114 25.5238 23.985 25.8227 24.128L29.6242 25.9471C29.9231 26.0901 30.0495 26.4484 29.9065 26.7473Z" fill="url(#paint26_linear_6896_5275)"/>
<path fill-rule="evenodd" clip-rule="evenodd" d="M29.9065 26.7473C29.7635 27.0462 29.4052 27.1726 29.1063 27.0295L25.3047 25.2105C25.0058 25.0674 24.8794 24.7092 25.0225 24.4103C25.1655 24.1114 25.5238 23.985 25.8227 24.128L29.6242 25.9471C29.9231 26.0901 30.0495 26.4484 29.9065 26.7473Z" fill="url(#paint27_linear_6896_5275)"/>
<path fill-rule="evenodd" clip-rule="evenodd" d="M29.9065 26.7473C29.7635 27.0462 29.4052 27.1726 29.1063 27.0295L25.3047 25.2105C25.0058 25.0674 24.8794 24.7092 25.0225 24.4103C25.1655 24.1114 25.5238 23.985 25.8227 24.128L29.6242 25.9471C29.9231 26.0901 30.0495 26.4484 29.9065 26.7473Z" fill="url(#paint28_radial_6896_5275)"/>
<path fill-rule="evenodd" clip-rule="evenodd" d="M29.9065 26.7473C29.7635 27.0462 29.4052 27.1726 29.1063 27.0295L25.3047 25.2105C25.0058 25.0674 24.8794 24.7092 25.0225 24.4103C25.1655 24.1114 25.5238 23.985 25.8227 24.128L29.6242 25.9471C29.9231 26.0901 30.0495 26.4484 29.9065 26.7473Z" fill="url(#paint29_radial_6896_5275)"/>
<path fill-rule="evenodd" clip-rule="evenodd" d="M29.9065 26.7473C29.7635 27.0462 29.4052 27.1726 29.1063 27.0295L25.3047 25.2105C25.0058 25.0674 24.8794 24.7092 25.0225 24.4103C25.1655 24.1114 25.5238 23.985 25.8227 24.128L29.6242 25.9471C29.9231 26.0901 30.0495 26.4484 29.9065 26.7473Z" fill="url(#paint30_radial_6896_5275)"/>
<path fill-rule="evenodd" clip-rule="evenodd" d="M2.18531 26.759C2.32834 27.0579 2.68661 27.1843 2.98552 27.0412L6.78708 25.2222C7.08599 25.0792 7.21236 24.7209 7.06933 24.422C6.9263 24.1231 6.56804 23.9967 6.26912 24.1397L2.46756 25.9588C2.16865 26.1018 2.04228 26.4601 2.18531 26.759Z" fill="url(#paint31_linear_6896_5275)"/>
<path fill-rule="evenodd" clip-rule="evenodd" d="M2.18531 26.759C2.32834 27.0579 2.68661 27.1843 2.98552 27.0412L6.78708 25.2222C7.08599 25.0792 7.21236 24.7209 7.06933 24.422C6.9263 24.1231 6.56804 23.9967 6.26912 24.1397L2.46756 25.9588C2.16865 26.1018 2.04228 26.4601 2.18531 26.759Z" fill="url(#paint32_linear_6896_5275)"/>
<path fill-rule="evenodd" clip-rule="evenodd" d="M2.18531 26.759C2.32834 27.0579 2.68661 27.1843 2.98552 27.0412L6.78708 25.2222C7.08599 25.0792 7.21236 24.7209 7.06933 24.422C6.9263 24.1231 6.56804 23.9967 6.26912 24.1397L2.46756 25.9588C2.16865 26.1018 2.04228 26.4601 2.18531 26.759Z" fill="url(#paint33_radial_6896_5275)"/>
<path fill-rule="evenodd" clip-rule="evenodd" d="M2.18531 26.759C2.32834 27.0579 2.68661 27.1843 2.98552 27.0412L6.78708 25.2222C7.08599 25.0792 7.21236 24.7209 7.06933 24.422C6.9263 24.1231 6.56804 23.9967 6.26912 24.1397L2.46756 25.9588C2.16865 26.1018 2.04228 26.4601 2.18531 26.759Z" fill="url(#paint34_radial_6896_5275)"/>
<path fill-rule="evenodd" clip-rule="evenodd" d="M2.18531 26.759C2.32834 27.0579 2.68661 27.1843 2.98552 27.0412L6.78708 25.2222C7.08599 25.0792 7.21236 24.7209 7.06933 24.422C6.9263 24.1231 6.56804 23.9967 6.26912 24.1397L2.46756 25.9588C2.16865 26.1018 2.04228 26.4601 2.18531 26.759Z" fill="url(#paint35_radial_6896_5275)"/>
<path fill-rule="evenodd" clip-rule="evenodd" d="M2.18317 20.4752C2.04213 20.7751 2.17088 21.1325 2.47074 21.2735L6.28431 23.0673C6.58417 23.2083 6.94159 23.0796 7.08263 22.7797C7.22367 22.4798 7.09492 22.1224 6.79506 21.9814L2.98149 20.1877C2.68163 20.0466 2.32421 20.1754 2.18317 20.4752Z" fill="url(#paint36_linear_6896_5275)"/>
<path fill-rule="evenodd" clip-rule="evenodd" d="M2.18317 20.4752C2.04213 20.7751 2.17088 21.1325 2.47074 21.2735L6.28431 23.0673C6.58417 23.2083 6.94159 23.0796 7.08263 22.7797C7.22367 22.4798 7.09492 22.1224 6.79506 21.9814L2.98149 20.1877C2.68163 20.0466 2.32421 20.1754 2.18317 20.4752Z" fill="url(#paint37_linear_6896_5275)"/>
<path fill-rule="evenodd" clip-rule="evenodd" d="M2.18317 20.4752C2.04213 20.7751 2.17088 21.1325 2.47074 21.2735L6.28431 23.0673C6.58417 23.2083 6.94159 23.0796 7.08263 22.7797C7.22367 22.4798 7.09492 22.1224 6.79506 21.9814L2.98149 20.1877C2.68163 20.0466 2.32421 20.1754 2.18317 20.4752Z" fill="url(#paint38_radial_6896_5275)"/>
<path fill-rule="evenodd" clip-rule="evenodd" d="M2.18317 20.4752C2.04213 20.7751 2.17088 21.1325 2.47074 21.2735L6.28431 23.0673C6.58417 23.2083 6.94159 23.0796 7.08263 22.7797C7.22367 22.4798 7.09492 22.1224 6.79506 21.9814L2.98149 20.1877C2.68163 20.0466 2.32421 20.1754 2.18317 20.4752Z" fill="url(#paint39_radial_6896_5275)"/>
<path fill-rule="evenodd" clip-rule="evenodd" d="M2.18317 20.4752C2.04213 20.7751 2.17088 21.1325 2.47074 21.2735L6.28431 23.0673C6.58417 23.2083 6.94159 23.0796 7.08263 22.7797C7.22367 22.4798 7.09492 22.1224 6.79506 21.9814L2.98149 20.1877C2.68163 20.0466 2.32421 20.1754 2.18317 20.4752Z" fill="url(#paint40_radial_6896_5275)"/>
<path d="M25.8329 13.5034L23.0329 10.9034C22.7129 10.6034 22.7129 10.1234 23.0329 9.83344L26.0476 7.15626C26.4304 6.82032 27.2229 6.9297 27.2229 7.76344V12.9634C27.2229 13.7969 26.3429 13.9834 25.8329 13.5034Z" fill="#FFCD45"/>
<path d="M25.8329 13.5034L23.0329 10.9034C22.7129 10.6034 22.7129 10.1234 23.0329 9.83344L26.0476 7.15626C26.4304 6.82032 27.2229 6.9297 27.2229 7.76344V12.9634C27.2229 13.7969 26.3429 13.9834 25.8329 13.5034Z" fill="url(#paint41_linear_6896_5275)"/>
<path d="M25.8329 13.5034L23.0329 10.9034C22.7129 10.6034 22.7129 10.1234 23.0329 9.83344L26.0476 7.15626C26.4304 6.82032 27.2229 6.9297 27.2229 7.76344V12.9634C27.2229 13.7969 26.3429 13.9834 25.8329 13.5034Z" fill="url(#paint42_radial_6896_5275)"/>
<path d="M25.8329 13.5034L23.0329 10.9034C22.7129 10.6034 22.7129 10.1234 23.0329 9.83344L26.0476 7.15626C26.4304 6.82032 27.2229 6.9297 27.2229 7.76344V12.9634C27.2229 13.7969 26.3429 13.9834 25.8329 13.5034Z" fill="url(#paint43_radial_6896_5275)"/>
<path d="M25.8329 13.5034L23.0329 10.9034C22.7129 10.6034 22.7129 10.1234 23.0329 9.83344L26.0476 7.15626C26.4304 6.82032 27.2229 6.9297 27.2229 7.76344V12.9634C27.2229 13.7969 26.3429 13.9834 25.8329 13.5034Z" fill="url(#paint44_radial_6896_5275)"/>
<path d="M25.8329 13.5034L23.0329 10.9034C22.7129 10.6034 22.7129 10.1234 23.0329 9.83344L26.0476 7.15626C26.4304 6.82032 27.2229 6.9297 27.2229 7.76344V12.9634C27.2229 13.7969 26.3429 13.9834 25.8329 13.5034Z" fill="url(#paint45_radial_6896_5275)"/>
<path d="M25.8329 13.5034L23.0329 10.9034C22.7129 10.6034 22.7129 10.1234 23.0329 9.83344L26.0476 7.15626C26.4304 6.82032 27.2229 6.9297 27.2229 7.76344V12.9634C27.2229 13.7969 26.3429 13.9834 25.8329 13.5034Z" fill="url(#paint46_radial_6896_5275)"/>
<path d="M15.2265 16.0705L15.2908 16.0555C15.7644 15.945 16.2577 15.9501 16.7289 16.0705C17.25 16.1686 17.561 16.7659 17.121 17.1959L16.5703 17.7975C16.3003 18.0675 15.7075 18.0675 15.4375 17.7975L14.8945 17.1959C14.4453 16.6881 14.7265 16.1803 15.2265 16.0705Z" fill="url(#paint47_radial_6896_5275)"/>
<path d="M15.2265 16.0705L15.2908 16.0555C15.7644 15.945 16.2577 15.9501 16.7289 16.0705C17.25 16.1686 17.561 16.7659 17.121 17.1959L16.5703 17.7975C16.3003 18.0675 15.7075 18.0675 15.4375 17.7975L14.8945 17.1959C14.4453 16.6881 14.7265 16.1803 15.2265 16.0705Z" fill="url(#paint48_radial_6896_5275)" fill-opacity="0.8"/>
<path d="M20.418 18.9186C20.418 21.3586 18.4361 23.2545 15.9961 23.2545C13.5561 23.2545 11.6836 21.3117 11.6836 18.8717C11.6836 18.8717 13.4883 21.0045 15.9961 18.8717C18.3477 20.9498 20.418 18.9186 20.418 18.9186Z" fill="url(#paint49_linear_6896_5275)"/>
<path fill-rule="evenodd" clip-rule="evenodd" d="M21.5865 15.596C20.7168 14.8753 19.7819 15.2535 19.4694 15.5972C19.2651 15.822 18.9172 15.8385 18.6925 15.6342C18.4677 15.4299 18.4512 15.082 18.6555 14.8573C19.2805 14.1697 20.8768 13.5792 22.2884 14.7491C22.5223 14.9429 22.5548 15.2896 22.3609 15.5235C22.1671 15.7574 21.8204 15.7899 21.5865 15.596Z" fill="url(#paint50_radial_6896_5275)"/>
<path fill-rule="evenodd" clip-rule="evenodd" d="M21.5865 15.596C20.7168 14.8753 19.7819 15.2535 19.4694 15.5972C19.2651 15.822 18.9172 15.8385 18.6925 15.6342C18.4677 15.4299 18.4512 15.082 18.6555 14.8573C19.2805 14.1697 20.8768 13.5792 22.2884 14.7491C22.5223 14.9429 22.5548 15.2896 22.3609 15.5235C22.1671 15.7574 21.8204 15.7899 21.5865 15.596Z" fill="url(#paint51_linear_6896_5275)"/>
<path fill-rule="evenodd" clip-rule="evenodd" d="M12.4615 16.2628C11.5918 15.542 10.6569 15.9203 10.3444 16.264C10.1401 16.4887 9.79225 16.5053 9.56748 16.301C9.34272 16.0966 9.32616 15.7488 9.53049 15.524C10.1555 14.8365 11.7518 14.246 13.1634 15.4158C13.3973 15.6097 13.4298 15.9564 13.2359 16.1903C13.0421 16.4241 12.6954 16.4566 12.4615 16.2628Z" fill="url(#paint52_radial_6896_5275)"/>
<path fill-rule="evenodd" clip-rule="evenodd" d="M12.4615 16.2628C11.5918 15.542 10.6569 15.9203 10.3444 16.264C10.1401 16.4887 9.79225 16.5053 9.56748 16.301C9.34272 16.0966 9.32616 15.7488 9.53049 15.524C10.1555 14.8365 11.7518 14.246 13.1634 15.4158C13.3973 15.6097 13.4298 15.9564 13.2359 16.1903C13.0421 16.4241 12.6954 16.4566 12.4615 16.2628Z" fill="url(#paint53_radial_6896_5275)"/>
<path fill-rule="evenodd" clip-rule="evenodd" d="M12.5865 15.596C11.7168 14.8753 10.7819 15.2535 10.4694 15.5972C10.2651 15.822 9.91725 15.8385 9.69248 15.6342C9.46772 15.4299 9.45116 15.082 9.65549 14.8573C10.2805 14.1697 11.8768 13.5792 13.2884 14.7491C13.5223 14.9429 13.5548 15.2896 13.3609 15.5235C13.1671 15.7574 12.8204 15.7899 12.5865 15.596Z" fill="url(#paint54_radial_6896_5275)"/>
<path fill-rule="evenodd" clip-rule="evenodd" d="M12.5865 15.596C11.7168 14.8753 10.7819 15.2535 10.4694 15.5972C10.2651 15.822 9.91725 15.8385 9.69248 15.6342C9.46772 15.4299 9.45116 15.082 9.65549 14.8573C10.2805 14.1697 11.8768 13.5792 13.2884 14.7491C13.5223 14.9429 13.5548 15.2896 13.3609 15.5235C13.1671 15.7574 12.8204 15.7899 12.5865 15.596Z" fill="url(#paint55_linear_6896_5275)"/>
<path d="M9.04492 18.9688L5.67512 22.3386C4.79756 23.2161 3.35739 23.1562 2.55573 22.2088C1.84308 21.3666 1.89499 20.1187 2.67512 19.3386L6.04492 15.9687C6.87335 15.1403 8.2165 15.1403 9.04492 15.9688C9.87335 16.7972 9.87335 18.1403 9.04492 18.9688Z" fill="url(#paint56_radial_6896_5275)"/>
<path d="M9.04492 18.9688L5.67512 22.3386C4.79756 23.2161 3.35739 23.1562 2.55573 22.2088C1.84308 21.3666 1.89499 20.1187 2.67512 19.3386L6.04492 15.9687C6.87335 15.1403 8.2165 15.1403 9.04492 15.9688C9.87335 16.7972 9.87335 18.1403 9.04492 18.9688Z" fill="url(#paint57_radial_6896_5275)"/>
<path d="M9.04492 18.9688L5.67512 22.3386C4.79756 23.2161 3.35739 23.1562 2.55573 22.2088C1.84308 21.3666 1.89499 20.1187 2.67512 19.3386L6.04492 15.9687C6.87335 15.1403 8.2165 15.1403 9.04492 15.9688C9.87335 16.7972 9.87335 18.1403 9.04492 18.9688Z" fill="url(#paint58_radial_6896_5275)"/>
<path d="M22.9551 18.8076L26.3249 22.1774C27.2024 23.0549 28.6426 22.995 29.4443 22.0476C30.1569 21.2054 30.105 19.9575 29.3249 19.1774L25.9551 15.8076C25.1267 14.9791 23.7835 14.9791 22.9551 15.8076C22.1267 16.636 22.1267 17.9791 22.9551 18.8076Z" fill="url(#paint59_radial_6896_5275)"/>
<defs>
<linearGradient id="paint0_linear_6896_5275" x1="7.90668" y1="1.34978" x2="7.90668" y2="30.99" gradientUnits="userSpaceOnUse">
<stop offset="0.288159" stop-color="#FFCE2C"/>
<stop offset="0.762024" stop-color="#F79B22"/>
<stop offset="0.9925" stop-color="#E3821D"/>
<stop offset="1" stop-color="#E3801D"/>
</linearGradient>
<radialGradient id="paint1_radial_6896_5275" cx="0" cy="0" r="1" gradientUnits="userSpaceOnUse" gradientTransform="translate(23.9499 16.7886) rotate(90) scale(10.3023 9.89025)">
<stop stop-color="#FFDE68"/>
<stop offset="1" stop-color="#FFDD68" stop-opacity="0"/>
</radialGradient>
<linearGradient id="paint2_linear_6896_5275" x1="16.4007" y1="13.9648" x2="4" y2="12.2364" gradientUnits="userSpaceOnUse">
<stop stop-color="#E99E20" stop-opacity="0"/>
<stop offset="1" stop-color="#FF9F3D"/>
</linearGradient>
<linearGradient id="paint3_linear_6896_5275" x1="26.7911" y1="12.033" x2="30.245" y2="12.033" gradientUnits="userSpaceOnUse">
<stop stop-color="#E99E20" stop-opacity="0"/>
<stop offset="0.9925" stop-color="#E3821D"/>
<stop offset="1" stop-color="#E3801D"/>
</linearGradient>
<linearGradient id="paint4_linear_6896_5275" x1="16.001" y1="-1.59459" x2="16" y2="30.99" gradientUnits="userSpaceOnUse">
<stop offset="0.77079" stop-color="#F59639" stop-opacity="0"/>
<stop offset="1" stop-color="#FF63C4"/>
</linearGradient>
<linearGradient id="paint5_linear_6896_5275" x1="16" y1="11.2521" x2="16" y2="32.475" gradientUnits="userSpaceOnUse">
<stop offset="0.854227" stop-color="white" stop-opacity="0"/>
<stop offset="0.985362" stop-color="white"/>
</linearGradient>
<radialGradient id="paint6_radial_6896_5275" cx="0" cy="0" r="1" gradientUnits="userSpaceOnUse" gradientTransform="translate(22.1755 4.47688) rotate(55.4547) scale(5.37104 10.6707)">
<stop stop-color="#FFA720"/>
<stop offset="0.921158" stop-color="#FFA720" stop-opacity="0"/>
</radialGradient>
<radialGradient id="paint7_radial_6896_5275" cx="0" cy="0" r="1" gradientUnits="userSpaceOnUse" gradientTransform="translate(3.47479 23.6769) rotate(-0.93173) scale(7.37772 10.4946)">
<stop offset="0.260619" stop-color="#C57310" stop-opacity="0.8"/>
<stop offset="0.590058" stop-color="#CB750D" stop-opacity="0.37"/>
<stop offset="0.921158" stop-color="#D77A09" stop-opacity="0"/>
</radialGradient>
<radialGradient id="paint8_radial_6896_5275" cx="0" cy="0" r="1" gradientUnits="userSpaceOnUse" gradientTransform="translate(25.4052 22.6255) rotate(63.9247) scale(0.741389 1.12753)">
<stop offset="0.380208" stop-color="#D77A09"/>
<stop offset="1" stop-color="#D77A09" stop-opacity="0"/>
</radialGradient>
<radialGradient id="paint9_radial_6896_5275" cx="0" cy="0" r="1" gradientUnits="userSpaceOnUse" gradientTransform="translate(27.0729 25.879) rotate(111.218) scale(0.967272 2.82507)">
<stop offset="0.380208" stop-color="#D77A09"/>
<stop offset="1" stop-color="#D77A09" stop-opacity="0"/>
</radialGradient>
<radialGradient id="paint10_radial_6896_5275" cx="0" cy="0" r="1" gradientUnits="userSpaceOnUse" gradientTransform="translate(15.5469 17.1875) rotate(117.324) scale(1.05524 1.38893)">
<stop offset="0.500736" stop-color="#D77A09" stop-opacity="0.5"/>
<stop offset="1" stop-color="#D77A09" stop-opacity="0"/>
</radialGradient>
<radialGradient id="paint11_radial_6896_5275" cx="0" cy="0" r="1" gradientUnits="userSpaceOnUse" gradientTransform="translate(5.15316 21.59) rotate(-45.3016) scale(3.10142 1.25798)">
<stop offset="0.616663" stop-color="#D77A09" stop-opacity="0.7"/>
<stop offset="1" stop-color="#D77A09" stop-opacity="0"/>
</radialGradient>
<radialGradient id="paint12_radial_6896_5275" cx="0" cy="0" r="1" gradientUnits="userSpaceOnUse" gradientTransform="translate(24.5806 20.3174) rotate(-135.11) scale(3.99205 2.21455)">
<stop offset="0.302083" stop-color="#C87732"/>
<stop offset="1" stop-color="#D77A09" stop-opacity="0"/>
</radialGradient>
<radialGradient id="paint13_radial_6896_5275" cx="0" cy="0" r="1" gradientUnits="userSpaceOnUse" gradientTransform="translate(25.5 21.5) rotate(-131.634) scale(6.0208 5.23638)">
<stop stop-color="#D77A09" stop-opacity="0.9"/>
<stop offset="1" stop-color="#D77A09" stop-opacity="0"/>
</radialGradient>
<radialGradient id="paint14_radial_6896_5275" cx="0" cy="0" r="1" gradientUnits="userSpaceOnUse" gradientTransform="translate(8.10508 6.83318) rotate(44.113) scale(5.58911 1.56071)">
<stop offset="0.293395" stop-color="#FFDE68"/>
<stop offset="1" stop-color="#FFDD68" stop-opacity="0"/>
</radialGradient>
<radialGradient id="paint15_radial_6896_5275" cx="0" cy="0" r="1" gradientUnits="userSpaceOnUse" gradientTransform="translate(10.4058 8.24278) rotate(-65.2905) scale(3.21524 2.19727)">
<stop offset="0.257229" stop-color="#FFDE68"/>
<stop offset="1" stop-color="#FFDD68" stop-opacity="0"/>
</radialGradient>
<radialGradient id="paint16_radial_6896_5275" cx="0" cy="0" r="1" gradientUnits="userSpaceOnUse" gradientTransform="translate(27.5443 5.76246) rotate(101.957) scale(2.5607 1.41151)">
<stop stop-color="#FFDE68"/>
<stop offset="1" stop-color="#FFDD68" stop-opacity="0"/>
</radialGradient>
<linearGradient id="paint17_linear_6896_5275" x1="10.6023" y1="10.6172" x2="4.74255" y2="10.0703" gradientUnits="userSpaceOnUse">
<stop offset="0.437473" stop-color="#ED8C1B"/>
<stop offset="1" stop-color="#FFB03A"/>
</linearGradient>
<radialGradient id="paint18_radial_6896_5275" cx="0" cy="0" r="1" gradientUnits="userSpaceOnUse" gradientTransform="translate(5.13129 10.3713) scale(0.311177 3.07294)">
<stop stop-color="white" stop-opacity="0.3"/>
<stop offset="1" stop-color="white" stop-opacity="0"/>
</radialGradient>
<radialGradient id="paint19_radial_6896_5275" cx="0" cy="0" r="1" gradientUnits="userSpaceOnUse" gradientTransform="translate(7.66041 12.1316) rotate(46.1691) scale(0.936482 9.24798)">
<stop stop-color="#ED8C1B" stop-opacity="0.8"/>
<stop offset="1" stop-color="#ED8C1B" stop-opacity="0"/>
</radialGradient>
<radialGradient id="paint20_radial_6896_5275" cx="0" cy="0" r="1" gradientUnits="userSpaceOnUse" gradientTransform="translate(7.43558 8.4694) rotate(-49.1362) scale(0.907259 8.9594)">
<stop stop-color="#ED8C1B" stop-opacity="0.5"/>
<stop offset="1" stop-color="#ED8C1B" stop-opacity="0"/>
</radialGradient>
<linearGradient id="paint21_linear_6896_5275" x1="25.2899" y1="22.9453" x2="29.3711" y2="21.0078" gradientUnits="userSpaceOnUse">
<stop offset="0.15625" stop-color="#D64A38"/>
<stop offset="1" stop-color="#FB7425"/>
</linearGradient>
<linearGradient id="paint22_linear_6896_5275" x1="27.3247" y1="21.0378" x2="27.8471" y2="22.1228" gradientUnits="userSpaceOnUse">
<stop stop-color="white" stop-opacity="0"/>
<stop offset="0.520833" stop-color="white" stop-opacity="0.2"/>
<stop offset="1" stop-color="white" stop-opacity="0"/>
</linearGradient>
<radialGradient id="paint23_radial_6896_5275" cx="0" cy="0" r="1" gradientUnits="userSpaceOnUse" gradientTransform="translate(24.9647 22.8374) rotate(-26.8937) scale(1.04481)">
<stop stop-color="#D64A38"/>
<stop offset="1" stop-color="#D64A38" stop-opacity="0"/>
</radialGradient>
<radialGradient id="paint24_radial_6896_5275" cx="0" cy="0" r="1" gradientUnits="userSpaceOnUse" gradientTransform="translate(29.9731 20.5061) rotate(151.353) scale(0.967535)">
<stop stop-color="#FB7425"/>
<stop offset="1" stop-color="#FB7425" stop-opacity="0"/>
</radialGradient>
<radialGradient id="paint25_radial_6896_5275" cx="0" cy="0" r="1" gradientUnits="userSpaceOnUse" gradientTransform="translate(29.4461 20.5037) rotate(125.032) scale(0.468717)">
<stop stop-color="white" stop-opacity="0.3"/>
<stop offset="1" stop-color="white" stop-opacity="0"/>
</radialGradient>
<linearGradient id="paint26_linear_6896_5275" x1="25.5" y1="25" x2="29.1465" y2="26.6651" gradientUnits="userSpaceOnUse">
<stop offset="0.297704" stop-color="#EC331C"/>
<stop offset="1" stop-color="#FB7425"/>
</linearGradient>
<linearGradient id="paint27_linear_6896_5275" x1="27.8366" y1="25.0927" x2="27.3213" y2="26.1811" gradientUnits="userSpaceOnUse">
<stop stop-color="white" stop-opacity="0"/>
<stop offset="0.520833" stop-color="white" stop-opacity="0.2"/>
<stop offset="1" stop-color="white" stop-opacity="0"/>
</linearGradient>
<radialGradient id="paint28_radial_6896_5275" cx="0" cy="0" r="1" gradientUnits="userSpaceOnUse" gradientTransform="translate(24.9534 24.3889) rotate(24.15) scale(1.04481)">
<stop stop-color="#D64A38"/>
<stop offset="1" stop-color="#D64A38" stop-opacity="0"/>
</radialGradient>
<radialGradient id="paint29_radial_6896_5275" cx="0" cy="0" r="1" gradientUnits="userSpaceOnUse" gradientTransform="translate(29.9152 26.8178) rotate(-157.603) scale(0.967535)">
<stop stop-color="#FB7425"/>
<stop offset="1" stop-color="#FB7425" stop-opacity="0"/>
</radialGradient>
<radialGradient id="paint30_radial_6896_5275" cx="0" cy="0" r="1" gradientUnits="userSpaceOnUse" gradientTransform="translate(29.6005 26.2805) rotate(154.486) scale(0.578723)">
<stop stop-color="white" stop-opacity="0.3"/>
<stop offset="1" stop-color="white" stop-opacity="0"/>
</radialGradient>
<linearGradient id="paint31_linear_6896_5275" x1="7.01786" y1="24.7214" x2="2.94525" y2="26.6768" gradientUnits="userSpaceOnUse">
<stop offset="0.15625" stop-color="#D64A38"/>
<stop offset="1" stop-color="#FB7425"/>
</linearGradient>
<linearGradient id="paint32_linear_6896_5275" x1="4.25522" y1="25.1044" x2="4.77052" y2="26.1928" gradientUnits="userSpaceOnUse">
<stop stop-color="white" stop-opacity="0"/>
<stop offset="0.520833" stop-color="white" stop-opacity="0.2"/>
<stop offset="1" stop-color="white" stop-opacity="0"/>
</linearGradient>
<radialGradient id="paint33_radial_6896_5275" cx="0" cy="0" r="1" gradientUnits="userSpaceOnUse" gradientTransform="translate(7.13839 24.4007) rotate(155.85) scale(1.04481)">
<stop stop-color="#D64A38"/>
<stop offset="1" stop-color="#D64A38" stop-opacity="0"/>
</radialGradient>
<radialGradient id="paint34_radial_6896_5275" cx="0" cy="0" r="1" gradientUnits="userSpaceOnUse" gradientTransform="translate(2.17661 26.8295) rotate(-22.3971) scale(0.967535)">
<stop stop-color="#FB7425"/>
<stop offset="1" stop-color="#FB7425" stop-opacity="0"/>
</radialGradient>
<radialGradient id="paint35_radial_6896_5275" cx="0" cy="0" r="1" gradientUnits="userSpaceOnUse" gradientTransform="translate(6.53878 24.5667) rotate(141.872) scale(0.496749)">
<stop stop-color="white" stop-opacity="0.3"/>
<stop offset="1" stop-color="white" stop-opacity="0"/>
</radialGradient>
<linearGradient id="paint36_linear_6896_5275" x1="6.81819" y1="22.9292" x2="2.7275" y2="21.0119" gradientUnits="userSpaceOnUse">
<stop offset="0.15625" stop-color="#D64A38"/>
<stop offset="1" stop-color="#FB7425"/>
</linearGradient>
<linearGradient id="paint37_linear_6896_5275" x1="4.77403" y1="21.0318" x2="4.25698" y2="22.1194" gradientUnits="userSpaceOnUse">
<stop stop-color="white" stop-opacity="0"/>
<stop offset="0.520833" stop-color="white" stop-opacity="0.2"/>
<stop offset="1" stop-color="white" stop-opacity="0"/>
</linearGradient>
<radialGradient id="paint38_radial_6896_5275" cx="0" cy="0" r="1" gradientUnits="userSpaceOnUse" gradientTransform="translate(7.14282 22.8197) rotate(-153.389) scale(1.04481)">
<stop stop-color="#D64A38"/>
<stop offset="1" stop-color="#D64A38" stop-opacity="0"/>
</radialGradient>
<radialGradient id="paint39_radial_6896_5275" cx="0" cy="0" r="1" gradientUnits="userSpaceOnUse" gradientTransform="translate(2.12305 20.5131) rotate(28.3641) scale(0.967535)">
<stop stop-color="#FB7425"/>
<stop offset="1" stop-color="#FB7425" stop-opacity="0"/>
</radialGradient>
<radialGradient id="paint40_radial_6896_5275" cx="0" cy="0" r="1" gradientUnits="userSpaceOnUse" gradientTransform="translate(6.63491 22.4603) rotate(-167.367) scale(0.496749)">
<stop stop-color="white" stop-opacity="0.3"/>
<stop offset="1" stop-color="white" stop-opacity="0"/>
</radialGradient>
<linearGradient id="paint41_linear_6896_5275" x1="26.5398" y1="15.5078" x2="25.2898" y2="12.0391" gradientUnits="userSpaceOnUse">
<stop stop-color="#EF8A47"/>
<stop offset="1" stop-color="#EF8A47" stop-opacity="0"/>
</linearGradient>
<radialGradient id="paint42_radial_6896_5275" cx="0" cy="0" r="1" gradientUnits="userSpaceOnUse" gradientTransform="translate(24.305 12.1316) rotate(133.831) scale(0.936482 9.24798)">
<stop stop-color="#FFA319"/>
<stop offset="1" stop-color="#FFBA19" stop-opacity="0"/>
</radialGradient>
<radialGradient id="paint43_radial_6896_5275" cx="0" cy="0" r="1" gradientUnits="userSpaceOnUse" gradientTransform="translate(27.2229 10.2812) scale(0.771161 7.6154)">
<stop stop-color="#FF9419"/>
<stop offset="1" stop-color="#FFBA19" stop-opacity="0"/>
</radialGradient>
<radialGradient id="paint44_radial_6896_5275" cx="0" cy="0" r="1" gradientUnits="userSpaceOnUse" gradientTransform="translate(24.5299 8.4694) rotate(-130.864) scale(0.907259 8.9594)">
<stop stop-color="#FF9B19" stop-opacity="0.5"/>
<stop offset="1" stop-color="#FFBA19" stop-opacity="0"/>
</radialGradient>
<radialGradient id="paint45_radial_6896_5275" cx="0" cy="0" r="1" gradientUnits="userSpaceOnUse" gradientTransform="translate(24.9267 11.6233) rotate(-45.7638) scale(0.502944 2.40101)">
<stop stop-color="white" stop-opacity="0.3"/>
<stop offset="1" stop-color="white" stop-opacity="0"/>
</radialGradient>
<radialGradient id="paint46_radial_6896_5275" cx="0" cy="0" r="1" gradientUnits="userSpaceOnUse" gradientTransform="translate(25.1828 8.87328) rotate(-132.184) scale(0.409519 2.45272)">
<stop stop-color="white" stop-opacity="0.2"/>
<stop offset="1" stop-color="white" stop-opacity="0"/>
</radialGradient>
<radialGradient id="paint47_radial_6896_5275" cx="0" cy="0" r="1" gradientUnits="userSpaceOnUse" gradientTransform="translate(16.4461 17.0436) rotate(-153.246) scale(2.11729 2.12981)">
<stop stop-color="#FF2BA3"/>
<stop offset="1" stop-color="#F9326A"/>
</radialGradient>
<radialGradient id="paint48_radial_6896_5275" cx="0" cy="0" r="1" gradientUnits="userSpaceOnUse" gradientTransform="translate(16.5286 16.5656) rotate(90) scale(0.467818 0.822375)">
<stop stop-color="white" stop-opacity="0.5"/>
<stop offset="1" stop-color="white" stop-opacity="0"/>
</radialGradient>
<linearGradient id="paint49_linear_6896_5275" x1="16.0467" y1="23.3864" x2="16.0467" y2="18.9643" gradientUnits="userSpaceOnUse">
<stop stop-color="#E61E27"/>
<stop offset="1" stop-color="#672A7A"/>
</linearGradient>
<radialGradient id="paint50_radial_6896_5275" cx="0" cy="0" r="1" gradientUnits="userSpaceOnUse" gradientTransform="translate(20.5 15.6257) rotate(-93.2052) scale(3.91237 7.3611)">
<stop offset="0.166667" stop-color="#482641"/>
<stop offset="0.276042" stop-color="#594253"/>
<stop offset="0.401042" stop-color="#483637"/>
</radialGradient>
<linearGradient id="paint51_linear_6896_5275" x1="18.5066" y1="15.5093" x2="19.1656" y2="14.3652" gradientUnits="userSpaceOnUse">
<stop stop-color="#271B27"/>
<stop offset="1" stop-color="#483637" stop-opacity="0"/>
</linearGradient>
<radialGradient id="paint52_radial_6896_5275" cx="0" cy="0" r="1" gradientUnits="userSpaceOnUse" gradientTransform="translate(11.3749 17.2656) rotate(-90) scale(2.51563 2.94537)">
<stop offset="0.588542" stop-color="#E59717" stop-opacity="0"/>
<stop offset="0.776398" stop-color="#E59717"/>
<stop offset="0.934783" stop-color="#E59717" stop-opacity="0"/>
</radialGradient>
<radialGradient id="paint53_radial_6896_5275" cx="0" cy="0" r="1" gradientUnits="userSpaceOnUse" gradientTransform="translate(11.3749 14.1641) rotate(-90) scale(2.8125 2.38105)">
<stop offset="0.819444" stop-color="#F6BA27" stop-opacity="0"/>
<stop offset="1" stop-color="#F6BA27"/>
</radialGradient>
<radialGradient id="paint54_radial_6896_5275" cx="0" cy="0" r="1" gradientUnits="userSpaceOnUse" gradientTransform="translate(11.5937 15.3913) rotate(-91.6847) scale(3.18888 6.18158)">
<stop offset="0.166667" stop-color="#482641"/>
<stop offset="0.276042" stop-color="#594253"/>
<stop offset="0.401042" stop-color="#483637"/>
</radialGradient>
<linearGradient id="paint55_linear_6896_5275" x1="9.50662" y1="15.5093" x2="10.1656" y2="14.3652" gradientUnits="userSpaceOnUse">
<stop stop-color="#271B27"/>
<stop offset="1" stop-color="#483637" stop-opacity="0"/>
</linearGradient>
<radialGradient id="paint56_radial_6896_5275" cx="0" cy="0" r="1" gradientUnits="userSpaceOnUse" gradientTransform="translate(9.04492 16.9687) rotate(147.529) scale(6.5192 2.96814)">
<stop stop-color="#508FFF"/>
<stop offset="1" stop-color="#3D5BF1"/>
</radialGradient>
<radialGradient id="paint57_radial_6896_5275" cx="0" cy="0" r="1" gradientUnits="userSpaceOnUse" gradientTransform="translate(6.10856 19.9978) rotate(137.675) scale(3.68974 1.76433)">
<stop stop-color="#4478FF"/>
<stop offset="1" stop-color="#4678FF" stop-opacity="0"/>
</radialGradient>
<radialGradient id="paint58_radial_6896_5275" cx="0" cy="0" r="1" gradientUnits="userSpaceOnUse" gradientTransform="translate(8.25705 16.9141) rotate(42.7094) scale(1.95269 1.02492)">
<stop stop-color="#5190FF"/>
<stop offset="1" stop-color="#5190FF" stop-opacity="0"/>
</radialGradient>
<radialGradient id="paint59_radial_6896_5275" cx="0" cy="0" r="1" gradientUnits="userSpaceOnUse" gradientTransform="translate(26.3914 17.8297) rotate(47.9273) scale(5.03284 2.39389)">
<stop stop-color="#5092FF"/>
<stop offset="1" stop-color="#3F5FFF"/>
</radialGradient>
</defs>
</svg>
