<svg width="32" height="32" viewBox="0 0 32 32" fill="none" xmlns="http://www.w3.org/2000/svg">
<path d="M4 25.942C4 28.1739 5.76327 30 7.91837 30H24.0816C26.2367 30 28 28.0725 28 25.8406V6.4297C28 5.1297 26.4099 4.5297 25.5155 5.4297L20.9736 10H11.1617L6.5 5.4297C5.6 4.5297 4 5.1297 4 6.4297V25.942Z" fill="url(#paint0_linear_6903_5229)"/>
<path d="M4 25.942C4 28.1739 5.76327 30 7.91837 30H24.0816C26.2367 30 28 28.0725 28 25.8406V6.4297C28 5.1297 26.4099 4.5297 25.5155 5.4297L20.9736 10H11.1617L6.5 5.4297C5.6 4.5297 4 5.1297 4 6.4297V25.942Z" fill="url(#paint1_radial_6903_5229)"/>
<path d="M4 25.942C4 28.1739 5.76327 30 7.91837 30H24.0816C26.2367 30 28 28.0725 28 25.8406V6.4297C28 5.1297 26.4099 4.5297 25.5155 5.4297L20.9736 10H11.1617L6.5 5.4297C5.6 4.5297 4 5.1297 4 6.4297V25.942Z" fill="url(#paint2_linear_6903_5229)"/>
<path d="M4 25.942C4 28.1739 5.76327 30 7.91837 30H24.0816C26.2367 30 28 28.0725 28 25.8406V6.4297C28 5.1297 26.4099 4.5297 25.5155 5.4297L20.9736 10H11.1617L6.5 5.4297C5.6 4.5297 4 5.1297 4 6.4297V25.942Z" fill="url(#paint3_linear_6903_5229)"/>
<path d="M4 25.942C4 28.1739 5.76327 30 7.91837 30H24.0816C26.2367 30 28 28.0725 28 25.8406V6.4297C28 5.1297 26.4099 4.5297 25.5155 5.4297L20.9736 10H11.1617L6.5 5.4297C5.6 4.5297 4 5.1297 4 6.4297V25.942Z" fill="url(#paint4_linear_6903_5229)"/>
<path d="M4 25.942C4 28.1739 5.76327 30 7.91837 30H24.0816C26.2367 30 28 28.0725 28 25.8406V6.4297C28 5.1297 26.4099 4.5297 25.5155 5.4297L20.9736 10H11.1617L6.5 5.4297C5.6 4.5297 4 5.1297 4 6.4297V25.942Z" fill="url(#paint5_linear_6903_5229)"/>
<path d="M4 25.942C4 28.1739 5.76327 30 7.91837 30H24.0816C26.2367 30 28 28.0725 28 25.8406V6.4297C28 5.1297 26.4099 4.5297 25.5155 5.4297L20.9736 10H11.1617L6.5 5.4297C5.6 4.5297 4 5.1297 4 6.4297V25.942Z" fill="url(#paint6_radial_6903_5229)"/>
<path d="M4 25.942C4 28.1739 5.76327 30 7.91837 30H24.0816C26.2367 30 28 28.0725 28 25.8406V6.4297C28 5.1297 26.4099 4.5297 25.5155 5.4297L20.9736 10H11.1617L6.5 5.4297C5.6 4.5297 4 5.1297 4 6.4297V25.942Z" fill="url(#paint7_radial_6903_5229)"/>
<path d="M4 25.942C4 28.1739 5.76327 30 7.91837 30H24.0816C26.2367 30 28 28.0725 28 25.8406V6.4297C28 5.1297 26.4099 4.5297 25.5155 5.4297L20.9736 10H11.1617L6.5 5.4297C5.6 4.5297 4 5.1297 4 6.4297V25.942Z" fill="url(#paint8_radial_6903_5229)"/>
<path d="M4 25.942C4 28.1739 5.76327 30 7.91837 30H24.0816C26.2367 30 28 28.0725 28 25.8406V6.4297C28 5.1297 26.4099 4.5297 25.5155 5.4297L20.9736 10H11.1617L6.5 5.4297C5.6 4.5297 4 5.1297 4 6.4297V25.942Z" fill="url(#paint9_radial_6903_5229)"/>
<path d="M4 25.942C4 28.1739 5.76327 30 7.91837 30H24.0816C26.2367 30 28 28.0725 28 25.8406V6.4297C28 5.1297 26.4099 4.5297 25.5155 5.4297L20.9736 10H11.1617L6.5 5.4297C5.6 4.5297 4 5.1297 4 6.4297V25.942Z" fill="url(#paint10_radial_6903_5229)"/>
<path d="M4 25.942C4 28.1739 5.76327 30 7.91837 30H24.0816C26.2367 30 28 28.0725 28 25.8406V6.4297C28 5.1297 26.4099 4.5297 25.5155 5.4297L20.9736 10H11.1617L6.5 5.4297C5.6 4.5297 4 5.1297 4 6.4297V25.942Z" fill="url(#paint11_radial_6903_5229)"/>
<path d="M4 25.942C4 28.1739 5.76327 30 7.91837 30H24.0816C26.2367 30 28 28.0725 28 25.8406V6.4297C28 5.1297 26.4099 4.5297 25.5155 5.4297L20.9736 10H11.1617L6.5 5.4297C5.6 4.5297 4 5.1297 4 6.4297V25.942Z" fill="url(#paint12_radial_6903_5229)"/>
<path d="M4 25.942C4 28.1739 5.76327 30 7.91837 30H24.0816C26.2367 30 28 28.0725 28 25.8406V6.4297C28 5.1297 26.4099 4.5297 25.5155 5.4297L20.9736 10H11.1617L6.5 5.4297C5.6 4.5297 4 5.1297 4 6.4297V25.942Z" fill="url(#paint13_radial_6903_5229)"/>
<path d="M4 25.942C4 28.1739 5.76327 30 7.91837 30H24.0816C26.2367 30 28 28.0725 28 25.8406V6.4297C28 5.1297 26.4099 4.5297 25.5155 5.4297L20.9736 10H11.1617L6.5 5.4297C5.6 4.5297 4 5.1297 4 6.4297V25.942Z" fill="url(#paint14_radial_6903_5229)"/>
<path d="M4 25.942C4 28.1739 5.76327 30 7.91837 30H24.0816C26.2367 30 28 28.0725 28 25.8406V6.4297C28 5.1297 26.4099 4.5297 25.5155 5.4297L20.9736 10H11.1617L6.5 5.4297C5.6 4.5297 4 5.1297 4 6.4297V25.942Z" fill="url(#paint15_radial_6903_5229)"/>
<path d="M4 25.942C4 28.1739 5.76327 30 7.91837 30H24.0816C26.2367 30 28 28.0725 28 25.8406V6.4297C28 5.1297 26.4099 4.5297 25.5155 5.4297L20.9736 10H11.1617L6.5 5.4297C5.6 4.5297 4 5.1297 4 6.4297V25.942Z" fill="url(#paint16_radial_6903_5229)"/>
<path d="M6.13255 13.5034L8.93255 10.9034C9.25255 10.6034 9.25255 10.1234 8.93255 9.83344L5.91787 7.15626C5.53505 6.82032 4.74255 6.9297 4.74255 7.76344V12.9634C4.74255 13.7969 5.62255 13.9834 6.13255 13.5034Z" fill="url(#paint17_linear_6903_5229)"/>
<path d="M6.13255 13.5034L8.93255 10.9034C9.25255 10.6034 9.25255 10.1234 8.93255 9.83344L5.91787 7.15626C5.53505 6.82032 4.74255 6.9297 4.74255 7.76344V12.9634C4.74255 13.7969 5.62255 13.9834 6.13255 13.5034Z" fill="#FBA430"/>
<path d="M6.13255 13.5034L8.93255 10.9034C9.25255 10.6034 9.25255 10.1234 8.93255 9.83344L5.91787 7.15626C5.53505 6.82032 4.74255 6.9297 4.74255 7.76344V12.9634C4.74255 13.7969 5.62255 13.9834 6.13255 13.5034Z" fill="url(#paint18_radial_6903_5229)"/>
<path d="M6.13255 13.5034L8.93255 10.9034C9.25255 10.6034 9.25255 10.1234 8.93255 9.83344L5.91787 7.15626C5.53505 6.82032 4.74255 6.9297 4.74255 7.76344V12.9634C4.74255 13.7969 5.62255 13.9834 6.13255 13.5034Z" fill="url(#paint19_radial_6903_5229)"/>
<path d="M6.13255 13.5034L8.93255 10.9034C9.25255 10.6034 9.25255 10.1234 8.93255 9.83344L5.91787 7.15626C5.53505 6.82032 4.74255 6.9297 4.74255 7.76344V12.9634C4.74255 13.7969 5.62255 13.9834 6.13255 13.5034Z" fill="url(#paint20_radial_6903_5229)"/>
<path fill-rule="evenodd" clip-rule="evenodd" d="M29.9128 20.4686C30.0553 20.7677 29.9283 21.1258 29.6292 21.2683L25.8245 23.0808C25.5253 23.2233 25.1673 23.0963 25.0247 22.7972C24.8822 22.498 25.0092 22.1399 25.3084 21.9974L29.1131 20.1849C29.4122 20.0424 29.7703 20.1694 29.9128 20.4686Z" fill="url(#paint21_linear_6903_5229)"/>
<path fill-rule="evenodd" clip-rule="evenodd" d="M29.9128 20.4686C30.0553 20.7677 29.9283 21.1258 29.6292 21.2683L25.8245 23.0808C25.5253 23.2233 25.1673 23.0963 25.0247 22.7972C24.8822 22.498 25.0092 22.1399 25.3084 21.9974L29.1131 20.1849C29.4122 20.0424 29.7703 20.1694 29.9128 20.4686Z" fill="url(#paint22_linear_6903_5229)"/>
<path fill-rule="evenodd" clip-rule="evenodd" d="M29.9128 20.4686C30.0553 20.7677 29.9283 21.1258 29.6292 21.2683L25.8245 23.0808C25.5253 23.2233 25.1673 23.0963 25.0247 22.7972C24.8822 22.498 25.0092 22.1399 25.3084 21.9974L29.1131 20.1849C29.4122 20.0424 29.7703 20.1694 29.9128 20.4686Z" fill="url(#paint23_radial_6903_5229)"/>
<path fill-rule="evenodd" clip-rule="evenodd" d="M29.9128 20.4686C30.0553 20.7677 29.9283 21.1258 29.6292 21.2683L25.8245 23.0808C25.5253 23.2233 25.1673 23.0963 25.0247 22.7972C24.8822 22.498 25.0092 22.1399 25.3084 21.9974L29.1131 20.1849C29.4122 20.0424 29.7703 20.1694 29.9128 20.4686Z" fill="url(#paint24_radial_6903_5229)"/>
<path fill-rule="evenodd" clip-rule="evenodd" d="M29.9128 20.4686C30.0553 20.7677 29.9283 21.1258 29.6292 21.2683L25.8245 23.0808C25.5253 23.2233 25.1673 23.0963 25.0247 22.7972C24.8822 22.498 25.0092 22.1399 25.3084 21.9974L29.1131 20.1849C29.4122 20.0424 29.7703 20.1694 29.9128 20.4686Z" fill="url(#paint25_radial_6903_5229)"/>
<path fill-rule="evenodd" clip-rule="evenodd" d="M29.9065 26.7473C29.7635 27.0462 29.4052 27.1726 29.1063 27.0295L25.3047 25.2105C25.0058 25.0674 24.8794 24.7092 25.0225 24.4103C25.1655 24.1114 25.5238 23.985 25.8227 24.128L29.6242 25.9471C29.9231 26.0901 30.0495 26.4484 29.9065 26.7473Z" fill="url(#paint26_linear_6903_5229)"/>
<path fill-rule="evenodd" clip-rule="evenodd" d="M29.9065 26.7473C29.7635 27.0462 29.4052 27.1726 29.1063 27.0295L25.3047 25.2105C25.0058 25.0674 24.8794 24.7092 25.0225 24.4103C25.1655 24.1114 25.5238 23.985 25.8227 24.128L29.6242 25.9471C29.9231 26.0901 30.0495 26.4484 29.9065 26.7473Z" fill="url(#paint27_linear_6903_5229)"/>
<path fill-rule="evenodd" clip-rule="evenodd" d="M29.9065 26.7473C29.7635 27.0462 29.4052 27.1726 29.1063 27.0295L25.3047 25.2105C25.0058 25.0674 24.8794 24.7092 25.0225 24.4103C25.1655 24.1114 25.5238 23.985 25.8227 24.128L29.6242 25.9471C29.9231 26.0901 30.0495 26.4484 29.9065 26.7473Z" fill="url(#paint28_radial_6903_5229)"/>
<path fill-rule="evenodd" clip-rule="evenodd" d="M29.9065 26.7473C29.7635 27.0462 29.4052 27.1726 29.1063 27.0295L25.3047 25.2105C25.0058 25.0674 24.8794 24.7092 25.0225 24.4103C25.1655 24.1114 25.5238 23.985 25.8227 24.128L29.6242 25.9471C29.9231 26.0901 30.0495 26.4484 29.9065 26.7473Z" fill="url(#paint29_radial_6903_5229)"/>
<path fill-rule="evenodd" clip-rule="evenodd" d="M29.9065 26.7473C29.7635 27.0462 29.4052 27.1726 29.1063 27.0295L25.3047 25.2105C25.0058 25.0674 24.8794 24.7092 25.0225 24.4103C25.1655 24.1114 25.5238 23.985 25.8227 24.128L29.6242 25.9471C29.9231 26.0901 30.0495 26.4484 29.9065 26.7473Z" fill="url(#paint30_radial_6903_5229)"/>
<path fill-rule="evenodd" clip-rule="evenodd" d="M2.18531 26.759C2.32834 27.0579 2.68661 27.1843 2.98552 27.0412L6.78708 25.2222C7.08599 25.0792 7.21236 24.7209 7.06933 24.422C6.9263 24.1231 6.56804 23.9967 6.26912 24.1397L2.46756 25.9588C2.16865 26.1018 2.04228 26.4601 2.18531 26.759Z" fill="url(#paint31_linear_6903_5229)"/>
<path fill-rule="evenodd" clip-rule="evenodd" d="M2.18531 26.759C2.32834 27.0579 2.68661 27.1843 2.98552 27.0412L6.78708 25.2222C7.08599 25.0792 7.21236 24.7209 7.06933 24.422C6.9263 24.1231 6.56804 23.9967 6.26912 24.1397L2.46756 25.9588C2.16865 26.1018 2.04228 26.4601 2.18531 26.759Z" fill="url(#paint32_linear_6903_5229)"/>
<path fill-rule="evenodd" clip-rule="evenodd" d="M2.18531 26.759C2.32834 27.0579 2.68661 27.1843 2.98552 27.0412L6.78708 25.2222C7.08599 25.0792 7.21236 24.7209 7.06933 24.422C6.9263 24.1231 6.56804 23.9967 6.26912 24.1397L2.46756 25.9588C2.16865 26.1018 2.04228 26.4601 2.18531 26.759Z" fill="url(#paint33_radial_6903_5229)"/>
<path fill-rule="evenodd" clip-rule="evenodd" d="M2.18531 26.759C2.32834 27.0579 2.68661 27.1843 2.98552 27.0412L6.78708 25.2222C7.08599 25.0792 7.21236 24.7209 7.06933 24.422C6.9263 24.1231 6.56804 23.9967 6.26912 24.1397L2.46756 25.9588C2.16865 26.1018 2.04228 26.4601 2.18531 26.759Z" fill="url(#paint34_radial_6903_5229)"/>
<path fill-rule="evenodd" clip-rule="evenodd" d="M2.18531 26.759C2.32834 27.0579 2.68661 27.1843 2.98552 27.0412L6.78708 25.2222C7.08599 25.0792 7.21236 24.7209 7.06933 24.422C6.9263 24.1231 6.56804 23.9967 6.26912 24.1397L2.46756 25.9588C2.16865 26.1018 2.04228 26.4601 2.18531 26.759Z" fill="url(#paint35_radial_6903_5229)"/>
<path fill-rule="evenodd" clip-rule="evenodd" d="M2.18317 20.4752C2.04213 20.7751 2.17088 21.1325 2.47074 21.2735L6.28431 23.0673C6.58417 23.2083 6.94159 23.0796 7.08263 22.7797C7.22367 22.4798 7.09492 22.1224 6.79506 21.9814L2.98149 20.1877C2.68163 20.0466 2.32421 20.1754 2.18317 20.4752Z" fill="url(#paint36_linear_6903_5229)"/>
<path fill-rule="evenodd" clip-rule="evenodd" d="M2.18317 20.4752C2.04213 20.7751 2.17088 21.1325 2.47074 21.2735L6.28431 23.0673C6.58417 23.2083 6.94159 23.0796 7.08263 22.7797C7.22367 22.4798 7.09492 22.1224 6.79506 21.9814L2.98149 20.1877C2.68163 20.0466 2.32421 20.1754 2.18317 20.4752Z" fill="url(#paint37_linear_6903_5229)"/>
<path fill-rule="evenodd" clip-rule="evenodd" d="M2.18317 20.4752C2.04213 20.7751 2.17088 21.1325 2.47074 21.2735L6.28431 23.0673C6.58417 23.2083 6.94159 23.0796 7.08263 22.7797C7.22367 22.4798 7.09492 22.1224 6.79506 21.9814L2.98149 20.1877C2.68163 20.0466 2.32421 20.1754 2.18317 20.4752Z" fill="url(#paint38_radial_6903_5229)"/>
<path fill-rule="evenodd" clip-rule="evenodd" d="M2.18317 20.4752C2.04213 20.7751 2.17088 21.1325 2.47074 21.2735L6.28431 23.0673C6.58417 23.2083 6.94159 23.0796 7.08263 22.7797C7.22367 22.4798 7.09492 22.1224 6.79506 21.9814L2.98149 20.1877C2.68163 20.0466 2.32421 20.1754 2.18317 20.4752Z" fill="url(#paint39_radial_6903_5229)"/>
<path fill-rule="evenodd" clip-rule="evenodd" d="M2.18317 20.4752C2.04213 20.7751 2.17088 21.1325 2.47074 21.2735L6.28431 23.0673C6.58417 23.2083 6.94159 23.0796 7.08263 22.7797C7.22367 22.4798 7.09492 22.1224 6.79506 21.9814L2.98149 20.1877C2.68163 20.0466 2.32421 20.1754 2.18317 20.4752Z" fill="url(#paint40_radial_6903_5229)"/>
<path d="M25.8329 13.5034L23.0329 10.9034C22.7129 10.6034 22.7129 10.1234 23.0329 9.83344L26.0476 7.15626C26.4304 6.82032 27.2229 6.9297 27.2229 7.76344V12.9634C27.2229 13.7969 26.3429 13.9834 25.8329 13.5034Z" fill="#FFCD45"/>
<path d="M25.8329 13.5034L23.0329 10.9034C22.7129 10.6034 22.7129 10.1234 23.0329 9.83344L26.0476 7.15626C26.4304 6.82032 27.2229 6.9297 27.2229 7.76344V12.9634C27.2229 13.7969 26.3429 13.9834 25.8329 13.5034Z" fill="url(#paint41_linear_6903_5229)"/>
<path d="M25.8329 13.5034L23.0329 10.9034C22.7129 10.6034 22.7129 10.1234 23.0329 9.83344L26.0476 7.15626C26.4304 6.82032 27.2229 6.9297 27.2229 7.76344V12.9634C27.2229 13.7969 26.3429 13.9834 25.8329 13.5034Z" fill="url(#paint42_radial_6903_5229)"/>
<path d="M25.8329 13.5034L23.0329 10.9034C22.7129 10.6034 22.7129 10.1234 23.0329 9.83344L26.0476 7.15626C26.4304 6.82032 27.2229 6.9297 27.2229 7.76344V12.9634C27.2229 13.7969 26.3429 13.9834 25.8329 13.5034Z" fill="url(#paint43_radial_6903_5229)"/>
<path d="M25.8329 13.5034L23.0329 10.9034C22.7129 10.6034 22.7129 10.1234 23.0329 9.83344L26.0476 7.15626C26.4304 6.82032 27.2229 6.9297 27.2229 7.76344V12.9634C27.2229 13.7969 26.3429 13.9834 25.8329 13.5034Z" fill="url(#paint44_radial_6903_5229)"/>
<path d="M25.8329 13.5034L23.0329 10.9034C22.7129 10.6034 22.7129 10.1234 23.0329 9.83344L26.0476 7.15626C26.4304 6.82032 27.2229 6.9297 27.2229 7.76344V12.9634C27.2229 13.7969 26.3429 13.9834 25.8329 13.5034Z" fill="url(#paint45_radial_6903_5229)"/>
<path d="M25.8329 13.5034L23.0329 10.9034C22.7129 10.6034 22.7129 10.1234 23.0329 9.83344L26.0476 7.15626C26.4304 6.82032 27.2229 6.9297 27.2229 7.76344V12.9634C27.2229 13.7969 26.3429 13.9834 25.8329 13.5034Z" fill="url(#paint46_radial_6903_5229)"/>
<path fill-rule="evenodd" clip-rule="evenodd" d="M18.5284 17.6071C19.7112 17.6216 20.2237 16.6981 20.252 16.2124C20.2704 15.8948 20.5428 15.6523 20.8604 15.6708C21.178 15.6893 21.4205 15.9617 21.402 16.2793C21.3455 17.2507 20.4341 18.7826 18.5142 18.759C18.1961 18.7551 17.9414 18.4941 17.9453 18.176C17.9492 17.8579 18.2103 17.6032 18.5284 17.6071Z" fill="url(#paint47_radial_6903_5229)"/>
<path fill-rule="evenodd" clip-rule="evenodd" d="M18.5284 17.6071C19.7112 17.6216 20.2237 16.6981 20.252 16.2124C20.2704 15.8948 20.5428 15.6523 20.8604 15.6708C21.178 15.6893 21.4205 15.9617 21.402 16.2793C21.3455 17.2507 20.4341 18.7826 18.5142 18.759C18.1961 18.7551 17.9414 18.4941 17.9453 18.176C17.9492 17.8579 18.2103 17.6032 18.5284 17.6071Z" fill="url(#paint48_radial_6903_5229)"/>
<path fill-rule="evenodd" clip-rule="evenodd" d="M18.5284 17.6071C19.7112 17.6216 20.2237 16.6981 20.252 16.2124C20.2704 15.8948 20.5428 15.6523 20.8604 15.6708C21.178 15.6893 21.4205 15.9617 21.402 16.2793C21.3455 17.2507 20.4341 18.7826 18.5142 18.759C18.1961 18.7551 17.9414 18.4941 17.9453 18.176C17.9492 17.8579 18.2103 17.6032 18.5284 17.6071Z" fill="url(#paint49_radial_6903_5229)"/>
<path fill-rule="evenodd" clip-rule="evenodd" d="M18.6617 24.9441C20.0748 24.831 20.6389 23.6797 20.6474 23.1008C20.653 22.7222 20.9657 22.4048 21.3459 22.3917C21.726 22.3786 22.0296 22.6748 22.024 23.0534C22.0069 24.2114 20.998 26.1278 18.7045 26.3113C18.3245 26.3417 18.0069 26.0603 17.9951 25.6827C17.9833 25.3052 18.2817 24.9745 18.6617 24.9441Z" fill="url(#paint50_radial_6903_5229)"/>
<path fill-rule="evenodd" clip-rule="evenodd" d="M18.6617 24.9441C20.0748 24.831 20.6389 23.6797 20.6474 23.1008C20.653 22.7222 20.9657 22.4048 21.3459 22.3917C21.726 22.3786 22.0296 22.6748 22.024 23.0534C22.0069 24.2114 20.998 26.1278 18.7045 26.3113C18.3245 26.3417 18.0069 26.0603 17.9951 25.6827C17.9833 25.3052 18.2817 24.9745 18.6617 24.9441Z" fill="url(#paint51_radial_6903_5229)"/>
<path fill-rule="evenodd" clip-rule="evenodd" d="M18.6617 24.9441C20.0748 24.831 20.6389 23.6797 20.6474 23.1008C20.653 22.7222 20.9657 22.4048 21.3459 22.3917C21.726 22.3786 22.0296 22.6748 22.024 23.0534C22.0069 24.2114 20.998 26.1278 18.7045 26.3113C18.3245 26.3417 18.0069 26.0603 17.9951 25.6827C17.9833 25.3052 18.2817 24.9745 18.6617 24.9441Z" fill="url(#paint52_radial_6903_5229)"/>
<path fill-rule="evenodd" clip-rule="evenodd" d="M9.98767 16.1319C10.1253 17.253 11.0648 17.6198 11.528 17.5843C11.8308 17.5612 12.0951 17.7879 12.1183 18.0908C12.1415 18.3936 11.9148 18.6579 11.6119 18.6811C10.6854 18.752 9.11926 18.0856 8.89587 16.266C8.85885 15.9645 9.07326 15.69 9.37475 15.653C9.67624 15.616 9.95066 15.8304 9.98767 16.1319Z" fill="url(#paint53_radial_6903_5229)"/>
<path fill-rule="evenodd" clip-rule="evenodd" d="M9.98767 16.1319C10.1253 17.253 11.0648 17.6198 11.528 17.5843C11.8308 17.5612 12.0951 17.7879 12.1183 18.0908C12.1415 18.3936 11.9148 18.6579 11.6119 18.6811C10.6854 18.752 9.11926 18.0856 8.89587 16.266C8.85885 15.9645 9.07326 15.69 9.37475 15.653C9.67624 15.616 9.95066 15.8304 9.98767 16.1319Z" fill="url(#paint54_radial_6903_5229)"/>
<path d="M19.9707 20.086C19.5456 20.086 19.1954 19.7429 19.1954 19.3263V17.905C19.1954 17.4884 19.5456 17.1453 19.9707 17.1453C20.3959 17.1453 20.7461 17.4884 20.7461 17.905V19.3263C20.7461 19.7551 20.3959 20.086 19.9707 20.086Z" fill="url(#paint55_linear_6903_5229)"/>
<path d="M19.9707 20.086C19.5456 20.086 19.1954 19.7429 19.1954 19.3263V17.905C19.1954 17.4884 19.5456 17.1453 19.9707 17.1453C20.3959 17.1453 20.7461 17.4884 20.7461 17.905V19.3263C20.7461 19.7551 20.3959 20.086 19.9707 20.086Z" fill="url(#paint56_linear_6903_5229)"/>
<path d="M12.029 20.086C11.6038 20.086 11.2537 19.7429 11.2537 19.3263V17.905C11.2537 17.4884 11.6038 17.1453 12.029 17.1453C12.4541 17.1453 12.8043 17.4884 12.8043 17.905V19.3263C12.8043 19.7551 12.4541 20.086 12.029 20.086Z" fill="url(#paint57_linear_6903_5229)"/>
<path d="M12.029 20.086C11.6038 20.086 11.2537 19.7429 11.2537 19.3263V17.905C11.2537 17.4884 11.6038 17.1453 12.029 17.1453C12.4541 17.1453 12.8043 17.4884 12.8043 17.905V19.3263C12.8043 19.7551 12.4541 20.086 12.029 20.086Z" fill="url(#paint58_linear_6903_5229)"/>
<path d="M15.2265 20.2065L15.2908 20.1915C15.7644 20.0811 16.2577 20.0862 16.7289 20.2065C17.25 20.3046 17.561 20.902 17.121 21.332L16.5703 21.9335C16.3003 22.2035 15.7075 22.2035 15.4375 21.9335L14.8945 21.332C14.4453 20.8242 14.7265 20.3164 15.2265 20.2065Z" fill="url(#paint59_radial_6903_5229)"/>
<path d="M15.2265 20.2065L15.2908 20.1915C15.7644 20.0811 16.2577 20.0862 16.7289 20.2065C17.25 20.3046 17.561 20.902 17.121 21.332L16.5703 21.9335C16.3003 22.2035 15.7075 22.2035 15.4375 21.9335L14.8945 21.332C14.4453 20.8242 14.7265 20.3164 15.2265 20.2065Z" fill="url(#paint60_radial_6903_5229)" fill-opacity="0.8"/>
<path fill-rule="evenodd" clip-rule="evenodd" d="M21.5201 15.4037C21.0086 16.912 19.8358 17.2022 19.2363 17.2022C18.9325 17.2022 18.6863 17.4485 18.6863 17.7522C18.6863 18.056 18.9325 18.3022 19.2363 18.3022C20.1524 18.3022 21.8546 17.8425 22.5618 15.757C22.6594 15.4693 22.5053 15.1571 22.2176 15.0595C21.93 14.9619 21.6177 15.1161 21.5201 15.4037Z" fill="url(#paint61_radial_6903_5229)"/>
<path fill-rule="evenodd" clip-rule="evenodd" d="M10.2572 15.4037C10.7687 16.912 11.9416 17.2022 12.5411 17.2022C12.8448 17.2022 13.0911 17.4485 13.0911 17.7522C13.0911 18.056 12.8448 18.3022 12.5411 18.3022C11.6249 18.3022 9.92275 17.8425 9.2155 15.757C9.11795 15.4693 9.27206 15.1571 9.55972 15.0595C9.84739 14.9619 10.1597 15.1161 10.2572 15.4037Z" fill="url(#paint62_radial_6903_5229)"/>
<path fill-rule="evenodd" clip-rule="evenodd" d="M22.3663 22.0113C22.6418 22.0314 22.8488 22.2709 22.8288 22.5463C22.7049 24.2508 21.9567 25.3639 21.0381 26.0486C20.1381 26.7195 19.1044 26.9588 18.4018 26.9938C18.126 27.0075 17.8913 26.7951 17.8776 26.5193C17.8639 26.2435 18.0763 26.0088 18.3521 25.995C18.9047 25.9675 19.7343 25.7733 20.4404 25.2469C21.128 24.7343 21.7287 23.8865 21.8314 22.4738C21.8514 22.1984 22.0909 21.9913 22.3663 22.0113Z" fill="url(#paint63_radial_6903_5229)"/>
<defs>
<linearGradient id="paint0_linear_6903_5229" x1="7.90668" y1="1.34978" x2="7.90668" y2="30.99" gradientUnits="userSpaceOnUse">
<stop offset="0.288159" stop-color="#FFCE2C"/>
<stop offset="0.762024" stop-color="#F79B22"/>
<stop offset="0.9925" stop-color="#E3821D"/>
<stop offset="1" stop-color="#E3801D"/>
</linearGradient>
<radialGradient id="paint1_radial_6903_5229" cx="0" cy="0" r="1" gradientUnits="userSpaceOnUse" gradientTransform="translate(23.9499 16.7886) rotate(90) scale(10.3023 9.89025)">
<stop stop-color="#FFDE68"/>
<stop offset="1" stop-color="#FFDD68" stop-opacity="0"/>
</radialGradient>
<linearGradient id="paint2_linear_6903_5229" x1="16.4007" y1="13.9648" x2="4" y2="12.2364" gradientUnits="userSpaceOnUse">
<stop stop-color="#E99E20" stop-opacity="0"/>
<stop offset="1" stop-color="#FF9F3D"/>
</linearGradient>
<linearGradient id="paint3_linear_6903_5229" x1="26.7911" y1="12.033" x2="30.245" y2="12.033" gradientUnits="userSpaceOnUse">
<stop stop-color="#E99E20" stop-opacity="0"/>
<stop offset="0.9925" stop-color="#E3821D"/>
<stop offset="1" stop-color="#E3801D"/>
</linearGradient>
<linearGradient id="paint4_linear_6903_5229" x1="16.001" y1="-1.59459" x2="16" y2="30.99" gradientUnits="userSpaceOnUse">
<stop offset="0.77079" stop-color="#F59639" stop-opacity="0"/>
<stop offset="1" stop-color="#FF63C4"/>
</linearGradient>
<linearGradient id="paint5_linear_6903_5229" x1="16" y1="11.2521" x2="16" y2="32.475" gradientUnits="userSpaceOnUse">
<stop offset="0.854227" stop-color="white" stop-opacity="0"/>
<stop offset="0.985362" stop-color="white"/>
</linearGradient>
<radialGradient id="paint6_radial_6903_5229" cx="0" cy="0" r="1" gradientUnits="userSpaceOnUse" gradientTransform="translate(22.1755 4.47688) rotate(55.4547) scale(5.37104 10.6707)">
<stop stop-color="#FFA720"/>
<stop offset="0.921158" stop-color="#FFA720" stop-opacity="0"/>
</radialGradient>
<radialGradient id="paint7_radial_6903_5229" cx="0" cy="0" r="1" gradientUnits="userSpaceOnUse" gradientTransform="translate(3.47479 23.6769) scale(6.09045 8.66347)">
<stop offset="0.260619" stop-color="#C57310" stop-opacity="0.8"/>
<stop offset="0.590058" stop-color="#CB750D" stop-opacity="0.37"/>
<stop offset="0.921158" stop-color="#D77A09" stop-opacity="0"/>
</radialGradient>
<radialGradient id="paint8_radial_6903_5229" cx="0" cy="0" r="1" gradientUnits="userSpaceOnUse" gradientTransform="translate(25.4052 22.6255) rotate(63.9247) scale(0.741389 1.12753)">
<stop offset="0.380208" stop-color="#D77A09"/>
<stop offset="1" stop-color="#D77A09" stop-opacity="0"/>
</radialGradient>
<radialGradient id="paint9_radial_6903_5229" cx="0" cy="0" r="1" gradientUnits="userSpaceOnUse" gradientTransform="translate(27.0729 25.879) rotate(111.218) scale(0.967272 2.82507)">
<stop offset="0.380208" stop-color="#D77A09"/>
<stop offset="1" stop-color="#D77A09" stop-opacity="0"/>
</radialGradient>
<radialGradient id="paint10_radial_6903_5229" cx="0" cy="0" r="1" gradientUnits="userSpaceOnUse" gradientTransform="translate(15.2813 21.4687) rotate(140.08) scale(0.99829 1.31398)">
<stop offset="0.493447" stop-color="#D77A09" stop-opacity="0.5"/>
<stop offset="1" stop-color="#D77A09" stop-opacity="0"/>
</radialGradient>
<radialGradient id="paint11_radial_6903_5229" cx="0" cy="0" r="1" gradientUnits="userSpaceOnUse" gradientTransform="translate(11.6722 19.1389) rotate(90) scale(1.74425 0.930269)">
<stop offset="0.616663" stop-color="#D77A09" stop-opacity="0.5"/>
<stop offset="1" stop-color="#D77A09" stop-opacity="0"/>
</radialGradient>
<radialGradient id="paint12_radial_6903_5229" cx="0" cy="0" r="1" gradientUnits="userSpaceOnUse" gradientTransform="translate(19.5795 19.0663) rotate(90) scale(1.5989 0.852746)">
<stop offset="0.616663" stop-color="#D77A09" stop-opacity="0.5"/>
<stop offset="1" stop-color="#D77A09" stop-opacity="0"/>
</radialGradient>
<radialGradient id="paint13_radial_6903_5229" cx="0" cy="0" r="1" gradientUnits="userSpaceOnUse" gradientTransform="translate(19.5795 19.0663) rotate(90) scale(1.5989 0.852746)">
<stop offset="0.616663" stop-color="#D77A09" stop-opacity="0.5"/>
<stop offset="1" stop-color="#D77A09" stop-opacity="0"/>
</radialGradient>
<radialGradient id="paint14_radial_6903_5229" cx="0" cy="0" r="1" gradientUnits="userSpaceOnUse" gradientTransform="translate(8.10508 6.83318) rotate(44.113) scale(5.58911 1.56071)">
<stop offset="0.293395" stop-color="#FFDE68"/>
<stop offset="1" stop-color="#FFDD68" stop-opacity="0"/>
</radialGradient>
<radialGradient id="paint15_radial_6903_5229" cx="0" cy="0" r="1" gradientUnits="userSpaceOnUse" gradientTransform="translate(10.4058 8.24278) rotate(-65.2905) scale(3.21524 2.19727)">
<stop offset="0.257229" stop-color="#FFDE68"/>
<stop offset="1" stop-color="#FFDD68" stop-opacity="0"/>
</radialGradient>
<radialGradient id="paint16_radial_6903_5229" cx="0" cy="0" r="1" gradientUnits="userSpaceOnUse" gradientTransform="translate(27.5443 5.76246) rotate(101.957) scale(2.5607 1.41151)">
<stop stop-color="#FFDE68"/>
<stop offset="1" stop-color="#FFDD68" stop-opacity="0"/>
</radialGradient>
<linearGradient id="paint17_linear_6903_5229" x1="10.6023" y1="10.6172" x2="4.74255" y2="10.0703" gradientUnits="userSpaceOnUse">
<stop offset="0.437473" stop-color="#ED8C1B"/>
<stop offset="1" stop-color="#FFB03A"/>
</linearGradient>
<radialGradient id="paint18_radial_6903_5229" cx="0" cy="0" r="1" gradientUnits="userSpaceOnUse" gradientTransform="translate(5.13129 10.3713) scale(0.311177 3.07294)">
<stop stop-color="white" stop-opacity="0.3"/>
<stop offset="1" stop-color="white" stop-opacity="0"/>
</radialGradient>
<radialGradient id="paint19_radial_6903_5229" cx="0" cy="0" r="1" gradientUnits="userSpaceOnUse" gradientTransform="translate(7.66041 12.1316) rotate(46.1691) scale(0.936482 9.24798)">
<stop stop-color="#ED8C1B" stop-opacity="0.8"/>
<stop offset="1" stop-color="#ED8C1B" stop-opacity="0"/>
</radialGradient>
<radialGradient id="paint20_radial_6903_5229" cx="0" cy="0" r="1" gradientUnits="userSpaceOnUse" gradientTransform="translate(7.43558 8.4694) rotate(-49.1362) scale(0.907259 8.9594)">
<stop stop-color="#ED8C1B" stop-opacity="0.5"/>
<stop offset="1" stop-color="#ED8C1B" stop-opacity="0"/>
</radialGradient>
<linearGradient id="paint21_linear_6903_5229" x1="25.2899" y1="22.9454" x2="29.3711" y2="21.0079" gradientUnits="userSpaceOnUse">
<stop offset="0.15625" stop-color="#D64A38"/>
<stop offset="1" stop-color="#FB7425"/>
</linearGradient>
<linearGradient id="paint22_linear_6903_5229" x1="27.3247" y1="21.0379" x2="27.8471" y2="22.1229" gradientUnits="userSpaceOnUse">
<stop stop-color="white" stop-opacity="0"/>
<stop offset="0.520833" stop-color="white" stop-opacity="0.2"/>
<stop offset="1" stop-color="white" stop-opacity="0"/>
</linearGradient>
<radialGradient id="paint23_radial_6903_5229" cx="0" cy="0" r="1" gradientUnits="userSpaceOnUse" gradientTransform="translate(24.9647 22.8374) rotate(-26.8937) scale(1.04481)">
<stop stop-color="#D64A38"/>
<stop offset="1" stop-color="#D64A38" stop-opacity="0"/>
</radialGradient>
<radialGradient id="paint24_radial_6903_5229" cx="0" cy="0" r="1" gradientUnits="userSpaceOnUse" gradientTransform="translate(29.9731 20.5061) rotate(151.353) scale(0.967535)">
<stop stop-color="#FB7425"/>
<stop offset="1" stop-color="#FB7425" stop-opacity="0"/>
</radialGradient>
<radialGradient id="paint25_radial_6903_5229" cx="0" cy="0" r="1" gradientUnits="userSpaceOnUse" gradientTransform="translate(29.4461 20.5037) rotate(125.032) scale(0.468717)">
<stop stop-color="white" stop-opacity="0.3"/>
<stop offset="1" stop-color="white" stop-opacity="0"/>
</radialGradient>
<linearGradient id="paint26_linear_6903_5229" x1="25.0739" y1="24.7097" x2="29.1465" y2="26.6651" gradientUnits="userSpaceOnUse">
<stop offset="0.15625" stop-color="#D64A38"/>
<stop offset="1" stop-color="#FB7425"/>
</linearGradient>
<linearGradient id="paint27_linear_6903_5229" x1="27.8366" y1="25.0927" x2="27.3213" y2="26.1811" gradientUnits="userSpaceOnUse">
<stop stop-color="white" stop-opacity="0"/>
<stop offset="0.520833" stop-color="white" stop-opacity="0.2"/>
<stop offset="1" stop-color="white" stop-opacity="0"/>
</linearGradient>
<radialGradient id="paint28_radial_6903_5229" cx="0" cy="0" r="1" gradientUnits="userSpaceOnUse" gradientTransform="translate(24.9534 24.3889) rotate(24.15) scale(1.04481)">
<stop stop-color="#D64A38"/>
<stop offset="1" stop-color="#D64A38" stop-opacity="0"/>
</radialGradient>
<radialGradient id="paint29_radial_6903_5229" cx="0" cy="0" r="1" gradientUnits="userSpaceOnUse" gradientTransform="translate(29.9152 26.8178) rotate(-157.603) scale(0.967535)">
<stop stop-color="#FB7425"/>
<stop offset="1" stop-color="#FB7425" stop-opacity="0"/>
</radialGradient>
<radialGradient id="paint30_radial_6903_5229" cx="0" cy="0" r="1" gradientUnits="userSpaceOnUse" gradientTransform="translate(29.6005 26.2805) rotate(154.486) scale(0.578723)">
<stop stop-color="white" stop-opacity="0.3"/>
<stop offset="1" stop-color="white" stop-opacity="0"/>
</radialGradient>
<linearGradient id="paint31_linear_6903_5229" x1="7.01786" y1="24.7214" x2="2.94525" y2="26.6768" gradientUnits="userSpaceOnUse">
<stop offset="0.15625" stop-color="#D64A38"/>
<stop offset="1" stop-color="#FB7425"/>
</linearGradient>
<linearGradient id="paint32_linear_6903_5229" x1="4.25522" y1="25.1044" x2="4.77052" y2="26.1928" gradientUnits="userSpaceOnUse">
<stop stop-color="white" stop-opacity="0"/>
<stop offset="0.520833" stop-color="white" stop-opacity="0.2"/>
<stop offset="1" stop-color="white" stop-opacity="0"/>
</linearGradient>
<radialGradient id="paint33_radial_6903_5229" cx="0" cy="0" r="1" gradientUnits="userSpaceOnUse" gradientTransform="translate(7.13839 24.4007) rotate(155.85) scale(1.04481)">
<stop stop-color="#D64A38"/>
<stop offset="1" stop-color="#D64A38" stop-opacity="0"/>
</radialGradient>
<radialGradient id="paint34_radial_6903_5229" cx="0" cy="0" r="1" gradientUnits="userSpaceOnUse" gradientTransform="translate(2.17661 26.8295) rotate(-22.3971) scale(0.967535)">
<stop stop-color="#FB7425"/>
<stop offset="1" stop-color="#FB7425" stop-opacity="0"/>
</radialGradient>
<radialGradient id="paint35_radial_6903_5229" cx="0" cy="0" r="1" gradientUnits="userSpaceOnUse" gradientTransform="translate(6.53878 24.5667) rotate(141.872) scale(0.496749)">
<stop stop-color="white" stop-opacity="0.3"/>
<stop offset="1" stop-color="white" stop-opacity="0"/>
</radialGradient>
<linearGradient id="paint36_linear_6903_5229" x1="6.81819" y1="22.9292" x2="2.7275" y2="21.0119" gradientUnits="userSpaceOnUse">
<stop offset="0.15625" stop-color="#D64A38"/>
<stop offset="1" stop-color="#FB7425"/>
</linearGradient>
<linearGradient id="paint37_linear_6903_5229" x1="4.77403" y1="21.0318" x2="4.25698" y2="22.1194" gradientUnits="userSpaceOnUse">
<stop stop-color="white" stop-opacity="0"/>
<stop offset="0.520833" stop-color="white" stop-opacity="0.2"/>
<stop offset="1" stop-color="white" stop-opacity="0"/>
</linearGradient>
<radialGradient id="paint38_radial_6903_5229" cx="0" cy="0" r="1" gradientUnits="userSpaceOnUse" gradientTransform="translate(7.14282 22.8197) rotate(-153.389) scale(1.04481)">
<stop stop-color="#D64A38"/>
<stop offset="1" stop-color="#D64A38" stop-opacity="0"/>
</radialGradient>
<radialGradient id="paint39_radial_6903_5229" cx="0" cy="0" r="1" gradientUnits="userSpaceOnUse" gradientTransform="translate(2.12305 20.5131) rotate(28.3641) scale(0.967535)">
<stop stop-color="#FB7425"/>
<stop offset="1" stop-color="#FB7425" stop-opacity="0"/>
</radialGradient>
<radialGradient id="paint40_radial_6903_5229" cx="0" cy="0" r="1" gradientUnits="userSpaceOnUse" gradientTransform="translate(6.63491 22.4603) rotate(-167.367) scale(0.496749)">
<stop stop-color="white" stop-opacity="0.3"/>
<stop offset="1" stop-color="white" stop-opacity="0"/>
</radialGradient>
<linearGradient id="paint41_linear_6903_5229" x1="26.5398" y1="15.5078" x2="25.2898" y2="12.0391" gradientUnits="userSpaceOnUse">
<stop stop-color="#EF8A47"/>
<stop offset="1" stop-color="#EF8A47" stop-opacity="0"/>
</linearGradient>
<radialGradient id="paint42_radial_6903_5229" cx="0" cy="0" r="1" gradientUnits="userSpaceOnUse" gradientTransform="translate(24.305 12.1316) rotate(133.831) scale(0.936482 9.24798)">
<stop stop-color="#FFA319"/>
<stop offset="1" stop-color="#FFBA19" stop-opacity="0"/>
</radialGradient>
<radialGradient id="paint43_radial_6903_5229" cx="0" cy="0" r="1" gradientUnits="userSpaceOnUse" gradientTransform="translate(27.2229 10.2812) scale(0.771161 7.6154)">
<stop stop-color="#FF9419"/>
<stop offset="1" stop-color="#FFBA19" stop-opacity="0"/>
</radialGradient>
<radialGradient id="paint44_radial_6903_5229" cx="0" cy="0" r="1" gradientUnits="userSpaceOnUse" gradientTransform="translate(24.5299 8.4694) rotate(-130.864) scale(0.907259 8.9594)">
<stop stop-color="#FF9B19" stop-opacity="0.5"/>
<stop offset="1" stop-color="#FFBA19" stop-opacity="0"/>
</radialGradient>
<radialGradient id="paint45_radial_6903_5229" cx="0" cy="0" r="1" gradientUnits="userSpaceOnUse" gradientTransform="translate(24.9267 11.6233) rotate(-45.7638) scale(0.502944 2.40101)">
<stop stop-color="white" stop-opacity="0.3"/>
<stop offset="1" stop-color="white" stop-opacity="0"/>
</radialGradient>
<radialGradient id="paint46_radial_6903_5229" cx="0" cy="0" r="1" gradientUnits="userSpaceOnUse" gradientTransform="translate(25.1828 8.87328) rotate(-132.184) scale(0.409519 2.45272)">
<stop stop-color="white" stop-opacity="0.2"/>
<stop offset="1" stop-color="white" stop-opacity="0"/>
</radialGradient>
<radialGradient id="paint47_radial_6903_5229" cx="0" cy="0" r="1" gradientUnits="userSpaceOnUse" gradientTransform="translate(18.7532 16.075) rotate(51.0533) scale(2.63456 3.08463)">
<stop offset="0.588542" stop-color="#E59717" stop-opacity="0"/>
<stop offset="0.776398" stop-color="#E59717"/>
<stop offset="0.934783" stop-color="#E59717" stop-opacity="0"/>
</radialGradient>
<radialGradient id="paint48_radial_6903_5229" cx="0" cy="0" r="1" gradientUnits="userSpaceOnUse" gradientTransform="translate(20.795 18.6012) rotate(51.0533) scale(2.94547 2.49363)">
<stop offset="0.819444" stop-color="#F6BA27" stop-opacity="0"/>
<stop offset="1" stop-color="#F2B125"/>
</radialGradient>
<radialGradient id="paint49_radial_6903_5229" cx="0" cy="0" r="1" gradientUnits="userSpaceOnUse" gradientTransform="translate(20.7585 15.4993) rotate(93.4833) scale(1.13687)">
<stop offset="0.455698" stop-color="#F5B927"/>
<stop offset="1" stop-color="#F5B927" stop-opacity="0"/>
</radialGradient>
<radialGradient id="paint50_radial_6903_5229" cx="0" cy="0" r="1" gradientUnits="userSpaceOnUse" gradientTransform="translate(18.8508 23.1029) rotate(47.1602) scale(3.06413 3.7694)">
<stop offset="0.588542" stop-color="#E59717" stop-opacity="0"/>
<stop offset="0.776398" stop-color="#D68604"/>
<stop offset="0.934783" stop-color="#E59717" stop-opacity="0"/>
</radialGradient>
<radialGradient id="paint51_radial_6903_5229" cx="0" cy="0" r="1" gradientUnits="userSpaceOnUse" gradientTransform="translate(21.4195 25.873) rotate(47.1602) scale(3.42573 3.0472)">
<stop offset="0.819444" stop-color="#EC942E" stop-opacity="0"/>
<stop offset="1" stop-color="#EC9232"/>
</radialGradient>
<radialGradient id="paint52_radial_6903_5229" cx="0" cy="0" r="1" gradientUnits="userSpaceOnUse" gradientTransform="translate(21.2153 22.1996) rotate(91.0034) scale(1.35315 1.35751)">
<stop offset="0.455698" stop-color="#EBA321"/>
<stop offset="1" stop-color="#EBA321" stop-opacity="0"/>
</radialGradient>
<radialGradient id="paint53_radial_6903_5229" cx="0" cy="0" r="1" gradientUnits="userSpaceOnUse" gradientTransform="translate(11.4662 16.1485) rotate(133.35) scale(2.51563 2.94537)">
<stop offset="0.588542" stop-color="#E59717" stop-opacity="0"/>
<stop offset="0.776398" stop-color="#E59717"/>
<stop offset="0.934783" stop-color="#E59717" stop-opacity="0"/>
</radialGradient>
<radialGradient id="paint54_radial_6903_5229" cx="0" cy="0" r="1" gradientUnits="userSpaceOnUse" gradientTransform="translate(9.3371 18.4039) rotate(133.35) scale(2.8125 2.38105)">
<stop offset="0.819444" stop-color="#F6BA27" stop-opacity="0"/>
<stop offset="1" stop-color="#F6BA27"/>
</radialGradient>
<linearGradient id="paint55_linear_6903_5229" x1="22.8992" y1="18.2109" x2="18.4305" y2="18.211" gradientUnits="userSpaceOnUse">
<stop stop-color="#432A3D"/>
<stop offset="0.567708" stop-color="#684E61"/>
<stop offset="0.765625" stop-color="#43253D"/>
</linearGradient>
<linearGradient id="paint56_linear_6903_5229" x1="20.3211" y1="18.0547" x2="20.3211" y2="20.3516" gradientUnits="userSpaceOnUse">
<stop offset="0.326531" stop-color="#43253D" stop-opacity="0"/>
<stop offset="1" stop-color="#43253D"/>
</linearGradient>
<linearGradient id="paint57_linear_6903_5229" x1="14.9575" y1="18.2109" x2="10.4887" y2="18.211" gradientUnits="userSpaceOnUse">
<stop stop-color="#432A3D"/>
<stop offset="0.567708" stop-color="#684E61"/>
<stop offset="0.765625" stop-color="#43253D"/>
</linearGradient>
<linearGradient id="paint58_linear_6903_5229" x1="12.3793" y1="18.0547" x2="12.3793" y2="20.3516" gradientUnits="userSpaceOnUse">
<stop offset="0.326531" stop-color="#43253D" stop-opacity="0"/>
<stop offset="1" stop-color="#43253D"/>
</linearGradient>
<radialGradient id="paint59_radial_6903_5229" cx="0" cy="0" r="1" gradientUnits="userSpaceOnUse" gradientTransform="translate(16.4461 21.1796) rotate(-153.246) scale(2.11729 2.12981)">
<stop stop-color="#FF2BA3"/>
<stop offset="1" stop-color="#F9326A"/>
</radialGradient>
<radialGradient id="paint60_radial_6903_5229" cx="0" cy="0" r="1" gradientUnits="userSpaceOnUse" gradientTransform="translate(16.5286 20.7016) rotate(90) scale(0.467818 0.822375)">
<stop stop-color="white" stop-opacity="0.5"/>
<stop offset="1" stop-color="white" stop-opacity="0"/>
</radialGradient>
<radialGradient id="paint61_radial_6903_5229" cx="0" cy="0" r="1" gradientUnits="userSpaceOnUse" gradientTransform="translate(20.6719 15.6116) rotate(52.2066) scale(3.87548 8.54827)">
<stop offset="0.117371" stop-color="#483637"/>
<stop offset="0.276042" stop-color="#503A4A"/>
<stop offset="0.479167" stop-color="#482641"/>
<stop offset="0.479267" stop-color="#482641"/>
</radialGradient>
<radialGradient id="paint62_radial_6903_5229" cx="0" cy="0" r="1" gradientUnits="userSpaceOnUse" gradientTransform="translate(11.8355 16.264) rotate(128.706) scale(4.20971 7.45811)">
<stop offset="0.177083" stop-color="#483637"/>
<stop offset="0.276042" stop-color="#503A4A"/>
<stop offset="0.385417" stop-color="#482641"/>
</radialGradient>
<radialGradient id="paint63_radial_6903_5229" cx="0" cy="0" r="1" gradientUnits="userSpaceOnUse" gradientTransform="translate(19.9375 23.721) rotate(-49.0361) scale(9.10448 5.37415)">
<stop offset="0.189408" stop-color="#483637"/>
<stop offset="0.297843" stop-color="#503A4A"/>
<stop offset="0.394866" stop-color="#482641"/>
</radialGradient>
</defs>
</svg>
