<svg width="12" height="12" viewBox="0 0 12 12" fill="none" xmlns="http://www.w3.org/2000/svg">
<path fill-rule="evenodd" clip-rule="evenodd" d="M6 3C6.11935 3 6.23381 3.04741 6.3182 3.1318C6.40259 3.21619 6.45 3.33065 6.45 3.45V7.4328L7.626 6.138C7.66646 6.09339 7.71547 6.05736 7.77011 6.03204C7.82475 6.00672 7.88392 5.99263 7.94411 5.99059C8.0043 5.98856 8.06429 5.99863 8.12051 6.0202C8.17674 6.04178 8.22807 6.07442 8.27145 6.11619C8.31483 6.15797 8.34938 6.20802 8.37306 6.2634C8.39674 6.31877 8.40907 6.37833 8.4093 6.43856C8.40954 6.49878 8.39769 6.55844 8.37445 6.614C8.35121 6.66956 8.31705 6.71988 8.274 6.762L6.324 8.862C6.28202 8.90555 6.2317 8.94019 6.17603 8.96386C6.12036 8.98752 6.06049 8.99971 6 8.99971C5.93951 8.99971 5.87964 8.98752 5.82397 8.96386C5.76831 8.94019 5.71798 8.90555 5.676 8.862L3.726 6.762C3.68295 6.71988 3.64879 6.66956 3.62555 6.614C3.60231 6.55844 3.59046 6.49878 3.5907 6.43856C3.59094 6.37833 3.60326 6.31877 3.62694 6.2634C3.65062 6.20802 3.68518 6.15797 3.72856 6.11619C3.77194 6.07442 3.82326 6.04178 3.87949 6.0202C3.93571 5.99863 3.9957 5.98856 4.05589 5.99059C4.11608 5.99263 4.17525 6.00672 4.22989 6.03204C4.28453 6.05736 4.33354 6.09339 4.374 6.138L5.55 7.4328V3.45C5.55 3.33065 5.59741 3.21619 5.6818 3.1318C5.76619 3.04741 5.88065 3 6 3Z" fill="black"/>
</svg>
