<svg width="12" height="12" viewBox="0 0 12 12" fill="none" xmlns="http://www.w3.org/2000/svg">
<path fill-rule="evenodd" clip-rule="evenodd" d="M9 6C9 6.11934 8.95259 6.2338 8.8682 6.31819C8.78381 6.40259 8.66935 6.45 8.55 6.45H4.5672L5.862 7.626C5.90661 7.66646 5.94264 7.71546 5.96796 7.77011C5.99328 7.82475 6.00738 7.88392 6.00941 7.94411C6.01144 8.0043 6.00137 8.06428 5.9798 8.12051C5.95823 8.17674 5.92558 8.22806 5.88381 8.27144C5.84204 8.31482 5.79198 8.34938 5.73661 8.37306C5.68123 8.39674 5.62167 8.40906 5.56145 8.4093C5.50122 8.40954 5.44156 8.39769 5.386 8.37444C5.33045 8.3512 5.28012 8.31705 5.238 8.274L3.138 6.324C3.09445 6.28202 3.05981 6.23169 3.03615 6.17602C3.01248 6.12035 3.00029 6.06049 3.00029 6C3.00029 5.93951 3.01248 5.87964 3.03615 5.82397C3.05981 5.7683 3.09445 5.71797 3.138 5.676L5.238 3.726C5.28012 3.68295 5.33045 3.64879 5.386 3.62555C5.44156 3.60231 5.50122 3.59046 5.56145 3.59069C5.62167 3.59093 5.68123 3.60326 5.73661 3.62694C5.79198 3.65062 5.84204 3.68517 5.88381 3.72855C5.92558 3.77193 5.95823 3.82326 5.9798 3.87948C6.00137 3.93571 6.01144 3.9957 6.00941 4.05589C6.00738 4.11608 5.99328 4.17525 5.96796 4.22989C5.94264 4.28453 5.90661 4.33353 5.862 4.374L4.5672 5.55H8.55C8.66935 5.55 8.78381 5.59741 8.8682 5.6818C8.95259 5.76619 9 5.88065 9 6Z" fill="black"/>
</svg>
