<svg width="12" height="12" viewBox="0 0 12 12" fill="none" xmlns="http://www.w3.org/2000/svg">
<path fill-rule="evenodd" clip-rule="evenodd" d="M6 9C5.88065 9 5.76619 8.95259 5.6818 8.8682C5.59741 8.78381 5.55 8.66935 5.55 8.55V4.5672L4.374 5.862C4.29035 5.94384 4.17811 5.98987 4.06109 5.99033C3.94406 5.9908 3.83146 5.94565 3.74717 5.86448C3.66287 5.78331 3.61351 5.67249 3.60956 5.55553C3.60561 5.43858 3.64738 5.32468 3.726 5.238L5.676 3.138C5.71798 3.09445 5.76831 3.05981 5.82397 3.03615C5.87964 3.01248 5.93951 3.00029 6 3.00029C6.06049 3.00029 6.12036 3.01248 6.17603 3.03615C6.2317 3.05981 6.28202 3.09445 6.324 3.138L8.274 5.238C8.31705 5.28012 8.35121 5.33045 8.37445 5.386C8.39769 5.44156 8.40954 5.50122 8.4093 5.56145C8.40906 5.62167 8.39674 5.68123 8.37306 5.73661C8.34938 5.79198 8.31483 5.84204 8.27145 5.88381C8.22806 5.92558 8.17674 5.95823 8.12051 5.9798C8.06429 6.00137 8.0043 6.01144 7.94411 6.00941C7.88392 6.00738 7.82475 5.99328 7.77011 5.96796C7.71547 5.94264 7.66646 5.90661 7.626 5.862L6.45 4.5672V8.55C6.45 8.66935 6.40259 8.78381 6.3182 8.8682C6.23381 8.95259 6.11935 9 6 9Z" fill="black"/>
</svg>
