<svg width="12" height="12" viewBox="0 0 12 12" fill="none" xmlns="http://www.w3.org/2000/svg">
<path fill-rule="evenodd" clip-rule="evenodd" d="M3 6C3 5.88065 3.04741 5.76619 3.1318 5.6818C3.21619 5.59741 3.33065 5.55 3.45 5.55H7.4328L6.138 4.374C6.09339 4.33353 6.05736 4.28453 6.03204 4.22989C6.00672 4.17525 5.99263 4.11608 5.99059 4.05589C5.98856 3.9957 5.99863 3.93571 6.0202 3.87948C6.04178 3.82326 6.07442 3.77193 6.11619 3.72855C6.15797 3.68517 6.20802 3.65062 6.2634 3.62694C6.31877 3.60326 6.37833 3.59093 6.43856 3.59069C6.49878 3.59046 6.55844 3.60231 6.614 3.62555C6.66956 3.64879 6.71988 3.68295 6.762 3.726L8.862 5.676C8.90555 5.71797 8.94019 5.7683 8.96386 5.82397C8.98752 5.87964 8.99971 5.93951 8.99971 6C8.99971 6.06049 8.98752 6.12035 8.96386 6.17602C8.94019 6.23169 8.90555 6.28202 8.862 6.324L6.762 8.274C6.71988 8.31705 6.66956 8.3512 6.614 8.37444C6.55844 8.39769 6.49878 8.40954 6.43856 8.4093C6.37833 8.40906 6.31877 8.39674 6.2634 8.37306C6.20802 8.34938 6.15797 8.31482 6.11619 8.27144C6.07442 8.22806 6.04178 8.17674 6.0202 8.12051C5.99863 8.06428 5.98856 8.0043 5.99059 7.94411C5.99263 7.88392 6.00672 7.82475 6.03204 7.77011C6.05736 7.71546 6.09339 7.66646 6.138 7.626L7.4328 6.45H3.45C3.33065 6.45 3.21619 6.40259 3.1318 6.31819C3.04741 6.2338 3 6.11934 3 6Z" fill="black"/>
</svg>
