<svg width="12" height="12" viewBox="0 0 12 12" fill="none" xmlns="http://www.w3.org/2000/svg">
  <path fill-rule="evenodd" clip-rule="evenodd" d="M1.2 6C1.2 5.88065 1.24741 5.76619 1.3318 5.6818C1.41619 5.59741 1.53065 5.55 1.65 5.55H9.204L7.944 4.38C7.90066 4.33982 7.86566 4.29149 7.841 4.23778C7.81634 4.18407 7.80251 4.12603 7.80028 4.06697C7.79805 4.00791 7.80747 3.94899 7.82802 3.89358C7.84856 3.83816 7.87981 3.78734 7.92 3.744C8.00115 3.65648 8.11375 3.60478 8.23303 3.60028C8.29208 3.59805 8.351 3.60748 8.40642 3.62802C8.46183 3.64856 8.51266 3.67982 8.556 3.72L10.656 5.67C10.7014 5.71212 10.7377 5.76318 10.7625 5.81996C10.7873 5.87675 10.8001 5.93804 10.8001 6C10.8001 6.06196 10.7873 6.12325 10.7625 6.18004C10.7377 6.23682 10.7014 6.28788 10.656 6.33L8.556 8.28C8.46848 8.36116 8.3523 8.40422 8.23303 8.39972C8.11375 8.39522 8.00115 8.34352 7.92 8.256C7.83884 8.16848 7.79578 8.0523 7.80028 7.93303C7.80478 7.81376 7.85647 7.70116 7.944 7.62L9.204 6.45H1.65C1.53065 6.45 1.41619 6.40259 1.3318 6.3182C1.24741 6.23381 1.2 6.11935 1.2 6Z" fill="black" />
</svg>
