<svg width="12" height="12" viewBox="0 0 12 12" fill="none" xmlns="http://www.w3.org/2000/svg">
  <path fill-rule="evenodd" clip-rule="evenodd" d="M6 10.8C5.88065 10.8 5.76619 10.7526 5.6818 10.6682C5.59741 10.5838 5.55 10.4693 5.55 10.35V2.79599L4.38 4.05599C4.29884 4.14352 4.18624 4.19521 4.06697 4.19971C3.9477 4.20422 3.83152 4.16115 3.744 4.07999C3.65648 3.99884 3.60478 3.88624 3.60028 3.76697C3.59578 3.64769 3.63884 3.53152 3.72 3.44399L5.67 1.34399C5.71213 1.29856 5.76318 1.26231 5.81996 1.23752C5.87675 1.21273 5.93804 1.19994 6 1.19994C6.06196 1.19994 6.12325 1.21273 6.18004 1.23752C6.23682 1.26231 6.28788 1.29856 6.33 1.34399L8.28 3.44399C8.36116 3.53152 8.40422 3.64769 8.39972 3.76697C8.39522 3.88624 8.34352 3.99884 8.256 4.07999C8.16848 4.16115 8.0523 4.20422 7.93303 4.19971C7.81376 4.19521 7.70116 4.14352 7.62 4.05599L6.45 2.79599V10.35C6.45 10.4693 6.40259 10.5838 6.3182 10.6682C6.23381 10.7526 6.11935 10.8 6 10.8Z" fill="black"/>
</svg>
