<svg width="12" height="12" viewBox="0 0 12 12" fill="none" xmlns="http://www.w3.org/2000/svg">
  <path fill-rule="evenodd" clip-rule="evenodd" d="M10.8 6C10.8 6.11935 10.7526 6.23381 10.6682 6.3182C10.5838 6.40259 10.4693 6.45 10.35 6.45H2.796L4.056 7.62C4.14352 7.70116 4.19522 7.81376 4.19972 7.93303C4.20422 8.0523 4.16116 8.16848 4.08 8.256C3.99885 8.34352 3.88625 8.39522 3.76697 8.39972C3.6477 8.40422 3.53152 8.36116 3.444 8.28L1.344 6.33C1.29857 6.28788 1.26232 6.23682 1.23753 6.18004C1.21274 6.12325 1.19994 6.06196 1.19994 6C1.19994 5.93804 1.21274 5.87675 1.23753 5.81996C1.26232 5.76318 1.29857 5.71213 1.344 5.67L3.444 3.72C3.53152 3.63884 3.6477 3.59578 3.76697 3.60028C3.88625 3.60478 3.99885 3.65648 4.08 3.744C4.16116 3.83152 4.20422 3.9477 4.19972 4.06697C4.19522 4.18624 4.14352 4.29884 4.056 4.38L2.796 5.55H10.35C10.4693 5.55 10.5838 5.59741 10.6682 5.6818C10.7526 5.76619 10.8 5.88065 10.8 6Z" fill="black"/>
</svg>
