<svg width="12" height="12" viewBox="0 0 12 12" fill="none" xmlns="http://www.w3.org/2000/svg">
<path fill-rule="evenodd" clip-rule="evenodd" d="M6 1.2C6.11935 1.2 6.23381 1.24741 6.3182 1.3318C6.40259 1.41619 6.45 1.53065 6.45 1.65V9.204L7.62 7.944C7.70116 7.85647 7.81376 7.80478 7.93303 7.80028C7.99209 7.79805 8.05101 7.80747 8.10642 7.82802C8.16184 7.84856 8.21266 7.87981 8.256 7.92C8.29934 7.96018 8.33433 8.00851 8.35899 8.06222C8.38365 8.11593 8.39749 8.17397 8.39972 8.23303C8.40195 8.29208 8.39252 8.351 8.37198 8.40642C8.35144 8.46183 8.32019 8.51266 8.28 8.556L6.33 10.656C6.28788 10.7014 6.23682 10.7377 6.18004 10.7625C6.12325 10.7873 6.06196 10.8001 6 10.8001C5.93804 10.8001 5.87675 10.7873 5.81996 10.7625C5.76318 10.7377 5.71213 10.7014 5.67 10.656L3.72 8.556C3.63884 8.46848 3.59578 8.3523 3.60028 8.23303C3.60478 8.11375 3.65648 8.00115 3.744 7.92C3.83152 7.83884 3.9477 7.79578 4.06697 7.80028C4.18624 7.80478 4.29884 7.85647 4.38 7.944L5.55 9.204V1.65C5.55 1.53065 5.59741 1.41619 5.6818 1.3318C5.76619 1.24741 5.88065 1.2 6 1.2Z" fill="black"/>
</svg>
