<svg width="32" height="32" viewBox="0 0 32 32" fill="none" xmlns="http://www.w3.org/2000/svg">
<rect y="20.3637" width="32" height="11.6364" fill="#121417"/>
<path fill-rule="evenodd" clip-rule="evenodd" d="M31.3977 20.3637C29.4983 27.0793 23.3238 32 16 32C7.16344 32 0 24.8366 0 16C0 7.16344 7.16344 0 16 0C23.8856 0 30.4388 5.70456 31.7579 13.212L24.7274 16.7273L17.4547 20.3637H31.3977ZM19.6816 12.7273C19.3474 12.1483 18.9023 11.6409 18.3719 11.2339C17.8415 10.8269 17.2362 10.5284 16.5904 10.3553C15.9446 10.1823 15.2711 10.1382 14.6083 10.2254C13.9454 10.3127 13.3063 10.5296 12.7273 10.8639C12.1483 11.1982 11.6409 11.6432 11.2339 12.1736C10.8269 12.704 10.5284 13.3094 10.3553 13.9552C10.1823 14.6009 10.1382 15.2744 10.2254 15.9373C10.3127 16.6001 10.5296 17.2393 10.8639 17.8182L15.2728 15.2728L19.6816 12.7273Z" fill="#121417"/>
<rect y="16" width="10.1818" height="11.6364" fill="#121417"/>
</svg>
