<svg xmlns="http://www.w3.org/2000/svg" width="16" height="16" viewBox="0 0 16 16" fill="none">
  <path d="M5.76709 6.31321L9.44289 9.98901L12.7046 6.72731L9.02879 3.05151L5.76709 6.31321Z" fill="#D93965"/>
  <path d="M5.76709 6.31321L9.44289 9.98901L12.7046 6.72731L9.02879 3.05151L5.76709 6.31321Z" fill="url(#paint0_linear_43_12375)"/>
  <path d="M5.76709 6.31321L9.44289 9.98901L12.7046 6.72731L9.02879 3.05151L5.76709 6.31321Z" fill="url(#paint1_linear_43_12375)"/>
  <path d="M5.76709 6.31321L9.44289 9.98901L12.7046 6.72731L9.02879 3.05151L5.76709 6.31321Z" fill="url(#paint2_linear_43_12375)"/>
  <path d="M9.01031 1.1872C9.30316 0.894306 9.77806 0.894306 10.071 1.1872L14.5689 5.68514C14.8618 5.97804 14.8618 6.45289 14.5689 6.74579L14.2353 7.07944C13.6885 7.62614 12.8021 7.62614 12.2554 7.07944L8.67666 3.50073C8.12991 2.954 8.12991 2.06757 8.67666 1.52083L9.01031 1.1872Z" fill="url(#paint3_linear_43_12375)"/>
  <path d="M9.01031 1.1872C9.30316 0.894306 9.77806 0.894306 10.071 1.1872L14.5689 5.68514C14.8618 5.97804 14.8618 6.45289 14.5689 6.74579L14.2353 7.07944C13.6885 7.62614 12.8021 7.62614 12.2554 7.07944L8.67666 3.50073C8.12991 2.954 8.12991 2.06757 8.67666 1.52083L9.01031 1.1872Z" fill="url(#paint4_radial_43_12375)"/>
  <path d="M9.01031 1.1872C9.30316 0.894306 9.77806 0.894306 10.071 1.1872L14.5689 5.68514C14.8618 5.97804 14.8618 6.45289 14.5689 6.74579L14.2353 7.07944C13.6885 7.62614 12.8021 7.62614 12.2554 7.07944L8.67666 3.50073C8.12991 2.954 8.12991 2.06757 8.67666 1.52083L9.01031 1.1872Z" fill="url(#paint5_linear_43_12375)"/>
  <path d="M6.6479 8.19009C6.9014 7.93664 7.31235 7.93664 7.56585 8.19009C7.81935 8.44359 7.81935 8.85459 7.56585 9.10809L2.08147 14.5924C1.82798 14.8459 1.417 14.8459 1.16351 14.5924C0.910016 14.3389 0.910016 13.928 1.16351 13.6745L6.6479 8.19009Z" fill="url(#paint6_linear_43_12375)"/>
  <path d="M6.6479 8.19009C6.9014 7.93664 7.31235 7.93664 7.56585 8.19009C7.81935 8.44359 7.81935 8.85459 7.56585 9.10809L2.08147 14.5924C1.82798 14.8459 1.417 14.8459 1.16351 14.5924C0.910016 14.3389 0.910016 13.928 1.16351 13.6745L6.6479 8.19009Z" fill="url(#paint7_radial_43_12375)"/>
  <path d="M6.6479 8.19009C6.9014 7.93664 7.31235 7.93664 7.56585 8.19009C7.81935 8.44359 7.81935 8.85459 7.56585 9.10809L2.08147 14.5924C1.82798 14.8459 1.417 14.8459 1.16351 14.5924C0.910016 14.3389 0.910016 13.928 1.16351 13.6745L6.6479 8.19009Z" fill="url(#paint8_radial_43_12375)"/>
  <path d="M6.6479 8.19009C6.9014 7.93664 7.31235 7.93664 7.56585 8.19009C7.81935 8.44359 7.81935 8.85459 7.56585 9.10809L2.08147 14.5924C1.82798 14.8459 1.417 14.8459 1.16351 14.5924C0.910016 14.3389 0.910016 13.928 1.16351 13.6745L6.6479 8.19009Z" fill="url(#paint9_radial_43_12375)"/>
  <path d="M6.6479 8.19009C6.9014 7.93664 7.31235 7.93664 7.56585 8.19009C7.81935 8.44359 7.81935 8.85459 7.56585 9.10809L2.08147 14.5924C1.82798 14.8459 1.417 14.8459 1.16351 14.5924C0.910016 14.3389 0.910016 13.928 1.16351 13.6745L6.6479 8.19009Z" fill="url(#paint10_radial_43_12375)" fill-opacity="0.54"/>
  <path d="M6.6479 8.19009C6.9014 7.93664 7.31235 7.93664 7.56585 8.19009C7.81935 8.44359 7.81935 8.85459 7.56585 9.10809L2.08147 14.5924C1.82798 14.8459 1.417 14.8459 1.16351 14.5924C0.910016 14.3389 0.910016 13.928 1.16351 13.6745L6.6479 8.19009Z" fill="url(#paint11_radial_43_12375)"/>
  <path d="M6.6479 8.19009C6.9014 7.93664 7.31235 7.93664 7.56585 8.19009C7.81935 8.44359 7.81935 8.85459 7.56585 9.10809L2.08147 14.5924C1.82798 14.8459 1.417 14.8459 1.16351 14.5924C0.910016 14.3389 0.910016 13.928 1.16351 13.6745L6.6479 8.19009Z" fill="url(#paint12_radial_43_12375)"/>
  <path d="M6.6479 8.19009C6.9014 7.93664 7.31235 7.93664 7.56585 8.19009C7.81935 8.44359 7.81935 8.85459 7.56585 9.10809L2.08147 14.5924C1.82798 14.8459 1.417 14.8459 1.16351 14.5924C0.910016 14.3389 0.910016 13.928 1.16351 13.6745L6.6479 8.19009Z" fill="url(#paint13_radial_43_12375)"/>
  <path d="M3.15912 6.1087C2.83693 6.4309 2.83693 6.95325 3.15911 7.27545L8.48065 12.597C8.80285 12.9192 9.3252 12.9192 9.6474 12.597L9.98575 12.2587C10.7668 11.4776 10.7668 10.2113 9.98575 9.4302L6.3259 5.77035C5.54485 4.98931 4.27852 4.98931 3.49748 5.77035L3.15912 6.1087Z" fill="url(#paint14_linear_43_12375)"/>
  <path d="M3.15912 6.1087C2.83693 6.4309 2.83693 6.95325 3.15911 7.27545L8.48065 12.597C8.80285 12.9192 9.3252 12.9192 9.6474 12.597L9.98575 12.2587C10.7668 11.4776 10.7668 10.2113 9.98575 9.4302L6.3259 5.77035C5.54485 4.98931 4.27852 4.98931 3.49748 5.77035L3.15912 6.1087Z" fill="url(#paint15_radial_43_12375)"/>
  <path d="M3.15912 6.1087C2.83693 6.4309 2.83693 6.95325 3.15911 7.27545L8.48065 12.597C8.80285 12.9192 9.3252 12.9192 9.6474 12.597L9.98575 12.2587C10.7668 11.4776 10.7668 10.2113 9.98575 9.4302L6.3259 5.77035C5.54485 4.98931 4.27852 4.98931 3.49748 5.77035L3.15912 6.1087Z" fill="url(#paint16_radial_43_12375)"/>
  <path d="M3.15912 6.1087C2.83693 6.4309 2.83693 6.95325 3.15911 7.27545L8.48065 12.597C8.80285 12.9192 9.3252 12.9192 9.6474 12.597L9.98575 12.2587C10.7668 11.4776 10.7668 10.2113 9.98575 9.4302L6.3259 5.77035C5.54485 4.98931 4.27852 4.98931 3.49748 5.77035L3.15912 6.1087Z" fill="url(#paint17_radial_43_12375)"/>
  <path d="M3.15912 6.1087C2.83693 6.4309 2.83693 6.95325 3.15911 7.27545L8.48065 12.597C8.80285 12.9192 9.3252 12.9192 9.6474 12.597L9.98575 12.2587C10.7668 11.4776 10.7668 10.2113 9.98575 9.4302L6.3259 5.77035C5.54485 4.98931 4.27852 4.98931 3.49748 5.77035L3.15912 6.1087Z" fill="url(#paint18_linear_43_12375)"/>
  <defs>
    <linearGradient id="paint0_linear_43_12375" x1="7.39209" y1="4.78979" x2="9.48584" y2="6.97731" gradientUnits="userSpaceOnUse">
      <stop stop-color="#A7404E"/>
      <stop offset="1" stop-color="#A7404E" stop-opacity="0"/>
    </linearGradient>
    <linearGradient id="paint1_linear_43_12375" x1="11.1889" y1="8.64916" x2="9.68894" y2="7.22731" gradientUnits="userSpaceOnUse">
      <stop stop-color="#9C475F"/>
      <stop offset="1" stop-color="#D32A60" stop-opacity="0"/>
    </linearGradient>
    <linearGradient id="paint2_linear_43_12375" x1="11.2514" y1="5.61791" x2="10.7202" y2="6.16481" gradientUnits="userSpaceOnUse">
      <stop offset="0.207895" stop-color="#A72249"/>
      <stop offset="1" stop-color="#B14162" stop-opacity="0"/>
    </linearGradient>
    <linearGradient id="paint3_linear_43_12375" x1="8.26661" y1="1.57094" x2="14.111" y2="7.16469" gradientUnits="userSpaceOnUse">
      <stop stop-color="#E52C70"/>
      <stop offset="1" stop-color="#FC3154"/>
    </linearGradient>
    <radialGradient id="paint4_radial_43_12375" cx="0" cy="0" r="1" gradientUnits="userSpaceOnUse" gradientTransform="translate(12.7516 4.44594) rotate(136.081) scale(0.585675 3.74346)">
      <stop stop-color="#FF688C"/>
      <stop offset="1" stop-color="#FF688C" stop-opacity="0"/>
    </radialGradient>
    <linearGradient id="paint5_linear_43_12375" x1="10.2042" y1="5.87644" x2="11.5276" y2="4.811" gradientUnits="userSpaceOnUse">
      <stop offset="0.336493" stop-color="#C31C4D"/>
      <stop offset="1" stop-color="#C31C4D" stop-opacity="0"/>
    </linearGradient>
    <linearGradient id="paint6_linear_43_12375" x1="2.75461" y1="12.0113" x2="3.82473" y2="12.954" gradientUnits="userSpaceOnUse">
      <stop stop-color="#9D9798"/>
      <stop offset="0.866901" stop-color="#9B8EA4"/>
    </linearGradient>
    <radialGradient id="paint7_radial_43_12375" cx="0" cy="0" r="1" gradientUnits="userSpaceOnUse" gradientTransform="translate(5.58275 9.33599) rotate(134.341) scale(4.70257 1.12149)">
      <stop stop-color="#8C6E76"/>
      <stop offset="1" stop-color="#8C6E76" stop-opacity="0"/>
    </radialGradient>
    <radialGradient id="paint8_radial_43_12375" cx="0" cy="0" r="1" gradientUnits="userSpaceOnUse" gradientTransform="translate(6.32165 10.508) rotate(135) scale(4.93647 1.08098)">
      <stop offset="0.156934" stop-color="#7C547B"/>
      <stop offset="1" stop-color="#7C547B" stop-opacity="0"/>
    </radialGradient>
    <radialGradient id="paint9_radial_43_12375" cx="0" cy="0" r="1" gradientUnits="userSpaceOnUse" gradientTransform="translate(3.4935 8.77549) rotate(107.204) scale(6.28845 3.22078)">
      <stop offset="0.89925" stop-color="#826F91" stop-opacity="0"/>
      <stop offset="1" stop-color="#826F91"/>
    </radialGradient>
    <radialGradient id="paint10_radial_43_12375" cx="0" cy="0" r="1" gradientUnits="userSpaceOnUse" gradientTransform="translate(6.5129 9.20819) rotate(-135.773) scale(0.41052 2.07226)">
      <stop stop-color="#A9A1AC"/>
      <stop offset="1" stop-color="#A9A1AC" stop-opacity="0"/>
    </radialGradient>
    <radialGradient id="paint11_radial_43_12375" cx="0" cy="0" r="1" gradientUnits="userSpaceOnUse" gradientTransform="translate(2.90752 12.7986) rotate(-133.729) scale(0.5082 2.56586)">
      <stop stop-color="#A9A1AC"/>
      <stop offset="1" stop-color="#A9A1AC" stop-opacity="0"/>
    </radialGradient>
    <radialGradient id="paint12_radial_43_12375" cx="0" cy="0" r="1" gradientUnits="userSpaceOnUse" gradientTransform="translate(4.684 11.0273) rotate(-135.491) scale(0.44779 2.26046)">
      <stop stop-color="#A9A1AC"/>
      <stop offset="1" stop-color="#A9A1AC" stop-opacity="0"/>
    </radialGradient>
    <radialGradient id="paint13_radial_43_12375" cx="0" cy="0" r="1" gradientUnits="userSpaceOnUse" gradientTransform="translate(2.12046 13.5722) rotate(-130.997) scale(0.44562 2.25053)">
      <stop stop-color="#A9A1AC"/>
      <stop offset="1" stop-color="#A9A1AC" stop-opacity="0"/>
    </radialGradient>
    <linearGradient id="paint14_linear_43_12375" x1="4.9859" y1="5.6335" x2="10.2984" y2="11.9773" gradientUnits="userSpaceOnUse">
      <stop stop-color="#E72F7B"/>
      <stop offset="1" stop-color="#F63352"/>
    </linearGradient>
    <radialGradient id="paint15_radial_43_12375" cx="0" cy="0" r="1" gradientUnits="userSpaceOnUse" gradientTransform="translate(8.1109 8.78975) rotate(131.424) scale(1.41698 3.72958)">
      <stop offset="0.150778" stop-color="#FF678C"/>
      <stop offset="1" stop-color="#FF678C" stop-opacity="0"/>
    </radialGradient>
    <radialGradient id="paint16_radial_43_12375" cx="0" cy="0" r="1" gradientUnits="userSpaceOnUse" gradientTransform="translate(4.89215 9.72725) rotate(10.1981) scale(6.00105 9.24705)">
      <stop offset="0.717453" stop-color="#FF6773" stop-opacity="0"/>
      <stop offset="1" stop-color="#FF6773"/>
    </radialGradient>
    <radialGradient id="paint17_radial_43_12375" cx="0" cy="0" r="1" gradientUnits="userSpaceOnUse" gradientTransform="translate(8.43655 10.6355) rotate(-133.794) scale(6.8477)">
      <stop offset="0.816438" stop-color="#C95179" stop-opacity="0"/>
      <stop offset="1" stop-color="#C95179"/>
    </radialGradient>
    <linearGradient id="paint18_linear_43_12375" x1="6.04415" y1="9.9048" x2="6.93735" y2="9.0116" gradientUnits="userSpaceOnUse">
      <stop stop-color="#D3225F"/>
      <stop offset="1" stop-color="#D3225F" stop-opacity="0"/>
    </linearGradient>
  </defs>
</svg>