<svg width="22" height="22" viewBox="0 0 22 22" fill="none" xmlns="http://www.w3.org/2000/svg">
<rect x="1" y="1" width="20" height="20" rx="10" fill="#121417"/>
<rect x="1" y="1" width="20" height="20" rx="10" stroke="#121417" stroke-width="2"/>
<g clip-path="url(#clip0_252_3215)">
<rect x="3" y="13.1819" width="16" height="5.81818" fill="white"/>
<path fill-rule="evenodd" clip-rule="evenodd" d="M18.6989 13.1818C17.7491 16.5396 14.6619 19 11 19C6.58172 19 3 15.4183 3 11C3 6.58172 6.58172 3 11 3C14.9428 3 18.2194 5.85228 18.879 9.60601L15.3637 11.3636L11.7273 13.1818H18.6989ZM12.8408 9.36366C12.6737 9.07417 12.4512 8.82043 12.186 8.61694C11.9208 8.41345 11.6181 8.26418 11.2952 8.17767C10.9723 8.09115 10.6356 8.06908 10.3041 8.11271C9.97272 8.15634 9.65315 8.26482 9.36366 8.43196C9.07417 8.5991 8.82043 8.82162 8.61694 9.08681C8.41345 9.35201 8.26418 9.65469 8.17767 9.97758C8.09115 10.3005 8.06908 10.6372 8.11271 10.9686C8.15634 11.3 8.26482 11.6196 8.43196 11.9091L10.6364 10.6364L12.8408 9.36366Z" fill="white"/>
<rect x="3" y="11" width="5.09091" height="5.81818" fill="white"/>
</g>
<defs>
<clipPath id="clip0_252_3215">
<rect x="3" y="3" width="16" height="16" rx="8" fill="white"/>
</clipPath>
</defs>
</svg>
