<svg width="32" height="32" viewBox="0 0 32 32" fill="none" xmlns="http://www.w3.org/2000/svg">
<path d="M15.9989 29.9978C25.3333 29.9978 29.9978 23.7303 29.9978 15.9989C29.9978 8.26751 25.3333 2 15.9989 2C6.66443 2 2 8.26751 2 15.9989C2 23.7303 6.66443 29.9978 15.9989 29.9978Z" fill="url(#paint0_radial_31_15)"/>
<path d="M15.9989 29.9978C25.3333 29.9978 29.9978 23.7303 29.9978 15.9989C29.9978 8.26751 25.3333 2 15.9989 2C6.66443 2 2 8.26751 2 15.9989C2 23.7303 6.66443 29.9978 15.9989 29.9978Z" fill="url(#paint1_radial_31_15)"/>
<path d="M15.9989 29.9978C25.3333 29.9978 29.9978 23.7303 29.9978 15.9989C29.9978 8.26751 25.3333 2 15.9989 2C6.66443 2 2 8.26751 2 15.9989C2 23.7303 6.66443 29.9978 15.9989 29.9978Z" fill="url(#paint2_radial_31_15)"/>
<path d="M15.9989 29.9978C25.3333 29.9978 29.9978 23.7303 29.9978 15.9989C29.9978 8.26751 25.3333 2 15.9989 2C6.66443 2 2 8.26751 2 15.9989C2 23.7303 6.66443 29.9978 15.9989 29.9978Z" fill="url(#paint3_radial_31_15)" fill-opacity="0.6"/>
<path d="M15.9989 29.9978C25.3333 29.9978 29.9978 23.7303 29.9978 15.9989C29.9978 8.26751 25.3333 2 15.9989 2C6.66443 2 2 8.26751 2 15.9989C2 23.7303 6.66443 29.9978 15.9989 29.9978Z" fill="url(#paint4_radial_31_15)"/>
<path d="M15.9989 29.9978C25.3333 29.9978 29.9978 23.7303 29.9978 15.9989C29.9978 8.26751 25.3333 2 15.9989 2C6.66443 2 2 8.26751 2 15.9989C2 23.7303 6.66443 29.9978 15.9989 29.9978Z" fill="url(#paint5_radial_31_15)"/>
<path d="M15.9989 29.9978C25.3333 29.9978 29.9978 23.7303 29.9978 15.9989C29.9978 8.26751 25.3333 2 15.9989 2C6.66443 2 2 8.26751 2 15.9989C2 23.7303 6.66443 29.9978 15.9989 29.9978Z" fill="url(#paint6_radial_31_15)"/>
<path d="M15.9989 29.9978C25.3333 29.9978 29.9978 23.7303 29.9978 15.9989C29.9978 8.26751 25.3333 2 15.9989 2C6.66443 2 2 8.26751 2 15.9989C2 23.7303 6.66443 29.9978 15.9989 29.9978Z" fill="url(#paint7_radial_31_15)"/>
<path d="M15.9989 29.9978C25.3333 29.9978 29.9978 23.7303 29.9978 15.9989C29.9978 8.26751 25.3333 2 15.9989 2C6.66443 2 2 8.26751 2 15.9989C2 23.7303 6.66443 29.9978 15.9989 29.9978Z" fill="url(#paint8_radial_31_15)"/>
<path d="M15.9989 29.9978C25.3333 29.9978 29.9978 23.7303 29.9978 15.9989C29.9978 8.26751 25.3333 2 15.9989 2C6.66443 2 2 8.26751 2 15.9989C2 23.7303 6.66443 29.9978 15.9989 29.9978Z" fill="url(#paint9_radial_31_15)"/>
<path d="M15.9989 29.9978C25.3333 29.9978 29.9978 23.7303 29.9978 15.9989C29.9978 8.26751 25.3333 2 15.9989 2C6.66443 2 2 8.26751 2 15.9989C2 23.7303 6.66443 29.9978 15.9989 29.9978Z" fill="url(#paint10_radial_31_15)"/>
<path d="M15.9989 29.9978C25.3333 29.9978 29.9978 23.7303 29.9978 15.9989C29.9978 8.26751 25.3333 2 15.9989 2C6.66443 2 2 8.26751 2 15.9989C2 23.7303 6.66443 29.9978 15.9989 29.9978Z" fill="url(#paint11_radial_31_15)"/>
<path d="M15.9989 29.9978C25.3333 29.9978 29.9978 23.7303 29.9978 15.9989C29.9978 8.26751 25.3333 2 15.9989 2C6.66443 2 2 8.26751 2 15.9989C2 23.7303 6.66443 29.9978 15.9989 29.9978Z" fill="url(#paint12_radial_31_15)"/>
<path d="M15.9989 29.9978C25.3333 29.9978 29.9978 23.7303 29.9978 15.9989C29.9978 8.26751 25.3333 2 15.9989 2C6.66443 2 2 8.26751 2 15.9989C2 23.7303 6.66443 29.9978 15.9989 29.9978Z" fill="url(#paint13_radial_31_15)"/>
<path d="M15.9989 29.9978C25.3333 29.9978 29.9978 23.7303 29.9978 15.9989C29.9978 8.26751 25.3333 2 15.9989 2C6.66443 2 2 8.26751 2 15.9989C2 23.7303 6.66443 29.9978 15.9989 29.9978Z" fill="url(#paint14_radial_31_15)"/>
<path d="M15.9989 29.9978C25.3333 29.9978 29.9978 23.7303 29.9978 15.9989C29.9978 8.26751 25.3333 2 15.9989 2C6.66443 2 2 8.26751 2 15.9989C2 23.7303 6.66443 29.9978 15.9989 29.9978Z" fill="url(#paint15_radial_31_15)"/>
<path d="M15.9989 29.9978C25.3333 29.9978 29.9978 23.7303 29.9978 15.9989C29.9978 8.26751 25.3333 2 15.9989 2C6.66443 2 2 8.26751 2 15.9989C2 23.7303 6.66443 29.9978 15.9989 29.9978Z" fill="url(#paint16_radial_31_15)"/>
<path d="M15.9989 29.9978C25.3333 29.9978 29.9978 23.7303 29.9978 15.9989C29.9978 8.26751 25.3333 2 15.9989 2C6.66443 2 2 8.26751 2 15.9989C2 23.7303 6.66443 29.9978 15.9989 29.9978Z" fill="url(#paint17_radial_31_15)"/>
<path d="M15.9989 29.9978C25.3333 29.9978 29.9978 23.7303 29.9978 15.9989C29.9978 8.26751 25.3333 2 15.9989 2C6.66443 2 2 8.26751 2 15.9989C2 23.7303 6.66443 29.9978 15.9989 29.9978Z" fill="url(#paint18_radial_31_15)"/>
<path d="M15.9989 29.9978C25.3333 29.9978 29.9978 23.7303 29.9978 15.9989C29.9978 8.26751 25.3333 2 15.9989 2C6.66443 2 2 8.26751 2 15.9989C2 23.7303 6.66443 29.9978 15.9989 29.9978Z" fill="url(#paint19_radial_31_15)"/>
<path d="M8.98156 11.1909C9.02964 10.9436 9.13971 10.6405 9.34896 10.4125C9.52829 10.2171 9.84698 10 10.4999 10C11.1417 10 11.4685 10.2216 11.6572 10.4288C11.8753 10.6683 11.9804 10.9737 12.0147 11.1711C12.1092 11.7152 12.6269 12.0797 13.171 11.9853C13.7152 11.8908 14.0797 11.373 13.9852 10.8289C13.9062 10.374 13.6799 9.6794 13.1357 9.08196C12.562 8.45218 11.6955 8 10.4999 8C9.31564 8 8.45269 8.4313 7.87551 9.06013C7.32826 9.65637 7.10696 10.3533 7.01833 10.8091C6.91291 11.3513 7.26694 11.8762 7.80907 11.9816C8.3512 12.087 8.87614 11.733 8.98156 11.1909Z" fill="#583F51"/>
<path d="M8.98156 11.1909C9.02964 10.9436 9.13971 10.6405 9.34896 10.4125C9.52829 10.2171 9.84698 10 10.4999 10C11.1417 10 11.4685 10.2216 11.6572 10.4288C11.8753 10.6683 11.9804 10.9737 12.0147 11.1711C12.1092 11.7152 12.6269 12.0797 13.171 11.9853C13.7152 11.8908 14.0797 11.373 13.9852 10.8289C13.9062 10.374 13.6799 9.6794 13.1357 9.08196C12.562 8.45218 11.6955 8 10.4999 8C9.31564 8 8.45269 8.4313 7.87551 9.06013C7.32826 9.65637 7.10696 10.3533 7.01833 10.8091C6.91291 11.3513 7.26694 11.8762 7.80907 11.9816C8.3512 12.087 8.87614 11.733 8.98156 11.1909Z" fill="url(#paint20_radial_31_15)"/>
<path d="M8.98156 11.1909C9.02964 10.9436 9.13971 10.6405 9.34896 10.4125C9.52829 10.2171 9.84698 10 10.4999 10C11.1417 10 11.4685 10.2216 11.6572 10.4288C11.8753 10.6683 11.9804 10.9737 12.0147 11.1711C12.1092 11.7152 12.6269 12.0797 13.171 11.9853C13.7152 11.8908 14.0797 11.373 13.9852 10.8289C13.9062 10.374 13.6799 9.6794 13.1357 9.08196C12.562 8.45218 11.6955 8 10.4999 8C9.31564 8 8.45269 8.4313 7.87551 9.06013C7.32826 9.65637 7.10696 10.3533 7.01833 10.8091C6.91291 11.3513 7.26694 11.8762 7.80907 11.9816C8.3512 12.087 8.87614 11.733 8.98156 11.1909Z" fill="url(#paint21_radial_31_15)"/>
<path d="M8.98156 11.1909C9.02964 10.9436 9.13971 10.6405 9.34896 10.4125C9.52829 10.2171 9.84698 10 10.4999 10C11.1417 10 11.4685 10.2216 11.6572 10.4288C11.8753 10.6683 11.9804 10.9737 12.0147 11.1711C12.1092 11.7152 12.6269 12.0797 13.171 11.9853C13.7152 11.8908 14.0797 11.373 13.9852 10.8289C13.9062 10.374 13.6799 9.6794 13.1357 9.08196C12.562 8.45218 11.6955 8 10.4999 8C9.31564 8 8.45269 8.4313 7.87551 9.06013C7.32826 9.65637 7.10696 10.3533 7.01833 10.8091C6.91291 11.3513 7.26694 11.8762 7.80907 11.9816C8.3512 12.087 8.87614 11.733 8.98156 11.1909Z" fill="url(#paint22_radial_31_15)"/>
<path d="M19.9816 11.1909C20.0296 10.9436 20.1397 10.6405 20.349 10.4125C20.5283 10.2171 20.847 10 21.4999 10C22.1417 10 22.4685 10.2216 22.6572 10.4288C22.8753 10.6683 22.9804 10.9737 23.0147 11.1711C23.1092 11.7152 23.6269 12.0797 24.171 11.9853C24.7152 11.8908 25.0797 11.373 24.9852 10.8289C24.9062 10.374 24.6799 9.6794 24.1357 9.08196C23.562 8.45218 22.6955 8 21.4999 8C20.3156 8 19.4527 8.4313 18.8755 9.06013C18.3283 9.65637 18.107 10.3533 18.0183 10.8091C17.9129 11.3513 18.2669 11.8762 18.8091 11.9816C19.3512 12.087 19.8761 11.733 19.9816 11.1909Z" fill="#583F51"/>
<path d="M19.9816 11.1909C20.0296 10.9436 20.1397 10.6405 20.349 10.4125C20.5283 10.2171 20.847 10 21.4999 10C22.1417 10 22.4685 10.2216 22.6572 10.4288C22.8753 10.6683 22.9804 10.9737 23.0147 11.1711C23.1092 11.7152 23.6269 12.0797 24.171 11.9853C24.7152 11.8908 25.0797 11.373 24.9852 10.8289C24.9062 10.374 24.6799 9.6794 24.1357 9.08196C23.562 8.45218 22.6955 8 21.4999 8C20.3156 8 19.4527 8.4313 18.8755 9.06013C18.3283 9.65637 18.107 10.3533 18.0183 10.8091C17.9129 11.3513 18.2669 11.8762 18.8091 11.9816C19.3512 12.087 19.8761 11.733 19.9816 11.1909Z" fill="url(#paint23_radial_31_15)"/>
<path d="M19.9816 11.1909C20.0296 10.9436 20.1397 10.6405 20.349 10.4125C20.5283 10.2171 20.847 10 21.4999 10C22.1417 10 22.4685 10.2216 22.6572 10.4288C22.8753 10.6683 22.9804 10.9737 23.0147 11.1711C23.1092 11.7152 23.6269 12.0797 24.171 11.9853C24.7152 11.8908 25.0797 11.373 24.9852 10.8289C24.9062 10.374 24.6799 9.6794 24.1357 9.08196C23.562 8.45218 22.6955 8 21.4999 8C20.3156 8 19.4527 8.4313 18.8755 9.06013C18.3283 9.65637 18.107 10.3533 18.0183 10.8091C17.9129 11.3513 18.2669 11.8762 18.8091 11.9816C19.3512 12.087 19.8761 11.733 19.9816 11.1909Z" fill="url(#paint24_radial_31_15)"/>
<path d="M19.9816 11.1909C20.0296 10.9436 20.1397 10.6405 20.349 10.4125C20.5283 10.2171 20.847 10 21.4999 10C22.1417 10 22.4685 10.2216 22.6572 10.4288C22.8753 10.6683 22.9804 10.9737 23.0147 11.1711C23.1092 11.7152 23.6269 12.0797 24.171 11.9853C24.7152 11.8908 25.0797 11.373 24.9852 10.8289C24.9062 10.374 24.6799 9.6794 24.1357 9.08196C23.562 8.45218 22.6955 8 21.4999 8C20.3156 8 19.4527 8.4313 18.8755 9.06013C18.3283 9.65637 18.107 10.3533 18.0183 10.8091C17.9129 11.3513 18.2669 11.8762 18.8091 11.9816C19.3512 12.087 19.8761 11.733 19.9816 11.1909Z" fill="url(#paint25_radial_31_15)"/>
<path d="M18.3683 22.3683L15.5 19.5L23.5 16L24.455 18.292C25.2894 20.2946 24.2473 22.5842 22.1892 23.2703C20.8475 23.7175 19.3683 23.3683 18.3683 22.3683Z" fill="url(#paint26_radial_31_15)"/>
<path d="M18.3683 22.3683L15.5 19.5L23.5 16L24.455 18.292C25.2894 20.2946 24.2473 22.5842 22.1892 23.2703C20.8475 23.7175 19.3683 23.3683 18.3683 22.3683Z" fill="url(#paint27_radial_31_15)"/>
<path d="M18.3683 22.3683L15.5 19.5L23.5 16L24.455 18.292C25.2894 20.2946 24.2473 22.5842 22.1892 23.2703C20.8475 23.7175 19.3683 23.3683 18.3683 22.3683Z" fill="url(#paint28_linear_31_15)"/>
<path fill-rule="evenodd" clip-rule="evenodd" d="M8.40006 15.2C8.84189 14.8686 9.46869 14.9582 9.80006 15.4C10.0981 15.7973 11.7922 17.5 16.0001 17.5C20.2079 17.5 21.9021 15.7973 22.2001 15.4C22.5314 14.9582 23.1582 14.8686 23.6001 15.2C24.0419 15.5314 24.1314 16.1582 23.8001 16.6C23.0981 17.536 20.7922 19.5 16.0001 19.5C11.2079 19.5 8.90206 17.536 8.20006 16.6C7.86869 16.1582 7.95823 15.5314 8.40006 15.2Z" fill="url(#paint29_radial_31_15)"/>
<defs>
<radialGradient id="paint0_radial_31_15" cx="0" cy="0" r="1" gradientUnits="userSpaceOnUse" gradientTransform="translate(25.5 9) rotate(132.839) scale(37.5033)">
<stop stop-color="#FFF478"/>
<stop offset="0.474827" stop-color="#FFB02E"/>
<stop offset="1" stop-color="#F70A8D"/>
</radialGradient>
<radialGradient id="paint1_radial_31_15" cx="0" cy="0" r="1" gradientUnits="userSpaceOnUse" gradientTransform="translate(25.5 9) rotate(131.878) scale(38.9487)">
<stop stop-color="#FFF478"/>
<stop offset="0.474827" stop-color="#FFB02E"/>
<stop offset="1" stop-color="#F70A8D"/>
</radialGradient>
<radialGradient id="paint2_radial_31_15" cx="0" cy="0" r="1" gradientUnits="userSpaceOnUse" gradientTransform="translate(16 12.5) rotate(101.31) scale(17.8466 22.8581)">
<stop offset="0.787821" stop-color="#F59639" stop-opacity="0"/>
<stop offset="0.972509" stop-color="#FF7DCE"/>
</radialGradient>
<radialGradient id="paint3_radial_31_15" cx="0" cy="0" r="1" gradientUnits="userSpaceOnUse" gradientTransform="translate(18 14) rotate(135) scale(41.0122)">
<stop offset="0.314853" stop-opacity="0"/>
<stop offset="1"/>
</radialGradient>
<radialGradient id="paint4_radial_31_15" cx="0" cy="0" r="1" gradientUnits="userSpaceOnUse" gradientTransform="translate(16 17) rotate(77.692) scale(28.1469)">
<stop offset="0.507903" stop-color="#7D6133" stop-opacity="0"/>
<stop offset="1" stop-color="#715B32"/>
</radialGradient>
<radialGradient id="paint5_radial_31_15" cx="0" cy="0" r="1" gradientUnits="userSpaceOnUse" gradientTransform="translate(16.5 16.5) rotate(55.7131) scale(13.3135 9.65032)">
<stop stop-color="#FFB849"/>
<stop offset="1" stop-color="#FFB847" stop-opacity="0"/>
</radialGradient>
<radialGradient id="paint6_radial_31_15" cx="0" cy="0" r="1" gradientUnits="userSpaceOnUse" gradientTransform="translate(20.5 18) rotate(9.86581) scale(11.6726)">
<stop stop-color="#FFA64B"/>
<stop offset="0.900412" stop-color="#FFAE46" stop-opacity="0"/>
</radialGradient>
<radialGradient id="paint7_radial_31_15" cx="0" cy="0" r="1" gradientUnits="userSpaceOnUse" gradientTransform="translate(17.5 15) rotate(43.9708) scale(59.0529)">
<stop offset="0.185425" stop-opacity="0"/>
<stop offset="1" stop-opacity="0.4"/>
</radialGradient>
<radialGradient id="paint8_radial_31_15" cx="0" cy="0" r="1" gradientUnits="userSpaceOnUse" gradientTransform="translate(9.4402 11.6183) rotate(1.52517) scale(6.81952 5.03308)">
<stop stop-color="#F1A227"/>
<stop offset="1" stop-color="#F5A72C" stop-opacity="0"/>
</radialGradient>
<radialGradient id="paint9_radial_31_15" cx="0" cy="0" r="1" gradientUnits="userSpaceOnUse" gradientTransform="translate(17.4942 21.0305) rotate(12.7243) scale(4.87574)">
<stop stop-color="#EC6E55"/>
<stop offset="1" stop-color="#ED6F57" stop-opacity="0"/>
</radialGradient>
<radialGradient id="paint10_radial_31_15" cx="0" cy="0" r="1" gradientUnits="userSpaceOnUse" gradientTransform="translate(18.9745 10.9555) rotate(112.036) scale(2.00255 1.47796)">
<stop stop-color="#C47F23"/>
<stop offset="1" stop-color="#C37F23" stop-opacity="0"/>
</radialGradient>
<radialGradient id="paint11_radial_31_15" cx="0" cy="0" r="1" gradientUnits="userSpaceOnUse" gradientTransform="translate(23.5155 11.2592) rotate(51.9529) scale(1.87314 1.39552)">
<stop stop-color="#D28118"/>
<stop offset="1" stop-color="#D28118" stop-opacity="0"/>
</radialGradient>
<radialGradient id="paint12_radial_31_15" cx="0" cy="0" r="1" gradientUnits="userSpaceOnUse" gradientTransform="translate(22.2328 10.0727) rotate(45) scale(2.49427 1.23971)">
<stop stop-color="#D28118"/>
<stop offset="1" stop-color="#D68623" stop-opacity="0"/>
</radialGradient>
<radialGradient id="paint13_radial_31_15" cx="0" cy="0" r="1" gradientUnits="userSpaceOnUse" gradientTransform="translate(21.3028 9.49551) rotate(27.9795) scale(2.32396 0.954)">
<stop stop-color="#D28118"/>
<stop offset="1" stop-color="#D68623" stop-opacity="0"/>
</radialGradient>
<radialGradient id="paint14_radial_31_15" cx="0" cy="0" r="1" gradientUnits="userSpaceOnUse" gradientTransform="translate(12.3395 11.3614) rotate(60.5928) scale(1.9646 1.38843)">
<stop stop-color="#E49D37"/>
<stop offset="1" stop-color="#E49D37" stop-opacity="0"/>
</radialGradient>
<radialGradient id="paint15_radial_31_15" cx="0" cy="0" r="1" gradientUnits="userSpaceOnUse" gradientTransform="translate(8.22454 9.98363) rotate(-8.56089) scale(4.4529)">
<stop stop-color="#D59A13"/>
<stop offset="1" stop-color="#D59A13" stop-opacity="0"/>
</radialGradient>
<radialGradient id="paint16_radial_31_15" cx="0" cy="0" r="1" gradientUnits="userSpaceOnUse" gradientTransform="translate(12.5783 11.249) rotate(51.6048) scale(1.35374)">
<stop stop-color="#D07E2D"/>
<stop offset="1" stop-color="#D98833" stop-opacity="0"/>
</radialGradient>
<radialGradient id="paint17_radial_31_15" cx="0" cy="0" r="1" gradientUnits="userSpaceOnUse" gradientTransform="translate(11.1369 9.7276) rotate(56.6611) scale(1.50868 1.15447)">
<stop stop-color="#D88431"/>
<stop offset="1" stop-color="#CF8231" stop-opacity="0"/>
</radialGradient>
<radialGradient id="paint18_radial_31_15" cx="0" cy="0" r="1" gradientUnits="userSpaceOnUse" gradientTransform="translate(10.1546 9.81712) rotate(7.59464) scale(1.22714 0.939027)">
<stop stop-color="#D88431"/>
<stop offset="1" stop-color="#CF8231" stop-opacity="0"/>
</radialGradient>
<radialGradient id="paint19_radial_31_15" cx="0" cy="0" r="1" gradientUnits="userSpaceOnUse" gradientTransform="translate(7.71375 11.6094) rotate(-41.236) scale(1.07813)">
<stop stop-color="#DA8924"/>
<stop offset="1" stop-color="#DC8924" stop-opacity="0"/>
</radialGradient>
<radialGradient id="paint20_radial_31_15" cx="0" cy="0" r="1" gradientUnits="userSpaceOnUse" gradientTransform="translate(10.4999 11.2282) rotate(90) scale(2.78818)">
<stop offset="0.188596" stop-color="#1D1019"/>
<stop offset="1" stop-color="#462B3F" stop-opacity="0"/>
</radialGradient>
<radialGradient id="paint21_radial_31_15" cx="0" cy="0" r="1" gradientUnits="userSpaceOnUse" gradientTransform="translate(10.4999 11.2282) rotate(90) scale(3.60751 4.0944)">
<stop offset="0.718644" stop-color="#462B3F" stop-opacity="0"/>
<stop offset="1" stop-color="#1D1019"/>
</radialGradient>
<radialGradient id="paint22_radial_31_15" cx="0" cy="0" r="1" gradientUnits="userSpaceOnUse" gradientTransform="translate(10.4999 9.375) rotate(90) scale(3.3125 6.95835)">
<stop offset="0.429103" stop-color="#462B3F" stop-opacity="0"/>
<stop offset="1" stop-color="#1D1019"/>
</radialGradient>
<radialGradient id="paint23_radial_31_15" cx="0" cy="0" r="1" gradientUnits="userSpaceOnUse" gradientTransform="translate(21.4999 11.2282) rotate(90) scale(2.78818)">
<stop offset="0.188596" stop-color="#1D1019"/>
<stop offset="1" stop-color="#462B3F" stop-opacity="0"/>
</radialGradient>
<radialGradient id="paint24_radial_31_15" cx="0" cy="0" r="1" gradientUnits="userSpaceOnUse" gradientTransform="translate(21.4999 11.2282) rotate(90) scale(3.60751 4.0944)">
<stop offset="0.718644" stop-color="#462B3F" stop-opacity="0"/>
<stop offset="1" stop-color="#1D1019"/>
</radialGradient>
<radialGradient id="paint25_radial_31_15" cx="0" cy="0" r="1" gradientUnits="userSpaceOnUse" gradientTransform="translate(21.4999 9.375) rotate(90) scale(3.3125 6.95835)">
<stop offset="0.429103" stop-color="#462B3F" stop-opacity="0"/>
<stop offset="1" stop-color="#1D1019"/>
</radialGradient>
<radialGradient id="paint26_radial_31_15" cx="0" cy="0" r="1" gradientUnits="userSpaceOnUse" gradientTransform="translate(19.7346 16.3835) rotate(57.5196) scale(7.87153 6.94704)">
<stop offset="0.462494" stop-color="#FF2992"/>
<stop offset="0.683885" stop-color="#FF6F90"/>
<stop offset="0.738968" stop-color="#FF6F90"/>
<stop offset="0.881324" stop-color="#FF2839"/>
</radialGradient>
<radialGradient id="paint27_radial_31_15" cx="0" cy="0" r="1" gradientUnits="userSpaceOnUse" gradientTransform="translate(16.9751 20.6393) rotate(38.3801) scale(4.54643)">
<stop stop-color="#FF2A93"/>
<stop offset="1" stop-color="#FF2A93" stop-opacity="0"/>
</radialGradient>
<linearGradient id="paint28_linear_31_15" x1="15.9155" y1="20.9228" x2="20.1218" y2="20.6332" gradientUnits="userSpaceOnUse">
<stop stop-color="#E72172"/>
<stop offset="1" stop-color="#F4287C" stop-opacity="0"/>
</linearGradient>
<radialGradient id="paint29_radial_31_15" cx="0" cy="0" r="1" gradientUnits="userSpaceOnUse" gradientTransform="translate(16.0001 14) rotate(90) scale(6 9.18387)">
<stop offset="0.517632" stop-color="#4E2553"/>
<stop offset="0.702876" stop-color="#5B4852"/>
<stop offset="1" stop-color="#4E2553"/>
<stop offset="1" stop-color="#4E2553"/>
</radialGradient>
</defs>
</svg>
