<svg width="32" height="32" viewBox="0 0 32 32" fill="none" xmlns="http://www.w3.org/2000/svg">
<path d="M16.4989 29.9978C25.8333 29.9978 30.4978 23.7303 30.4978 15.9989C30.4978 8.26751 25.8333 2 16.4989 2C7.16443 2 2.5 8.26751 2.5 15.9989C2.5 23.7303 7.16443 29.9978 16.4989 29.9978Z" fill="url(#paint0_radial_31_96)"/>
<path d="M16.4989 29.9978C25.8333 29.9978 30.4978 23.7303 30.4978 15.9989C30.4978 8.26751 25.8333 2 16.4989 2C7.16443 2 2.5 8.26751 2.5 15.9989C2.5 23.7303 7.16443 29.9978 16.4989 29.9978Z" fill="url(#paint1_radial_31_96)"/>
<path d="M16.4989 29.9978C25.8333 29.9978 30.4978 23.7303 30.4978 15.9989C30.4978 8.26751 25.8333 2 16.4989 2C7.16443 2 2.5 8.26751 2.5 15.9989C2.5 23.7303 7.16443 29.9978 16.4989 29.9978Z" fill="url(#paint2_radial_31_96)" fill-opacity="0.6"/>
<path d="M16.4989 29.9978C25.8333 29.9978 30.4978 23.7303 30.4978 15.9989C30.4978 8.26751 25.8333 2 16.4989 2C7.16443 2 2.5 8.26751 2.5 15.9989C2.5 23.7303 7.16443 29.9978 16.4989 29.9978Z" fill="url(#paint3_radial_31_96)"/>
<path d="M16.4989 29.9978C25.8333 29.9978 30.4978 23.7303 30.4978 15.9989C30.4978 8.26751 25.8333 2 16.4989 2C7.16443 2 2.5 8.26751 2.5 15.9989C2.5 23.7303 7.16443 29.9978 16.4989 29.9978Z" fill="url(#paint4_radial_31_96)"/>
<path d="M16.4989 29.9978C25.8333 29.9978 30.4978 23.7303 30.4978 15.9989C30.4978 8.26751 25.8333 2 16.4989 2C7.16443 2 2.5 8.26751 2.5 15.9989C2.5 23.7303 7.16443 29.9978 16.4989 29.9978Z" fill="url(#paint5_radial_31_96)"/>
<path d="M16.4989 29.9978C25.8333 29.9978 30.4978 23.7303 30.4978 15.9989C30.4978 8.26751 25.8333 2 16.4989 2C7.16443 2 2.5 8.26751 2.5 15.9989C2.5 23.7303 7.16443 29.9978 16.4989 29.9978Z" fill="url(#paint6_radial_31_96)"/>
<path d="M16.4989 29.9978C25.8333 29.9978 30.4978 23.7303 30.4978 15.9989C30.4978 8.26751 25.8333 2 16.4989 2C7.16443 2 2.5 8.26751 2.5 15.9989C2.5 23.7303 7.16443 29.9978 16.4989 29.9978Z" fill="url(#paint7_radial_31_96)"/>
<path d="M16.4989 29.9978C25.8333 29.9978 30.4978 23.7303 30.4978 15.9989C30.4978 8.26751 25.8333 2 16.4989 2C7.16443 2 2.5 8.26751 2.5 15.9989C2.5 23.7303 7.16443 29.9978 16.4989 29.9978Z" fill="url(#paint8_radial_31_96)"/>
<path d="M16.4989 29.9978C25.8333 29.9978 30.4978 23.7303 30.4978 15.9989C30.4978 8.26751 25.8333 2 16.4989 2C7.16443 2 2.5 8.26751 2.5 15.9989C2.5 23.7303 7.16443 29.9978 16.4989 29.9978Z" fill="url(#paint9_radial_31_96)"/>
<path d="M16.4989 29.9978C25.8333 29.9978 30.4978 23.7303 30.4978 15.9989C30.4978 8.26751 25.8333 2 16.4989 2C7.16443 2 2.5 8.26751 2.5 15.9989C2.5 23.7303 7.16443 29.9978 16.4989 29.9978Z" fill="url(#paint10_radial_31_96)"/>
<path d="M16.4989 29.9978C25.8333 29.9978 30.4978 23.7303 30.4978 15.9989C30.4978 8.26751 25.8333 2 16.4989 2C7.16443 2 2.5 8.26751 2.5 15.9989C2.5 23.7303 7.16443 29.9978 16.4989 29.9978Z" fill="url(#paint11_radial_31_96)"/>
<path d="M16.4989 29.9978C25.8333 29.9978 30.4978 23.7303 30.4978 15.9989C30.4978 8.26751 25.8333 2 16.4989 2C7.16443 2 2.5 8.26751 2.5 15.9989C2.5 23.7303 7.16443 29.9978 16.4989 29.9978Z" fill="url(#paint12_radial_31_96)"/>
<path d="M16.4989 29.9978C25.8333 29.9978 30.4978 23.7303 30.4978 15.9989C30.4978 8.26751 25.8333 2 16.4989 2C7.16443 2 2.5 8.26751 2.5 15.9989C2.5 23.7303 7.16443 29.9978 16.4989 29.9978Z" fill="url(#paint13_radial_31_96)"/>
<path d="M16.4989 29.9978C25.8333 29.9978 30.4978 23.7303 30.4978 15.9989C30.4978 8.26751 25.8333 2 16.4989 2C7.16443 2 2.5 8.26751 2.5 15.9989C2.5 23.7303 7.16443 29.9978 16.4989 29.9978Z" fill="url(#paint14_radial_31_96)"/>
<path d="M16.4989 29.9978C25.8333 29.9978 30.4978 23.7303 30.4978 15.9989C30.4978 8.26751 25.8333 2 16.4989 2C7.16443 2 2.5 8.26751 2.5 15.9989C2.5 23.7303 7.16443 29.9978 16.4989 29.9978Z" fill="url(#paint15_radial_31_96)"/>
<path d="M16.4989 29.9978C25.8333 29.9978 30.4978 23.7303 30.4978 15.9989C30.4978 8.26751 25.8333 2 16.4989 2C7.16443 2 2.5 8.26751 2.5 15.9989C2.5 23.7303 7.16443 29.9978 16.4989 29.9978Z" fill="url(#paint16_radial_31_96)"/>
<path d="M16.4989 29.9978C25.8333 29.9978 30.4978 23.7303 30.4978 15.9989C30.4978 8.26751 25.8333 2 16.4989 2C7.16443 2 2.5 8.26751 2.5 15.9989C2.5 23.7303 7.16443 29.9978 16.4989 29.9978Z" fill="url(#paint17_radial_31_96)"/>
<path d="M16.4989 29.9978C25.8333 29.9978 30.4978 23.7303 30.4978 15.9989C30.4978 8.26751 25.8333 2 16.4989 2C7.16443 2 2.5 8.26751 2.5 15.9989C2.5 23.7303 7.16443 29.9978 16.4989 29.9978Z" fill="url(#paint18_radial_31_96)"/>
<path d="M16.4989 29.9978C25.8333 29.9978 30.4978 23.7303 30.4978 15.9989C30.4978 8.26751 25.8333 2 16.4989 2C7.16443 2 2.5 8.26751 2.5 15.9989C2.5 23.7303 7.16443 29.9978 16.4989 29.9978Z" fill="url(#paint19_radial_31_96)"/>
<path d="M16.4989 29.9978C25.8333 29.9978 30.4978 23.7303 30.4978 15.9989C30.4978 8.26751 25.8333 2 16.4989 2C7.16443 2 2.5 8.26751 2.5 15.9989C2.5 23.7303 7.16443 29.9978 16.4989 29.9978Z" fill="url(#paint20_radial_31_96)"/>
<path d="M16.4989 29.9978C25.8333 29.9978 30.4978 23.7303 30.4978 15.9989C30.4978 8.26751 25.8333 2 16.4989 2C7.16443 2 2.5 8.26751 2.5 15.9989C2.5 23.7303 7.16443 29.9978 16.4989 29.9978Z" fill="url(#paint21_radial_31_96)"/>
<path fill-rule="evenodd" clip-rule="evenodd" d="M9.49225 12.1251C9.49176 12.129 9.49125 12.1328 9.49072 12.1367L9.49145 12.1313L9.49188 12.128L9.49212 12.1261L9.49225 12.1251ZM12.5095 12.1367C12.584 12.678 13.0804 13.0603 13.6241 12.9923C14.1722 12.9238 14.5609 12.424 14.4924 11.876L14.4922 11.8749L14.4921 11.8737L14.4918 11.8713L14.4911 11.8658L14.4892 11.8526C14.4878 11.8427 14.486 11.8309 14.4838 11.8171C14.4793 11.7897 14.4731 11.7546 14.4645 11.7129C14.4475 11.6298 14.4209 11.5189 14.3804 11.3892C14.3002 11.1328 14.1603 10.786 13.9179 10.4335C13.4049 9.6873 12.4838 9 11.0001 9C9.51638 9 8.5953 9.6873 8.08231 10.4335C7.83994 10.786 7.69996 11.1328 7.61984 11.3892C7.57933 11.5189 7.55275 11.6298 7.53568 11.7129C7.52712 11.7546 7.52087 11.7897 7.51641 11.8171C7.51418 11.8309 7.51239 11.8427 7.51098 11.8526L7.50914 11.8658L7.50842 11.8713L7.50811 11.8737L7.50797 11.8749L7.50783 11.876C7.43932 12.424 7.82805 12.9238 8.37607 12.9923C8.91986 13.0603 9.41615 12.678 9.49072 12.1367C9.49124 12.1336 9.49253 12.1263 9.4948 12.1152C9.50019 12.089 9.51073 12.0436 9.5288 11.9858C9.56587 11.8672 9.62902 11.714 9.7304 11.5665C9.90491 11.3127 10.2338 11 11.0001 11C11.7664 11 12.0953 11.3127 12.2698 11.5665C12.3712 11.714 12.4343 11.8672 12.4714 11.9858C12.4895 12.0436 12.5 12.089 12.5054 12.1152C12.5077 12.1263 12.509 12.1336 12.5095 12.1367ZM12.5095 12.1367L12.5097 12.1379C12.5097 12.1379 12.5098 12.139 12.5095 12.1367L12.5088 12.1313L12.5083 12.128L12.5081 12.1261L12.508 12.1251L12.5078 12.124C12.5084 12.1283 12.5089 12.1325 12.5095 12.1367Z" fill="#43273B"/>
<path fill-rule="evenodd" clip-rule="evenodd" d="M9.49225 12.1251C9.49176 12.129 9.49125 12.1328 9.49072 12.1367L9.49145 12.1313L9.49188 12.128L9.49212 12.1261L9.49225 12.1251ZM12.5095 12.1367C12.584 12.678 13.0804 13.0603 13.6241 12.9923C14.1722 12.9238 14.5609 12.424 14.4924 11.876L14.4922 11.8749L14.4921 11.8737L14.4918 11.8713L14.4911 11.8658L14.4892 11.8526C14.4878 11.8427 14.486 11.8309 14.4838 11.8171C14.4793 11.7897 14.4731 11.7546 14.4645 11.7129C14.4475 11.6298 14.4209 11.5189 14.3804 11.3892C14.3002 11.1328 14.1603 10.786 13.9179 10.4335C13.4049 9.6873 12.4838 9 11.0001 9C9.51638 9 8.5953 9.6873 8.08231 10.4335C7.83994 10.786 7.69996 11.1328 7.61984 11.3892C7.57933 11.5189 7.55275 11.6298 7.53568 11.7129C7.52712 11.7546 7.52087 11.7897 7.51641 11.8171C7.51418 11.8309 7.51239 11.8427 7.51098 11.8526L7.50914 11.8658L7.50842 11.8713L7.50811 11.8737L7.50797 11.8749L7.50783 11.876C7.43932 12.424 7.82805 12.9238 8.37607 12.9923C8.91986 13.0603 9.41615 12.678 9.49072 12.1367C9.49124 12.1336 9.49253 12.1263 9.4948 12.1152C9.50019 12.089 9.51073 12.0436 9.5288 11.9858C9.56587 11.8672 9.62902 11.714 9.7304 11.5665C9.90491 11.3127 10.2338 11 11.0001 11C11.7664 11 12.0953 11.3127 12.2698 11.5665C12.3712 11.714 12.4343 11.8672 12.4714 11.9858C12.4895 12.0436 12.5 12.089 12.5054 12.1152C12.5077 12.1263 12.509 12.1336 12.5095 12.1367ZM12.5095 12.1367L12.5097 12.1379C12.5097 12.1379 12.5098 12.139 12.5095 12.1367L12.5088 12.1313L12.5083 12.128L12.5081 12.1261L12.508 12.1251L12.5078 12.124C12.5084 12.1283 12.5089 12.1325 12.5095 12.1367Z" fill="url(#paint22_radial_31_96)"/>
<path fill-rule="evenodd" clip-rule="evenodd" d="M9.49225 12.1251C9.49176 12.129 9.49125 12.1328 9.49072 12.1367L9.49145 12.1313L9.49188 12.128L9.49212 12.1261L9.49225 12.1251ZM12.5095 12.1367C12.584 12.678 13.0804 13.0603 13.6241 12.9923C14.1722 12.9238 14.5609 12.424 14.4924 11.876L14.4922 11.8749L14.4921 11.8737L14.4918 11.8713L14.4911 11.8658L14.4892 11.8526C14.4878 11.8427 14.486 11.8309 14.4838 11.8171C14.4793 11.7897 14.4731 11.7546 14.4645 11.7129C14.4475 11.6298 14.4209 11.5189 14.3804 11.3892C14.3002 11.1328 14.1603 10.786 13.9179 10.4335C13.4049 9.6873 12.4838 9 11.0001 9C9.51638 9 8.5953 9.6873 8.08231 10.4335C7.83994 10.786 7.69996 11.1328 7.61984 11.3892C7.57933 11.5189 7.55275 11.6298 7.53568 11.7129C7.52712 11.7546 7.52087 11.7897 7.51641 11.8171C7.51418 11.8309 7.51239 11.8427 7.51098 11.8526L7.50914 11.8658L7.50842 11.8713L7.50811 11.8737L7.50797 11.8749L7.50783 11.876C7.43932 12.424 7.82805 12.9238 8.37607 12.9923C8.91986 13.0603 9.41615 12.678 9.49072 12.1367C9.49124 12.1336 9.49253 12.1263 9.4948 12.1152C9.50019 12.089 9.51073 12.0436 9.5288 11.9858C9.56587 11.8672 9.62902 11.714 9.7304 11.5665C9.90491 11.3127 10.2338 11 11.0001 11C11.7664 11 12.0953 11.3127 12.2698 11.5665C12.3712 11.714 12.4343 11.8672 12.4714 11.9858C12.4895 12.0436 12.5 12.089 12.5054 12.1152C12.5077 12.1263 12.509 12.1336 12.5095 12.1367ZM12.5095 12.1367L12.5097 12.1379C12.5097 12.1379 12.5098 12.139 12.5095 12.1367L12.5088 12.1313L12.5083 12.128L12.5081 12.1261L12.508 12.1251L12.5078 12.124C12.5084 12.1283 12.5089 12.1325 12.5095 12.1367Z" fill="url(#paint23_radial_31_96)"/>
<path fill-rule="evenodd" clip-rule="evenodd" d="M9.49225 12.1251C9.49176 12.129 9.49125 12.1328 9.49072 12.1367L9.49145 12.1313L9.49188 12.128L9.49212 12.1261L9.49225 12.1251ZM12.5095 12.1367C12.584 12.678 13.0804 13.0603 13.6241 12.9923C14.1722 12.9238 14.5609 12.424 14.4924 11.876L14.4922 11.8749L14.4921 11.8737L14.4918 11.8713L14.4911 11.8658L14.4892 11.8526C14.4878 11.8427 14.486 11.8309 14.4838 11.8171C14.4793 11.7897 14.4731 11.7546 14.4645 11.7129C14.4475 11.6298 14.4209 11.5189 14.3804 11.3892C14.3002 11.1328 14.1603 10.786 13.9179 10.4335C13.4049 9.6873 12.4838 9 11.0001 9C9.51638 9 8.5953 9.6873 8.08231 10.4335C7.83994 10.786 7.69996 11.1328 7.61984 11.3892C7.57933 11.5189 7.55275 11.6298 7.53568 11.7129C7.52712 11.7546 7.52087 11.7897 7.51641 11.8171C7.51418 11.8309 7.51239 11.8427 7.51098 11.8526L7.50914 11.8658L7.50842 11.8713L7.50811 11.8737L7.50797 11.8749L7.50783 11.876C7.43932 12.424 7.82805 12.9238 8.37607 12.9923C8.91986 13.0603 9.41615 12.678 9.49072 12.1367C9.49124 12.1336 9.49253 12.1263 9.4948 12.1152C9.50019 12.089 9.51073 12.0436 9.5288 11.9858C9.56587 11.8672 9.62902 11.714 9.7304 11.5665C9.90491 11.3127 10.2338 11 11.0001 11C11.7664 11 12.0953 11.3127 12.2698 11.5665C12.3712 11.714 12.4343 11.8672 12.4714 11.9858C12.4895 12.0436 12.5 12.089 12.5054 12.1152C12.5077 12.1263 12.509 12.1336 12.5095 12.1367ZM12.5095 12.1367L12.5097 12.1379C12.5097 12.1379 12.5098 12.139 12.5095 12.1367L12.5088 12.1313L12.5083 12.128L12.5081 12.1261L12.508 12.1251L12.5078 12.124C12.5084 12.1283 12.5089 12.1325 12.5095 12.1367Z" fill="url(#paint24_radial_31_96)"/>
<path fill-rule="evenodd" clip-rule="evenodd" d="M9.49225 12.1251C9.49176 12.129 9.49125 12.1328 9.49072 12.1367L9.49145 12.1313L9.49188 12.128L9.49212 12.1261L9.49225 12.1251ZM12.5095 12.1367C12.584 12.678 13.0804 13.0603 13.6241 12.9923C14.1722 12.9238 14.5609 12.424 14.4924 11.876L14.4922 11.8749L14.4921 11.8737L14.4918 11.8713L14.4911 11.8658L14.4892 11.8526C14.4878 11.8427 14.486 11.8309 14.4838 11.8171C14.4793 11.7897 14.4731 11.7546 14.4645 11.7129C14.4475 11.6298 14.4209 11.5189 14.3804 11.3892C14.3002 11.1328 14.1603 10.786 13.9179 10.4335C13.4049 9.6873 12.4838 9 11.0001 9C9.51638 9 8.5953 9.6873 8.08231 10.4335C7.83994 10.786 7.69996 11.1328 7.61984 11.3892C7.57933 11.5189 7.55275 11.6298 7.53568 11.7129C7.52712 11.7546 7.52087 11.7897 7.51641 11.8171C7.51418 11.8309 7.51239 11.8427 7.51098 11.8526L7.50914 11.8658L7.50842 11.8713L7.50811 11.8737L7.50797 11.8749L7.50783 11.876C7.43932 12.424 7.82805 12.9238 8.37607 12.9923C8.91986 13.0603 9.41615 12.678 9.49072 12.1367C9.49124 12.1336 9.49253 12.1263 9.4948 12.1152C9.50019 12.089 9.51073 12.0436 9.5288 11.9858C9.56587 11.8672 9.62902 11.714 9.7304 11.5665C9.90491 11.3127 10.2338 11 11.0001 11C11.7664 11 12.0953 11.3127 12.2698 11.5665C12.3712 11.714 12.4343 11.8672 12.4714 11.9858C12.4895 12.0436 12.5 12.089 12.5054 12.1152C12.5077 12.1263 12.509 12.1336 12.5095 12.1367ZM12.5095 12.1367L12.5097 12.1379C12.5097 12.1379 12.5098 12.139 12.5095 12.1367L12.5088 12.1313L12.5083 12.128L12.5081 12.1261L12.508 12.1251L12.5078 12.124C12.5084 12.1283 12.5089 12.1325 12.5095 12.1367Z" fill="url(#paint25_radial_31_96)"/>
<path fill-rule="evenodd" clip-rule="evenodd" d="M9.49225 12.1251C9.49176 12.129 9.49125 12.1328 9.49072 12.1367L9.49145 12.1313L9.49188 12.128L9.49212 12.1261L9.49225 12.1251ZM12.5095 12.1367C12.584 12.678 13.0804 13.0603 13.6241 12.9923C14.1722 12.9238 14.5609 12.424 14.4924 11.876L14.4922 11.8749L14.4921 11.8737L14.4918 11.8713L14.4911 11.8658L14.4892 11.8526C14.4878 11.8427 14.486 11.8309 14.4838 11.8171C14.4793 11.7897 14.4731 11.7546 14.4645 11.7129C14.4475 11.6298 14.4209 11.5189 14.3804 11.3892C14.3002 11.1328 14.1603 10.786 13.9179 10.4335C13.4049 9.6873 12.4838 9 11.0001 9C9.51638 9 8.5953 9.6873 8.08231 10.4335C7.83994 10.786 7.69996 11.1328 7.61984 11.3892C7.57933 11.5189 7.55275 11.6298 7.53568 11.7129C7.52712 11.7546 7.52087 11.7897 7.51641 11.8171C7.51418 11.8309 7.51239 11.8427 7.51098 11.8526L7.50914 11.8658L7.50842 11.8713L7.50811 11.8737L7.50797 11.8749L7.50783 11.876C7.43932 12.424 7.82805 12.9238 8.37607 12.9923C8.91986 13.0603 9.41615 12.678 9.49072 12.1367C9.49124 12.1336 9.49253 12.1263 9.4948 12.1152C9.50019 12.089 9.51073 12.0436 9.5288 11.9858C9.56587 11.8672 9.62902 11.714 9.7304 11.5665C9.90491 11.3127 10.2338 11 11.0001 11C11.7664 11 12.0953 11.3127 12.2698 11.5665C12.3712 11.714 12.4343 11.8672 12.4714 11.9858C12.4895 12.0436 12.5 12.089 12.5054 12.1152C12.5077 12.1263 12.509 12.1336 12.5095 12.1367ZM12.5095 12.1367L12.5097 12.1379C12.5097 12.1379 12.5098 12.139 12.5095 12.1367L12.5088 12.1313L12.5083 12.128L12.5081 12.1261L12.508 12.1251L12.5078 12.124C12.5084 12.1283 12.5089 12.1325 12.5095 12.1367Z" fill="url(#paint26_radial_31_96)"/>
<path fill-rule="evenodd" clip-rule="evenodd" d="M21.0418 11.3315C20.8107 11.5459 20.6137 11.8808 20.4358 12.3527C20.241 12.8695 19.6641 13.1305 19.1473 12.9357C18.6305 12.7409 18.3695 12.1641 18.5643 11.6473C18.79 11.0485 19.1232 10.3833 19.6814 9.86543C20.2685 9.32071 21.0384 9 22 9C24.3046 9 25.2233 10.8774 25.4627 11.7295C25.6121 12.2612 25.3022 12.8133 24.7705 12.9627C24.2388 13.1121 23.6867 12.8022 23.5373 12.2705C23.3853 11.7296 22.9425 11 22 11C21.5222 11 21.2439 11.1439 21.0418 11.3315Z" fill="#43273B"/>
<path fill-rule="evenodd" clip-rule="evenodd" d="M21.0418 11.3315C20.8107 11.5459 20.6137 11.8808 20.4358 12.3527C20.241 12.8695 19.6641 13.1305 19.1473 12.9357C18.6305 12.7409 18.3695 12.1641 18.5643 11.6473C18.79 11.0485 19.1232 10.3833 19.6814 9.86543C20.2685 9.32071 21.0384 9 22 9C24.3046 9 25.2233 10.8774 25.4627 11.7295C25.6121 12.2612 25.3022 12.8133 24.7705 12.9627C24.2388 13.1121 23.6867 12.8022 23.5373 12.2705C23.3853 11.7296 22.9425 11 22 11C21.5222 11 21.2439 11.1439 21.0418 11.3315Z" fill="url(#paint27_radial_31_96)"/>
<path fill-rule="evenodd" clip-rule="evenodd" d="M21.0418 11.3315C20.8107 11.5459 20.6137 11.8808 20.4358 12.3527C20.241 12.8695 19.6641 13.1305 19.1473 12.9357C18.6305 12.7409 18.3695 12.1641 18.5643 11.6473C18.79 11.0485 19.1232 10.3833 19.6814 9.86543C20.2685 9.32071 21.0384 9 22 9C24.3046 9 25.2233 10.8774 25.4627 11.7295C25.6121 12.2612 25.3022 12.8133 24.7705 12.9627C24.2388 13.1121 23.6867 12.8022 23.5373 12.2705C23.3853 11.7296 22.9425 11 22 11C21.5222 11 21.2439 11.1439 21.0418 11.3315Z" fill="url(#paint28_radial_31_96)"/>
<path fill-rule="evenodd" clip-rule="evenodd" d="M21.0418 11.3315C20.8107 11.5459 20.6137 11.8808 20.4358 12.3527C20.241 12.8695 19.6641 13.1305 19.1473 12.9357C18.6305 12.7409 18.3695 12.1641 18.5643 11.6473C18.79 11.0485 19.1232 10.3833 19.6814 9.86543C20.2685 9.32071 21.0384 9 22 9C24.3046 9 25.2233 10.8774 25.4627 11.7295C25.6121 12.2612 25.3022 12.8133 24.7705 12.9627C24.2388 13.1121 23.6867 12.8022 23.5373 12.2705C23.3853 11.7296 22.9425 11 22 11C21.5222 11 21.2439 11.1439 21.0418 11.3315Z" fill="url(#paint29_radial_31_96)"/>
<path fill-rule="evenodd" clip-rule="evenodd" d="M21.0418 11.3315C20.8107 11.5459 20.6137 11.8808 20.4358 12.3527C20.241 12.8695 19.6641 13.1305 19.1473 12.9357C18.6305 12.7409 18.3695 12.1641 18.5643 11.6473C18.79 11.0485 19.1232 10.3833 19.6814 9.86543C20.2685 9.32071 21.0384 9 22 9C24.3046 9 25.2233 10.8774 25.4627 11.7295C25.6121 12.2612 25.3022 12.8133 24.7705 12.9627C24.2388 13.1121 23.6867 12.8022 23.5373 12.2705C23.3853 11.7296 22.9425 11 22 11C21.5222 11 21.2439 11.1439 21.0418 11.3315Z" fill="url(#paint30_radial_31_96)"/>
<path fill-rule="evenodd" clip-rule="evenodd" d="M21.0418 11.3315C20.8107 11.5459 20.6137 11.8808 20.4358 12.3527C20.241 12.8695 19.6641 13.1305 19.1473 12.9357C18.6305 12.7409 18.3695 12.1641 18.5643 11.6473C18.79 11.0485 19.1232 10.3833 19.6814 9.86543C20.2685 9.32071 21.0384 9 22 9C24.3046 9 25.2233 10.8774 25.4627 11.7295C25.6121 12.2612 25.3022 12.8133 24.7705 12.9627C24.2388 13.1121 23.6867 12.8022 23.5373 12.2705C23.3853 11.7296 22.9425 11 22 11C21.5222 11 21.2439 11.1439 21.0418 11.3315Z" fill="url(#paint31_radial_31_96)"/>
<path fill-rule="evenodd" clip-rule="evenodd" d="M8.56927 7.98761C7.97637 8.55049 7.61781 9.22774 7.47436 9.65811C7.38703 9.92009 7.10387 10.0617 6.8419 9.97434C6.57993 9.88702 6.43835 9.60386 6.52567 9.34189C6.71555 8.77226 7.15699 7.94951 7.88076 7.26239C8.61302 6.5672 9.64792 6 11 6C11.2762 6 11.5 6.22386 11.5 6.5C11.5 6.77614 11.2762 7 11 7C9.95211 7 9.15367 7.4328 8.56927 7.98761Z" fill="url(#paint32_linear_31_96)"/>
<path fill-rule="evenodd" clip-rule="evenodd" d="M24.4307 7.98761C25.0236 8.55049 25.3822 9.22774 25.5256 9.65811C25.613 9.92009 25.8961 10.0617 26.1581 9.97434C26.4201 9.88702 26.5617 9.60386 26.4743 9.34189C26.2845 8.77226 25.843 7.94951 25.1192 7.26239C24.387 6.5672 23.3521 6 22 6C21.7238 6 21.5 6.22386 21.5 6.5C21.5 6.77614 21.7238 7 22 7C23.0479 7 23.8463 7.4328 24.4307 7.98761Z" fill="url(#paint33_linear_31_96)"/>
<path fill-rule="evenodd" clip-rule="evenodd" d="M4.02311 23H9.50006V22H3.57996C3.71501 22.3412 3.86272 22.6747 4.02311 23Z" fill="url(#paint34_linear_31_96)"/>
<path fill-rule="evenodd" clip-rule="evenodd" d="M2.66711 13.5233L8.72965 17.4206L9.27041 16.5794L2.85143 12.4529C2.7787 12.8045 2.71726 13.1615 2.66711 13.5233Z" fill="url(#paint35_linear_31_96)"/>
<path fill-rule="evenodd" clip-rule="evenodd" d="M30.1466 12.4542L23.7296 16.5794L24.2704 17.4206L30.3309 13.5245C30.2808 13.1627 30.2193 12.8058 30.1466 12.4542Z" fill="url(#paint36_linear_31_96)"/>
<path fill-rule="evenodd" clip-rule="evenodd" d="M29.4179 22H24.5V23H28.9747C29.1351 22.6747 29.2828 22.3412 29.4179 22Z" fill="url(#paint37_linear_31_96)"/>
<path d="M8.5 17.5616C8.5 16.6438 9.12459 15.8439 10.0149 15.6213L14.5597 14.4851C15.8336 14.1666 17.1664 14.1666 18.4403 14.4851L22.9851 15.6213C23.8754 15.8439 24.5 16.6438 24.5 17.5616V23.614C24.5 24.4477 23.9829 25.1939 23.2022 25.4867L22.118 25.8933C18.4958 27.2516 14.5042 27.2516 10.882 25.8933L9.79775 25.4867C9.01715 25.1939 8.5 24.4477 8.5 23.614V17.5616Z" fill="url(#paint38_linear_31_96)"/>
<defs>
<radialGradient id="paint0_radial_31_96" cx="0" cy="0" r="1" gradientUnits="userSpaceOnUse" gradientTransform="translate(26 9) rotate(131.878) scale(38.9487)">
<stop stop-color="#FFF478"/>
<stop offset="0.474827" stop-color="#FFB02E"/>
<stop offset="1" stop-color="#F70A8D"/>
</radialGradient>
<radialGradient id="paint1_radial_31_96" cx="0" cy="0" r="1" gradientUnits="userSpaceOnUse" gradientTransform="translate(16.5 12.5) rotate(101.31) scale(17.8466 22.8581)">
<stop offset="0.787821" stop-color="#F59639" stop-opacity="0"/>
<stop offset="0.972509" stop-color="#FF7DCE"/>
</radialGradient>
<radialGradient id="paint2_radial_31_96" cx="0" cy="0" r="1" gradientUnits="userSpaceOnUse" gradientTransform="translate(18.5 14) rotate(135) scale(41.0122)">
<stop offset="0.314853" stop-opacity="0"/>
<stop offset="1"/>
</radialGradient>
<radialGradient id="paint3_radial_31_96" cx="0" cy="0" r="1" gradientUnits="userSpaceOnUse" gradientTransform="translate(16.5 17) rotate(77.692) scale(28.1469)">
<stop offset="0.507903" stop-color="#7D6133" stop-opacity="0"/>
<stop offset="1" stop-color="#715B32"/>
</radialGradient>
<radialGradient id="paint4_radial_31_96" cx="0" cy="0" r="1" gradientUnits="userSpaceOnUse" gradientTransform="translate(17 16.5) rotate(55.7131) scale(13.3135 9.65032)">
<stop stop-color="#FFB849"/>
<stop offset="1" stop-color="#FFB847" stop-opacity="0"/>
</radialGradient>
<radialGradient id="paint5_radial_31_96" cx="0" cy="0" r="1" gradientUnits="userSpaceOnUse" gradientTransform="translate(21 18) rotate(9.86581) scale(11.6726)">
<stop stop-color="#FFA64B"/>
<stop offset="0.900412" stop-color="#FFAE46" stop-opacity="0"/>
</radialGradient>
<radialGradient id="paint6_radial_31_96" cx="0" cy="0" r="1" gradientUnits="userSpaceOnUse" gradientTransform="translate(18 15) rotate(43.9708) scale(59.0529)">
<stop offset="0.185425" stop-opacity="0"/>
<stop offset="1" stop-opacity="0.4"/>
</radialGradient>
<radialGradient id="paint7_radial_31_96" cx="0" cy="0" r="1" gradientUnits="userSpaceOnUse" gradientTransform="translate(24.1224 12.4543) rotate(-45) scale(1.42594)">
<stop stop-color="#D75D29"/>
<stop offset="1" stop-color="#D77C2C" stop-opacity="0"/>
</radialGradient>
<radialGradient id="paint8_radial_31_96" cx="0" cy="0" r="1" gradientUnits="userSpaceOnUse" gradientTransform="translate(22.5929 11.0759) rotate(43.2643) scale(2.50744 0.85908)">
<stop stop-color="#D28118"/>
<stop offset="1" stop-color="#D68623" stop-opacity="0"/>
</radialGradient>
<radialGradient id="paint9_radial_31_96" cx="0" cy="0" r="1" gradientUnits="userSpaceOnUse" gradientTransform="translate(21.4505 10.6646) rotate(-13.9238) scale(2.1088 0.865677)">
<stop stop-color="#D28118"/>
<stop offset="1" stop-color="#D68623" stop-opacity="0"/>
</radialGradient>
<radialGradient id="paint10_radial_31_96" cx="0" cy="0" r="1" gradientUnits="userSpaceOnUse" gradientTransform="translate(9.80232 13.0752) rotate(-10.3912) scale(7.07095 5.21865)">
<stop stop-color="#F1A227"/>
<stop offset="1" stop-color="#F5A72C" stop-opacity="0"/>
</radialGradient>
<radialGradient id="paint11_radial_31_96" cx="0" cy="0" r="1" gradientUnits="userSpaceOnUse" gradientTransform="translate(12.6053 11.3555) rotate(60.6795) scale(2.28674 1.34738)">
<stop stop-color="#BE7227"/>
<stop offset="1" stop-color="#C67A2A" stop-opacity="0"/>
</radialGradient>
<radialGradient id="paint12_radial_31_96" cx="0" cy="0" r="1" gradientUnits="userSpaceOnUse" gradientTransform="translate(10.4749 10.5362) rotate(-0.380228) scale(2.5504 1.88425)">
<stop stop-color="#D07E2D"/>
<stop offset="1" stop-color="#D98833" stop-opacity="0"/>
</radialGradient>
<radialGradient id="paint13_radial_31_96" cx="0" cy="0" r="1" gradientUnits="userSpaceOnUse" gradientTransform="translate(8.19449 10.7166) rotate(-66.0375) scale(2.58552 1.77357)">
<stop stop-color="#DA8924"/>
<stop offset="1" stop-color="#DC8924" stop-opacity="0"/>
</radialGradient>
<radialGradient id="paint14_radial_31_96" cx="0" cy="0" r="1" gradientUnits="userSpaceOnUse" gradientTransform="translate(19.1033 12.1921) rotate(95.856) scale(1.73252 1.27867)">
<stop stop-color="#E7982E"/>
<stop offset="1" stop-color="#E39632" stop-opacity="0"/>
</radialGradient>
<radialGradient id="paint15_radial_31_96" cx="0" cy="0" r="1" gradientUnits="userSpaceOnUse" gradientTransform="translate(25.4926 9.72204) rotate(63.9246) scale(1.26562 0.935053)">
<stop stop-color="#E7982E"/>
<stop offset="1" stop-color="#E39632" stop-opacity="0"/>
</radialGradient>
<radialGradient id="paint16_radial_31_96" cx="0" cy="0" r="1" gradientUnits="userSpaceOnUse" gradientTransform="translate(24.2731 7.97516) rotate(59.7692) scale(2.632 0.671922)">
<stop stop-color="#E7982E"/>
<stop offset="1" stop-color="#E39632" stop-opacity="0"/>
</radialGradient>
<radialGradient id="paint17_radial_31_96" cx="0" cy="0" r="1" gradientUnits="userSpaceOnUse" gradientTransform="translate(23.0777 7.23546) rotate(37.3853) scale(2.66709 0.828124)">
<stop stop-color="#E2981B"/>
<stop offset="1" stop-color="#FFDC64" stop-opacity="0"/>
</radialGradient>
<radialGradient id="paint18_radial_31_96" cx="0" cy="0" r="1" gradientUnits="userSpaceOnUse" gradientTransform="translate(22.0482 6.91175) rotate(25.0169) scale(1.89566 0.976043)">
<stop stop-color="#E2981B"/>
<stop offset="1" stop-color="#FFDC64" stop-opacity="0"/>
</radialGradient>
<radialGradient id="paint19_radial_31_96" cx="0" cy="0" r="1" gradientUnits="userSpaceOnUse" gradientTransform="translate(9.00355 9.23996) rotate(30.4447) scale(4.33485 5.49021)">
<stop stop-color="#D59A13"/>
<stop offset="1" stop-color="#D59A13" stop-opacity="0"/>
</radialGradient>
<radialGradient id="paint20_radial_31_96" cx="0" cy="0" r="1" gradientUnits="userSpaceOnUse" gradientTransform="translate(7.60911 16.5646) rotate(8.45502) scale(5.56824)">
<stop stop-color="#F97660"/>
<stop offset="1" stop-color="#F97660" stop-opacity="0"/>
</radialGradient>
<radialGradient id="paint21_radial_31_96" cx="0" cy="0" r="1" gradientUnits="userSpaceOnUse" gradientTransform="translate(25.2381 16.8173) rotate(-178.844) scale(8.74097)">
<stop stop-color="#FE9671"/>
<stop offset="1" stop-color="#FFD15A" stop-opacity="0"/>
</radialGradient>
<radialGradient id="paint22_radial_31_96" cx="0" cy="0" r="1" gradientUnits="userSpaceOnUse" gradientTransform="translate(11.1165 12.1101) rotate(91.5422) scale(3.29801 4.15524)">
<stop offset="0.30387" stop-color="white" stop-opacity="0"/>
<stop offset="0.484194" stop-color="white" stop-opacity="0.08"/>
<stop offset="0.625916" stop-color="white" stop-opacity="0.12"/>
<stop offset="0.697917" stop-color="white" stop-opacity="0.11"/>
<stop offset="0.795273" stop-color="white" stop-opacity="0.07"/>
<stop offset="0.887226" stop-color="white" stop-opacity="0.03"/>
</radialGradient>
<radialGradient id="paint23_radial_31_96" cx="0" cy="0" r="1" gradientUnits="userSpaceOnUse" gradientTransform="translate(13.1677 13.0486) rotate(-77.6609) scale(1.04499 2.03002)">
<stop offset="0.246883" stop-color="#432A35"/>
<stop offset="1" stop-color="#432A35" stop-opacity="0"/>
</radialGradient>
<radialGradient id="paint24_radial_31_96" cx="0" cy="0" r="1" gradientUnits="userSpaceOnUse" gradientTransform="translate(14.247 12.6658) rotate(-140.505) scale(0.803593 2.29731)">
<stop stop-color="#432A35"/>
<stop offset="0.586258" stop-color="#432A35" stop-opacity="0.311206"/>
<stop offset="1" stop-color="#432A35" stop-opacity="0"/>
</radialGradient>
<radialGradient id="paint25_radial_31_96" cx="0" cy="0" r="1" gradientUnits="userSpaceOnUse" gradientTransform="translate(7.75472 12.6647) rotate(-35.0195) scale(1.06256 1.38766)">
<stop stop-color="#432A35"/>
<stop offset="0.772588" stop-color="#432A35" stop-opacity="0"/>
</radialGradient>
<radialGradient id="paint26_radial_31_96" cx="0" cy="0" r="1" gradientUnits="userSpaceOnUse" gradientTransform="translate(8.79831 12.9434) rotate(-104.984) scale(0.980796 1.92155)">
<stop offset="0.126186" stop-color="#432A35"/>
<stop offset="0.54221" stop-color="#432A35" stop-opacity="0.569542"/>
<stop offset="1" stop-color="#432A35" stop-opacity="0"/>
</radialGradient>
<radialGradient id="paint27_radial_31_96" cx="0" cy="0" r="1" gradientUnits="userSpaceOnUse" gradientTransform="translate(22.1164 12.1102) rotate(91.5422) scale(3.29815 4.15542)">
<stop offset="0.30387" stop-color="white" stop-opacity="0"/>
<stop offset="0.484194" stop-color="white" stop-opacity="0.08"/>
<stop offset="0.625916" stop-color="white" stop-opacity="0.12"/>
<stop offset="0.697917" stop-color="white" stop-opacity="0.11"/>
<stop offset="0.795273" stop-color="white" stop-opacity="0.07"/>
<stop offset="0.887226" stop-color="white" stop-opacity="0.03"/>
</radialGradient>
<radialGradient id="paint28_radial_31_96" cx="0" cy="0" r="1" gradientUnits="userSpaceOnUse" gradientTransform="translate(24.1677 13.0488) rotate(-77.6608) scale(1.04503 2.03011)">
<stop offset="0.246883" stop-color="#432A35"/>
<stop offset="1" stop-color="#432A35" stop-opacity="0"/>
</radialGradient>
<radialGradient id="paint29_radial_31_96" cx="0" cy="0" r="1" gradientUnits="userSpaceOnUse" gradientTransform="translate(25.2471 12.666) rotate(-140.505) scale(0.803628 2.29741)">
<stop stop-color="#432A35"/>
<stop offset="0.586258" stop-color="#432A35" stop-opacity="0.311206"/>
<stop offset="1" stop-color="#432A35" stop-opacity="0"/>
</radialGradient>
<radialGradient id="paint30_radial_31_96" cx="0" cy="0" r="1" gradientUnits="userSpaceOnUse" gradientTransform="translate(18.7545 12.6649) rotate(-35.0194) scale(1.0626 1.38772)">
<stop stop-color="#432A35"/>
<stop offset="0.772588" stop-color="#432A35" stop-opacity="0"/>
</radialGradient>
<radialGradient id="paint31_radial_31_96" cx="0" cy="0" r="1" gradientUnits="userSpaceOnUse" gradientTransform="translate(19.7981 12.9435) rotate(-104.984) scale(0.980837 1.92163)">
<stop offset="0.126186" stop-color="#432A35"/>
<stop offset="0.54221" stop-color="#432A35" stop-opacity="0.569542"/>
<stop offset="1" stop-color="#432A35" stop-opacity="0"/>
</radialGradient>
<linearGradient id="paint32_linear_31_96" x1="7.33335" y1="10.4" x2="7.33335" y2="8.6" gradientUnits="userSpaceOnUse">
<stop offset="0.0299084" stop-color="#524049"/>
<stop offset="1" stop-color="#4A2C42"/>
</linearGradient>
<linearGradient id="paint33_linear_31_96" x1="25.6667" y1="10.4" x2="25.6667" y2="8.6" gradientUnits="userSpaceOnUse">
<stop offset="0.0299084" stop-color="#524049"/>
<stop offset="1" stop-color="#4A2C42"/>
</linearGradient>
<linearGradient id="paint34_linear_31_96" x1="3.5" y1="22.5" x2="8.5" y2="22.5" gradientUnits="userSpaceOnUse">
<stop stop-color="#BB8FC3"/>
<stop offset="1" stop-color="#E1BBFF"/>
</linearGradient>
<linearGradient id="paint35_linear_31_96" x1="2" y1="12.5" x2="9" y2="17" gradientUnits="userSpaceOnUse">
<stop stop-color="#D5A4A9"/>
<stop offset="1" stop-color="#E3C1FF"/>
</linearGradient>
<linearGradient id="paint36_linear_31_96" x1="24.5" y1="16.5" x2="31" y2="12.5" gradientUnits="userSpaceOnUse">
<stop stop-color="#F3EDFA"/>
<stop offset="1" stop-color="#D7D7D7"/>
</linearGradient>
<linearGradient id="paint37_linear_31_96" x1="30.5" y1="22.5" x2="25.5" y2="22.5" gradientUnits="userSpaceOnUse">
<stop stop-color="#E1CCF6"/>
<stop offset="1" stop-color="#F1E7FA"/>
</linearGradient>
<linearGradient id="paint38_linear_31_96" x1="9" y1="23.5" x2="24.5" y2="17" gradientUnits="userSpaceOnUse">
<stop stop-color="#DFB6FF"/>
<stop offset="1" stop-color="#F3EFF9"/>
</linearGradient>
</defs>
</svg>
