<svg width="32" height="32" viewBox="0 0 32 32" fill="none" xmlns="http://www.w3.org/2000/svg">
<path d="M4 25.942C4 28.1739 5.76327 30 7.91837 30H24.0816C26.2367 30 28 28.0725 28 25.8406V6.4297C28 5.1297 26.4099 4.5297 25.5155 5.4297L20.9736 10H11.1617L6.5 5.4297C5.6 4.5297 4 5.1297 4 6.4297V25.942Z" fill="url(#paint0_linear_6903_5272)"/>
<path d="M4 25.942C4 28.1739 5.76327 30 7.91837 30H24.0816C26.2367 30 28 28.0725 28 25.8406V6.4297C28 5.1297 26.4099 4.5297 25.5155 5.4297L20.9736 10H11.1617L6.5 5.4297C5.6 4.5297 4 5.1297 4 6.4297V25.942Z" fill="url(#paint1_radial_6903_5272)"/>
<path d="M4 25.942C4 28.1739 5.76327 30 7.91837 30H24.0816C26.2367 30 28 28.0725 28 25.8406V6.4297C28 5.1297 26.4099 4.5297 25.5155 5.4297L20.9736 10H11.1617L6.5 5.4297C5.6 4.5297 4 5.1297 4 6.4297V25.942Z" fill="url(#paint2_linear_6903_5272)"/>
<path d="M4 25.942C4 28.1739 5.76327 30 7.91837 30H24.0816C26.2367 30 28 28.0725 28 25.8406V6.4297C28 5.1297 26.4099 4.5297 25.5155 5.4297L20.9736 10H11.1617L6.5 5.4297C5.6 4.5297 4 5.1297 4 6.4297V25.942Z" fill="url(#paint3_linear_6903_5272)"/>
<path d="M4 25.942C4 28.1739 5.76327 30 7.91837 30H24.0816C26.2367 30 28 28.0725 28 25.8406V6.4297C28 5.1297 26.4099 4.5297 25.5155 5.4297L20.9736 10H11.1617L6.5 5.4297C5.6 4.5297 4 5.1297 4 6.4297V25.942Z" fill="url(#paint4_linear_6903_5272)"/>
<path d="M4 25.942C4 28.1739 5.76327 30 7.91837 30H24.0816C26.2367 30 28 28.0725 28 25.8406V6.4297C28 5.1297 26.4099 4.5297 25.5155 5.4297L20.9736 10H11.1617L6.5 5.4297C5.6 4.5297 4 5.1297 4 6.4297V25.942Z" fill="url(#paint5_linear_6903_5272)"/>
<path d="M4 25.942C4 28.1739 5.76327 30 7.91837 30H24.0816C26.2367 30 28 28.0725 28 25.8406V6.4297C28 5.1297 26.4099 4.5297 25.5155 5.4297L20.9736 10H11.1617L6.5 5.4297C5.6 4.5297 4 5.1297 4 6.4297V25.942Z" fill="url(#paint6_radial_6903_5272)"/>
<path d="M4 25.942C4 28.1739 5.76327 30 7.91837 30H24.0816C26.2367 30 28 28.0725 28 25.8406V6.4297C28 5.1297 26.4099 4.5297 25.5155 5.4297L20.9736 10H11.1617L6.5 5.4297C5.6 4.5297 4 5.1297 4 6.4297V25.942Z" fill="url(#paint7_radial_6903_5272)"/>
<path d="M4 25.942C4 28.1739 5.76327 30 7.91837 30H24.0816C26.2367 30 28 28.0725 28 25.8406V6.4297C28 5.1297 26.4099 4.5297 25.5155 5.4297L20.9736 10H11.1617L6.5 5.4297C5.6 4.5297 4 5.1297 4 6.4297V25.942Z" fill="url(#paint8_radial_6903_5272)"/>
<path d="M4 25.942C4 28.1739 5.76327 30 7.91837 30H24.0816C26.2367 30 28 28.0725 28 25.8406V6.4297C28 5.1297 26.4099 4.5297 25.5155 5.4297L20.9736 10H11.1617L6.5 5.4297C5.6 4.5297 4 5.1297 4 6.4297V25.942Z" fill="url(#paint9_radial_6903_5272)"/>
<path d="M4 25.942C4 28.1739 5.76327 30 7.91837 30H24.0816C26.2367 30 28 28.0725 28 25.8406V6.4297C28 5.1297 26.4099 4.5297 25.5155 5.4297L20.9736 10H11.1617L6.5 5.4297C5.6 4.5297 4 5.1297 4 6.4297V25.942Z" fill="url(#paint10_radial_6903_5272)"/>
<path d="M4 25.942C4 28.1739 5.76327 30 7.91837 30H24.0816C26.2367 30 28 28.0725 28 25.8406V6.4297C28 5.1297 26.4099 4.5297 25.5155 5.4297L20.9736 10H11.1617L6.5 5.4297C5.6 4.5297 4 5.1297 4 6.4297V25.942Z" fill="url(#paint11_radial_6903_5272)"/>
<path d="M4 25.942C4 28.1739 5.76327 30 7.91837 30H24.0816C26.2367 30 28 28.0725 28 25.8406V6.4297C28 5.1297 26.4099 4.5297 25.5155 5.4297L20.9736 10H11.1617L6.5 5.4297C5.6 4.5297 4 5.1297 4 6.4297V25.942Z" fill="url(#paint12_radial_6903_5272)"/>
<path d="M4 25.942C4 28.1739 5.76327 30 7.91837 30H24.0816C26.2367 30 28 28.0725 28 25.8406V6.4297C28 5.1297 26.4099 4.5297 25.5155 5.4297L20.9736 10H11.1617L6.5 5.4297C5.6 4.5297 4 5.1297 4 6.4297V25.942Z" fill="url(#paint13_radial_6903_5272)"/>
<path d="M4 25.942C4 28.1739 5.76327 30 7.91837 30H24.0816C26.2367 30 28 28.0725 28 25.8406V6.4297C28 5.1297 26.4099 4.5297 25.5155 5.4297L20.9736 10H11.1617L6.5 5.4297C5.6 4.5297 4 5.1297 4 6.4297V25.942Z" fill="url(#paint14_radial_6903_5272)"/>
<path d="M6.13255 13.5034L8.93255 10.9034C9.25255 10.6034 9.25255 10.1234 8.93255 9.83344L5.91787 7.15626C5.53505 6.82032 4.74255 6.9297 4.74255 7.76344V12.9634C4.74255 13.7969 5.62255 13.9834 6.13255 13.5034Z" fill="url(#paint15_linear_6903_5272)"/>
<path d="M6.13255 13.5034L8.93255 10.9034C9.25255 10.6034 9.25255 10.1234 8.93255 9.83344L5.91787 7.15626C5.53505 6.82032 4.74255 6.9297 4.74255 7.76344V12.9634C4.74255 13.7969 5.62255 13.9834 6.13255 13.5034Z" fill="#FBA430"/>
<path d="M6.13255 13.5034L8.93255 10.9034C9.25255 10.6034 9.25255 10.1234 8.93255 9.83344L5.91787 7.15626C5.53505 6.82032 4.74255 6.9297 4.74255 7.76344V12.9634C4.74255 13.7969 5.62255 13.9834 6.13255 13.5034Z" fill="url(#paint16_radial_6903_5272)"/>
<path d="M6.13255 13.5034L8.93255 10.9034C9.25255 10.6034 9.25255 10.1234 8.93255 9.83344L5.91787 7.15626C5.53505 6.82032 4.74255 6.9297 4.74255 7.76344V12.9634C4.74255 13.7969 5.62255 13.9834 6.13255 13.5034Z" fill="url(#paint17_radial_6903_5272)"/>
<path d="M6.13255 13.5034L8.93255 10.9034C9.25255 10.6034 9.25255 10.1234 8.93255 9.83344L5.91787 7.15626C5.53505 6.82032 4.74255 6.9297 4.74255 7.76344V12.9634C4.74255 13.7969 5.62255 13.9834 6.13255 13.5034Z" fill="url(#paint18_radial_6903_5272)"/>
<path fill-rule="evenodd" clip-rule="evenodd" d="M29.9128 20.4686C30.0553 20.7677 29.9283 21.1258 29.6292 21.2683L25.8245 23.0808C25.5253 23.2233 25.1673 23.0963 25.0247 22.7972C24.8822 22.498 25.0092 22.1399 25.3084 21.9974L29.1131 20.1849C29.4122 20.0424 29.7703 20.1694 29.9128 20.4686Z" fill="url(#paint19_linear_6903_5272)"/>
<path fill-rule="evenodd" clip-rule="evenodd" d="M29.9128 20.4686C30.0553 20.7677 29.9283 21.1258 29.6292 21.2683L25.8245 23.0808C25.5253 23.2233 25.1673 23.0963 25.0247 22.7972C24.8822 22.498 25.0092 22.1399 25.3084 21.9974L29.1131 20.1849C29.4122 20.0424 29.7703 20.1694 29.9128 20.4686Z" fill="url(#paint20_linear_6903_5272)"/>
<path fill-rule="evenodd" clip-rule="evenodd" d="M29.9128 20.4686C30.0553 20.7677 29.9283 21.1258 29.6292 21.2683L25.8245 23.0808C25.5253 23.2233 25.1673 23.0963 25.0247 22.7972C24.8822 22.498 25.0092 22.1399 25.3084 21.9974L29.1131 20.1849C29.4122 20.0424 29.7703 20.1694 29.9128 20.4686Z" fill="url(#paint21_radial_6903_5272)"/>
<path fill-rule="evenodd" clip-rule="evenodd" d="M29.9128 20.4686C30.0553 20.7677 29.9283 21.1258 29.6292 21.2683L25.8245 23.0808C25.5253 23.2233 25.1673 23.0963 25.0247 22.7972C24.8822 22.498 25.0092 22.1399 25.3084 21.9974L29.1131 20.1849C29.4122 20.0424 29.7703 20.1694 29.9128 20.4686Z" fill="url(#paint22_radial_6903_5272)"/>
<path fill-rule="evenodd" clip-rule="evenodd" d="M29.9128 20.4686C30.0553 20.7677 29.9283 21.1258 29.6292 21.2683L25.8245 23.0808C25.5253 23.2233 25.1673 23.0963 25.0247 22.7972C24.8822 22.498 25.0092 22.1399 25.3084 21.9974L29.1131 20.1849C29.4122 20.0424 29.7703 20.1694 29.9128 20.4686Z" fill="url(#paint23_radial_6903_5272)"/>
<path fill-rule="evenodd" clip-rule="evenodd" d="M29.9065 26.7473C29.7635 27.0462 29.4052 27.1726 29.1063 27.0295L25.3047 25.2105C25.0058 25.0674 24.8794 24.7092 25.0225 24.4103C25.1655 24.1114 25.5238 23.985 25.8227 24.128L29.6242 25.9471C29.9231 26.0901 30.0495 26.4484 29.9065 26.7473Z" fill="url(#paint24_linear_6903_5272)"/>
<path fill-rule="evenodd" clip-rule="evenodd" d="M29.9065 26.7473C29.7635 27.0462 29.4052 27.1726 29.1063 27.0295L25.3047 25.2105C25.0058 25.0674 24.8794 24.7092 25.0225 24.4103C25.1655 24.1114 25.5238 23.985 25.8227 24.128L29.6242 25.9471C29.9231 26.0901 30.0495 26.4484 29.9065 26.7473Z" fill="url(#paint25_linear_6903_5272)"/>
<path fill-rule="evenodd" clip-rule="evenodd" d="M29.9065 26.7473C29.7635 27.0462 29.4052 27.1726 29.1063 27.0295L25.3047 25.2105C25.0058 25.0674 24.8794 24.7092 25.0225 24.4103C25.1655 24.1114 25.5238 23.985 25.8227 24.128L29.6242 25.9471C29.9231 26.0901 30.0495 26.4484 29.9065 26.7473Z" fill="url(#paint26_radial_6903_5272)"/>
<path fill-rule="evenodd" clip-rule="evenodd" d="M29.9065 26.7473C29.7635 27.0462 29.4052 27.1726 29.1063 27.0295L25.3047 25.2105C25.0058 25.0674 24.8794 24.7092 25.0225 24.4103C25.1655 24.1114 25.5238 23.985 25.8227 24.128L29.6242 25.9471C29.9231 26.0901 30.0495 26.4484 29.9065 26.7473Z" fill="url(#paint27_radial_6903_5272)"/>
<path fill-rule="evenodd" clip-rule="evenodd" d="M29.9065 26.7473C29.7635 27.0462 29.4052 27.1726 29.1063 27.0295L25.3047 25.2105C25.0058 25.0674 24.8794 24.7092 25.0225 24.4103C25.1655 24.1114 25.5238 23.985 25.8227 24.128L29.6242 25.9471C29.9231 26.0901 30.0495 26.4484 29.9065 26.7473Z" fill="url(#paint28_radial_6903_5272)"/>
<path fill-rule="evenodd" clip-rule="evenodd" d="M2.18531 26.759C2.32834 27.0579 2.68661 27.1843 2.98552 27.0412L6.78708 25.2222C7.08599 25.0792 7.21236 24.7209 7.06933 24.422C6.9263 24.1231 6.56804 23.9967 6.26912 24.1397L2.46756 25.9588C2.16865 26.1018 2.04228 26.4601 2.18531 26.759Z" fill="url(#paint29_linear_6903_5272)"/>
<path fill-rule="evenodd" clip-rule="evenodd" d="M2.18531 26.759C2.32834 27.0579 2.68661 27.1843 2.98552 27.0412L6.78708 25.2222C7.08599 25.0792 7.21236 24.7209 7.06933 24.422C6.9263 24.1231 6.56804 23.9967 6.26912 24.1397L2.46756 25.9588C2.16865 26.1018 2.04228 26.4601 2.18531 26.759Z" fill="url(#paint30_linear_6903_5272)"/>
<path fill-rule="evenodd" clip-rule="evenodd" d="M2.18531 26.759C2.32834 27.0579 2.68661 27.1843 2.98552 27.0412L6.78708 25.2222C7.08599 25.0792 7.21236 24.7209 7.06933 24.422C6.9263 24.1231 6.56804 23.9967 6.26912 24.1397L2.46756 25.9588C2.16865 26.1018 2.04228 26.4601 2.18531 26.759Z" fill="url(#paint31_radial_6903_5272)"/>
<path fill-rule="evenodd" clip-rule="evenodd" d="M2.18531 26.759C2.32834 27.0579 2.68661 27.1843 2.98552 27.0412L6.78708 25.2222C7.08599 25.0792 7.21236 24.7209 7.06933 24.422C6.9263 24.1231 6.56804 23.9967 6.26912 24.1397L2.46756 25.9588C2.16865 26.1018 2.04228 26.4601 2.18531 26.759Z" fill="url(#paint32_radial_6903_5272)"/>
<path fill-rule="evenodd" clip-rule="evenodd" d="M2.18531 26.759C2.32834 27.0579 2.68661 27.1843 2.98552 27.0412L6.78708 25.2222C7.08599 25.0792 7.21236 24.7209 7.06933 24.422C6.9263 24.1231 6.56804 23.9967 6.26912 24.1397L2.46756 25.9588C2.16865 26.1018 2.04228 26.4601 2.18531 26.759Z" fill="url(#paint33_radial_6903_5272)"/>
<path fill-rule="evenodd" clip-rule="evenodd" d="M2.18317 20.4752C2.04213 20.7751 2.17088 21.1325 2.47074 21.2735L6.28431 23.0673C6.58417 23.2083 6.94159 23.0796 7.08263 22.7797C7.22367 22.4798 7.09492 22.1224 6.79506 21.9814L2.98149 20.1877C2.68163 20.0466 2.32421 20.1754 2.18317 20.4752Z" fill="url(#paint34_linear_6903_5272)"/>
<path fill-rule="evenodd" clip-rule="evenodd" d="M2.18317 20.4752C2.04213 20.7751 2.17088 21.1325 2.47074 21.2735L6.28431 23.0673C6.58417 23.2083 6.94159 23.0796 7.08263 22.7797C7.22367 22.4798 7.09492 22.1224 6.79506 21.9814L2.98149 20.1877C2.68163 20.0466 2.32421 20.1754 2.18317 20.4752Z" fill="url(#paint35_linear_6903_5272)"/>
<path fill-rule="evenodd" clip-rule="evenodd" d="M2.18317 20.4752C2.04213 20.7751 2.17088 21.1325 2.47074 21.2735L6.28431 23.0673C6.58417 23.2083 6.94159 23.0796 7.08263 22.7797C7.22367 22.4798 7.09492 22.1224 6.79506 21.9814L2.98149 20.1877C2.68163 20.0466 2.32421 20.1754 2.18317 20.4752Z" fill="url(#paint36_radial_6903_5272)"/>
<path fill-rule="evenodd" clip-rule="evenodd" d="M2.18317 20.4752C2.04213 20.7751 2.17088 21.1325 2.47074 21.2735L6.28431 23.0673C6.58417 23.2083 6.94159 23.0796 7.08263 22.7797C7.22367 22.4798 7.09492 22.1224 6.79506 21.9814L2.98149 20.1877C2.68163 20.0466 2.32421 20.1754 2.18317 20.4752Z" fill="url(#paint37_radial_6903_5272)"/>
<path fill-rule="evenodd" clip-rule="evenodd" d="M2.18317 20.4752C2.04213 20.7751 2.17088 21.1325 2.47074 21.2735L6.28431 23.0673C6.58417 23.2083 6.94159 23.0796 7.08263 22.7797C7.22367 22.4798 7.09492 22.1224 6.79506 21.9814L2.98149 20.1877C2.68163 20.0466 2.32421 20.1754 2.18317 20.4752Z" fill="url(#paint38_radial_6903_5272)"/>
<path d="M25.8329 13.5034L23.0329 10.9034C22.7129 10.6034 22.7129 10.1234 23.0329 9.83344L26.0476 7.15626C26.4304 6.82032 27.2229 6.9297 27.2229 7.76344V12.9634C27.2229 13.7969 26.3429 13.9834 25.8329 13.5034Z" fill="#FFCD45"/>
<path d="M25.8329 13.5034L23.0329 10.9034C22.7129 10.6034 22.7129 10.1234 23.0329 9.83344L26.0476 7.15626C26.4304 6.82032 27.2229 6.9297 27.2229 7.76344V12.9634C27.2229 13.7969 26.3429 13.9834 25.8329 13.5034Z" fill="url(#paint39_linear_6903_5272)"/>
<path d="M25.8329 13.5034L23.0329 10.9034C22.7129 10.6034 22.7129 10.1234 23.0329 9.83344L26.0476 7.15626C26.4304 6.82032 27.2229 6.9297 27.2229 7.76344V12.9634C27.2229 13.7969 26.3429 13.9834 25.8329 13.5034Z" fill="url(#paint40_radial_6903_5272)"/>
<path d="M25.8329 13.5034L23.0329 10.9034C22.7129 10.6034 22.7129 10.1234 23.0329 9.83344L26.0476 7.15626C26.4304 6.82032 27.2229 6.9297 27.2229 7.76344V12.9634C27.2229 13.7969 26.3429 13.9834 25.8329 13.5034Z" fill="url(#paint41_radial_6903_5272)"/>
<path d="M25.8329 13.5034L23.0329 10.9034C22.7129 10.6034 22.7129 10.1234 23.0329 9.83344L26.0476 7.15626C26.4304 6.82032 27.2229 6.9297 27.2229 7.76344V12.9634C27.2229 13.7969 26.3429 13.9834 25.8329 13.5034Z" fill="url(#paint42_radial_6903_5272)"/>
<path d="M25.8329 13.5034L23.0329 10.9034C22.7129 10.6034 22.7129 10.1234 23.0329 9.83344L26.0476 7.15626C26.4304 6.82032 27.2229 6.9297 27.2229 7.76344V12.9634C27.2229 13.7969 26.3429 13.9834 25.8329 13.5034Z" fill="url(#paint43_radial_6903_5272)"/>
<path d="M25.8329 13.5034L23.0329 10.9034C22.7129 10.6034 22.7129 10.1234 23.0329 9.83344L26.0476 7.15626C26.4304 6.82032 27.2229 6.9297 27.2229 7.76344V12.9634C27.2229 13.7969 26.3429 13.9834 25.8329 13.5034Z" fill="url(#paint44_radial_6903_5272)"/>
<path d="M15.2265 19.1645L15.2908 19.1495C15.7644 19.0391 16.2577 19.0442 16.7289 19.1645C17.25 19.2626 17.561 19.86 17.121 20.29L16.5703 20.8915C16.3003 21.1615 15.7075 21.1615 15.4375 20.8915L14.8945 20.29C14.4453 19.7822 14.7265 19.2744 15.2265 19.1645Z" fill="url(#paint45_radial_6903_5272)"/>
<path d="M15.2265 19.1645L15.2908 19.1495C15.7644 19.0391 16.2577 19.0442 16.7289 19.1645C17.25 19.2626 17.561 19.86 17.121 20.29L16.5703 20.8915C16.3003 21.1615 15.7075 21.1615 15.4375 20.8915L14.8945 20.29C14.4453 19.7822 14.7265 19.2744 15.2265 19.1645Z" fill="url(#paint46_radial_6903_5272)" fill-opacity="0.8"/>
<circle cx="20.4844" cy="15.5781" r="3.49219" fill="white"/>
<circle cx="11.5156" cy="15.5781" r="3.49219" fill="white"/>
<rect x="13.8281" y="21.8359" width="4.34375" height="5.45312" rx="2.17188" fill="url(#paint47_radial_6903_5272)"/>
<path d="M20.9883 23.7969C20.9883 21.5964 22.7721 19.8125 24.9727 19.8125C27.1732 19.8125 28.957 21.5964 28.957 23.7969V30H20.9883V23.7969Z" fill="url(#paint48_linear_6903_5272)"/>
<path d="M20.9883 23.7969C20.9883 21.5964 22.7721 19.8125 24.9727 19.8125C27.1732 19.8125 28.957 21.5964 28.957 23.7969V30H20.9883V23.7969Z" fill="url(#paint49_linear_6903_5272)"/>
<path d="M20.9883 23.7969C20.9883 21.5964 22.7721 19.8125 24.9727 19.8125C27.1732 19.8125 28.957 21.5964 28.957 23.7969V30H20.9883V23.7969Z" fill="url(#paint50_linear_6903_5272)"/>
<path d="M20.9883 23.7969C20.9883 21.5964 22.7721 19.8125 24.9727 19.8125C27.1732 19.8125 28.957 21.5964 28.957 23.7969V30H20.9883V23.7969Z" fill="url(#paint51_radial_6903_5272)"/>
<path d="M20.9883 23.7969C20.9883 21.5964 22.7721 19.8125 24.9727 19.8125C27.1732 19.8125 28.957 21.5964 28.957 23.7969V30H20.9883V23.7969Z" fill="url(#paint52_radial_6903_5272)"/>
<path d="M23.1133 20.0547C23.1133 19.8692 23.2637 19.7188 23.4492 19.7188C23.6348 19.7188 23.7852 19.8692 23.7852 20.0547V22.8203C23.7852 23.0058 23.6348 23.1562 23.4492 23.1562C23.2637 23.1562 23.1133 23.0058 23.1133 22.8203V20.0547Z" fill="url(#paint53_linear_6903_5272)"/>
<path d="M23.1133 20.0547C23.1133 19.8692 23.2637 19.7188 23.4492 19.7188C23.6348 19.7188 23.7852 19.8692 23.7852 20.0547V22.8203C23.7852 23.0058 23.6348 23.1562 23.4492 23.1562C23.2637 23.1562 23.1133 23.0058 23.1133 22.8203V20.0547Z" fill="url(#paint54_linear_6903_5272)"/>
<path d="M23.1133 20.0547C23.1133 19.8692 23.2637 19.7188 23.4492 19.7188C23.6348 19.7188 23.7852 19.8692 23.7852 20.0547V22.8203C23.7852 23.0058 23.6348 23.1562 23.4492 23.1562C23.2637 23.1562 23.1133 23.0058 23.1133 22.8203V20.0547Z" fill="url(#paint55_linear_6903_5272)"/>
<path d="M23.1133 20.0547C23.1133 19.8692 23.2637 19.7188 23.4492 19.7188C23.6348 19.7188 23.7852 19.8692 23.7852 20.0547V22.8203C23.7852 23.0058 23.6348 23.1562 23.4492 23.1562C23.2637 23.1562 23.1133 23.0058 23.1133 22.8203V20.0547Z" fill="url(#paint56_radial_6903_5272)"/>
<path d="M26.1602 20.0547C26.1602 19.8692 26.3106 19.7188 26.4961 19.7188C26.6816 19.7188 26.832 19.8692 26.832 20.0547V22.8203C26.832 23.0058 26.6816 23.1562 26.4961 23.1562C26.3106 23.1562 26.1602 23.0058 26.1602 22.8203V20.0547Z" fill="url(#paint57_linear_6903_5272)"/>
<path d="M26.1602 20.0547C26.1602 19.8692 26.3106 19.7188 26.4961 19.7188C26.6816 19.7188 26.832 19.8692 26.832 20.0547V22.8203C26.832 23.0058 26.6816 23.1562 26.4961 23.1562C26.3106 23.1562 26.1602 23.0058 26.1602 22.8203V20.0547Z" fill="url(#paint58_linear_6903_5272)"/>
<path d="M26.1602 20.0547C26.1602 19.8692 26.3106 19.7188 26.4961 19.7188C26.6816 19.7188 26.832 19.8692 26.832 20.0547V22.8203C26.832 23.0058 26.6816 23.1562 26.4961 23.1562C26.3106 23.1562 26.1602 23.0058 26.1602 22.8203V20.0547Z" fill="url(#paint59_linear_6903_5272)"/>
<path d="M26.1602 20.0547C26.1602 19.8692 26.3106 19.7188 26.4961 19.7188C26.6816 19.7188 26.832 19.8692 26.832 20.0547V22.8203C26.832 23.0058 26.6816 23.1562 26.4961 23.1562C26.3106 23.1562 26.1602 23.0058 26.1602 22.8203V20.0547Z" fill="url(#paint60_radial_6903_5272)"/>
<path d="M3.04297 23.7969C3.04297 21.5964 4.82683 19.8125 7.02734 19.8125C9.22785 19.8125 11.0117 21.5964 11.0117 23.7969V30H3.04297V23.7969Z" fill="url(#paint61_linear_6903_5272)"/>
<path d="M3.04297 23.7969C3.04297 21.5964 4.82683 19.8125 7.02734 19.8125C9.22785 19.8125 11.0117 21.5964 11.0117 23.7969V30H3.04297V23.7969Z" fill="url(#paint62_linear_6903_5272)"/>
<path d="M3.04297 23.7969C3.04297 21.5964 4.82683 19.8125 7.02734 19.8125C9.22785 19.8125 11.0117 21.5964 11.0117 23.7969V30H3.04297V23.7969Z" fill="url(#paint63_linear_6903_5272)"/>
<path d="M3.04297 23.7969C3.04297 21.5964 4.82683 19.8125 7.02734 19.8125C9.22785 19.8125 11.0117 21.5964 11.0117 23.7969V30H3.04297V23.7969Z" fill="url(#paint64_radial_6903_5272)"/>
<path d="M3.04297 23.7969C3.04297 21.5964 4.82683 19.8125 7.02734 19.8125C9.22785 19.8125 11.0117 21.5964 11.0117 23.7969V30H3.04297V23.7969Z" fill="url(#paint65_radial_6903_5272)"/>
<path d="M5.16797 20.0547C5.16797 19.8692 5.31837 19.7188 5.50391 19.7188C5.68944 19.7188 5.83984 19.8692 5.83984 20.0547V22.8203C5.83984 23.0058 5.68944 23.1562 5.50391 23.1562C5.31837 23.1562 5.16797 23.0058 5.16797 22.8203V20.0547Z" fill="url(#paint66_linear_6903_5272)"/>
<path d="M5.16797 20.0547C5.16797 19.8692 5.31837 19.7188 5.50391 19.7188C5.68944 19.7188 5.83984 19.8692 5.83984 20.0547V22.8203C5.83984 23.0058 5.68944 23.1562 5.50391 23.1562C5.31837 23.1562 5.16797 23.0058 5.16797 22.8203V20.0547Z" fill="url(#paint67_linear_6903_5272)"/>
<path d="M5.16797 20.0547C5.16797 19.8692 5.31837 19.7188 5.50391 19.7188C5.68944 19.7188 5.83984 19.8692 5.83984 20.0547V22.8203C5.83984 23.0058 5.68944 23.1562 5.50391 23.1562C5.31837 23.1562 5.16797 23.0058 5.16797 22.8203V20.0547Z" fill="url(#paint68_linear_6903_5272)"/>
<path d="M5.16797 20.0547C5.16797 19.8692 5.31837 19.7188 5.50391 19.7188C5.68944 19.7188 5.83984 19.8692 5.83984 20.0547V22.8203C5.83984 23.0058 5.68944 23.1562 5.50391 23.1562C5.31837 23.1562 5.16797 23.0058 5.16797 22.8203V20.0547Z" fill="url(#paint69_radial_6903_5272)"/>
<path d="M8.21484 20.0547C8.21484 19.8692 8.36525 19.7188 8.55078 19.7188C8.73631 19.7188 8.88672 19.8692 8.88672 20.0547V22.8203C8.88672 23.0058 8.73631 23.1562 8.55078 23.1562C8.36525 23.1562 8.21484 23.0058 8.21484 22.8203V20.0547Z" fill="url(#paint70_linear_6903_5272)"/>
<path d="M8.21484 20.0547C8.21484 19.8692 8.36525 19.7188 8.55078 19.7188C8.73631 19.7188 8.88672 19.8692 8.88672 20.0547V22.8203C8.88672 23.0058 8.73631 23.1562 8.55078 23.1562C8.36525 23.1562 8.21484 23.0058 8.21484 22.8203V20.0547Z" fill="url(#paint71_linear_6903_5272)"/>
<path d="M8.21484 20.0547C8.21484 19.8692 8.36525 19.7188 8.55078 19.7188C8.73631 19.7188 8.88672 19.8692 8.88672 20.0547V22.8203C8.88672 23.0058 8.73631 23.1562 8.55078 23.1562C8.36525 23.1562 8.21484 23.0058 8.21484 22.8203V20.0547Z" fill="url(#paint72_linear_6903_5272)"/>
<path d="M8.21484 20.0547C8.21484 19.8692 8.36525 19.7188 8.55078 19.7188C8.73631 19.7188 8.88672 19.8692 8.88672 20.0547V22.8203C8.88672 23.0058 8.73631 23.1562 8.55078 23.1562C8.36525 23.1562 8.21484 23.0058 8.21484 22.8203V20.0547Z" fill="url(#paint73_radial_6903_5272)"/>
<defs>
<linearGradient id="paint0_linear_6903_5272" x1="7.90668" y1="1.34978" x2="7.90668" y2="30.99" gradientUnits="userSpaceOnUse">
<stop offset="0.288159" stop-color="#FFCE2C"/>
<stop offset="0.762024" stop-color="#F79B22"/>
<stop offset="0.9925" stop-color="#E3821D"/>
<stop offset="1" stop-color="#E3801D"/>
</linearGradient>
<radialGradient id="paint1_radial_6903_5272" cx="0" cy="0" r="1" gradientUnits="userSpaceOnUse" gradientTransform="translate(23.9499 16.7886) rotate(90) scale(10.3023 9.89025)">
<stop stop-color="#FFDE68"/>
<stop offset="1" stop-color="#FFDD68" stop-opacity="0"/>
</radialGradient>
<linearGradient id="paint2_linear_6903_5272" x1="16.4007" y1="13.9648" x2="4" y2="12.2364" gradientUnits="userSpaceOnUse">
<stop stop-color="#E99E20" stop-opacity="0"/>
<stop offset="1" stop-color="#FF9F3D"/>
</linearGradient>
<linearGradient id="paint3_linear_6903_5272" x1="26.7911" y1="12.033" x2="30.245" y2="12.033" gradientUnits="userSpaceOnUse">
<stop stop-color="#E99E20" stop-opacity="0"/>
<stop offset="0.9925" stop-color="#E3821D"/>
<stop offset="1" stop-color="#E3801D"/>
</linearGradient>
<linearGradient id="paint4_linear_6903_5272" x1="16.001" y1="-1.59459" x2="16" y2="30.99" gradientUnits="userSpaceOnUse">
<stop offset="0.77079" stop-color="#F59639" stop-opacity="0"/>
<stop offset="1" stop-color="#FF63C4"/>
</linearGradient>
<linearGradient id="paint5_linear_6903_5272" x1="16" y1="11.2521" x2="16" y2="32.475" gradientUnits="userSpaceOnUse">
<stop offset="0.854227" stop-color="white" stop-opacity="0"/>
<stop offset="0.985362" stop-color="white"/>
</linearGradient>
<radialGradient id="paint6_radial_6903_5272" cx="0" cy="0" r="1" gradientUnits="userSpaceOnUse" gradientTransform="translate(22.1755 4.47688) rotate(55.4547) scale(5.37104 10.6707)">
<stop stop-color="#FFA720"/>
<stop offset="0.921158" stop-color="#FFA720" stop-opacity="0"/>
</radialGradient>
<radialGradient id="paint7_radial_6903_5272" cx="0" cy="0" r="1" gradientUnits="userSpaceOnUse" gradientTransform="translate(3.47479 23.6769) scale(6.09045 8.66347)">
<stop offset="0.260619" stop-color="#C57310" stop-opacity="0.8"/>
<stop offset="0.590058" stop-color="#CB750D" stop-opacity="0.37"/>
<stop offset="0.921158" stop-color="#D77A09" stop-opacity="0"/>
</radialGradient>
<radialGradient id="paint8_radial_6903_5272" cx="0" cy="0" r="1" gradientUnits="userSpaceOnUse" gradientTransform="translate(15.4689 20.4086) rotate(130.601) scale(1.0137 1.33426)">
<stop offset="0.493447" stop-color="#D77A09" stop-opacity="0.5"/>
<stop offset="1" stop-color="#D77A09" stop-opacity="0"/>
</radialGradient>
<radialGradient id="paint9_radial_6903_5272" cx="0" cy="0" r="1" gradientUnits="userSpaceOnUse" gradientTransform="translate(19.7894 16.124) rotate(90) scale(3.8783)">
<stop offset="0.588235" stop-color="#AA5D39" stop-opacity="0.5"/>
<stop offset="0.882353" stop-color="#AA5D39" stop-opacity="0"/>
</radialGradient>
<radialGradient id="paint10_radial_6903_5272" cx="0" cy="0" r="1" gradientUnits="userSpaceOnUse" gradientTransform="translate(10.3101 16.5556) rotate(130.314) scale(5.5915 4.49927)">
<stop offset="0.350592" stop-color="#AA5D39" stop-opacity="0.5"/>
<stop offset="0.649112" stop-color="#AA5D39" stop-opacity="0.21"/>
<stop offset="1" stop-color="#AA5D39" stop-opacity="0"/>
</radialGradient>
<radialGradient id="paint11_radial_6903_5272" cx="0" cy="0" r="1" gradientUnits="userSpaceOnUse" gradientTransform="translate(22.8647 25.5027) rotate(157.249) scale(3.96688 5.39978)">
<stop offset="0.410177" stop-color="#E16E38" stop-opacity="0.8"/>
<stop offset="1" stop-color="#E16E38" stop-opacity="0"/>
</radialGradient>
<radialGradient id="paint12_radial_6903_5272" cx="0" cy="0" r="1" gradientUnits="userSpaceOnUse" gradientTransform="translate(8.10508 6.83318) rotate(44.113) scale(5.58911 1.56071)">
<stop offset="0.293395" stop-color="#FFDE68"/>
<stop offset="1" stop-color="#FFDD68" stop-opacity="0"/>
</radialGradient>
<radialGradient id="paint13_radial_6903_5272" cx="0" cy="0" r="1" gradientUnits="userSpaceOnUse" gradientTransform="translate(10.4058 8.24278) rotate(-65.2905) scale(3.21524 2.19727)">
<stop offset="0.257229" stop-color="#FFDE68"/>
<stop offset="1" stop-color="#FFDD68" stop-opacity="0"/>
</radialGradient>
<radialGradient id="paint14_radial_6903_5272" cx="0" cy="0" r="1" gradientUnits="userSpaceOnUse" gradientTransform="translate(27.5443 5.76246) rotate(101.957) scale(2.5607 1.41151)">
<stop stop-color="#FFDE68"/>
<stop offset="1" stop-color="#FFDD68" stop-opacity="0"/>
</radialGradient>
<linearGradient id="paint15_linear_6903_5272" x1="10.6023" y1="10.6172" x2="4.74255" y2="10.0703" gradientUnits="userSpaceOnUse">
<stop offset="0.437473" stop-color="#ED8C1B"/>
<stop offset="1" stop-color="#FFB03A"/>
</linearGradient>
<radialGradient id="paint16_radial_6903_5272" cx="0" cy="0" r="1" gradientUnits="userSpaceOnUse" gradientTransform="translate(5.13129 10.3713) scale(0.311177 3.07294)">
<stop stop-color="white" stop-opacity="0.3"/>
<stop offset="1" stop-color="white" stop-opacity="0"/>
</radialGradient>
<radialGradient id="paint17_radial_6903_5272" cx="0" cy="0" r="1" gradientUnits="userSpaceOnUse" gradientTransform="translate(7.66041 12.1316) rotate(46.1691) scale(0.936482 9.24798)">
<stop stop-color="#ED8C1B" stop-opacity="0.8"/>
<stop offset="1" stop-color="#ED8C1B" stop-opacity="0"/>
</radialGradient>
<radialGradient id="paint18_radial_6903_5272" cx="0" cy="0" r="1" gradientUnits="userSpaceOnUse" gradientTransform="translate(7.43558 8.4694) rotate(-49.1362) scale(0.907259 8.9594)">
<stop stop-color="#ED8C1B" stop-opacity="0.5"/>
<stop offset="1" stop-color="#ED8C1B" stop-opacity="0"/>
</radialGradient>
<linearGradient id="paint19_linear_6903_5272" x1="25.2899" y1="22.9454" x2="29.3711" y2="21.0079" gradientUnits="userSpaceOnUse">
<stop offset="0.15625" stop-color="#D64A38"/>
<stop offset="1" stop-color="#FB7425"/>
</linearGradient>
<linearGradient id="paint20_linear_6903_5272" x1="27.3247" y1="21.0379" x2="27.8471" y2="22.1229" gradientUnits="userSpaceOnUse">
<stop stop-color="white" stop-opacity="0"/>
<stop offset="0.520833" stop-color="white" stop-opacity="0.2"/>
<stop offset="1" stop-color="white" stop-opacity="0"/>
</linearGradient>
<radialGradient id="paint21_radial_6903_5272" cx="0" cy="0" r="1" gradientUnits="userSpaceOnUse" gradientTransform="translate(24.9647 22.8374) rotate(-26.8937) scale(1.04481)">
<stop stop-color="#D64A38"/>
<stop offset="1" stop-color="#D64A38" stop-opacity="0"/>
</radialGradient>
<radialGradient id="paint22_radial_6903_5272" cx="0" cy="0" r="1" gradientUnits="userSpaceOnUse" gradientTransform="translate(29.9731 20.5061) rotate(151.353) scale(0.967535)">
<stop stop-color="#FB7425"/>
<stop offset="1" stop-color="#FB7425" stop-opacity="0"/>
</radialGradient>
<radialGradient id="paint23_radial_6903_5272" cx="0" cy="0" r="1" gradientUnits="userSpaceOnUse" gradientTransform="translate(29.4461 20.5037) rotate(125.032) scale(0.468717)">
<stop stop-color="white" stop-opacity="0.3"/>
<stop offset="1" stop-color="white" stop-opacity="0"/>
</radialGradient>
<linearGradient id="paint24_linear_6903_5272" x1="25.0739" y1="24.7097" x2="29.1465" y2="26.6651" gradientUnits="userSpaceOnUse">
<stop offset="0.15625" stop-color="#D64A38"/>
<stop offset="1" stop-color="#FB7425"/>
</linearGradient>
<linearGradient id="paint25_linear_6903_5272" x1="27.8366" y1="25.0927" x2="27.3213" y2="26.1811" gradientUnits="userSpaceOnUse">
<stop stop-color="white" stop-opacity="0"/>
<stop offset="0.520833" stop-color="white" stop-opacity="0.2"/>
<stop offset="1" stop-color="white" stop-opacity="0"/>
</linearGradient>
<radialGradient id="paint26_radial_6903_5272" cx="0" cy="0" r="1" gradientUnits="userSpaceOnUse" gradientTransform="translate(24.9534 24.3889) rotate(24.15) scale(1.04481)">
<stop stop-color="#D64A38"/>
<stop offset="1" stop-color="#D64A38" stop-opacity="0"/>
</radialGradient>
<radialGradient id="paint27_radial_6903_5272" cx="0" cy="0" r="1" gradientUnits="userSpaceOnUse" gradientTransform="translate(29.9152 26.8178) rotate(-157.603) scale(0.967535)">
<stop stop-color="#FB7425"/>
<stop offset="1" stop-color="#FB7425" stop-opacity="0"/>
</radialGradient>
<radialGradient id="paint28_radial_6903_5272" cx="0" cy="0" r="1" gradientUnits="userSpaceOnUse" gradientTransform="translate(29.6005 26.2805) rotate(154.486) scale(0.578723)">
<stop stop-color="white" stop-opacity="0.3"/>
<stop offset="1" stop-color="white" stop-opacity="0"/>
</radialGradient>
<linearGradient id="paint29_linear_6903_5272" x1="7.01786" y1="24.7214" x2="2.94525" y2="26.6768" gradientUnits="userSpaceOnUse">
<stop offset="0.15625" stop-color="#D64A38"/>
<stop offset="1" stop-color="#FB7425"/>
</linearGradient>
<linearGradient id="paint30_linear_6903_5272" x1="4.25522" y1="25.1044" x2="4.77052" y2="26.1928" gradientUnits="userSpaceOnUse">
<stop stop-color="white" stop-opacity="0"/>
<stop offset="0.520833" stop-color="white" stop-opacity="0.2"/>
<stop offset="1" stop-color="white" stop-opacity="0"/>
</linearGradient>
<radialGradient id="paint31_radial_6903_5272" cx="0" cy="0" r="1" gradientUnits="userSpaceOnUse" gradientTransform="translate(7.13839 24.4007) rotate(155.85) scale(1.04481)">
<stop stop-color="#D64A38"/>
<stop offset="1" stop-color="#D64A38" stop-opacity="0"/>
</radialGradient>
<radialGradient id="paint32_radial_6903_5272" cx="0" cy="0" r="1" gradientUnits="userSpaceOnUse" gradientTransform="translate(2.17661 26.8295) rotate(-22.3971) scale(0.967535)">
<stop stop-color="#FB7425"/>
<stop offset="1" stop-color="#FB7425" stop-opacity="0"/>
</radialGradient>
<radialGradient id="paint33_radial_6903_5272" cx="0" cy="0" r="1" gradientUnits="userSpaceOnUse" gradientTransform="translate(6.53878 24.5667) rotate(141.872) scale(0.496749)">
<stop stop-color="white" stop-opacity="0.3"/>
<stop offset="1" stop-color="white" stop-opacity="0"/>
</radialGradient>
<linearGradient id="paint34_linear_6903_5272" x1="6.81819" y1="22.9292" x2="2.7275" y2="21.0119" gradientUnits="userSpaceOnUse">
<stop offset="0.15625" stop-color="#D64A38"/>
<stop offset="1" stop-color="#FB7425"/>
</linearGradient>
<linearGradient id="paint35_linear_6903_5272" x1="4.77403" y1="21.0318" x2="4.25698" y2="22.1194" gradientUnits="userSpaceOnUse">
<stop stop-color="white" stop-opacity="0"/>
<stop offset="0.520833" stop-color="white" stop-opacity="0.2"/>
<stop offset="1" stop-color="white" stop-opacity="0"/>
</linearGradient>
<radialGradient id="paint36_radial_6903_5272" cx="0" cy="0" r="1" gradientUnits="userSpaceOnUse" gradientTransform="translate(7.14282 22.8197) rotate(-153.389) scale(1.04481)">
<stop stop-color="#D64A38"/>
<stop offset="1" stop-color="#D64A38" stop-opacity="0"/>
</radialGradient>
<radialGradient id="paint37_radial_6903_5272" cx="0" cy="0" r="1" gradientUnits="userSpaceOnUse" gradientTransform="translate(2.12305 20.5131) rotate(28.3641) scale(0.967535)">
<stop stop-color="#FB7425"/>
<stop offset="1" stop-color="#FB7425" stop-opacity="0"/>
</radialGradient>
<radialGradient id="paint38_radial_6903_5272" cx="0" cy="0" r="1" gradientUnits="userSpaceOnUse" gradientTransform="translate(6.63491 22.4603) rotate(-167.367) scale(0.496749)">
<stop stop-color="white" stop-opacity="0.3"/>
<stop offset="1" stop-color="white" stop-opacity="0"/>
</radialGradient>
<linearGradient id="paint39_linear_6903_5272" x1="26.5398" y1="15.5078" x2="25.2898" y2="12.0391" gradientUnits="userSpaceOnUse">
<stop stop-color="#EF8A47"/>
<stop offset="1" stop-color="#EF8A47" stop-opacity="0"/>
</linearGradient>
<radialGradient id="paint40_radial_6903_5272" cx="0" cy="0" r="1" gradientUnits="userSpaceOnUse" gradientTransform="translate(24.305 12.1316) rotate(133.831) scale(0.936482 9.24798)">
<stop stop-color="#FFA319"/>
<stop offset="1" stop-color="#FFBA19" stop-opacity="0"/>
</radialGradient>
<radialGradient id="paint41_radial_6903_5272" cx="0" cy="0" r="1" gradientUnits="userSpaceOnUse" gradientTransform="translate(27.2229 10.2812) scale(0.771161 7.6154)">
<stop stop-color="#FF9419"/>
<stop offset="1" stop-color="#FFBA19" stop-opacity="0"/>
</radialGradient>
<radialGradient id="paint42_radial_6903_5272" cx="0" cy="0" r="1" gradientUnits="userSpaceOnUse" gradientTransform="translate(24.5299 8.4694) rotate(-130.864) scale(0.907259 8.9594)">
<stop stop-color="#FF9B19" stop-opacity="0.5"/>
<stop offset="1" stop-color="#FFBA19" stop-opacity="0"/>
</radialGradient>
<radialGradient id="paint43_radial_6903_5272" cx="0" cy="0" r="1" gradientUnits="userSpaceOnUse" gradientTransform="translate(24.9267 11.6233) rotate(-45.7638) scale(0.502944 2.40101)">
<stop stop-color="white" stop-opacity="0.3"/>
<stop offset="1" stop-color="white" stop-opacity="0"/>
</radialGradient>
<radialGradient id="paint44_radial_6903_5272" cx="0" cy="0" r="1" gradientUnits="userSpaceOnUse" gradientTransform="translate(25.1828 8.87328) rotate(-132.184) scale(0.409519 2.45272)">
<stop stop-color="white" stop-opacity="0.2"/>
<stop offset="1" stop-color="white" stop-opacity="0"/>
</radialGradient>
<radialGradient id="paint45_radial_6903_5272" cx="0" cy="0" r="1" gradientUnits="userSpaceOnUse" gradientTransform="translate(16.4461 20.1376) rotate(-153.246) scale(2.11729 2.12981)">
<stop stop-color="#FF2BA3"/>
<stop offset="1" stop-color="#F9326A"/>
</radialGradient>
<radialGradient id="paint46_radial_6903_5272" cx="0" cy="0" r="1" gradientUnits="userSpaceOnUse" gradientTransform="translate(16.5286 19.6596) rotate(90) scale(0.467818 0.822375)">
<stop stop-color="white" stop-opacity="0.5"/>
<stop offset="1" stop-color="white" stop-opacity="0"/>
</radialGradient>
<radialGradient id="paint47_radial_6903_5272" cx="0" cy="0" r="1" gradientUnits="userSpaceOnUse" gradientTransform="translate(16 28.5009) rotate(-90) scale(5.91493 9.37069)">
<stop stop-color="#F70A8D"/>
<stop offset="1" stop-color="#89029C"/>
</radialGradient>
<linearGradient id="paint48_linear_6903_5272" x1="28.957" y1="30.4034" x2="20.9883" y2="30.4034" gradientUnits="userSpaceOnUse">
<stop offset="0.160663" stop-color="#F2CC26"/>
<stop offset="0.642165" stop-color="#E99E20"/>
<stop offset="0.9925" stop-color="#E3821D"/>
<stop offset="1" stop-color="#E3801D"/>
</linearGradient>
<linearGradient id="paint49_linear_6903_5272" x1="28.957" y1="30.4034" x2="20.9883" y2="30.5625" gradientUnits="userSpaceOnUse">
<stop offset="0.865694" stop-color="#E3821D" stop-opacity="0"/>
<stop offset="1" stop-color="#D37516"/>
</linearGradient>
<linearGradient id="paint50_linear_6903_5272" x1="26.621" y1="30.4034" x2="34.8085" y2="30.4034" gradientUnits="userSpaceOnUse">
<stop stop-color="#E99E20" stop-opacity="0"/>
<stop offset="1" stop-color="#E99E20"/>
</linearGradient>
<radialGradient id="paint51_radial_6903_5272" cx="0" cy="0" r="1" gradientUnits="userSpaceOnUse" gradientTransform="translate(26.25 20.2266) rotate(-180) scale(0.296875 3.3125)">
<stop stop-color="#9C4F2A" stop-opacity="0.5"/>
<stop offset="1" stop-color="#9C4F2A" stop-opacity="0"/>
</radialGradient>
<radialGradient id="paint52_radial_6903_5272" cx="0" cy="0" r="1" gradientUnits="userSpaceOnUse" gradientTransform="translate(23.1953 20.2266) rotate(180) scale(0.273437 3.05099)">
<stop stop-color="#9C4F2A" stop-opacity="0.5"/>
<stop offset="1" stop-color="#9C4F2A" stop-opacity="0"/>
</radialGradient>
<linearGradient id="paint53_linear_6903_5272" x1="23.7852" y1="22" x2="22.8242" y2="22" gradientUnits="userSpaceOnUse">
<stop stop-color="#FFB445"/>
<stop offset="1" stop-color="#E9A239" stop-opacity="0.921875"/>
</linearGradient>
<linearGradient id="paint54_linear_6903_5272" x1="22.3398" y1="22.1094" x2="23.621" y2="22.0312" gradientUnits="userSpaceOnUse">
<stop offset="0.366667" stop-color="#D6850E"/>
<stop offset="1" stop-color="#CC861F" stop-opacity="0"/>
</linearGradient>
<linearGradient id="paint55_linear_6903_5272" x1="23.4492" y1="24.2188" x2="23.4492" y2="22.6484" gradientUnits="userSpaceOnUse">
<stop stop-color="#FF91B9"/>
<stop offset="1" stop-color="#FD679E" stop-opacity="0"/>
</linearGradient>
<radialGradient id="paint56_radial_6903_5272" cx="0" cy="0" r="1" gradientUnits="userSpaceOnUse" gradientTransform="translate(23.625 21.4375) rotate(90) scale(1.64063 0.136244)">
<stop stop-color="white" stop-opacity="0.2"/>
<stop offset="1" stop-color="white" stop-opacity="0"/>
</radialGradient>
<linearGradient id="paint57_linear_6903_5272" x1="26.832" y1="22" x2="25.871" y2="22" gradientUnits="userSpaceOnUse">
<stop stop-color="#FFB445"/>
<stop offset="1" stop-color="#E9A239" stop-opacity="0.921875"/>
</linearGradient>
<linearGradient id="paint58_linear_6903_5272" x1="25.4335" y1="22.0469" x2="26.371" y2="22.0469" gradientUnits="userSpaceOnUse">
<stop offset="0.366667" stop-color="#D6850E"/>
<stop offset="1" stop-color="#CC861F" stop-opacity="0"/>
</linearGradient>
<linearGradient id="paint59_linear_6903_5272" x1="26.4961" y1="24.2188" x2="26.4961" y2="22.6484" gradientUnits="userSpaceOnUse">
<stop stop-color="#FF91B9"/>
<stop offset="1" stop-color="#FD679E" stop-opacity="0"/>
</linearGradient>
<radialGradient id="paint60_radial_6903_5272" cx="0" cy="0" r="1" gradientUnits="userSpaceOnUse" gradientTransform="translate(26.6719 21.4375) rotate(90) scale(1.64063 0.136244)">
<stop stop-color="white" stop-opacity="0.2"/>
<stop offset="1" stop-color="white" stop-opacity="0"/>
</radialGradient>
<linearGradient id="paint61_linear_6903_5272" x1="11.0117" y1="30.4034" x2="3.04297" y2="30.4034" gradientUnits="userSpaceOnUse">
<stop offset="0.160663" stop-color="#F2CC26"/>
<stop offset="0.642165" stop-color="#E99E20"/>
<stop offset="0.9925" stop-color="#E3821D"/>
<stop offset="1" stop-color="#E3801D"/>
</linearGradient>
<linearGradient id="paint62_linear_6903_5272" x1="11.0117" y1="30.4034" x2="3.04297" y2="30.5625" gradientUnits="userSpaceOnUse">
<stop offset="0.865694" stop-color="#E3821D" stop-opacity="0"/>
<stop offset="1" stop-color="#D37516"/>
</linearGradient>
<linearGradient id="paint63_linear_6903_5272" x1="8.67572" y1="30.4034" x2="16.8632" y2="30.4034" gradientUnits="userSpaceOnUse">
<stop stop-color="#E99E20" stop-opacity="0"/>
<stop offset="1" stop-color="#E99E20"/>
</linearGradient>
<radialGradient id="paint64_radial_6903_5272" cx="0" cy="0" r="1" gradientUnits="userSpaceOnUse" gradientTransform="translate(8.30469 20.2266) rotate(-180) scale(0.296875 3.3125)">
<stop stop-color="#9C4F2A" stop-opacity="0.5"/>
<stop offset="1" stop-color="#9C4F2A" stop-opacity="0"/>
</radialGradient>
<radialGradient id="paint65_radial_6903_5272" cx="0" cy="0" r="1" gradientUnits="userSpaceOnUse" gradientTransform="translate(5.25 20.2266) rotate(180) scale(0.273437 3.05099)">
<stop stop-color="#9C4F2A" stop-opacity="0.5"/>
<stop offset="1" stop-color="#9C4F2A" stop-opacity="0"/>
</radialGradient>
<linearGradient id="paint66_linear_6903_5272" x1="5.83984" y1="22" x2="4.87885" y2="22" gradientUnits="userSpaceOnUse">
<stop stop-color="#FFB445"/>
<stop offset="1" stop-color="#E9A239" stop-opacity="0.921875"/>
</linearGradient>
<linearGradient id="paint67_linear_6903_5272" x1="4.39447" y1="22.1094" x2="5.67572" y2="22.0312" gradientUnits="userSpaceOnUse">
<stop offset="0.366667" stop-color="#D6850E"/>
<stop offset="1" stop-color="#CC861F" stop-opacity="0"/>
</linearGradient>
<linearGradient id="paint68_linear_6903_5272" x1="5.50391" y1="24.2188" x2="5.50391" y2="22.6484" gradientUnits="userSpaceOnUse">
<stop stop-color="#FF91B9"/>
<stop offset="1" stop-color="#FD679E" stop-opacity="0"/>
</linearGradient>
<radialGradient id="paint69_radial_6903_5272" cx="0" cy="0" r="1" gradientUnits="userSpaceOnUse" gradientTransform="translate(5.67969 21.4375) rotate(90) scale(1.64063 0.136244)">
<stop stop-color="white" stop-opacity="0.2"/>
<stop offset="1" stop-color="white" stop-opacity="0"/>
</radialGradient>
<linearGradient id="paint70_linear_6903_5272" x1="8.88672" y1="22" x2="7.92572" y2="22" gradientUnits="userSpaceOnUse">
<stop stop-color="#FFB445"/>
<stop offset="1" stop-color="#E9A239" stop-opacity="0.921875"/>
</linearGradient>
<linearGradient id="paint71_linear_6903_5272" x1="7.48822" y1="22.0469" x2="8.42572" y2="22.0469" gradientUnits="userSpaceOnUse">
<stop offset="0.366667" stop-color="#D6850E"/>
<stop offset="1" stop-color="#CC861F" stop-opacity="0"/>
</linearGradient>
<linearGradient id="paint72_linear_6903_5272" x1="8.55078" y1="24.2188" x2="8.55078" y2="22.6484" gradientUnits="userSpaceOnUse">
<stop stop-color="#FF91B9"/>
<stop offset="1" stop-color="#FD679E" stop-opacity="0"/>
</linearGradient>
<radialGradient id="paint73_radial_6903_5272" cx="0" cy="0" r="1" gradientUnits="userSpaceOnUse" gradientTransform="translate(8.72656 21.4375) rotate(90) scale(1.64063 0.136244)">
<stop stop-color="white" stop-opacity="0.2"/>
<stop offset="1" stop-color="white" stop-opacity="0"/>
</radialGradient>
</defs>
</svg>
