<svg width="32" height="32" viewBox="0 0 32 32" fill="none" xmlns="http://www.w3.org/2000/svg">
<path d="M16.5073 29.9978C25.8418 29.9978 30.5062 23.7303 30.5062 15.9989C30.5062 8.26751 25.8418 2 16.5073 2C7.17286 2 2.50842 8.26751 2.50842 15.9989C2.50842 23.7303 7.17286 29.9978 16.5073 29.9978Z" fill="url(#paint0_radial_7320_6152)"/>
<path d="M16.5073 29.9978C25.8418 29.9978 30.5062 23.7303 30.5062 15.9989C30.5062 8.26751 25.8418 2 16.5073 2C7.17286 2 2.50842 8.26751 2.50842 15.9989C2.50842 23.7303 7.17286 29.9978 16.5073 29.9978Z" fill="url(#paint1_radial_7320_6152)"/>
<path d="M16.5073 29.9978C25.8418 29.9978 30.5062 23.7303 30.5062 15.9989C30.5062 8.26751 25.8418 2 16.5073 2C7.17286 2 2.50842 8.26751 2.50842 15.9989C2.50842 23.7303 7.17286 29.9978 16.5073 29.9978Z" fill="url(#paint2_radial_7320_6152)"/>
<path d="M16.5073 29.9978C25.8418 29.9978 30.5062 23.7303 30.5062 15.9989C30.5062 8.26751 25.8418 2 16.5073 2C7.17286 2 2.50842 8.26751 2.50842 15.9989C2.50842 23.7303 7.17286 29.9978 16.5073 29.9978Z" fill="url(#paint3_radial_7320_6152)" fill-opacity="0.7"/>
<path d="M16.5073 29.9978C25.8418 29.9978 30.5062 23.7303 30.5062 15.9989C30.5062 8.26751 25.8418 2 16.5073 2C7.17286 2 2.50842 8.26751 2.50842 15.9989C2.50842 23.7303 7.17286 29.9978 16.5073 29.9978Z" fill="url(#paint4_radial_7320_6152)"/>
<path d="M16.5073 29.9978C25.8418 29.9978 30.5062 23.7303 30.5062 15.9989C30.5062 8.26751 25.8418 2 16.5073 2C7.17286 2 2.50842 8.26751 2.50842 15.9989C2.50842 23.7303 7.17286 29.9978 16.5073 29.9978Z" fill="url(#paint5_radial_7320_6152)"/>
<path d="M16.5073 29.9978C25.8418 29.9978 30.5062 23.7303 30.5062 15.9989C30.5062 8.26751 25.8418 2 16.5073 2C7.17286 2 2.50842 8.26751 2.50842 15.9989C2.50842 23.7303 7.17286 29.9978 16.5073 29.9978Z" fill="url(#paint6_radial_7320_6152)"/>
<path d="M16.5073 29.9978C25.8418 29.9978 30.5062 23.7303 30.5062 15.9989C30.5062 8.26751 25.8418 2 16.5073 2C7.17286 2 2.50842 8.26751 2.50842 15.9989C2.50842 23.7303 7.17286 29.9978 16.5073 29.9978Z" fill="url(#paint7_radial_7320_6152)"/>
<path d="M16.5073 29.9978C25.8418 29.9978 30.5062 23.7303 30.5062 15.9989C30.5062 8.26751 25.8418 2 16.5073 2C7.17286 2 2.50842 8.26751 2.50842 15.9989C2.50842 23.7303 7.17286 29.9978 16.5073 29.9978Z" fill="url(#paint8_radial_7320_6152)"/>
<path fill-rule="evenodd" clip-rule="evenodd" d="M12.9838 21.2822C13.3552 20.9714 13.8959 20.9714 14.2673 21.2822L16.5011 23.1514L18.7349 21.2822C19.1063 20.9714 19.647 20.9714 20.0184 21.2822L22.2522 23.1514L24.0068 21.6832C24.4303 21.3288 25.061 21.3848 25.4154 21.8084C25.7699 22.2319 25.7138 22.8626 25.2903 23.217L22.894 25.2222C22.5226 25.533 21.9819 25.533 21.6105 25.2222L19.3767 23.353L17.1428 25.2222C16.7714 25.533 16.2307 25.533 15.8593 25.2222L13.6255 23.353L11.3917 25.2222C11.0203 25.533 10.4796 25.533 10.1082 25.2222L7.71191 23.217C7.28836 22.8626 7.23232 22.2319 7.58675 21.8084C7.94118 21.3848 8.57186 21.3288 8.99541 21.6832L10.75 23.1514L12.9838 21.2822Z" fill="#4A2942"/>
<path fill-rule="evenodd" clip-rule="evenodd" d="M12.9838 21.2822C13.3552 20.9714 13.8959 20.9714 14.2673 21.2822L16.5011 23.1514L18.7349 21.2822C19.1063 20.9714 19.647 20.9714 20.0184 21.2822L22.2522 23.1514L24.0068 21.6832C24.4303 21.3288 25.061 21.3848 25.4154 21.8084C25.7699 22.2319 25.7138 22.8626 25.2903 23.217L22.894 25.2222C22.5226 25.533 21.9819 25.533 21.6105 25.2222L19.3767 23.353L17.1428 25.2222C16.7714 25.533 16.2307 25.533 15.8593 25.2222L13.6255 23.353L11.3917 25.2222C11.0203 25.533 10.4796 25.533 10.1082 25.2222L7.71191 23.217C7.28836 22.8626 7.23232 22.2319 7.58675 21.8084C7.94118 21.3848 8.57186 21.3288 8.99541 21.6832L10.75 23.1514L12.9838 21.2822Z" fill="url(#paint9_linear_7320_6152)"/>
<path fill-rule="evenodd" clip-rule="evenodd" d="M12.9838 21.2822C13.3552 20.9714 13.8959 20.9714 14.2673 21.2822L16.5011 23.1514L18.7349 21.2822C19.1063 20.9714 19.647 20.9714 20.0184 21.2822L22.2522 23.1514L24.0068 21.6832C24.4303 21.3288 25.061 21.3848 25.4154 21.8084C25.7699 22.2319 25.7138 22.8626 25.2903 23.217L22.894 25.2222C22.5226 25.533 21.9819 25.533 21.6105 25.2222L19.3767 23.353L17.1428 25.2222C16.7714 25.533 16.2307 25.533 15.8593 25.2222L13.6255 23.353L11.3917 25.2222C11.0203 25.533 10.4796 25.533 10.1082 25.2222L7.71191 23.217C7.28836 22.8626 7.23232 22.2319 7.58675 21.8084C7.94118 21.3848 8.57186 21.3288 8.99541 21.6832L10.75 23.1514L12.9838 21.2822Z" fill="url(#paint10_linear_7320_6152)"/>
<path fill-rule="evenodd" clip-rule="evenodd" d="M12.9838 21.2822C13.3552 20.9714 13.8959 20.9714 14.2673 21.2822L16.5011 23.1514L18.7349 21.2822C19.1063 20.9714 19.647 20.9714 20.0184 21.2822L22.2522 23.1514L24.0068 21.6832C24.4303 21.3288 25.061 21.3848 25.4154 21.8084C25.7699 22.2319 25.7138 22.8626 25.2903 23.217L22.894 25.2222C22.5226 25.533 21.9819 25.533 21.6105 25.2222L19.3767 23.353L17.1428 25.2222C16.7714 25.533 16.2307 25.533 15.8593 25.2222L13.6255 23.353L11.3917 25.2222C11.0203 25.533 10.4796 25.533 10.1082 25.2222L7.71191 23.217C7.28836 22.8626 7.23232 22.2319 7.58675 21.8084C7.94118 21.3848 8.57186 21.3288 8.99541 21.6832L10.75 23.1514L12.9838 21.2822Z" fill="url(#paint11_linear_7320_6152)"/>
<path fill-rule="evenodd" clip-rule="evenodd" d="M12.9838 21.2822C13.3552 20.9714 13.8959 20.9714 14.2673 21.2822L16.5011 23.1514L18.7349 21.2822C19.1063 20.9714 19.647 20.9714 20.0184 21.2822L22.2522 23.1514L24.0068 21.6832C24.4303 21.3288 25.061 21.3848 25.4154 21.8084C25.7699 22.2319 25.7138 22.8626 25.2903 23.217L22.894 25.2222C22.5226 25.533 21.9819 25.533 21.6105 25.2222L19.3767 23.353L17.1428 25.2222C16.7714 25.533 16.2307 25.533 15.8593 25.2222L13.6255 23.353L11.3917 25.2222C11.0203 25.533 10.4796 25.533 10.1082 25.2222L7.71191 23.217C7.28836 22.8626 7.23232 22.2319 7.58675 21.8084C7.94118 21.3848 8.57186 21.3288 8.99541 21.6832L10.75 23.1514L12.9838 21.2822Z" fill="url(#paint12_linear_7320_6152)"/>
<path fill-rule="evenodd" clip-rule="evenodd" d="M12.9838 21.2822C13.3552 20.9714 13.8959 20.9714 14.2673 21.2822L16.5011 23.1514L18.7349 21.2822C19.1063 20.9714 19.647 20.9714 20.0184 21.2822L22.2522 23.1514L24.0068 21.6832C24.4303 21.3288 25.061 21.3848 25.4154 21.8084C25.7699 22.2319 25.7138 22.8626 25.2903 23.217L22.894 25.2222C22.5226 25.533 21.9819 25.533 21.6105 25.2222L19.3767 23.353L17.1428 25.2222C16.7714 25.533 16.2307 25.533 15.8593 25.2222L13.6255 23.353L11.3917 25.2222C11.0203 25.533 10.4796 25.533 10.1082 25.2222L7.71191 23.217C7.28836 22.8626 7.23232 22.2319 7.58675 21.8084C7.94118 21.3848 8.57186 21.3288 8.99541 21.6832L10.75 23.1514L12.9838 21.2822Z" fill="url(#paint13_linear_7320_6152)"/>
<path fill-rule="evenodd" clip-rule="evenodd" d="M12.9838 21.2822C13.3552 20.9714 13.8959 20.9714 14.2673 21.2822L16.5011 23.1514L18.7349 21.2822C19.1063 20.9714 19.647 20.9714 20.0184 21.2822L22.2522 23.1514L24.0068 21.6832C24.4303 21.3288 25.061 21.3848 25.4154 21.8084C25.7699 22.2319 25.7138 22.8626 25.2903 23.217L22.894 25.2222C22.5226 25.533 21.9819 25.533 21.6105 25.2222L19.3767 23.353L17.1428 25.2222C16.7714 25.533 16.2307 25.533 15.8593 25.2222L13.6255 23.353L11.3917 25.2222C11.0203 25.533 10.4796 25.533 10.1082 25.2222L7.71191 23.217C7.28836 22.8626 7.23232 22.2319 7.58675 21.8084C7.94118 21.3848 8.57186 21.3288 8.99541 21.6832L10.75 23.1514L12.9838 21.2822Z" fill="url(#paint14_linear_7320_6152)"/>
<path fill-rule="evenodd" clip-rule="evenodd" d="M12.9838 21.2822C13.3552 20.9714 13.8959 20.9714 14.2673 21.2822L16.5011 23.1514L18.7349 21.2822C19.1063 20.9714 19.647 20.9714 20.0184 21.2822L22.2522 23.1514L24.0068 21.6832C24.4303 21.3288 25.061 21.3848 25.4154 21.8084C25.7699 22.2319 25.7138 22.8626 25.2903 23.217L22.894 25.2222C22.5226 25.533 21.9819 25.533 21.6105 25.2222L19.3767 23.353L17.1428 25.2222C16.7714 25.533 16.2307 25.533 15.8593 25.2222L13.6255 23.353L11.3917 25.2222C11.0203 25.533 10.4796 25.533 10.1082 25.2222L7.71191 23.217C7.28836 22.8626 7.23232 22.2319 7.58675 21.8084C7.94118 21.3848 8.57186 21.3288 8.99541 21.6832L10.75 23.1514L12.9838 21.2822Z" fill="url(#paint15_radial_7320_6152)"/>
<path fill-rule="evenodd" clip-rule="evenodd" d="M12.9838 21.2822C13.3552 20.9714 13.8959 20.9714 14.2673 21.2822L16.5011 23.1514L18.7349 21.2822C19.1063 20.9714 19.647 20.9714 20.0184 21.2822L22.2522 23.1514L24.0068 21.6832C24.4303 21.3288 25.061 21.3848 25.4154 21.8084C25.7699 22.2319 25.7138 22.8626 25.2903 23.217L22.894 25.2222C22.5226 25.533 21.9819 25.533 21.6105 25.2222L19.3767 23.353L17.1428 25.2222C16.7714 25.533 16.2307 25.533 15.8593 25.2222L13.6255 23.353L11.3917 25.2222C11.0203 25.533 10.4796 25.533 10.1082 25.2222L7.71191 23.217C7.28836 22.8626 7.23232 22.2319 7.58675 21.8084C7.94118 21.3848 8.57186 21.3288 8.99541 21.6832L10.75 23.1514L12.9838 21.2822Z" fill="url(#paint16_radial_7320_6152)"/>
<path fill-rule="evenodd" clip-rule="evenodd" d="M12.9838 21.2822C13.3552 20.9714 13.8959 20.9714 14.2673 21.2822L16.5011 23.1514L18.7349 21.2822C19.1063 20.9714 19.647 20.9714 20.0184 21.2822L22.2522 23.1514L24.0068 21.6832C24.4303 21.3288 25.061 21.3848 25.4154 21.8084C25.7699 22.2319 25.7138 22.8626 25.2903 23.217L22.894 25.2222C22.5226 25.533 21.9819 25.533 21.6105 25.2222L19.3767 23.353L17.1428 25.2222C16.7714 25.533 16.2307 25.533 15.8593 25.2222L13.6255 23.353L11.3917 25.2222C11.0203 25.533 10.4796 25.533 10.1082 25.2222L7.71191 23.217C7.28836 22.8626 7.23232 22.2319 7.58675 21.8084C7.94118 21.3848 8.57186 21.3288 8.99541 21.6832L10.75 23.1514L12.9838 21.2822Z" fill="url(#paint17_radial_7320_6152)"/>
<path fill-rule="evenodd" clip-rule="evenodd" d="M12.9838 21.2822C13.3552 20.9714 13.8959 20.9714 14.2673 21.2822L16.5011 23.1514L18.7349 21.2822C19.1063 20.9714 19.647 20.9714 20.0184 21.2822L22.2522 23.1514L24.0068 21.6832C24.4303 21.3288 25.061 21.3848 25.4154 21.8084C25.7699 22.2319 25.7138 22.8626 25.2903 23.217L22.894 25.2222C22.5226 25.533 21.9819 25.533 21.6105 25.2222L19.3767 23.353L17.1428 25.2222C16.7714 25.533 16.2307 25.533 15.8593 25.2222L13.6255 23.353L11.3917 25.2222C11.0203 25.533 10.4796 25.533 10.1082 25.2222L7.71191 23.217C7.28836 22.8626 7.23232 22.2319 7.58675 21.8084C7.94118 21.3848 8.57186 21.3288 8.99541 21.6832L10.75 23.1514L12.9838 21.2822Z" fill="url(#paint18_radial_7320_6152)"/>
<path fill-rule="evenodd" clip-rule="evenodd" d="M12.9838 21.2822C13.3552 20.9714 13.8959 20.9714 14.2673 21.2822L16.5011 23.1514L18.7349 21.2822C19.1063 20.9714 19.647 20.9714 20.0184 21.2822L22.2522 23.1514L24.0068 21.6832C24.4303 21.3288 25.061 21.3848 25.4154 21.8084C25.7699 22.2319 25.7138 22.8626 25.2903 23.217L22.894 25.2222C22.5226 25.533 21.9819 25.533 21.6105 25.2222L19.3767 23.353L17.1428 25.2222C16.7714 25.533 16.2307 25.533 15.8593 25.2222L13.6255 23.353L11.3917 25.2222C11.0203 25.533 10.4796 25.533 10.1082 25.2222L7.71191 23.217C7.28836 22.8626 7.23232 22.2319 7.58675 21.8084C7.94118 21.3848 8.57186 21.3288 8.99541 21.6832L10.75 23.1514L12.9838 21.2822Z" fill="url(#paint19_radial_7320_6152)"/>
<path fill-rule="evenodd" clip-rule="evenodd" d="M12.9838 21.2822C13.3552 20.9714 13.8959 20.9714 14.2673 21.2822L16.5011 23.1514L18.7349 21.2822C19.1063 20.9714 19.647 20.9714 20.0184 21.2822L22.2522 23.1514L24.0068 21.6832C24.4303 21.3288 25.061 21.3848 25.4154 21.8084C25.7699 22.2319 25.7138 22.8626 25.2903 23.217L22.894 25.2222C22.5226 25.533 21.9819 25.533 21.6105 25.2222L19.3767 23.353L17.1428 25.2222C16.7714 25.533 16.2307 25.533 15.8593 25.2222L13.6255 23.353L11.3917 25.2222C11.0203 25.533 10.4796 25.533 10.1082 25.2222L7.71191 23.217C7.28836 22.8626 7.23232 22.2319 7.58675 21.8084C7.94118 21.3848 8.57186 21.3288 8.99541 21.6832L10.75 23.1514L12.9838 21.2822Z" fill="url(#paint20_radial_7320_6152)"/>
<path fill-rule="evenodd" clip-rule="evenodd" d="M12.9838 21.2822C13.3552 20.9714 13.8959 20.9714 14.2673 21.2822L16.5011 23.1514L18.7349 21.2822C19.1063 20.9714 19.647 20.9714 20.0184 21.2822L22.2522 23.1514L24.0068 21.6832C24.4303 21.3288 25.061 21.3848 25.4154 21.8084C25.7699 22.2319 25.7138 22.8626 25.2903 23.217L22.894 25.2222C22.5226 25.533 21.9819 25.533 21.6105 25.2222L19.3767 23.353L17.1428 25.2222C16.7714 25.533 16.2307 25.533 15.8593 25.2222L13.6255 23.353L11.3917 25.2222C11.0203 25.533 10.4796 25.533 10.1082 25.2222L7.71191 23.217C7.28836 22.8626 7.23232 22.2319 7.58675 21.8084C7.94118 21.3848 8.57186 21.3288 8.99541 21.6832L10.75 23.1514L12.9838 21.2822Z" fill="url(#paint21_radial_7320_6152)"/>
<path fill-rule="evenodd" clip-rule="evenodd" d="M12.9321 9.56839C10.1796 7.91792 6.87505 8.89948 5.52968 11.126C5.24406 11.5987 5.3957 12.2134 5.86839 12.499C6.34108 12.7847 6.95582 12.633 7.24145 12.1603C7.99735 10.9094 10.0635 10.18 11.9039 11.2839L11.905 11.2845C13.3889 12.172 13.653 13.6657 13.0258 14.5632C12.7094 15.0159 12.8199 15.6394 13.2726 15.9557C13.7253 16.2721 14.3488 16.1616 14.6651 15.7089C16.1364 13.6037 15.121 10.8778 12.9321 9.56839Z" fill="url(#paint22_radial_7320_6152)"/>
<path fill-rule="evenodd" clip-rule="evenodd" d="M7.09083 17.5296C9.01224 19.9321 12.2913 19.5262 14.088 17.9036C14.7028 17.3484 14.7511 16.3999 14.1959 15.7851C13.6407 15.1703 12.6921 15.122 12.0773 15.6772C11.221 16.4505 10.0084 16.3747 9.43343 15.6555L9.43204 15.6538C8.95407 15.0577 9.04573 14.1707 9.65612 13.6791C10.3013 13.1594 10.4031 12.2151 9.88342 11.57C9.36377 10.9248 8.41949 10.823 7.77431 11.3427C5.88522 12.8642 5.57127 15.6335 7.09083 17.5296Z" fill="url(#paint23_radial_7320_6152)"/>
<path fill-rule="evenodd" clip-rule="evenodd" d="M20.6242 9.18477C19.3925 9.77411 18.391 10.8038 17.8244 11.8829C17.5676 12.3719 17.7559 12.9765 18.2449 13.2332C18.7339 13.4899 19.3384 13.3016 19.5952 12.8127C19.973 12.093 20.6665 11.3817 21.4874 10.9889C22.2826 10.6084 23.1522 10.5413 24.0129 10.9896L24.014 10.9902C24.4675 11.2256 25.0472 11.6561 25.5351 12.1471C26.0571 12.6723 26.309 13.1014 26.3514 13.3056C26.4638 13.8463 26.9933 14.1935 27.534 14.0811C28.0747 13.9687 28.4219 13.4393 28.3095 12.8985C28.1422 12.0933 27.5267 11.3138 26.9537 10.7372C26.3467 10.1266 25.6038 9.56221 24.9362 9.2155C23.4221 8.42711 21.8815 8.58319 20.6242 9.18477Z" fill="url(#paint24_radial_7320_6152)"/>
<path fill-rule="evenodd" clip-rule="evenodd" d="M20.9401 19.0873C22.1978 19.3701 23.7059 19.2439 24.8457 18.2254C25.4635 17.6735 25.5168 16.7252 24.9648 16.1075C24.4128 15.4897 23.4645 15.4364 22.8468 15.9884C22.6526 16.162 22.2465 16.3062 21.5983 16.1604C20.9622 16.0174 20.3124 15.6296 19.8824 15.0992L19.881 15.0976C19.5604 14.7033 19.288 14.1504 19.1786 13.6291C19.0637 13.0808 19.1742 12.833 19.2231 12.7684C19.7232 12.108 19.5933 11.1672 18.9329 10.667C18.2725 10.1669 17.3317 10.2968 16.8315 10.9572C16.0468 11.9933 16.0368 13.2638 16.2425 14.2448C16.4539 15.2527 16.9433 16.24 17.5536 16.9905C18.4239 18.0629 19.671 18.8019 20.9401 19.0873Z" fill="url(#paint25_radial_7320_6152)"/>
<path fill-rule="evenodd" clip-rule="evenodd" d="M22.4461 12.9259C22.9798 12.807 23.3199 12.2804 23.2069 11.7439C23.0932 11.2035 22.5628 10.8576 22.0224 10.9714C21.0185 11.1827 20.4909 12.0835 20.352 12.7928C20.2774 13.1738 20.2834 13.6211 20.4588 14.0418C20.6458 14.4906 21.0162 14.8737 21.5601 15.0375C22.0889 15.1967 22.6467 14.897 22.8059 14.3682C22.9466 13.901 22.7291 13.4111 22.3118 13.1936C22.3126 13.1883 22.3136 13.1828 22.3148 13.177C22.3317 13.0906 22.3707 13.0108 22.4121 12.9601C22.4284 12.9402 22.4401 12.9303 22.4461 12.9259ZM22.4489 12.924C22.4501 12.9233 22.4507 12.923 22.4507 12.9231C22.4507 12.9231 22.4501 12.9235 22.4489 12.924Z" fill="url(#paint26_radial_7320_6152)"/>
<path fill-rule="evenodd" clip-rule="evenodd" d="M24.3291 11.3689C24.9952 11.8084 25.4362 12.5034 25.6149 13.3147C25.7338 13.854 25.3929 14.3876 24.8535 14.5064C24.3142 14.6253 23.7806 14.2844 23.6618 13.745C23.5805 13.3763 23.4065 13.1563 23.2276 13.0383C23.0512 12.9219 22.7919 12.8526 22.4356 12.9281C21.8953 13.0426 21.3645 12.6974 21.2501 12.1571C21.1356 11.6168 21.4808 11.086 22.0211 10.9716C22.8448 10.797 23.6605 10.9278 24.3291 11.3689Z" fill="url(#paint27_radial_7320_6152)"/>
<path fill-rule="evenodd" clip-rule="evenodd" d="M24.4271 12.5523C24.9669 12.4356 25.4991 12.7786 25.6158 13.3184C26.0524 15.3377 24.7701 17.3303 22.7497 17.7672C22.2099 17.8839 21.6777 17.5409 21.561 17.0011C21.4443 16.4613 21.7873 15.9291 22.3271 15.8123C23.2668 15.6092 23.8644 14.6818 23.661 13.7411C23.5443 13.2013 23.8873 12.6691 24.4271 12.5523Z" fill="url(#paint28_radial_7320_6152)"/>
<path fill-rule="evenodd" clip-rule="evenodd" d="M18.257 13.1925C18.7968 13.0758 19.329 13.4187 19.4458 13.9586C19.7288 15.2675 21.0155 16.096 22.327 15.8125C22.8668 15.6958 23.399 16.0387 23.5158 16.5786C23.6325 17.1184 23.2895 17.6506 22.7497 17.7673C20.3611 18.2837 18.0079 16.7723 17.4909 14.3812C17.3742 13.8414 17.7172 13.3092 18.257 13.1925Z" fill="url(#paint29_radial_7320_6152)"/>
<path fill-rule="evenodd" clip-rule="evenodd" d="M21.5361 8.10264C25.1223 7.32133 27.9896 10.142 28.4661 13.1641C28.5521 13.7096 28.1796 14.2216 27.6341 14.3076C27.0885 14.3937 26.5766 14.0212 26.4905 13.4756C26.1471 11.2979 24.1547 9.57875 21.9613 10.0569L21.9599 10.0572C20.1892 10.4405 19.0626 12.1886 19.4457 13.9583C19.5625 14.4981 19.2197 15.0304 18.6799 15.1472C18.1401 15.2641 17.6078 14.9212 17.491 14.3814C16.8741 11.5314 18.6872 8.71969 21.5361 8.10264Z" fill="url(#paint30_radial_7320_6152)"/>
<path fill-rule="evenodd" clip-rule="evenodd" d="M10.5107 12.9259C9.97699 12.807 9.6369 12.2804 9.74985 11.7439C9.86363 11.2035 10.394 10.8576 10.9344 10.9714C11.9383 11.1827 12.4659 12.0835 12.6048 12.7928C12.6794 13.1738 12.6734 13.6211 12.498 14.0418C12.3109 14.4906 11.9405 14.8737 11.3967 15.0375C10.8679 15.1967 10.3101 14.897 10.1509 14.3682C10.0102 13.901 10.2277 13.4111 10.645 13.1936C10.6441 13.1883 10.6432 13.1828 10.642 13.177C10.6251 13.0906 10.5861 13.0108 10.5447 12.9601C10.5284 12.9402 10.5167 12.9303 10.5107 12.9259ZM10.5079 12.924C10.5067 12.9233 10.5061 12.923 10.5061 12.9231C10.5061 12.9231 10.5067 12.9235 10.5079 12.924Z" fill="url(#paint31_radial_7320_6152)"/>
<path fill-rule="evenodd" clip-rule="evenodd" d="M8.62773 11.3689C7.96162 11.8084 7.52061 12.5034 7.34186 13.3147C7.22302 13.854 7.56391 14.3876 8.10326 14.5064C8.6426 14.6253 9.17617 14.2844 9.29501 13.745C9.37625 13.3763 9.55025 13.1563 9.72914 13.0383C9.90556 12.9219 10.1649 12.8526 10.5212 12.9281C11.0615 13.0426 11.5922 12.6974 11.7067 12.1571C11.8212 11.6168 11.476 11.086 10.9357 10.9716C10.112 10.797 9.29631 10.9278 8.62773 11.3689Z" fill="url(#paint32_radial_7320_6152)"/>
<path fill-rule="evenodd" clip-rule="evenodd" d="M8.52983 12.5523C7.99002 12.4356 7.4578 12.7786 7.34108 13.3184C6.90447 15.3377 8.18686 17.3303 10.2072 17.7672C10.747 17.8839 11.2792 17.5409 11.3959 17.0011C11.5126 16.4613 11.1696 15.9291 10.6298 15.8123C9.69013 15.6092 9.09252 14.6818 9.29591 13.7411C9.41262 13.2013 9.06964 12.6691 8.52983 12.5523Z" fill="url(#paint33_radial_7320_6152)"/>
<path fill-rule="evenodd" clip-rule="evenodd" d="M14.6998 13.1925C14.16 13.0758 13.6277 13.4187 13.511 13.9586C13.228 15.2675 11.9412 16.096 10.6298 15.8125C10.09 15.6958 9.55774 16.0387 9.44102 16.5786C9.32431 17.1184 9.66729 17.6506 10.2071 17.7673C12.5956 18.2837 14.9489 16.7723 15.4659 14.3812C15.5826 13.8414 15.2396 13.3092 14.6998 13.1925Z" fill="url(#paint34_radial_7320_6152)"/>
<path fill-rule="evenodd" clip-rule="evenodd" d="M11.4207 8.10264C7.8345 7.32133 4.96723 10.142 4.49067 13.1641C4.40464 13.7096 4.77715 14.2216 5.3227 14.3076C5.86824 14.3937 6.38023 14.0212 6.46626 13.4756C6.80967 11.2979 8.80204 9.57875 10.9955 10.0569L10.9969 10.0572C12.7676 10.4405 13.8942 12.1886 13.5111 13.9583C13.3943 14.4981 13.7371 15.0304 14.2769 15.1472C14.8167 15.2641 15.349 14.9212 15.4658 14.3814C16.0827 11.5314 14.2696 8.71969 11.4207 8.10264Z" fill="url(#paint35_radial_7320_6152)"/>
<defs>
<radialGradient id="paint0_radial_7320_6152" cx="0" cy="0" r="1" gradientUnits="userSpaceOnUse" gradientTransform="translate(26.0084 9) rotate(132.839) scale(37.5033)">
<stop stop-color="#FFF478"/>
<stop offset="0.474827" stop-color="#FFB02E"/>
<stop offset="1" stop-color="#F70A8D"/>
</radialGradient>
<radialGradient id="paint1_radial_7320_6152" cx="0" cy="0" r="1" gradientUnits="userSpaceOnUse" gradientTransform="translate(10.7812 12.8906) rotate(87.4266) scale(1.39203)">
<stop stop-color="#BB6A1B"/>
<stop offset="1" stop-color="#BB6A1B" stop-opacity="0"/>
</radialGradient>
<radialGradient id="paint2_radial_7320_6152" cx="0" cy="0" r="1" gradientUnits="userSpaceOnUse" gradientTransform="translate(10.8593 14.4375) rotate(100.751) scale(1.25643)">
<stop stop-color="#BB6A1B"/>
<stop offset="1" stop-color="#BB6A1B" stop-opacity="0"/>
</radialGradient>
<radialGradient id="paint3_radial_7320_6152" cx="0" cy="0" r="1" gradientUnits="userSpaceOnUse" gradientTransform="translate(23.1562 12.6875) rotate(95.4774) scale(2.29171)">
<stop stop-color="#BB6A1B"/>
<stop offset="1" stop-color="#BB6A1B" stop-opacity="0"/>
</radialGradient>
<radialGradient id="paint4_radial_7320_6152" cx="0" cy="0" r="1" gradientUnits="userSpaceOnUse" gradientTransform="translate(21.5625 14) rotate(89.0123) scale(1.81277)">
<stop offset="0.192273" stop-color="#BB6A1B"/>
<stop offset="1" stop-color="#BB6A1B" stop-opacity="0"/>
</radialGradient>
<radialGradient id="paint5_radial_7320_6152" cx="0" cy="0" r="1" gradientUnits="userSpaceOnUse" gradientTransform="translate(16.5084 12.5) rotate(90) scale(17.8854)">
<stop offset="0.823911" stop-color="#F59639" stop-opacity="0"/>
<stop offset="1" stop-color="#FF63C4"/>
</radialGradient>
<radialGradient id="paint6_radial_7320_6152" cx="0" cy="0" r="1" gradientUnits="userSpaceOnUse" gradientTransform="translate(16.5084 12.5) rotate(135.781) scale(18.4466 23.0312)">
<stop offset="0.823911" stop-color="#F59639" stop-opacity="0"/>
<stop offset="1" stop-color="#F17066"/>
</radialGradient>
<radialGradient id="paint7_radial_7320_6152" cx="0" cy="0" r="1" gradientUnits="userSpaceOnUse" gradientTransform="translate(14.3892 23.9377) rotate(41.4964) scale(2.26567 1.18502)">
<stop stop-color="#CD6256"/>
<stop offset="1" stop-color="#CD6256" stop-opacity="0"/>
</radialGradient>
<radialGradient id="paint8_radial_7320_6152" cx="0" cy="0" r="1" gradientUnits="userSpaceOnUse" gradientTransform="translate(20.0458 23.7854) rotate(38.8201) scale(2.42939 1.27066)">
<stop stop-color="#CD6256"/>
<stop offset="1" stop-color="#CD6256" stop-opacity="0"/>
</radialGradient>
<linearGradient id="paint9_linear_7320_6152" x1="9.78519" y1="22.3281" x2="8.50003" y2="23.8984" gradientUnits="userSpaceOnUse">
<stop stop-color="#57434E" stop-opacity="0"/>
<stop offset="0.302083" stop-color="#57434E"/>
<stop offset="1" stop-color="#57434E" stop-opacity="0"/>
</linearGradient>
<linearGradient id="paint10_linear_7320_6152" x1="15.5078" y1="22.2969" x2="14.2032" y2="23.8516" gradientUnits="userSpaceOnUse">
<stop stop-color="#57434E" stop-opacity="0"/>
<stop offset="0.302083" stop-color="#57434E"/>
<stop offset="1" stop-color="#57434E" stop-opacity="0"/>
</linearGradient>
<linearGradient id="paint11_linear_7320_6152" x1="21.1797" y1="22.2422" x2="19.8516" y2="23.7734" gradientUnits="userSpaceOnUse">
<stop stop-color="#57434E" stop-opacity="0"/>
<stop offset="0.302083" stop-color="#57434E"/>
<stop offset="1" stop-color="#57434E" stop-opacity="0"/>
</linearGradient>
<linearGradient id="paint12_linear_7320_6152" x1="23.2032" y1="22.3594" x2="24.5469" y2="23.8906" gradientUnits="userSpaceOnUse">
<stop stop-color="#57434E" stop-opacity="0"/>
<stop offset="0.302083" stop-color="#57434E"/>
<stop offset="1" stop-color="#57434E" stop-opacity="0"/>
</linearGradient>
<linearGradient id="paint13_linear_7320_6152" x1="17.5" y1="22.1875" x2="18.8399" y2="23.9297" gradientUnits="userSpaceOnUse">
<stop stop-color="#57434E" stop-opacity="0"/>
<stop offset="0.302083" stop-color="#57434E"/>
<stop offset="1" stop-color="#57434E" stop-opacity="0"/>
</linearGradient>
<linearGradient id="paint14_linear_7320_6152" x1="11.7657" y1="22.2344" x2="13.0938" y2="23.8125" gradientUnits="userSpaceOnUse">
<stop stop-color="#57434E" stop-opacity="0"/>
<stop offset="0.302083" stop-color="#57434E"/>
<stop offset="1" stop-color="#57434E" stop-opacity="0"/>
</linearGradient>
<radialGradient id="paint15_radial_7320_6152" cx="0" cy="0" r="1" gradientUnits="userSpaceOnUse" gradientTransform="translate(21.3438 25.1875) rotate(133.716) scale(1.23222)">
<stop stop-color="#4A2942"/>
<stop offset="1" stop-color="#4A2942" stop-opacity="0"/>
</radialGradient>
<radialGradient id="paint16_radial_7320_6152" cx="0" cy="0" r="1" gradientUnits="userSpaceOnUse" gradientTransform="translate(23.2188 25.1875) rotate(40.4622) scale(1.04737)">
<stop stop-color="#4A2942"/>
<stop offset="1" stop-color="#4A2942" stop-opacity="0"/>
</radialGradient>
<radialGradient id="paint17_radial_7320_6152" cx="0" cy="0" r="1" gradientUnits="userSpaceOnUse" gradientTransform="translate(17.5 25.1406) rotate(48.2981) scale(1.63236)">
<stop stop-color="#4A2942"/>
<stop offset="1" stop-color="#4A2942" stop-opacity="0"/>
</radialGradient>
<radialGradient id="paint18_radial_7320_6152" cx="0" cy="0" r="1" gradientUnits="userSpaceOnUse" gradientTransform="translate(15.3655 25.017) rotate(135.405) scale(1.72904)">
<stop stop-color="#4A2942"/>
<stop stop-color="#4A2942" stop-opacity="0.937649"/>
<stop offset="1" stop-color="#4A2942" stop-opacity="0"/>
</radialGradient>
<radialGradient id="paint19_radial_7320_6152" cx="0" cy="0" r="1" gradientUnits="userSpaceOnUse" gradientTransform="translate(11.7344 25.0938) rotate(35.5679) scale(1.71919)">
<stop stop-color="#4A2942"/>
<stop stop-color="#4A2942" stop-opacity="0.937649"/>
<stop offset="1" stop-color="#4A2942" stop-opacity="0"/>
</radialGradient>
<radialGradient id="paint20_radial_7320_6152" cx="0" cy="0" r="1" gradientUnits="userSpaceOnUse" gradientTransform="translate(9.47659 24.9609) rotate(136.005) scale(1.57466)">
<stop stop-color="#4A2942"/>
<stop stop-color="#4A2942" stop-opacity="0.937649"/>
<stop offset="1" stop-color="#4A2942" stop-opacity="0"/>
</radialGradient>
<radialGradient id="paint21_radial_7320_6152" cx="0" cy="0" r="1" gradientUnits="userSpaceOnUse" gradientTransform="translate(16.5011 23.8438) rotate(90) scale(3.15625 10.6815)">
<stop offset="0.745174" stop-color="#4A2942" stop-opacity="0"/>
<stop offset="1" stop-color="#4A2942"/>
</radialGradient>
<radialGradient id="paint22_radial_7320_6152" cx="0" cy="0" r="1" gradientUnits="userSpaceOnUse" gradientTransform="translate(10.2701 13.3052) rotate(-69.4556) scale(4.26885 5.29781)">
<stop offset="0.62766" stop-color="#BB6A1B" stop-opacity="0"/>
<stop offset="0.857447" stop-color="#BB6A1B"/>
<stop offset="1" stop-color="#BB6A1B" stop-opacity="0"/>
</radialGradient>
<radialGradient id="paint23_radial_7320_6152" cx="0" cy="0" r="1" gradientUnits="userSpaceOnUse" gradientTransform="translate(10.7585 14.6885) rotate(129.268) scale(4.11223 4.27838)">
<stop offset="0.457879" stop-color="#BB6A1B" stop-opacity="0"/>
<stop offset="0.705179" stop-color="#BB6A1B"/>
<stop offset="1" stop-color="#BB6A1B" stop-opacity="0"/>
</radialGradient>
<radialGradient id="paint24_radial_7320_6152" cx="0" cy="0" r="1" gradientUnits="userSpaceOnUse" gradientTransform="translate(22.5404 13.2706) rotate(-72.8976) scale(4.26885 6.45257)">
<stop offset="0.62766" stop-color="#BB6A1B" stop-opacity="0"/>
<stop offset="0.857447" stop-color="#BB6A1B"/>
<stop offset="1" stop-color="#BB6A1B" stop-opacity="0"/>
</radialGradient>
<radialGradient id="paint25_radial_7320_6152" cx="0" cy="0" r="1" gradientUnits="userSpaceOnUse" gradientTransform="translate(20.8649 14.0716) rotate(116.019) scale(4.21691 4.19668)">
<stop offset="0.457879" stop-color="#BB6A1B" stop-opacity="0"/>
<stop offset="0.705179" stop-color="#BB6A1B"/>
<stop offset="1" stop-color="#BB6A1B" stop-opacity="0"/>
</radialGradient>
<radialGradient id="paint26_radial_7320_6152" cx="0" cy="0" r="1" gradientUnits="userSpaceOnUse" gradientTransform="translate(22.8944 13.0149) rotate(-85.832) scale(1.78977 2.23624)">
<stop offset="0.490314" stop-color="#482641"/>
<stop offset="0.810468" stop-color="#573B4A"/>
<stop offset="1" stop-color="#483637"/>
</radialGradient>
<radialGradient id="paint27_radial_7320_6152" cx="0" cy="0" r="1" gradientUnits="userSpaceOnUse" gradientTransform="translate(22.7288 13.5298) rotate(-64.7698) scale(2.60783 2.35053)">
<stop offset="0.46929" stop-color="#482641"/>
<stop offset="0.814184" stop-color="#573B4A"/>
<stop offset="1" stop-color="#483637"/>
</radialGradient>
<radialGradient id="paint28_radial_7320_6152" cx="0" cy="0" r="1" gradientUnits="userSpaceOnUse" gradientTransform="translate(21.7828 14.0207) rotate(-1.70699) scale(3.57291 3.75371)">
<stop offset="0.62766" stop-color="#482641"/>
<stop offset="0.857447" stop-color="#573B4A"/>
<stop offset="1" stop-color="#483637"/>
</radialGradient>
<radialGradient id="paint29_radial_7320_6152" cx="0" cy="0" r="1" gradientUnits="userSpaceOnUse" gradientTransform="translate(21.7354 13.4767) rotate(90) scale(4.17443 4.09165)">
<stop offset="0.62766" stop-color="#482641"/>
<stop offset="0.857447" stop-color="#573B4A"/>
<stop offset="1" stop-color="#483637"/>
</radialGradient>
<radialGradient id="paint30_radial_7320_6152" cx="0" cy="0" r="1" gradientUnits="userSpaceOnUse" gradientTransform="translate(22.847 13.5713) rotate(-90) scale(5.55802 5.2742)">
<stop offset="0.62766" stop-color="#482641"/>
<stop offset="0.857447" stop-color="#573B4A"/>
<stop offset="1" stop-color="#483637"/>
</radialGradient>
<radialGradient id="paint31_radial_7320_6152" cx="0" cy="0" r="1" gradientUnits="userSpaceOnUse" gradientTransform="translate(10.0624 13.0149) rotate(-94.168) scale(1.78977 2.23624)">
<stop offset="0.490314" stop-color="#482641"/>
<stop offset="0.810468" stop-color="#573B4A"/>
<stop offset="1" stop-color="#483637"/>
</radialGradient>
<radialGradient id="paint32_radial_7320_6152" cx="0" cy="0" r="1" gradientUnits="userSpaceOnUse" gradientTransform="translate(10.228 13.5298) rotate(-115.23) scale(2.60783 2.35053)">
<stop offset="0.46929" stop-color="#482641"/>
<stop offset="0.814184" stop-color="#573B4A"/>
<stop offset="1" stop-color="#483637"/>
</radialGradient>
<radialGradient id="paint33_radial_7320_6152" cx="0" cy="0" r="1" gradientUnits="userSpaceOnUse" gradientTransform="translate(11.1741 14.0207) rotate(-178.293) scale(3.57291 3.75371)">
<stop offset="0.62766" stop-color="#482641"/>
<stop offset="0.857447" stop-color="#573B4A"/>
<stop offset="1" stop-color="#483637"/>
</radialGradient>
<radialGradient id="paint34_radial_7320_6152" cx="0" cy="0" r="1" gradientUnits="userSpaceOnUse" gradientTransform="translate(11.2214 13.4767) rotate(90) scale(4.17443 4.09165)">
<stop offset="0.62766" stop-color="#482641"/>
<stop offset="0.857447" stop-color="#573B4A"/>
<stop offset="1" stop-color="#483637"/>
</radialGradient>
<radialGradient id="paint35_radial_7320_6152" cx="0" cy="0" r="1" gradientUnits="userSpaceOnUse" gradientTransform="translate(10.1098 13.5713) rotate(-90) scale(5.55802 5.2742)">
<stop offset="0.62766" stop-color="#482641"/>
<stop offset="0.857447" stop-color="#573B4A"/>
<stop offset="1" stop-color="#483637"/>
</radialGradient>
</defs>
</svg>
