<svg width="12" height="12" viewBox="0 0 12 12" fill="none" xmlns="http://www.w3.org/2000/svg">
<g clip-path="url(#clip0_40_11683)">
<path d="M2.22951 2.104C2.60251 2.407 2.74251 2.384 3.44351 2.337L10.051 1.9405C10.191 1.9405 10.0745 1.8005 10.028 1.7775L8.93001 0.983998C8.72001 0.820998 8.43951 0.633998 7.90251 0.680498L1.50501 1.1475C1.27201 1.1705 1.22501 1.2875 1.31801 1.3805L2.22951 2.104ZM2.62601 3.644V10.596C2.62601 10.9695 2.81251 11.1095 3.23301 11.086L10.4945 10.666C10.915 10.643 10.962 10.386 10.962 10.0825V3.177C10.962 2.874 10.8455 2.7105 10.588 2.7335L2.99951 3.177C2.71951 3.2005 2.62601 3.341 2.62601 3.644ZM9.79451 4.0165C9.84101 4.2265 9.79451 4.4365 9.58451 4.4605L9.23451 4.5305V9.6625C8.93051 9.826 8.65051 9.9195 8.41701 9.9195C8.04301 9.9195 7.94951 9.8025 7.66951 9.453L5.38101 5.86V9.336L6.10501 9.5C6.10501 9.5 6.10501 9.92 5.52101 9.92L3.91001 10.013C3.86351 9.92 3.91001 9.6865 4.07351 9.64L4.49351 9.5235V4.927L3.91101 4.88C3.86401 4.67 3.98101 4.367 4.30751 4.3435L6.03551 4.227L8.41751 7.8665V4.6465L7.81001 4.577C7.76351 4.32 7.95001 4.1335 8.18351 4.1105L9.79451 4.0165ZM0.968007 0.517498L7.62301 0.027498C8.44001 -0.042502 8.65051 0.00399804 9.16401 0.377498L11.2885 1.8705C11.6385 2.127 11.7555 2.197 11.7555 2.477V10.666C11.7555 11.179 11.569 11.483 10.9155 11.529L3.18651 11.996C2.69651 12.0195 2.46251 11.9495 2.20551 11.6225L0.641007 9.5925C0.361007 9.219 0.244507 8.9395 0.244507 8.6125V1.3335C0.244507 0.913998 0.431507 0.563498 0.968007 0.517498Z" fill="black"/>
</g>
<defs>
<clipPath id="clip0_40_11683">
<rect width="12" height="12" fill="white"/>
</clipPath>
</defs>
</svg>
