<svg width="12" height="12" viewBox="0 0 12 12" fill="none" xmlns="http://www.w3.org/2000/svg">
<g clip-path="url(#clip0_40_11715)">
<path d="M8.5965 4.7775C7.9645 1.9875 6.4705 1.0705 6.31 0.72C6.17 0.523 6.045 0.243 5.9425 0C5.9245 0.2475 5.915 0.3425 5.681 0.592C5.3195 0.875 3.462 2.433 3.311 5.602C3.17 8.558 5.446 10.3195 5.755 10.544L5.79 10.569C5.85435 11.0449 5.90936 11.522 5.955 12H6.1955C6.2525 11.484 6.3375 10.972 6.4505 10.465C6.659 10.317 6.7525 10.2335 6.8755 10.1185C7.45798 9.57965 7.92089 8.92455 8.23431 8.19557C8.54773 7.46659 8.70467 6.67994 8.695 5.8865C8.7 5.4795 8.6435 5.0555 8.5965 4.7775ZM5.9285 8.875C5.9285 8.875 5.9285 4.7295 6.066 4.73C6.1725 4.73 6.311 10.0775 6.311 10.0775C6.1205 10.055 5.9285 9.1975 5.9285 8.875Z" fill="black"/>
</g>
<defs>
<clipPath id="clip0_40_11715">
<rect width="12" height="12" fill="white"/>
</clipPath>
</defs>
</svg>
