<svg width="12" height="12" viewBox="0 0 12 12" fill="none" xmlns="http://www.w3.org/2000/svg">
<g clip-path="url(#clip0_7_205)">
<path d="M7.115 6.002C7.115 6.29842 6.99728 6.58272 6.78772 6.79237C6.57816 7.00202 6.29393 7.11986 5.9975 7.12C5.70099 7.12 5.41662 7.00221 5.20695 6.79254C4.99729 6.58288 4.8795 6.29851 4.8795 6.002C4.8795 5.70557 4.99722 5.42128 5.20678 5.21163C5.41634 5.00198 5.70057 4.88413 5.997 4.884C6.29351 4.884 6.57788 5.00179 6.78755 5.21145C6.99721 5.42112 7.115 5.70549 7.115 6.002ZM8.439 0.656998C7.766 0.656998 6.8855 1.137 5.995 1.968C5.105 1.1415 4.224 0.666998 3.5515 0.666998C3.3465 0.666998 3.16 0.713498 2.9985 0.805998C2.311 1.2025 2.157 2.438 2.512 3.9885C0.99 4.4585 0 5.21 0 6.002C0 6.797 0.995 7.5505 2.5215 8.017C2.1695 9.5735 2.3265 10.811 3.0155 11.207C3.1755 11.3005 3.3605 11.3445 3.5665 11.3445C4.239 11.3445 5.12 10.8645 6.0105 10.0325C6.9005 10.8595 7.7815 11.334 8.454 11.334C8.659 11.334 8.8455 11.289 9.007 11.1965C9.694 10.8005 9.8485 9.565 9.4935 8.014C11.01 7.548 12 6.795 12 6.002C12 5.207 11.005 4.4535 9.4785 3.986C9.8305 2.431 9.6735 1.1925 8.9845 0.795998C8.8255 0.703998 8.641 0.657498 8.439 0.656998ZM8.4365 1.202V1.205C8.549 1.205 8.6395 1.227 8.7155 1.2685C9.0485 1.4595 9.193 2.186 9.0805 3.1205C9.0535 3.3505 9.0095 3.593 8.9555 3.8405C8.4755 3.7225 7.9525 3.632 7.402 3.5735C7.072 3.121 6.7295 2.71 6.3845 2.35C7.1805 1.61 7.928 1.204 8.437 1.2025L8.4365 1.202ZM3.5515 1.212C4.0575 1.212 4.8085 1.616 5.6065 2.352C5.2635 2.712 4.9215 3.1205 4.5965 3.573C4.043 3.6315 3.5195 3.722 3.04 3.842C2.984 3.597 2.9425 3.36 2.913 3.132C2.798 2.198 2.94 1.472 3.27 1.2785C3.365 1.2335 3.47 1.2145 3.5515 1.212ZM5.9925 2.737C6.22 2.971 6.4475 3.233 6.6725 3.519C6.4525 3.509 6.2275 3.502 6 3.502C5.77 3.502 5.5425 3.507 5.32 3.519C5.54 3.233 5.7675 2.9715 5.9925 2.737ZM6 4.05C6.37 4.05 6.7385 4.067 7.101 4.0965C7.304 4.3875 7.502 4.698 7.6925 5.0265C7.8785 5.3465 8.0475 5.6715 8.2015 5.9995C8.0475 6.327 7.8785 6.6545 7.695 6.9745C7.505 7.3045 7.3085 7.6185 7.105 7.9095C6.741 7.941 6.372 7.9585 6 7.9585C5.63 7.9585 5.2615 7.941 4.899 7.912C4.696 7.621 4.498 7.31 4.3075 6.982C4.1215 6.662 3.9525 6.337 3.7985 6.009C3.95 5.6805 4.1215 5.3525 4.305 5.032C4.495 4.702 4.6915 4.389 4.895 4.098C5.259 4.066 5.628 4.049 6 4.049V4.05ZM4.1825 4.177C4.0625 4.3655 3.9425 4.5585 3.8305 4.757C3.718 4.952 3.613 5.148 3.513 5.344C3.3805 5.016 3.268 4.689 3.175 4.3705C3.495 4.2955 3.8325 4.2285 4.1825 4.177ZM7.8125 4.177C8.16 4.2285 8.495 4.292 8.8155 4.3705C8.7255 4.6865 8.613 5.0115 8.4855 5.337C8.3855 5.142 8.2805 4.9455 8.1655 4.75C8.053 4.554 7.933 4.363 7.813 4.177H7.8125ZM9.344 4.5145C9.586 4.5895 9.816 4.673 10.0315 4.7635C10.8975 5.1335 11.4575 5.6175 11.4575 6.0015C11.455 6.3855 10.895 6.8715 10.029 7.239C9.819 7.329 9.589 7.41 9.3515 7.4855C9.2115 7.0065 9.0285 6.5075 8.8015 5.9955C9.0265 5.487 9.2065 4.9905 9.344 4.5135V4.5145ZM2.6465 4.5165C2.7855 4.9965 2.969 5.495 3.1965 6.0065C2.9715 6.515 2.7905 7.0115 2.6535 7.4885C2.4115 7.4135 2.1815 7.3295 1.9685 7.2385C1.1025 6.87 0.5425 6.3855 0.5425 6.0015C0.5425 5.6175 1.1025 5.1305 1.9685 4.7635C2.1785 4.6735 2.4085 4.5925 2.6465 4.5165ZM8.4855 6.6565C8.618 6.985 8.7305 7.3125 8.8235 7.6305C8.5035 7.709 8.1655 7.7755 7.8155 7.8255C7.9355 7.638 8.0555 7.4445 8.168 7.2465C8.2805 7.0515 8.385 6.8525 8.4855 6.6565ZM3.513 6.6665C3.613 6.8625 3.718 7.058 3.833 7.254C3.948 7.449 4.0655 7.64 4.1855 7.8255C3.838 7.7745 3.503 7.7105 3.1825 7.6325C3.2725 7.3175 3.3855 6.9915 3.5125 6.666L3.513 6.6665ZM8.96 8.16C9.016 8.4065 9.06 8.644 9.087 8.8715C9.202 9.8055 9.06 10.5315 8.73 10.7255C8.6565 10.7705 8.561 10.7895 8.4485 10.7895C7.9425 10.7895 7.1915 10.386 6.3935 9.6495C6.7365 9.2895 7.0785 8.8815 7.4035 8.4295C7.957 8.3705 8.4805 8.28 8.96 8.16ZM3.045 8.165C3.525 8.282 4.048 8.3725 4.5985 8.431C4.9285 8.8835 5.271 9.2945 5.616 9.654C4.8185 10.3955 4.07 10.8015 3.561 10.8015C3.451 10.799 3.358 10.7765 3.2845 10.7355C2.9515 10.5455 2.807 9.8185 2.9195 8.884C2.9465 8.654 2.991 8.412 3.045 8.165ZM5.325 8.485C5.545 8.495 5.77 8.502 5.9975 8.502C6.2275 8.502 6.455 8.497 6.6775 8.485C6.4575 8.771 6.23 9.0325 6.005 9.2675C5.7775 9.0325 5.55 8.771 5.325 8.485Z" fill="black"/>
</g>
<defs>
<clipPath id="clip0_7_205">
<rect width="12" height="12" fill="white"/>
</clipPath>
</defs>
</svg>
