<svg width="12" height="12" viewBox="0 0 12 12" fill="none" xmlns="http://www.w3.org/2000/svg">
<g clip-path="url(#clip0_40_11766)">
<path d="M11.6225 3.245L12 2.2665L11.9845 2.206L8.248 3.1895C8.6465 2.613 8.5095 2.1505 8.5095 2.1505C8.5095 2.1505 7.316 2.9125 6.413 2.893C5.511 2.873 5.2195 2.633 3.8355 3.074C2.4515 3.515 2.06 4.869 1.66 5.1605C1.258 5.452 0 6.399 0 6.399L0.003 6.416L1.138 6.054C1.138 6.054 0.827 6.3465 0.1655 7.239L0.1345 7.2105L0.1355 7.216C0.1355 7.216 0.6675 8.029 1.189 7.878C1.24991 7.85881 1.30898 7.83422 1.3655 7.8045C1.575 7.9215 1.849 8.036 2.1515 8.067C2.1515 8.067 1.9465 7.8295 1.7755 7.5585L1.8945 7.4815L2.327 7.6405L2.279 7.2345C2.2805 7.233 2.282 7.233 2.283 7.2315L2.7075 7.387L2.655 7.018C2.70782 6.98997 2.76151 6.96362 2.816 6.939L3.2585 5.2665L5.0895 4.018L4.944 4.3845C4.5735 5.2975 3.8765 5.5125 3.8765 5.5125L3.5855 5.6225C3.369 5.8785 3.2785 5.941 3.2035 6.799C3.3775 6.755 3.5445 6.7455 3.6955 6.785C4.4775 6.9955 4.749 7.9385 4.538 8.1985C4.486 8.2635 4.36 8.3755 4.2015 8.507H3.885L3.881 8.764L3.8485 8.7895H3.526L3.5215 9.0415L3.4365 9.105C3.133 9.1105 2.75 8.846 2.75 8.846C2.75 9.0865 2.9505 9.4585 2.9505 9.4585L2.9855 9.4415L2.955 9.464C2.955 9.464 3.7675 10.0055 4.278 9.8045C4.733 9.6265 5.9095 8.698 6.926 8.258L10.001 7.448L10.4065 6.398L8.0625 7.0155V6.071L10.8125 5.347L11.218 4.297L8.063 5.128V4.1835L11.6225 3.245ZM6.041 5.245L6.7705 5.053L6.7805 5.09L6.553 5.6795L5.7965 5.8785L6.041 5.245ZM6.2925 6.508L5.5365 6.707L5.781 6.074L6.5105 5.8815L6.5205 5.9185L6.2925 6.508ZM7.278 6.296L6.5215 6.495L6.7665 5.862L7.496 5.6695L7.506 5.706L7.278 6.296Z" fill="black"/>
</g>
<defs>
<clipPath id="clip0_40_11766">
<rect width="12" height="12" fill="white"/>
</clipPath>
</defs>
</svg>
