<svg width="12" height="12" viewBox="0 0 12 12" fill="none" xmlns="http://www.w3.org/2000/svg">
<g clip-path="url(#clip0_40_11697)">
<path d="M7.06549 0.0234985C6.97899 0.0234985 6.89849 0.0419985 6.82399 0.0669985C6.98199 0.171999 7.06899 0.311999 7.11199 0.469999C7.11549 0.491499 7.12149 0.506999 7.12449 0.528499C7.1282 0.546953 7.13037 0.565684 7.13099 0.584499C7.14299 0.856999 7.05949 0.891499 7.00099 1.0525C6.91099 1.26 6.93599 1.483 7.04399 1.6625C7.05388 1.68657 7.06628 1.70953 7.08099 1.731C6.96349 0.946999 7.61749 0.829499 7.73799 0.584499C7.74749 0.370499 7.57099 0.227999 7.43149 0.128999C7.32186 0.0601131 7.19496 0.0237064 7.06549 0.0239985V0.0234985ZM8.05099 0.199999C8.03899 0.271499 8.04799 0.252999 8.04499 0.289999C8.04199 0.314999 8.04199 0.345999 8.03899 0.370499C8.03249 0.395499 8.02649 0.420499 8.01699 0.444999C8.01099 0.469999 8.00199 0.494999 7.99199 0.519499L7.95849 0.590499C7.94849 0.602998 7.94299 0.615499 7.93349 0.627999L7.91499 0.655499C7.90024 0.676717 7.88473 0.697397 7.86849 0.717498C7.84999 0.736498 7.83449 0.757999 7.81249 0.773499V0.776498C7.79399 0.791999 7.77549 0.810499 7.75349 0.826499C7.68849 0.875998 7.61449 0.912998 7.54599 0.959499C7.52449 0.974499 7.50249 0.987499 7.48399 1.006C7.46295 1.02079 7.44321 1.03735 7.42499 1.0555C7.40349 1.074 7.38799 1.0925 7.36949 1.1145C7.35399 1.133 7.33549 1.1545 7.32299 1.1765C7.30743 1.19743 7.29291 1.21913 7.27949 1.2415C7.26699 1.2665 7.25799 1.288 7.24549 1.3125C7.23599 1.3375 7.22699 1.359 7.22049 1.384C7.21229 1.40953 7.20512 1.43539 7.19899 1.4615C7.19599 1.474 7.19599 1.4895 7.19299 1.5015C7.18949 1.514 7.18949 1.5265 7.18649 1.539C7.18649 1.564 7.18349 1.5915 7.18349 1.6165C7.18349 1.635 7.18349 1.6535 7.18649 1.672C7.18649 1.697 7.18949 1.722 7.19599 1.7495C7.19899 1.7745 7.20499 1.7995 7.21099 1.8245C7.22099 1.849 7.22699 1.8735 7.23599 1.8985C7.24249 1.9135 7.25149 1.9295 7.25799 1.942L6.54499 1.666C6.42449 1.632 6.30649 1.601 6.18549 1.573L5.99049 1.5265C5.80449 1.4895 5.61549 1.4615 5.42649 1.443C5.41999 1.443 5.41699 1.44 5.41099 1.44C5.09162 1.40801 4.77008 1.40382 4.44999 1.4275C4.26099 1.44 4.07199 1.4645 3.88299 1.4955C3.74253 1.5197 3.60295 1.54872 3.46449 1.5825L3.32499 1.6195C3.27899 1.638 3.23499 1.6595 3.19199 1.6785L3.08949 1.725C3.08349 1.728 3.07749 1.728 3.07449 1.731C3.04299 1.7465 3.01549 1.759 2.98749 1.7745C2.94723 1.79226 2.90785 1.81195 2.86949 1.8335C2.84799 1.8425 2.82649 1.855 2.80749 1.8645C2.79861 1.87001 2.78943 1.87502 2.77999 1.8795C2.75199 1.8955 2.72399 1.911 2.69899 1.9265C2.67347 1.9406 2.64877 1.95613 2.62499 1.973C2.60299 1.988 2.58149 2.0005 2.56299 2.016C2.55999 2.0195 2.55649 2.0195 2.55349 2.0225C2.53499 2.035 2.51349 2.0505 2.49449 2.066L2.48849 2.072L2.44199 2.109C2.43599 2.1125 2.42949 2.1185 2.42349 2.1215C2.40799 2.134 2.39249 2.1495 2.37699 2.1615C2.37399 2.168 2.36749 2.1715 2.36449 2.174C2.34599 2.193 2.32749 2.2085 2.30899 2.227C2.30549 2.227 2.30549 2.23 2.30249 2.233C2.28322 2.24984 2.2647 2.26753 2.24699 2.286C2.24349 2.289 2.24349 2.292 2.24049 2.292C2.22421 2.30793 2.2087 2.32461 2.19399 2.342C2.18799 2.348 2.17899 2.354 2.17249 2.36C2.15588 2.37964 2.13819 2.39834 2.11949 2.416C2.11649 2.422 2.11049 2.4255 2.10749 2.431C2.08249 2.456 2.06099 2.481 2.03599 2.506L2.02699 2.515C1.97699 2.568 1.92449 2.6205 1.86849 2.667C1.81299 2.717 1.75399 2.763 1.69499 2.8035C1.57653 2.88812 1.44868 2.95875 1.31399 3.014C1.24899 3.042 1.18049 3.067 1.11249 3.0885C0.982488 3.1165 0.848988 3.169 0.734488 3.1785C0.709488 3.1785 0.681988 3.1845 0.656988 3.1875L0.579488 3.206L0.504988 3.234C0.479988 3.2435 0.455488 3.256 0.430988 3.268C0.408988 3.2835 0.384488 3.296 0.362488 3.3115C0.340428 3.32747 0.319693 3.34519 0.300488 3.3645C0.278988 3.3795 0.256988 3.4015 0.238488 3.42C0.219988 3.4415 0.201488 3.46 0.185988 3.482C0.170488 3.507 0.151988 3.5285 0.139488 3.5535C0.123202 3.57602 0.10866 3.59976 0.0959882 3.6245C0.0834882 3.6525 0.0709882 3.6775 0.0619882 3.705C0.0524882 3.73 0.0434882 3.758 0.0339882 3.7855C0.0279882 3.8105 0.0214882 3.8355 0.0189882 3.8605C0.0189882 3.863 0.0154882 3.8665 0.0154882 3.8695C0.00948818 3.8975 0.00948818 3.9345 0.00598818 3.953C0.00298818 3.975 -1.18205e-05 3.993 -1.18205e-05 4.015C-0.000587079 4.06892 0.0121201 4.12215 0.0369882 4.17V4.173C0.0464882 4.1915 0.0589882 4.2105 0.0714882 4.229C0.0834882 4.2475 0.0964882 4.266 0.111488 4.2845C0.126988 4.3 0.145488 4.319 0.164488 4.3345C0.182555 4.35262 0.202125 4.36918 0.222988 4.384C0.297488 4.449 0.315988 4.4705 0.411988 4.52C0.427488 4.5295 0.442988 4.5355 0.461988 4.545C0.464988 4.545 0.467988 4.548 0.470988 4.548C0.470988 4.5545 0.470988 4.5575 0.473988 4.5635C0.481226 4.6146 0.494658 4.66464 0.513988 4.7125C0.523988 4.731 0.529988 4.7495 0.538988 4.768C0.542488 4.7745 0.545488 4.7805 0.548988 4.7835C0.560988 4.8085 0.573488 4.83 0.585488 4.852L0.631988 4.917C0.647488 4.9355 0.666488 4.957 0.684988 4.976C0.703488 4.9945 0.721988 5.01 0.743988 5.0285C0.743988 5.0285 0.746988 5.0315 0.749988 5.0315C0.768488 5.047 0.786988 5.0625 0.805988 5.075C0.82755 5.09013 0.850289 5.1035 0.873988 5.115C0.895488 5.1275 0.920488 5.14 0.944988 5.1495C0.964967 5.15851 0.985718 5.16571 1.00699 5.171C1.01049 5.174 1.01349 5.174 1.01949 5.177C1.03199 5.1805 1.04749 5.1835 1.05949 5.1865C1.05049 5.354 1.04749 5.5115 1.07249 5.5675C1.09999 5.6295 1.23649 5.4405 1.37249 5.2235C1.35449 5.4375 1.34199 5.6885 1.37249 5.763C1.40699 5.8405 1.59249 5.5985 1.75399 5.332C3.95149 4.824 5.95649 6.342 6.16699 8.487C6.12699 8.152 5.71449 7.9665 5.52549 8.013C5.43249 8.242 5.27449 8.5365 5.02049 8.7195C5.04199 8.5145 5.03299 8.3045 4.98949 8.0995C4.92008 8.38485 4.78882 8.65147 4.60499 8.8805C4.31099 8.902 4.01649 8.7595 3.86149 8.5455C3.84899 8.5365 3.84599 8.518 3.83649 8.5055C3.82749 8.484 3.81799 8.462 3.81149 8.4405C3.80249 8.41974 3.79627 8.39788 3.79299 8.3755C3.78999 8.3535 3.78999 8.332 3.78999 8.307V8.2605C3.79369 8.23851 3.79887 8.21679 3.80549 8.1955C3.81199 8.174 3.81799 8.1525 3.82749 8.1305C3.83949 8.109 3.84899 8.087 3.86449 8.0655C3.91699 7.9165 3.91699 7.7955 3.82099 7.7245C3.80234 7.71233 3.78259 7.70195 3.76199 7.6935C3.74999 7.6905 3.73449 7.6845 3.72199 7.681L3.69699 7.672C3.67576 7.66513 3.65403 7.65995 3.63199 7.6565C3.61087 7.65032 3.58899 7.64712 3.56699 7.647C3.54448 7.64347 3.52176 7.64146 3.49899 7.641C3.48349 7.641 3.46799 7.644 3.45249 7.644C3.42932 7.64387 3.40625 7.64707 3.38399 7.6535C3.36249 7.6565 3.34099 7.6595 3.31899 7.6655C3.29687 7.67143 3.27516 7.67878 3.25399 7.6875C3.23249 7.6965 3.21399 7.706 3.19199 7.7155C3.17349 7.7245 3.15499 7.737 3.13299 7.7465C2.41099 8.2175 2.84199 9.3205 3.33449 9.64C3.14849 9.674 2.95949 9.714 2.90699 9.7545L2.90049 9.7605C3.03399 9.841 3.17349 9.9095 3.31899 9.9685C3.51749 10.0335 3.72799 10.092 3.82099 10.117V10.12C4.07775 10.1727 4.34033 10.1916 4.60199 10.176C5.97499 10.08 7.09999 9.0355 7.30449 7.6595L7.32299 7.74C7.33249 7.796 7.34449 7.855 7.35099 7.9135V7.9165C7.35699 7.9445 7.35999 7.9725 7.36349 7.9975V8.0095C7.36649 8.0375 7.36949 8.0655 7.36949 8.0905C7.37249 8.1245 7.37549 8.1585 7.37549 8.1925V8.2425C7.37549 8.2575 7.37899 8.276 7.37899 8.2915C7.37899 8.3105 7.37549 8.329 7.37549 8.3475V8.391C7.37549 8.4125 7.37249 8.431 7.37249 8.453C7.37249 8.4655 7.37249 8.478 7.36949 8.493C7.36949 8.515 7.36649 8.5365 7.36649 8.5615C7.36349 8.5705 7.36349 8.58 7.36349 8.589L7.35349 8.6605C7.35349 8.67 7.35349 8.679 7.35099 8.6885C7.34749 8.7195 7.34149 8.7475 7.33849 8.7785V8.7845L7.31999 8.8715V8.8805L7.30149 8.964C7.30149 8.9675 7.29799 8.974 7.29799 8.9765C7.29229 9.00485 7.28511 9.03289 7.27649 9.0605V9.0695C7.26699 9.1005 7.25799 9.1285 7.25149 9.1565C7.24849 9.1595 7.24849 9.1625 7.24849 9.1625L7.22049 9.2555C7.20849 9.2865 7.19899 9.3145 7.18649 9.3455C7.17399 9.3765 7.16499 9.4075 7.15249 9.4355C7.13999 9.4665 7.12749 9.494 7.11549 9.5255H7.11199C7.09999 9.553 7.08699 9.584 7.07199 9.612C7.06939 9.6194 7.06621 9.62659 7.06249 9.6335C7.05949 9.6365 7.05949 9.64 7.05649 9.643C6.85153 10.0533 6.55321 10.4099 6.18549 10.684C6.16049 10.6995 6.13599 10.7185 6.11099 10.737C6.10499 10.743 6.09599 10.746 6.08949 10.752C6.06732 10.7684 6.04465 10.7841 6.02149 10.799L6.03049 10.8175H6.03399L6.16399 10.799H6.16699C6.24749 10.7865 6.32799 10.771 6.40849 10.7555C6.43049 10.7525 6.45499 10.746 6.47699 10.74L6.52049 10.7305C6.54199 10.7275 6.56349 10.7215 6.58549 10.7185C6.60399 10.712 6.62249 10.7085 6.64099 10.703C6.95099 10.628 7.25149 10.526 7.53999 10.4055C7.04191 11.0839 6.37948 11.6245 5.61499 11.9765C5.97199 11.9515 6.32799 11.893 6.67199 11.7935C7.91709 11.4274 8.96871 10.5871 9.60049 9.4535C9.47289 10.1711 9.18827 10.8517 8.76699 11.4465C9.06735 11.2484 9.34487 11.0176 9.59449 10.7585C10.2882 10.0343 10.7436 9.11513 10.8995 8.1245C11.0045 8.6145 11.0355 9.1195 10.9895 9.618C13.2265 6.4975 11.175 3.262 10.3165 2.41C10.3135 2.4035 10.3105 2.4005 10.3105 2.3945C10.3075 2.3975 10.3075 2.3975 10.3075 2.4005C10.3075 2.3975 10.3075 2.3975 10.304 2.3945C10.304 2.4315 10.301 2.4685 10.298 2.506C10.2894 2.57541 10.2791 2.6446 10.267 2.7135C10.252 2.7815 10.233 2.85 10.2145 2.9185C10.1925 2.9835 10.168 3.0515 10.1395 3.1165C10.1112 3.18069 10.0803 3.24374 10.047 3.3055C9.9778 3.42698 9.89799 3.5421 9.80849 3.6495C9.76199 3.705 9.71249 3.7545 9.66249 3.8045C9.63326 3.83122 9.60325 3.85706 9.57249 3.882L9.50149 3.944C9.44617 3.98766 9.38822 4.0279 9.32799 4.0645C9.26876 4.10265 9.20768 4.13786 9.14499 4.17C9.07999 4.201 9.01499 4.229 8.94999 4.257C8.8176 4.30735 8.68062 4.3447 8.54099 4.3685C8.46949 4.381 8.39849 4.387 8.32999 4.3935C8.28056 4.397 8.23104 4.399 8.18149 4.3995C8.111 4.39853 8.0406 4.39435 7.97049 4.387C7.8997 4.38144 7.82937 4.37108 7.75999 4.356C7.68971 4.34325 7.62038 4.3257 7.55249 4.3035H7.54899C7.61749 4.297 7.68549 4.291 7.75399 4.2785C7.89353 4.25431 8.03047 4.21697 8.16299 4.167C8.23099 4.142 8.29599 4.111 8.35799 4.08C8.42299 4.049 8.48199 4.015 8.54399 3.978C8.60299 3.938 8.66149 3.8975 8.71749 3.854C8.77349 3.8105 8.82599 3.764 8.87549 3.7145C8.92799 3.668 8.97449 3.6155 9.02099 3.5625C9.06749 3.507 9.11099 3.451 9.15099 3.3955C9.15749 3.386 9.16399 3.3735 9.16999 3.3645C9.20099 3.3145 9.23199 3.265 9.25999 3.2155C9.32831 3.09216 9.38425 2.96236 9.42699 2.828C9.44899 2.763 9.46449 2.695 9.47999 2.6265C9.49249 2.5555 9.50499 2.4875 9.51099 2.419C9.51699 2.348 9.52349 2.2765 9.52349 2.2085C9.52349 2.1585 9.51999 2.109 9.51699 2.0595C9.51081 1.99009 9.50247 1.92089 9.49199 1.852C9.47994 1.78214 9.46459 1.7129 9.44599 1.6445C9.42399 1.5795 9.40249 1.511 9.37749 1.446C9.35249 1.381 9.32199 1.316 9.29099 1.254C9.25649 1.192 9.22249 1.13 9.18549 1.071C9.14591 1.01307 9.10455 0.956381 9.06149 0.900999C9.01499 0.847999 8.96849 0.794999 8.91899 0.742499C8.89291 0.715897 8.86606 0.690053 8.83849 0.664999C8.69849 0.556499 8.55349 0.454499 8.40749 0.361499C8.38746 0.349932 8.36676 0.33958 8.34549 0.330499C8.25356 0.274215 8.15452 0.229994 8.05099 0.199999Z" fill="black"/>
</g>
<defs>
<clipPath id="clip0_40_11697">
<rect width="12" height="12" fill="white"/>
</clipPath>
</defs>
</svg>
