<svg width="12" height="12" viewBox="0 0 12 12" fill="none" xmlns="http://www.w3.org/2000/svg">
<g clip-path="url(#clip0_40_11705)">
<path d="M5.99899 12C5.83849 12 5.67849 11.958 5.53799 11.8765L4.06999 11.008C3.85099 10.8855 3.95799 10.842 4.02999 10.8165C4.32249 10.715 4.38149 10.6915 4.69399 10.5145C4.72649 10.496 4.76949 10.503 4.80299 10.523L5.93099 11.1925C5.97199 11.215 6.02949 11.215 6.06699 11.1925L10.4645 8.6545C10.5055 8.631 10.5315 8.584 10.5315 8.5355V3.4605C10.5315 3.411 10.505 3.3645 10.463 3.3395L6.06749 0.803503C6.02699 0.780003 5.97299 0.780003 5.93199 0.803503L1.53749 3.34C1.49499 3.3645 1.46799 3.4125 1.46799 3.4605V8.5355C1.46799 8.584 1.49499 8.63 1.53749 8.653L2.74199 9.349C3.39549 9.676 3.79599 9.291 3.79599 8.904V3.8935C3.79599 3.8225 3.85299 3.767 3.92399 3.767H4.48149C4.55099 3.767 4.60899 3.823 4.60899 3.8935V8.904C4.60899 9.7765 4.13399 10.2765 3.30699 10.2765C3.05299 10.2765 2.85249 10.2765 2.29399 10.001L1.13999 9.3375C0.854986 9.173 0.678986 8.865 0.678986 8.5355V3.4605C0.678986 3.131 0.855486 2.823 1.13999 2.659L5.53749 0.118003C5.81599 -0.0394971 6.18549 -0.0394971 6.46149 0.118003L10.8585 2.659C11.1435 2.8235 11.3205 3.131 11.3205 3.4605V8.5355C11.3205 8.865 11.1435 9.172 10.8585 9.3375L6.46149 11.8765C6.32149 11.958 6.16199 12 5.99899 12ZM9.54949 6.9965C9.54949 6.0465 8.90749 5.7935 7.55599 5.615C6.19049 5.4345 6.05149 5.341 6.05149 5.0215C6.05149 4.7575 6.16899 4.405 7.18049 4.405C8.08399 4.405 8.41699 4.5995 8.55399 5.2085C8.56599 5.266 8.61849 5.308 8.67749 5.308H9.24799C9.28349 5.308 9.31699 5.2925 9.34099 5.2675C9.36499 5.2405 9.37799 5.206 9.37449 5.1695C9.28599 4.1205 8.58899 3.6315 7.18049 3.6315C5.92649 3.6315 5.17849 4.1605 5.17849 5.048C5.17849 6.0105 5.92249 6.2765 7.12599 6.3955C8.56599 6.5365 8.67749 6.747 8.67749 7.03C8.67749 7.5215 8.28299 7.731 7.35649 7.731C6.19299 7.731 5.93699 7.439 5.85099 6.86C5.84099 6.798 5.78799 6.7525 5.72449 6.7525H5.15599C5.08549 6.7525 5.02899 6.8085 5.02899 6.879C5.02899 7.62 5.43199 8.503 7.35649 8.503C8.75049 8.5035 9.54949 7.955 9.54949 6.9965Z" fill="black"/>
</g>
<defs>
<clipPath id="clip0_40_11705">
<rect width="12" height="12" fill="white"/>
</clipPath>
</defs>
</svg>
