<svg width="13" height="12" viewBox="0 0 13 12" fill="none" xmlns="http://www.w3.org/2000/svg">
<path d="M11.1084 9.14239L6.98143 0.378243C6.87793 0.159143 6.66193 0.0145934 6.41713 0.00119342C6.16598 -0.0134566 5.94098 0.107693 5.81403 0.313843L1.33803 7.56354C1.19938 7.78944 1.20213 8.06809 1.34593 8.29129L3.53388 11.6806C3.66428 11.8829 3.89023 12 4.12503 12C4.19163 12 4.25853 11.9906 4.32438 11.9711L10.6753 10.0927C10.8699 10.0352 11.0289 9.89754 11.1122 9.71509C11.1954 9.53264 11.1938 9.32369 11.1084 9.14239ZM10.1844 9.51834L4.79573 11.1121C4.63113 11.1608 4.47333 11.0184 4.50793 10.8524L6.43298 1.63309C6.46898 1.46069 6.70728 1.43329 6.78248 1.59294L10.3469 9.16194C10.4141 9.30474 10.3374 9.47314 10.1844 9.51834Z" fill="black"/>
</svg>
