<svg width="12" height="12" viewBox="0 0 12 12" fill="none" xmlns="http://www.w3.org/2000/svg">
<g clip-path="url(#clip0_40_11754)">
<path d="M10.9596 5.42301C10.9596 4.81138 10.2397 4.26899 9.1327 3.93788C9.399 2.81315 9.28275 1.91835 8.75275 1.61564C8.62281 1.54346 8.47617 1.50672 8.32755 1.50912C7.8331 1.50912 7.20815 1.85443 6.577 2.45186C5.94585 1.85887 5.3227 1.51533 4.82911 1.51533C4.67819 1.51199 4.52915 1.54941 4.39769 1.62363C3.87039 1.92722 3.76121 2.81671 4.02397 3.9361C2.92233 4.26544 2.20595 4.80339 2.20417 5.41236C2.20239 6.02131 2.92499 6.56636 4.03195 6.89661C3.76564 8.02221 3.88104 8.91611 4.41189 9.21881C4.54136 9.29141 4.68782 9.32816 4.83622 9.32536C5.33155 9.32536 5.9565 8.98006 6.58765 8.38261C7.21795 8.97561 7.8411 9.31916 8.33555 9.31916C8.48642 9.32192 8.63532 9.28454 8.767 9.21086C9.29425 8.90726 9.40255 8.01776 9.1407 6.90281C10.2424 6.56901 10.9587 6.03106 10.9596 5.42301ZM6.9836 2.65248C7.7106 2.00179 8.1651 1.93166 8.3267 1.93166C8.40162 1.92926 8.47581 1.94704 8.5415 1.98315C8.7954 2.12785 8.8966 2.63828 8.8158 3.31471C8.79511 3.48745 8.76549 3.65901 8.72705 3.82869C8.3592 3.74319 7.98615 3.68181 7.6103 3.64493C7.38648 3.33086 7.14213 3.03194 6.87885 2.75013C6.91165 2.71728 6.9472 2.68444 6.9836 2.65248ZM4.78296 5.92631C4.8522 6.05951 4.92588 6.19266 5.0022 6.32671C5.07855 6.46071 5.15845 6.59656 5.24725 6.73061C5.00665 6.69596 4.77319 6.65246 4.55126 6.60101C4.6134 6.37551 4.69241 6.15361 4.78296 5.92631ZM4.53706 4.23615C4.76165 4.18377 4.9969 4.14027 5.241 4.10654C5.15225 4.23792 5.0759 4.37285 4.99601 4.514C4.91611 4.65514 4.84598 4.78031 4.77763 4.91524C4.68708 4.68444 4.60689 4.45807 4.53706 4.23615ZM4.99956 5.42036C5.10965 5.18776 5.23065 4.95519 5.36265 4.72261C5.4958 4.49003 5.6387 4.26366 5.78605 4.04706C6.0444 4.02754 6.3107 4.01688 6.585 4.01777C6.8593 4.01866 7.1176 4.02842 7.37415 4.04884C7.52155 4.26367 7.66265 4.49269 7.79585 4.71906C7.929 4.94542 8.0515 5.18246 8.16155 5.41411C8.05235 5.64671 7.93075 5.88016 7.7994 6.11096C7.668 6.34176 7.5233 6.57081 7.37595 6.78741C7.1176 6.80781 6.8513 6.81761 6.577 6.81761C6.3027 6.81761 6.0444 6.80606 5.78785 6.78561C5.6405 6.57081 5.49845 6.34711 5.3653 6.11541C5.23215 5.88371 5.11405 5.65201 5.0031 5.42036H4.99956ZM7.91655 4.1092C8.158 4.14294 8.3915 4.18643 8.6125 4.23792C8.54685 4.45718 8.4687 4.68177 8.37815 4.90814C8.30805 4.77498 8.23525 4.64183 8.158 4.50778C8.0808 4.37374 7.9991 4.23881 7.9201 4.1092H7.91655ZM8.16155 6.32136C8.2379 6.18701 8.3107 6.05296 8.37995 5.91921C8.4687 6.15006 8.5575 6.37731 8.6196 6.59921C8.3959 6.65161 8.16065 6.69421 7.91655 6.72791C8.00235 6.59656 8.0852 6.46101 8.1651 6.32136H8.16155ZM6.5788 3.05195C6.73855 3.22239 6.8957 3.40703 7.04925 3.60499C6.89745 3.59877 6.7421 3.59434 6.585 3.59434C6.42785 3.59434 6.2672 3.59434 6.11185 3.60499C6.26365 3.40792 6.419 3.22239 6.5788 3.05195ZM4.60986 1.9867C4.6772 1.95088 4.7529 1.93372 4.82911 1.93699C4.98906 1.94365 5.1459 1.98324 5.28985 2.05328C5.61517 2.20666 5.91464 2.40971 6.17755 2.65514L6.2814 2.75013C6.02079 3.02986 5.77882 3.3264 5.55705 3.63783C5.17917 3.67444 4.80406 3.73552 4.43408 3.8207C4.39503 3.64849 4.36307 3.47982 4.34531 3.31737C4.253 2.64715 4.35952 2.13584 4.60896 1.99025L4.60986 1.9867ZM4.14025 6.48736C3.97345 6.43646 3.80932 6.37721 3.64847 6.30981C3.0182 6.04351 2.62761 5.70176 2.62761 5.40971C2.62761 5.11766 3.01997 4.77765 3.64935 4.51577C3.80735 4.45033 3.96852 4.39286 4.13227 4.34356C4.24324 4.71133 4.37846 5.07133 4.53706 5.42121C4.38185 5.76763 4.2493 6.12376 4.14025 6.48736ZM6.182 8.18286C5.45495 8.83356 5.00045 8.90281 4.838 8.90281C4.76306 8.90531 4.68883 8.88752 4.62317 8.85131C4.36929 8.70661 4.26809 8.19621 4.34887 7.51976C4.36949 7.3473 4.39912 7.17603 4.43764 7.00666C4.80559 7.09141 5.1786 7.15251 5.55435 7.18956C5.7779 7.50381 6.0223 7.80276 6.28585 8.08436L6.182 8.18286ZM6.58765 7.78251C6.42785 7.61211 6.27075 7.42746 6.1163 7.22951C6.26895 7.23661 6.4243 7.24016 6.58145 7.24016C6.73855 7.24016 6.89925 7.24016 7.0546 7.23036C6.901 7.42746 6.7448 7.61211 6.58675 7.78251H6.58765ZM8.5566 8.84776C8.48925 8.88466 8.41321 8.90276 8.33645 8.90016C8.1749 8.90016 7.71505 8.82911 6.9907 8.18111L6.8868 8.08611C7.14713 7.80636 7.38881 7.50982 7.6103 7.19841C7.98854 7.1623 8.36397 7.10122 8.73415 7.01556C8.7732 7.18776 8.80425 7.35641 8.8229 7.51886C8.9108 8.18821 8.8087 8.69951 8.5557 8.84421L8.5566 8.84776ZM9.5153 6.32316C9.3635 6.38526 9.20285 6.44296 9.0324 6.49446C8.92099 6.12672 8.78547 5.76672 8.6267 5.41681C8.78265 5.07076 8.9158 4.71494 9.0253 4.35155C9.1921 4.40247 9.35625 4.46172 9.5171 4.52909C10.1465 4.7954 10.538 5.13716 10.5371 5.42921C10.5361 5.72126 10.1447 6.05771 9.5144 6.31961L9.5153 6.32316ZM6.5788 6.23261C6.73995 6.23276 6.89755 6.18516 7.03165 6.09576C7.16577 6.00637 7.27037 5.87921 7.3322 5.73036C7.39405 5.58151 7.41035 5.41766 7.3791 5.25956C7.34782 5.10146 7.27038 4.95618 7.15655 4.84208C7.04269 4.72799 6.89756 4.65022 6.7395 4.6186C6.58147 4.58699 6.41761 4.60295 6.26865 4.66446C6.11967 4.72597 5.99229 4.83028 5.9026 4.9642C5.81291 5.09812 5.76494 5.25563 5.76475 5.41681C5.76451 5.52386 5.7854 5.6299 5.8262 5.72886C5.867 5.82781 5.92695 5.91776 6.00255 5.99356C6.07815 6.06931 6.168 6.12946 6.26685 6.17046C6.36575 6.21146 6.47175 6.23261 6.5788 6.23261ZM1.16378 0.506012V10.3285H12V0.506012H1.16378ZM11.5765 9.90591H1.5881V0.929442H11.5765V9.90591ZM4.03107 6.89661C3.76476 8.02221 3.88016 8.91611 4.41101 9.21881C4.54047 9.29141 4.68694 9.32816 4.83533 9.32536C5.33065 9.32536 5.9556 8.98006 6.58675 8.38261C7.21705 8.97561 7.8402 9.31916 8.33465 9.31916C8.48555 9.32191 8.6344 9.28456 8.7661 9.21086C9.2934 8.90726 9.4017 8.01776 9.1398 6.90281C10.2415 6.57256 10.9579 6.03461 10.9587 5.42656C10.9596 4.81848 10.2388 4.27254 9.1318 3.94143C9.39815 2.81671 9.28185 1.9219 8.7519 1.61919C8.62196 1.54702 8.47532 1.51028 8.3267 1.51267C7.8322 1.51267 7.2073 1.85798 6.5761 2.45541C5.94495 1.86242 5.3218 1.51888 4.82823 1.51888C4.6773 1.51555 4.52826 1.55296 4.3968 1.62718C3.8695 1.93078 3.76032 2.82026 4.02308 3.93965C2.92144 4.26899 2.20506 4.80694 2.20328 5.41591C2.20151 6.02486 2.92499 6.56461 4.03195 6.89661H4.03107ZM6.1802 8.18286C5.45315 8.83356 4.99867 8.90281 4.83622 8.90281C4.76128 8.90531 4.68706 8.88752 4.6214 8.85131C4.36751 8.70661 4.26631 8.19621 4.3471 7.51976C4.36771 7.3473 4.39734 7.17603 4.43586 7.00666C4.80382 7.09141 5.17683 7.15251 5.5526 7.18956C5.77615 7.50381 6.0205 7.80276 6.28405 8.08436L6.1802 8.18286ZM8.38085 4.90814C8.3107 4.77498 8.2379 4.64183 8.16065 4.50778C8.08345 4.37374 8.0009 4.24147 7.9192 4.1092C8.16065 4.14294 8.39415 4.18643 8.6152 4.23792C8.5504 4.45718 8.47225 4.68177 8.3817 4.90814H8.38085ZM8.6223 6.59476C8.3986 6.64716 8.16335 6.68976 7.9192 6.72351C8.00265 6.59211 8.08435 6.45661 8.16425 6.31691C8.2441 6.17726 8.3169 6.04321 8.3826 5.91481C8.4758 6.15006 8.5566 6.37551 8.6205 6.59921L8.6223 6.59476ZM8.1598 5.40971C8.0506 5.64226 7.929 5.87576 7.7976 6.10656C7.6662 6.33736 7.52155 6.56636 7.37415 6.78296C7.11585 6.80341 6.84955 6.81316 6.57525 6.81316C6.30095 6.81316 6.0426 6.80161 5.78605 6.78121C5.6387 6.56636 5.49665 6.34266 5.3635 6.11096C5.23035 5.87931 5.10875 5.64761 4.99778 5.41591C5.10785 5.18331 5.2289 4.95075 5.36085 4.71817C5.494 4.48559 5.63695 4.25923 5.7843 4.04263C6.0426 4.0231 6.3089 4.01244 6.5832 4.01333C6.8575 4.01422 7.11585 4.02398 7.3724 4.0444C7.51975 4.25923 7.6609 4.48825 7.79405 4.71462C7.9272 4.94098 8.0506 5.18246 8.16065 5.41411L8.1598 5.40971ZM5.24725 6.73061C5.00665 6.69596 4.77319 6.65246 4.55126 6.60101C4.61695 6.38261 4.69596 6.15716 4.78651 5.93076C4.85575 6.06391 4.92943 6.19706 5.00575 6.33111C5.0821 6.46516 5.15845 6.59656 5.24725 6.73061ZM4.99956 4.51133C4.92233 4.64449 4.84953 4.77765 4.78118 4.91258C4.68826 4.68355 4.60689 4.45807 4.53706 4.23615C4.76165 4.18377 4.9969 4.14027 5.241 4.10654C5.15845 4.23792 5.07945 4.37374 4.99956 4.51133ZM6.58675 7.78251C6.427 7.61211 6.26985 7.42746 6.1154 7.22951C6.2681 7.23661 6.42345 7.24016 6.58055 7.24016C6.7377 7.24016 6.89835 7.24016 7.0537 7.23036C6.901 7.42746 6.7448 7.61211 6.58675 7.78251ZM8.5557 8.84776C8.48835 8.88466 8.41231 8.90276 8.33555 8.90016C8.174 8.90016 7.71415 8.82911 6.9898 8.18111L6.88595 8.08611C7.14625 7.80635 7.38792 7.50981 7.6094 7.19841C7.98764 7.16231 8.36307 7.10122 8.73325 7.01556C8.7723 7.18776 8.80335 7.35641 8.822 7.51886C8.9108 8.18821 8.8087 8.69951 8.5557 8.84421V8.84776ZM9.0244 4.35066C9.1912 4.40158 9.35535 4.46084 9.5162 4.5282C10.1456 4.79451 10.5371 5.13626 10.5361 5.42831C10.5353 5.72041 10.1447 6.06391 9.5144 6.32581C9.36265 6.38796 9.20195 6.44566 9.0315 6.49711C8.92011 6.12937 8.7846 5.76937 8.62585 5.41946C8.78205 5.07111 8.9152 4.71291 9.0244 4.34711V4.35066ZM6.9827 2.65603C7.7097 2.00534 8.16425 1.93521 8.3258 1.93521C8.40072 1.93281 8.47491 1.9506 8.5406 1.9867C8.7945 2.1314 8.8957 2.64183 8.8149 3.31826C8.79421 3.491 8.76459 3.66256 8.72615 3.83224C8.3583 3.74674 7.98525 3.68536 7.6094 3.64849C7.3856 3.3344 7.14125 3.03548 6.87795 2.75368C6.91165 2.71728 6.9472 2.68444 6.9836 2.65248L6.9827 2.65603ZM6.5788 3.05195C6.73855 3.22239 6.8957 3.40703 7.04925 3.60499C6.89745 3.59877 6.7421 3.59434 6.585 3.59434C6.42785 3.59434 6.2672 3.59434 6.11185 3.60499C6.26365 3.40792 6.419 3.22239 6.5788 3.05195ZM4.60986 1.9867C4.6772 1.95088 4.7529 1.93372 4.82911 1.93699C4.98906 1.94365 5.1459 1.98324 5.28985 2.05328C5.61517 2.20666 5.91464 2.40971 6.17755 2.65514L6.2814 2.75013C6.02079 3.02986 5.77882 3.3264 5.55705 3.63783C5.17917 3.67444 4.80406 3.73552 4.43408 3.8207C4.39503 3.64849 4.36307 3.47982 4.34531 3.31737C4.253 2.64715 4.35952 2.13584 4.60896 1.99025L4.60986 1.9867ZM3.64935 4.51577C3.80735 4.45033 3.96852 4.39286 4.13227 4.34356C4.24324 4.71133 4.37846 5.07133 4.53706 5.42121C4.38128 5.76729 4.24815 6.12313 4.13848 6.48646C3.97169 6.43556 3.80755 6.37632 3.64669 6.30896C3.01642 6.04261 2.62583 5.70086 2.62583 5.40881C2.62583 5.11676 3.01997 4.77765 3.64935 4.51577ZM6.5788 4.60454C6.41762 4.60436 6.26001 4.65199 6.1259 4.74139C5.9918 4.83079 5.88721 4.95794 5.82535 5.10676C5.76351 5.25561 5.74719 5.41944 5.77845 5.57756C5.80975 5.73566 5.8872 5.88096 6.00105 5.99506C6.1149 6.10916 6.26 6.18691 6.41805 6.21856C6.5761 6.25016 6.73995 6.23421 6.88895 6.17266C7.0379 6.11116 7.1653 6.00686 7.255 5.87291C7.34465 5.73901 7.39265 5.58151 7.3928 5.42036C7.39365 5.31293 7.3732 5.2064 7.33265 5.10691C7.29209 5.00744 7.23226 4.91698 7.1566 4.84072C7.08092 4.76448 6.99091 4.70397 6.89175 4.66266C6.79258 4.62137 6.68622 4.60011 6.5788 4.60011V4.60454ZM6.5788 4.60454C6.41762 4.60436 6.26001 4.65199 6.1259 4.74139C5.9918 4.83079 5.88721 4.95794 5.82535 5.10676C5.76351 5.25561 5.74719 5.41944 5.77845 5.57756C5.80975 5.73566 5.8872 5.88096 6.00105 5.99506C6.1149 6.10916 6.26 6.18691 6.41805 6.21856C6.5761 6.25016 6.73995 6.23421 6.88895 6.17266C7.0379 6.11116 7.1653 6.00686 7.255 5.87291C7.34465 5.73901 7.39265 5.58151 7.3928 5.42036C7.39365 5.31293 7.3732 5.2064 7.33265 5.10691C7.29209 5.00744 7.23226 4.91698 7.1566 4.84072C7.08092 4.76448 6.99091 4.70397 6.89175 4.66266C6.79258 4.62137 6.68622 4.60011 6.5788 4.60011V4.60454ZM6.5788 4.60454C6.41762 4.60436 6.26001 4.65199 6.1259 4.74139C5.9918 4.83079 5.88721 4.95794 5.82535 5.10676C5.76351 5.25561 5.74719 5.41944 5.77845 5.57756C5.80975 5.73566 5.8872 5.88096 6.00105 5.99506C6.1149 6.10916 6.26 6.18691 6.41805 6.21856C6.5761 6.25016 6.73995 6.23421 6.88895 6.17266C7.0379 6.11116 7.1653 6.00686 7.255 5.87291C7.34465 5.73901 7.39265 5.58151 7.3928 5.42036C7.39365 5.31293 7.3732 5.2064 7.33265 5.10691C7.29209 5.00744 7.23226 4.91698 7.1566 4.84072C7.08092 4.76448 6.99091 4.70397 6.89175 4.66266C6.79258 4.62137 6.68622 4.60011 6.5788 4.60011V4.60454ZM10.9596 5.42476C10.9596 4.81315 10.2397 4.27077 9.1327 3.93965C9.399 2.81493 9.28275 1.92012 8.75275 1.61742C8.62281 1.54523 8.47617 1.5085 8.32755 1.51089C7.8331 1.51089 7.20815 1.85621 6.577 2.45363C5.94585 1.86065 5.3227 1.51711 4.82911 1.51711C4.67819 1.51377 4.52915 1.55118 4.39769 1.62541C3.87039 1.929 3.76121 2.81848 4.02397 3.93788C2.92233 4.26722 2.20595 4.80517 2.20417 5.41411C2.20239 6.02311 2.92499 6.56816 4.03195 6.89836C3.76564 8.02396 3.88104 8.91791 4.41189 9.22061C4.54136 9.29316 4.68782 9.32996 4.83622 9.32711C5.33155 9.32711 5.9565 8.98181 6.58765 8.38441C7.21795 8.97736 7.8411 9.32091 8.33555 9.32091C8.4864 9.32371 8.6353 9.28631 8.767 9.21261C9.29425 8.90901 9.40255 8.01956 9.1407 6.90461C10.2424 6.56901 10.9587 6.03106 10.9596 5.42301V5.42476ZM6.9836 2.65248C7.7106 2.00179 8.1651 1.93166 8.3267 1.93166C8.40162 1.92926 8.47581 1.94704 8.5415 1.98315C8.7954 2.12785 8.8966 2.63828 8.8158 3.31471C8.79511 3.48745 8.76549 3.65901 8.72705 3.82869C8.3592 3.74319 7.98615 3.68181 7.6103 3.64493C7.38648 3.33086 7.14213 3.03194 6.87885 2.75013C6.91165 2.71728 6.9472 2.68444 6.9836 2.65248ZM4.78296 5.92631C4.8522 6.05951 4.92588 6.19266 5.0022 6.32671C5.07855 6.46071 5.15845 6.59656 5.24725 6.73061C5.00665 6.69596 4.77319 6.65246 4.55126 6.60101C4.6134 6.37551 4.69241 6.15361 4.78296 5.92631ZM4.53706 4.23615C4.76165 4.18377 4.9969 4.14027 5.241 4.10654C5.15225 4.23792 5.0759 4.37285 4.99601 4.514C4.91611 4.65514 4.84598 4.78031 4.77763 4.91524C4.68708 4.68444 4.60689 4.45807 4.53706 4.23615ZM4.99956 5.42036C5.10965 5.18776 5.23065 4.95519 5.36265 4.72261C5.4958 4.49003 5.6387 4.26366 5.78605 4.04706C6.0444 4.02754 6.3107 4.01688 6.585 4.01777C6.8593 4.01866 7.1176 4.02842 7.37415 4.04884C7.52155 4.26367 7.66265 4.49269 7.79585 4.71906C7.929 4.94542 8.0515 5.18246 8.16155 5.41411C8.05235 5.64671 7.93075 5.88016 7.7994 6.11096C7.668 6.34176 7.5233 6.57081 7.37595 6.78741C7.1176 6.80781 6.8513 6.81761 6.577 6.81761C6.3027 6.81761 6.0444 6.80606 5.78785 6.78561C5.6405 6.57081 5.49845 6.34711 5.3653 6.11541C5.23215 5.88371 5.11405 5.65201 5.0031 5.42036H4.99956ZM7.91655 4.1092C8.158 4.14294 8.3915 4.18643 8.6125 4.23792C8.54685 4.45718 8.4687 4.68177 8.37815 4.90814C8.30805 4.77498 8.23525 4.64183 8.158 4.50778C8.0808 4.37374 7.9991 4.23881 7.9201 4.1092H7.91655ZM8.16155 6.32136C8.2379 6.18701 8.3107 6.05296 8.37995 5.91921C8.4687 6.15006 8.5575 6.37731 8.6196 6.59921C8.3959 6.65161 8.16065 6.69421 7.91655 6.72791C8.00235 6.59656 8.0852 6.46101 8.1651 6.32136H8.16155ZM6.5788 3.05195C6.73855 3.22239 6.8957 3.40703 7.04925 3.60499C6.89745 3.59877 6.7421 3.59434 6.585 3.59434C6.42785 3.59434 6.2672 3.59434 6.11185 3.60499C6.26365 3.40792 6.419 3.22239 6.5788 3.05195ZM4.60986 1.9867C4.6772 1.95088 4.7529 1.93372 4.82911 1.93699C4.98906 1.94365 5.1459 1.98324 5.28985 2.05328C5.61517 2.20666 5.91464 2.40971 6.17755 2.65514L6.2814 2.75013C6.02079 3.02986 5.77882 3.3264 5.55705 3.63783C5.17917 3.67444 4.80406 3.73552 4.43408 3.8207C4.39503 3.64849 4.36307 3.47982 4.34531 3.31737C4.253 2.64715 4.35952 2.13584 4.60896 1.99025L4.60986 1.9867ZM4.14025 6.48736C3.97345 6.43646 3.80932 6.37721 3.64847 6.30981C3.0182 6.04351 2.62761 5.70176 2.62761 5.40971C2.62761 5.11766 3.01997 4.77765 3.64935 4.51577C3.80735 4.45033 3.96852 4.39286 4.13227 4.34356C4.24324 4.71133 4.37846 5.07133 4.53706 5.42121C4.38185 5.76763 4.2493 6.12376 4.14025 6.48736ZM6.182 8.18286C5.45495 8.83356 5.00045 8.90281 4.838 8.90281C4.76306 8.90531 4.68883 8.88752 4.62317 8.85131C4.36929 8.70661 4.26809 8.19621 4.34887 7.51976C4.36949 7.3473 4.39912 7.17603 4.43764 7.00666C4.80559 7.09141 5.1786 7.15251 5.55435 7.18956C5.7779 7.50381 6.0223 7.80276 6.28585 8.08436L6.182 8.18286ZM6.58765 7.78251C6.42785 7.61211 6.27075 7.42746 6.1163 7.22951C6.26895 7.23661 6.4243 7.24016 6.58145 7.24016C6.73855 7.24016 6.89925 7.24016 7.0546 7.23036C6.901 7.42746 6.7448 7.61211 6.58675 7.78251H6.58765ZM8.5566 8.84776C8.48925 8.88466 8.41321 8.90276 8.33645 8.90016C8.1749 8.90016 7.71505 8.82911 6.9907 8.18111L6.8868 8.08611C7.14713 7.80636 7.38881 7.50982 7.6103 7.19841C7.98854 7.1623 8.36397 7.10122 8.73415 7.01556C8.7732 7.18776 8.80425 7.35641 8.8229 7.51886C8.9108 8.18821 8.8087 8.69951 8.5557 8.84421L8.5566 8.84776ZM9.5153 6.32316C9.3635 6.38526 9.20285 6.44296 9.0324 6.49446C8.92099 6.12672 8.78547 5.76672 8.6267 5.41681C8.78265 5.07076 8.9158 4.71494 9.0253 4.35155C9.1921 4.40247 9.35625 4.46172 9.5171 4.52909C10.1465 4.7954 10.538 5.13716 10.5371 5.42921C10.5361 5.72126 10.1447 6.05771 9.5144 6.31961L9.5153 6.32316ZM6.5788 6.23261C6.73995 6.23276 6.89755 6.18516 7.03165 6.09576C7.16577 6.00637 7.27037 5.87921 7.3322 5.73036C7.39405 5.58151 7.41035 5.41766 7.3791 5.25956C7.34782 5.10146 7.27038 4.95618 7.15655 4.84208C7.04269 4.72799 6.89756 4.65022 6.7395 4.6186C6.58147 4.58699 6.41761 4.60295 6.26865 4.66446C6.11967 4.72597 5.99229 4.83028 5.9026 4.9642C5.81291 5.09812 5.76494 5.25563 5.76475 5.41681C5.76451 5.52386 5.7854 5.6299 5.8262 5.72886C5.867 5.82781 5.92695 5.91776 6.00255 5.99356C6.07815 6.06931 6.168 6.12946 6.26685 6.17046C6.36575 6.21146 6.47175 6.23261 6.5788 6.23261ZM0.42521 11.0706V1.24458L0 1.67068V11.494H10.8344L11.2587 11.0706H0.42521Z" fill="black"/>
</g>
<defs>
<clipPath id="clip0_40_11754">
<rect width="12" height="12" fill="white"/>
</clipPath>
</defs>
</svg>
