<svg width="12" height="12" viewBox="0 0 12 12" fill="none" xmlns="http://www.w3.org/2000/svg">
<path d="M7.92599 4.4905H5.63199V0H7.92599C9.16399 0 10.171 1.007 10.171 2.245C10.171 3.483 9.16399 4.4905 7.92599 4.4905ZM6.36749 3.755H7.92599C8.75849 3.755 9.43549 3.0775 9.43549 2.2455C9.43549 1.4135 8.75799 0.736 7.92599 0.736H6.36749V3.755ZM6.36749 4.4905H4.07399C2.83599 4.4905 1.82899 3.4835 1.82899 2.2455C1.82899 1.0075 2.83599 0 4.07399 0H6.36799V4.4905H6.36749ZM4.07399 0.7355C3.24149 0.7355 2.56449 1.413 2.56449 2.245C2.56449 3.077 3.24149 3.755 4.07399 3.755H5.63249V0.7355H4.07399ZM6.36749 8.245H4.07399C2.83599 8.245 1.82899 7.238 1.82899 6C1.82899 4.762 2.83599 3.755 4.07399 3.755H6.36799V8.245H6.36749ZM4.07399 4.4905C3.24149 4.4905 2.56449 5.168 2.56449 6C2.56449 6.832 3.24199 7.5095 4.07399 7.5095H5.63249V4.4905H4.07399ZM4.08599 12C2.84149 12 1.82849 10.993 1.82849 9.755C1.82849 8.517 2.83549 7.51 4.07349 7.51H6.36749V9.7305C6.36749 10.982 5.34399 12 4.08599 12ZM4.07399 8.245C3.67381 8.24553 3.29017 8.40474 3.0072 8.68771C2.72423 8.97068 2.56502 9.35432 2.56449 9.7545C2.56449 10.587 3.24699 11.264 4.08649 11.264C4.93899 11.264 5.63299 10.576 5.63299 9.73V8.245H4.07399ZM7.92599 8.245H7.87699C6.63899 8.245 5.63199 7.238 5.63199 6C5.63199 4.762 6.63899 3.755 7.87699 3.755H7.92599C9.16399 3.755 10.171 4.762 10.171 6C10.171 7.238 9.16399 8.245 7.92599 8.245ZM7.87749 4.4905C7.04499 4.4905 6.36799 5.168 6.36799 6C6.36799 6.832 7.04549 7.5095 7.87749 7.5095H7.92649C8.75899 7.5095 9.43599 6.832 9.43599 6C9.43599 5.168 8.75799 4.4905 7.92599 4.4905H7.87749Z" fill="black"/>
</svg>
