<svg width="13" height="12" viewBox="0 0 13 12" fill="none" xmlns="http://www.w3.org/2000/svg">
<g clip-path="url(#clip0_40_11758)">
<path d="M10.3195 7.89649C10.3701 7.86739 10.4122 7.82549 10.4415 7.77499C10.4709 7.72441 10.4864 7.66698 10.4865 7.60849L10.4925 5.67949C10.4926 5.621 10.5082 5.56358 10.5375 5.51299C10.567 5.46243 10.6092 5.42053 10.66 5.39149L11.705 4.78999C11.7557 4.761 11.8131 4.74583 11.8715 4.74599C11.93 4.74613 11.9874 4.76165 12.038 4.79099C12.0886 4.82012 12.1307 4.86201 12.16 4.91249C12.1892 4.96313 12.2046 5.02055 12.2045 5.07899V8.58599C12.2045 8.64464 12.189 8.70224 12.1596 8.75298C12.1302 8.80371 12.0879 8.8458 12.037 8.87499L8.09052 11.142C8.04013 11.1709 7.98308 11.186 7.92502 11.186C7.86696 11.186 7.8099 11.1709 7.75952 11.142L4.66252 9.37099C4.61149 9.34187 4.56906 9.29978 4.53952 9.24899C4.51001 9.19811 4.49448 9.14032 4.49452 9.08149V7.31299C4.49452 7.31099 4.49652 7.30999 4.49852 7.31099C4.50052 7.31199 4.50252 7.31099 4.50252 7.30849V7.30649C4.50252 7.30499 4.50352 7.30399 4.50452 7.30299L7.05552 5.83799C7.05752 5.83649 7.05652 5.83299 7.05402 5.83299C7.05363 5.83299 7.05325 5.8329 7.0529 5.83273C7.05255 5.83256 7.05225 5.8323 7.05202 5.83199C7.0518 5.83171 7.05164 5.83139 7.05155 5.83105C7.05147 5.8307 7.05146 5.83034 7.05152 5.82999L7.05652 4.09649C7.05675 4.03778 7.04148 3.98004 7.01224 3.92912C6.98301 3.8782 6.94084 3.8359 6.89002 3.80649C6.83932 3.77722 6.78181 3.76181 6.72327 3.76181C6.66473 3.76181 6.60722 3.77722 6.55652 3.80649L4.66102 4.89949C4.61044 4.92858 4.55311 4.94389 4.49477 4.94389C4.43642 4.94389 4.3791 4.92858 4.32852 4.89949L2.42652 3.80449C2.37586 3.77542 2.31846 3.76016 2.26006 3.76024C2.20165 3.76033 2.14429 3.77574 2.09372 3.80495C2.04314 3.83416 2.00113 3.87614 1.97187 3.92669C1.94262 3.97724 1.92715 4.03459 1.92702 4.09299V7.22649C1.92704 7.28491 1.91172 7.3423 1.88258 7.39293C1.85345 7.44356 1.81153 7.48565 1.76102 7.51499C1.71058 7.54427 1.65334 7.55979 1.59502 7.55999C1.53662 7.56016 1.47921 7.54498 1.42852 7.51599L0.373018 6.91249C0.321987 6.88337 0.279555 6.84129 0.250018 6.79049C0.220423 6.73946 0.204895 6.68149 0.205018 6.62249L0.214518 1.14599C0.214699 1.08766 0.230177 1.0304 0.259406 0.979919C0.288635 0.929439 0.330593 0.887508 0.381092 0.858312C0.431591 0.829115 0.488864 0.813675 0.547196 0.813531C0.605527 0.813388 0.662876 0.828546 0.713518 0.857494L4.32852 2.93399C4.3791 2.96308 4.43642 2.97839 4.49477 2.97839C4.55311 2.97839 4.61044 2.96308 4.66102 2.93399L8.27502 0.857494C8.3257 0.828481 8.38312 0.813307 8.44152 0.813494C8.50001 0.813611 8.55743 0.829132 8.60802 0.858494C8.65868 0.887755 8.70076 0.929829 8.73002 0.980494C8.75901 1.03118 8.77418 1.0886 8.77402 1.14699V6.62499C8.77402 6.68349 8.75902 6.74099 8.72952 6.79199C8.70012 6.84272 8.65787 6.8848 8.60702 6.91399L6.71452 8.00399C6.66361 8.03332 6.62135 8.07558 6.59202 8.12649C6.56275 8.17727 6.5474 8.23488 6.54752 8.29349C6.54757 8.35215 6.56309 8.40975 6.59252 8.46049C6.62217 8.51136 6.66479 8.55346 6.71602 8.58249L7.76002 9.17699C7.81034 9.20549 7.86719 9.22048 7.92502 9.22049C7.98329 9.22042 8.04052 9.20507 8.09102 9.17599L10.3195 7.89599V7.89649ZM10.5385 2.98249C10.5385 3.04132 10.554 3.09912 10.5835 3.14999C10.6133 3.20093 10.6561 3.24303 10.7075 3.27199C10.7587 3.30094 10.8167 3.31581 10.8756 3.31511C10.9344 3.31441 10.992 3.29815 11.0425 3.26799L12.043 2.66799C12.0924 2.63841 12.1332 2.59655 12.1615 2.54649C12.19 2.49634 12.205 2.43967 12.205 2.38199V1.15999C12.2049 1.10112 12.1892 1.04333 12.1595 0.992494C12.1298 0.941651 12.0871 0.899599 12.0358 0.870616C11.9845 0.841634 11.9264 0.826755 11.8675 0.827494C11.8087 0.828153 11.7511 0.844369 11.7005 0.874494L10.7005 1.47449C10.651 1.50401 10.61 1.54588 10.5815 1.59599C10.5532 1.6462 10.5384 1.70287 10.5385 1.76049V2.98249Z" fill="black"/>
</g>
<defs>
<clipPath id="clip0_40_11758">
<rect width="12" height="12" fill="white" transform="translate(0.205017)"/>
</clipPath>
</defs>
</svg>
