<svg width="12" height="12" viewBox="0 0 12 12" fill="none" xmlns="http://www.w3.org/2000/svg">
<g clip-path="url(#clip0_40_11689)">
<path d="M6 0C9.3135 0 12 2.6865 12 6C12 9.3135 9.3135 12 6 12C2.6865 12 0 9.3135 0 6C0 2.6865 2.6865 0 6 0ZM4.8075 7.999C4.895 8.3215 4.8855 8.623 4.7955 8.895L4.763 8.985C4.751 9.0155 4.737 9.045 4.724 9.073C4.654 9.218 4.561 9.353 4.4465 9.478C4.0975 9.8575 3.6105 10.0015 3.4015 9.8805C3.1765 9.7495 3.2885 9.213 3.6935 8.7855C4.129 8.3265 4.7535 8.031 4.7535 8.031V8.0295L4.8075 7.999ZM9.763 2.5685C9.492 1.502 7.7245 1.1515 6.052 1.746C5.0575 2.0995 3.98 2.655 3.2055 3.3795C2.284 4.24 2.1375 4.99 2.198 5.3035C2.4115 6.409 3.9265 7.132 4.5495 7.6685V7.6715C4.366 7.7615 3.0215 8.436 2.7065 9.134C2.369 9.869 2.759 10.3945 3.014 10.4615C3.8015 10.6795 4.6115 10.2815 5.0465 9.637C5.4665 9.0065 5.4295 8.1965 5.2485 7.799C5.4965 7.7315 5.7885 7.7015 6.1635 7.747C7.214 7.867 7.424 8.527 7.3785 8.797C7.3335 9.0665 7.117 9.224 7.0415 9.269C6.9665 9.3145 6.944 9.329 6.951 9.3595C6.9585 9.4045 6.9965 9.4045 7.056 9.397C7.1385 9.382 7.604 9.172 7.6265 8.6615C7.649 8.0165 7.0335 7.297 5.939 7.3115C5.489 7.3195 5.2035 7.357 5.0015 7.4395C4.9865 7.417 4.971 7.402 4.949 7.387C4.274 6.6595 3.0215 6.1495 3.074 5.182C3.089 4.8295 3.2165 3.9 5.474 2.775C7.3265 1.852 8.8045 2.1075 9.0595 2.67C9.426 3.472 8.2715 4.965 6.344 5.182C5.609 5.2645 5.2265 4.98 5.1285 4.8745C5.024 4.762 5.009 4.7545 4.9715 4.7775C4.9115 4.8075 4.949 4.905 4.9715 4.965C5.0315 5.115 5.264 5.3775 5.6695 5.5125C6.0215 5.625 6.8845 5.692 7.9195 5.2875C9.0815 4.838 9.989 3.585 9.7265 2.535L9.763 2.5685Z" fill="black"/>
</g>
<defs>
<clipPath id="clip0_40_11689">
<rect width="12" height="12" fill="white"/>
</clipPath>
</defs>
</svg>
