<svg width="12" height="12" viewBox="0 0 12 12" fill="none" xmlns="http://www.w3.org/2000/svg">
<g clip-path="url(#clip0_43_12822)">
<path d="M3.3815 5.01799C3.3815 5.16599 3.3975 5.28549 3.4255 5.37299C3.4575 5.46099 3.4975 5.55699 3.5535 5.66099C3.5735 5.69249 3.5815 5.72449 3.5815 5.75249C3.5815 5.79249 3.5575 5.83249 3.5055 5.87249L3.254 6.03999C3.2236 6.0619 3.18744 6.07442 3.15 6.07599C3.11 6.07599 3.07 6.05599 3.0305 6.01999C2.97679 5.96221 2.92873 5.89943 2.887 5.83249C2.8423 5.7558 2.80093 5.67723 2.763 5.59699C2.452 5.96399 2.0605 6.14749 1.5895 6.14749C1.2545 6.14749 0.986999 6.05199 0.791499 5.86049C0.595999 5.66849 0.496499 5.41349 0.496499 5.09399C0.496499 4.75499 0.615999 4.47899 0.859499 4.27199C1.103 4.06449 1.426 3.96049 1.837 3.96049C1.973 3.96049 2.1125 3.97249 2.26 3.99249C2.408 4.01249 2.56 4.04449 2.719 4.08049V3.78899C2.719 3.48549 2.6555 3.27399 2.5315 3.15049C2.404 3.02649 2.1885 2.96699 1.8815 2.96699C1.7415 2.96699 1.5975 2.98249 1.45 3.01849C1.3025 3.05449 1.1585 3.09849 1.019 3.15449C0.973515 3.17485 0.926749 3.19222 0.878999 3.20649C0.858435 3.21312 0.837082 3.21698 0.815499 3.21799C0.759499 3.21799 0.731499 3.17799 0.731499 3.09449V2.89899C0.731499 2.83499 0.739499 2.78699 0.759499 2.75899C0.789702 2.72269 0.828086 2.69407 0.871499 2.67549C1.011 2.60349 1.1785 2.54349 1.374 2.49549C1.57751 2.44339 1.78694 2.41801 1.997 2.41999C2.472 2.41999 2.819 2.52799 3.0425 2.74349C3.262 2.95849 3.3735 3.28599 3.3735 3.72499V5.01799H3.3815ZM1.7615 5.62499C1.893 5.62499 2.0285 5.60099 2.1725 5.55299C2.316 5.50499 2.444 5.41749 2.5515 5.29799C2.6155 5.22199 2.6635 5.13799 2.6875 5.04199C2.711 4.94649 2.7275 4.83049 2.7275 4.69499V4.52749C2.60637 4.49796 2.48368 4.47526 2.36 4.45949C2.23562 4.44368 2.11038 4.43567 1.985 4.43549C1.7175 4.43549 1.522 4.48749 1.39 4.59549C1.2585 4.70299 1.195 4.85449 1.195 5.05399C1.195 5.24149 1.2425 5.38149 1.3425 5.47699C1.438 5.57699 1.5775 5.62499 1.7615 5.62499ZM4.9665 6.05599C4.8945 6.05599 4.8465 6.04399 4.8145 6.01599C4.7825 5.99199 4.7545 5.93599 4.7305 5.86049L3.793 2.77499C3.77476 2.72325 3.76268 2.66955 3.757 2.61499C3.757 2.55099 3.789 2.51499 3.8525 2.51499H4.244C4.3195 2.51499 4.3715 2.52749 4.399 2.55499C4.4315 2.57899 4.4555 2.63499 4.479 2.71099L5.15 5.35299L5.7725 2.71099C5.7925 2.63099 5.8165 2.57899 5.848 2.55499C5.89597 2.52557 5.95183 2.51161 6.008 2.51499H6.327C6.403 2.51499 6.455 2.52749 6.487 2.55499C6.5185 2.57899 6.547 2.63499 6.5625 2.71099L7.193 5.38499L7.8835 2.71099C7.9075 2.63099 7.9355 2.57899 7.9635 2.55499C8.00981 2.52558 8.06424 2.51158 8.119 2.51499H8.4905C8.554 2.51499 8.5905 2.54749 8.5905 2.61499C8.5905 2.63499 8.586 2.65499 8.582 2.67899C8.57574 2.71311 8.56636 2.74658 8.554 2.77899L7.5925 5.86399C7.5685 5.94399 7.5405 5.99549 7.5085 6.01949C7.46345 6.04839 7.41045 6.06238 7.357 6.05949H7.0135C6.938 6.05949 6.886 6.04749 6.8535 6.01949C6.822 5.99149 6.794 5.93949 6.7785 5.85949L6.1595 3.28549L5.5445 5.85549C5.5245 5.93549 5.501 5.98749 5.4695 6.01549C5.437 6.04349 5.381 6.05549 5.3095 6.05549L4.9665 6.05599ZM10.0945 6.16349C9.887 6.16349 9.6795 6.13949 9.48 6.09199C9.2805 6.04399 9.125 5.99199 9.021 5.93199C8.957 5.89649 8.9135 5.85649 8.8975 5.82049C8.88191 5.78519 8.87374 5.74707 8.8735 5.70849V5.50499C8.8735 5.42149 8.9055 5.38149 8.965 5.38149C8.989 5.38149 9.013 5.38549 9.037 5.39349C9.061 5.40149 9.097 5.41749 9.137 5.43349C9.2725 5.49349 9.42 5.54099 9.576 5.57299C9.7355 5.60499 9.891 5.62099 10.051 5.62099C10.302 5.62099 10.498 5.57699 10.6335 5.48899C10.6985 5.44974 10.7519 5.39401 10.7883 5.32744C10.8248 5.26088 10.8429 5.18585 10.841 5.10999C10.8425 5.0586 10.8337 5.00744 10.8153 4.95946C10.7968 4.91149 10.769 4.86765 10.7335 4.83049C10.6615 4.75499 10.5255 4.68699 10.33 4.62299L9.7515 4.44299C9.46 4.35149 9.2445 4.21599 9.113 4.03649C8.9843 3.87083 8.91398 3.66726 8.913 3.45749C8.913 3.28999 8.9495 3.14249 9.021 3.01449C9.093 2.88699 9.1885 2.77499 9.3085 2.68749C9.4285 2.59549 9.5635 2.52749 9.7235 2.47999C9.8835 2.43199 10.051 2.41199 10.2265 2.41199C10.314 2.41199 10.406 2.41599 10.494 2.42799C10.5855 2.43999 10.669 2.45599 10.753 2.47199C10.833 2.49199 10.909 2.51199 10.9805 2.53549C11.0525 2.55949 11.1085 2.58349 11.1485 2.60749C11.1956 2.63121 11.2367 2.66542 11.2685 2.70749C11.2943 2.74631 11.3067 2.79247 11.304 2.83899V3.02649C11.304 3.11049 11.272 3.15449 11.212 3.15449C11.1589 3.1484 11.1074 3.1321 11.0605 3.10649C10.8194 2.99997 10.5581 2.94692 10.2945 2.95099C10.067 2.95099 9.887 2.98649 9.7635 3.06249C9.6395 3.13849 9.576 3.25399 9.576 3.41749C9.576 3.52949 9.616 3.62549 9.696 3.70099C9.7755 3.77699 9.923 3.85299 10.1345 3.92099L10.7015 4.09999C10.9885 4.19199 11.1965 4.31999 11.32 4.48349C11.4435 4.64699 11.5035 4.83449 11.5035 5.04199C11.5035 5.21349 11.4675 5.36949 11.4 5.50499C11.328 5.64099 11.232 5.76049 11.1085 5.85649C10.9845 5.95649 10.837 6.02799 10.6655 6.07999C10.4855 6.13549 10.2985 6.16349 10.0945 6.16349ZM10.849 8.10349C9.536 9.07349 7.628 9.58799 5.988 9.58799C3.689 9.58799 1.618 8.73799 0.052999 7.32499C-0.070501 7.21349 0.040999 7.06149 0.188999 7.14949C1.881 8.13099 3.9685 8.72599 6.1275 8.72599C7.5845 8.72599 9.1845 8.42249 10.6575 7.79999C10.877 7.69999 11.0645 7.94349 10.849 8.10349ZM11.396 7.48049C11.228 7.26549 10.286 7.37699 9.859 7.42899C9.7315 7.44499 9.7115 7.33299 9.8275 7.24899C10.5775 6.72249 11.811 6.87399 11.9545 7.04949C12.098 7.22949 11.9145 8.46249 11.212 9.05299C11.1045 9.14499 11.0005 9.09699 11.0485 8.97749C11.2085 8.58249 11.5635 7.69249 11.396 7.48049Z" fill="black"/>
</g>
<defs>
<clipPath id="clip0_43_12822">
<rect width="12" height="12" fill="white"/>
</clipPath>
</defs>
</svg>
