<svg width="12" height="12" viewBox="0 0 12 12" fill="none" xmlns="http://www.w3.org/2000/svg">
<g clip-path="url(#clip0_40_11719)">
<path d="M4.14298 5.289L4.39898 0.960505C4.40102 0.926635 4.41426 0.894403 4.43662 0.868879C4.45897 0.843355 4.48918 0.825986 4.52248 0.819505L8.68849 0.0030049C8.71421 -0.00204776 8.74081 -0.000403419 8.76572 0.00778014C8.79063 0.0159637 8.81302 0.0304118 8.83074 0.0497382C8.84846 0.0690646 8.86092 0.0926207 8.86691 0.118146C8.87291 0.143672 8.87224 0.17031 8.86498 0.195505L8.08599 2.89701C8.07876 2.92215 8.0781 2.94873 8.08407 2.97421C8.09005 2.99968 8.10246 3.0232 8.12011 3.04251C8.13777 3.06182 8.16008 3.07628 8.18492 3.08451C8.20976 3.09274 8.23629 3.09446 8.26198 3.0895L9.45599 2.8595C9.48408 2.85401 9.51315 2.85651 9.5399 2.86671C9.56664 2.87692 9.58999 2.89443 9.60728 2.91724C9.62457 2.94005 9.63512 2.96726 9.63772 2.99577C9.64032 3.02427 9.63486 3.05294 9.62198 3.07851L6.22698 9.85351L6.16548 9.9485C6.15226 9.97001 6.13372 9.98775 6.11165 10C6.08958 10.0123 6.06473 10.0186 6.03948 10.0185C5.95098 10.0185 5.86448 9.9425 5.88698 9.834L6.43448 7.1835C6.43986 7.15754 6.4384 7.13063 6.43024 7.1054C6.42208 7.08018 6.4075 7.0575 6.38794 7.03961C6.36838 7.02171 6.34451 7.0092 6.31866 7.00331C6.29281 6.99742 6.26587 6.99835 6.24048 7.006L5.52398 7.2235C5.49862 7.23123 5.47168 7.23224 5.44581 7.22642C5.41993 7.2206 5.39602 7.20816 5.37641 7.19031C5.35679 7.17246 5.34216 7.14982 5.33393 7.12461C5.32571 7.0994 5.32417 7.07249 5.32948 7.0465L5.67448 5.359C5.67972 5.33381 5.67851 5.3077 5.67097 5.2831C5.66344 5.25849 5.64982 5.23619 5.63137 5.21824C5.61293 5.2003 5.59026 5.18729 5.56546 5.18044C5.54066 5.17358 5.51453 5.17309 5.48948 5.179L4.32948 5.447C4.30633 5.45232 4.28226 5.45218 4.25918 5.44658C4.23609 5.44098 4.21463 5.43009 4.19648 5.41476C4.17834 5.39943 4.16401 5.38008 4.15464 5.35826C4.14527 5.33643 4.14111 5.31272 4.14248 5.289H4.14298ZM11.631 1.326L8.64198 1.87L8.36998 2.8135L9.40848 2.61351C9.48896 2.59746 9.57243 2.60656 9.64756 2.63956C9.72269 2.67257 9.78586 2.72788 9.82848 2.79801C9.86467 2.85632 9.88523 2.92297 9.88821 2.99153C9.89119 3.06009 9.87647 3.12827 9.84548 3.18951L6.44998 9.965L6.44348 9.9775L6.43598 9.98901L6.37498 10.084C6.33893 10.1405 6.28927 10.187 6.23057 10.2193C6.17187 10.2517 6.106 10.2687 6.03898 10.269C5.9783 10.2687 5.91843 10.255 5.86364 10.2289C5.80885 10.2028 5.76048 10.1649 5.72198 10.118C5.68454 10.0717 5.65792 10.0175 5.64408 9.95956C5.63024 9.9016 5.62952 9.84128 5.64198 9.783L6.15648 7.2925L5.59648 7.4625C5.51989 7.48558 5.43817 7.48545 5.36164 7.46214C5.28512 7.43882 5.21721 7.39337 5.16648 7.3315C5.12867 7.28533 5.10164 7.23129 5.08737 7.17333C5.07309 7.11538 5.07194 7.05496 5.08398 6.9965L5.39898 5.4565L4.38548 5.6905C4.31688 5.70622 4.24535 5.70374 4.178 5.6833C4.11064 5.66287 4.0498 5.62519 4.00149 5.574C3.96403 5.53395 3.9351 5.48671 3.91645 5.43514C3.8978 5.38357 3.88982 5.32875 3.89298 5.274L4.08748 1.989L0.367485 1.324C0.310169 1.31366 0.251092 1.31989 0.197193 1.34196C0.143295 1.36403 0.0968136 1.40102 0.0632102 1.44859C0.0296068 1.49616 0.0102769 1.55233 0.00749138 1.61051C0.00470583 1.66868 0.0185803 1.72644 0.0474849 1.777L5.78998 11.8455C5.81681 11.8926 5.85568 11.9318 5.90261 11.959C5.94954 11.9861 6.00284 12.0003 6.05707 12.0001C6.1113 11.9999 6.16449 11.9853 6.21122 11.9578C6.25794 11.9303 6.29651 11.8908 6.32298 11.8435L11.953 1.776C11.9812 1.72535 11.9945 1.66772 11.9912 1.60983C11.9879 1.55194 11.9683 1.49617 11.9345 1.44901C11.9008 1.40186 11.8543 1.36526 11.8006 1.34348C11.7469 1.3217 11.688 1.31564 11.631 1.326Z" fill="black"/>
</g>
<defs>
<clipPath id="clip0_40_11719">
<rect width="12" height="12" fill="white"/>
</clipPath>
</defs>
</svg>
