<svg width="12" height="12" viewBox="0 0 12 12" fill="none" xmlns="http://www.w3.org/2000/svg">
<g clip-path="url(#clip0_40_11752)">
<path d="M6.00853 0C2.69803 0 0.0145264 2.6835 0.0145264 5.9935C0.0145264 8.533 1.59353 10.702 3.82353 11.5745C3.77103 11.1 3.72403 10.373 3.84403 9.855C3.95353 9.3865 4.54703 6.8765 4.54703 6.8765C4.54703 6.8765 4.36753 6.5165 4.36753 5.986C4.36753 5.1545 4.85103 4.5305 5.45153 4.5305C5.96353 4.5305 6.21053 4.915 6.21053 5.3745C6.21053 5.889 5.88403 6.658 5.71453 7.3705C5.57203 7.967 6.01453 8.453 6.60203 8.453C7.66603 8.453 8.48603 7.3305 8.48603 5.7095C8.48603 4.279 7.45453 3.275 5.98203 3.275C4.27703 3.275 3.27753 4.556 3.27753 5.8745C3.27753 6.391 3.47453 6.946 3.72203 7.245C3.77153 7.305 3.77803 7.3575 3.76453 7.4175C3.71953 7.605 3.61803 8.017 3.59753 8.099C3.57103 8.2115 3.51153 8.2345 3.39703 8.1815C2.64953 7.8365 2.18053 6.7425 2.18053 5.8585C2.18053 3.9705 3.55453 2.2325 6.14053 2.2325C8.21953 2.2325 9.83653 3.716 9.83653 5.694C9.83653 7.7615 8.53303 9.425 6.72003 9.425C6.11303 9.425 5.54303 9.1105 5.34103 8.7355L4.96653 10.1595C4.83203 10.682 4.46453 11.3355 4.21753 11.7325C4.77903 11.905 5.37053 12 5.99253 12C9.29603 12 11.985 9.3175 11.985 6.0065C11.985 2.695 9.29603 0.013 5.99253 0.013L6.00853 0Z" fill="black"/>
</g>
<defs>
<clipPath id="clip0_40_11752">
<rect width="12" height="12" fill="white"/>
</clipPath>
</defs>
</svg>
