<svg width="12" height="12" viewBox="0 0 12 12" fill="none" xmlns="http://www.w3.org/2000/svg">
<g clip-path="url(#clip0_40_11699)">
<path d="M5.78615 0C5.698 0 5.63125 0.00065 5.60695 0.00335C5.58115 0.006 5.499 0.01385 5.42515 0.01975C3.72075 0.1734 2.1243 1.0929 1.11315 2.50615C0.5501 3.292 0.19 4.1833 0.054 5.1275C0.0059 5.457 0 5.55435 0 6.0012C0 6.44805 0.006 6.5454 0.054 6.875C0.38 9.128 1.98355 11.021 4.15835 11.7222C4.5478 11.8478 4.95835 11.9334 5.4252 11.985C5.607 12.005 6.3929 12.005 6.5747 11.985C7.38055 11.8958 8.0633 11.6965 8.73655 11.3528C8.8398 11.3 8.85975 11.286 8.8457 11.2742C8.8363 11.2673 8.39635 10.6773 7.86855 9.9642L6.90905 8.6682L5.7067 6.88905C5.04515 5.91085 4.50085 5.11105 4.49615 5.11105C4.49145 5.10975 4.4868 5.9004 4.4844 6.86555C4.48105 8.55565 4.47975 8.62365 4.4586 8.66355C4.4281 8.72105 4.4046 8.74445 4.3554 8.77025C4.3179 8.78895 4.285 8.7925 4.1079 8.7925H3.9049L3.851 8.7585C3.81757 8.73756 3.79042 8.70799 3.7724 8.6729L3.74775 8.6201L3.7504 6.2686L3.75375 3.9159L3.79005 3.87015C3.80885 3.8455 3.84875 3.8139 3.87685 3.79865C3.92495 3.77515 3.94375 3.7728 4.14665 3.7728C4.386 3.7728 4.42585 3.78215 4.488 3.85015C4.50565 3.869 5.15665 4.8495 5.9355 6.03055C6.72409 7.22597 7.51316 8.42107 8.3027 9.61585L9.2528 11.0549L9.3008 11.0233C9.7267 10.7465 10.177 10.3524 10.5336 9.94195C11.2926 9.0705 11.7818 8.00795 11.946 6.87495C11.9941 6.5454 11.9999 6.44795 11.9999 6.0012C11.9999 5.55435 11.9939 5.457 11.946 5.1274C11.6199 2.8744 10.0164 0.98145 7.84165 0.28015C7.45805 0.1558 7.04985 0.07015 6.5924 0.01855C6.5079 0.00975 6.05055 0.0002 5.78615 0ZM7.8204 3.6085C7.99405 3.6085 8.0245 3.61115 8.06325 3.632C8.1196 3.6601 8.16525 3.7141 8.18175 3.77035C8.19105 3.80085 8.19345 4.453 8.19105 5.92255L8.1877 8.0313L7.8159 7.4613L7.44285 6.8913V5.3583C7.44285 4.3673 7.4475 3.81015 7.45455 3.7832C7.4733 3.71755 7.51435 3.6659 7.5707 3.63545C7.61875 3.61075 7.6362 3.6085 7.8204 3.6085Z" fill="black"/>
</g>
<defs>
<clipPath id="clip0_40_11699">
<rect width="12" height="12" fill="white"/>
</clipPath>
</defs>
</svg>
