<svg width="12" height="12" viewBox="0 0 12 12" fill="none" xmlns="http://www.w3.org/2000/svg">
<g clip-path="url(#clip0_43_12820)">
<path d="M5.10201 7.175L5.10551 7.18L4.60601 8.3865C4.12669 8.07965 3.762 7.62322 3.56851 7.088L4.85751 6.8695L4.85951 6.872C4.89864 6.8648 4.939 6.86836 4.97627 6.88228C5.01355 6.89621 5.04635 6.91998 5.07118 6.95108C5.09602 6.98217 5.11195 7.01941 5.11729 7.05884C5.12263 7.09828 5.11718 7.13842 5.10151 7.175H5.10201ZM4.68551 6.1105C4.72389 6.09999 4.7587 6.07927 4.78623 6.05055C4.81377 6.02182 4.833 5.98617 4.84187 5.94738C4.85075 5.90859 4.84894 5.86812 4.83664 5.83028C4.82433 5.79244 4.802 5.75865 4.77201 5.7325L4.77301 5.727L3.79251 4.85C3.4934 5.33687 3.36497 5.90951 3.42751 6.4775L4.68451 6.115L4.68551 6.1105ZM5.25801 5.1205C5.29018 5.14398 5.32813 5.15828 5.3678 5.16189C5.40746 5.16549 5.44736 5.15826 5.48324 5.14096C5.51912 5.12366 5.54963 5.09695 5.57152 5.06367C5.5934 5.03039 5.60584 4.99179 5.60751 4.952L5.61251 4.9495L5.68751 3.6395C5.11965 3.70588 4.5901 3.95957 4.18251 4.3605L5.25601 5.122L5.25801 5.1205ZM5.63801 6.4955L5.99951 6.67L6.36051 6.4965L6.45051 6.1065L6.20051 5.795H5.79851L5.54851 6.1065L5.63801 6.4955ZM6.38801 4.948C6.3897 4.98783 6.40219 5.02646 6.42414 5.05975C6.44608 5.09304 6.47666 5.11974 6.51261 5.13699C6.54856 5.15425 6.58852 5.16141 6.62822 5.15771C6.66792 5.15401 6.70587 5.13959 6.73801 5.116L6.74201 5.1175L7.80901 4.361C7.40283 3.96322 6.87721 3.7099 6.31301 3.64L6.38701 4.9475L6.38801 4.948ZM11.826 7.933L8.93951 11.5235C8.86431 11.6165 8.76922 11.6915 8.66123 11.7429C8.55324 11.7942 8.43511 11.8208 8.31551 11.8205L3.68501 11.822C3.56542 11.8221 3.44732 11.7954 3.33942 11.7438C3.23152 11.6922 3.13655 11.6171 3.06151 11.524L0.173509 7.934C0.0992005 7.84104 0.0468091 7.73253 0.0202331 7.61653C-0.00634298 7.50053 -0.00641957 7.38003 0.020009 7.264L1.05001 2.7865C1.10401 2.5515 1.26251 2.3545 1.48151 2.25L5.65251 0.256495C5.76062 0.204827 5.87893 0.178009 5.99876 0.178009C6.11859 0.178009 6.23689 0.204827 6.34501 0.256495L10.5175 2.249C10.7365 2.3535 10.895 2.551 10.949 2.7855L11.98 7.263C12.034 7.498 11.9775 7.7445 11.826 7.933ZM10.1815 6.9045C10.1605 6.8995 10.13 6.8915 10.109 6.8875C10.022 6.871 9.95151 6.875 9.86951 6.8685C9.69451 6.85 9.55051 6.835 9.42201 6.7945C9.36951 6.7745 9.33201 6.712 9.31401 6.6865L9.21351 6.657C9.26707 6.26837 9.24928 5.87323 9.16101 5.491C9.07259 5.10487 8.91396 4.73828 8.69301 4.4095C8.71901 4.386 8.76801 4.343 8.78151 4.33C8.78551 4.285 8.78201 4.2385 8.82851 4.189C8.92701 4.0965 9.05051 4.02 9.20001 3.928C9.27101 3.886 9.33651 3.8595 9.40751 3.807C9.42351 3.795 9.44551 3.776 9.46251 3.7625C9.58251 3.667 9.61001 3.5025 9.52401 3.3945C9.43801 3.2865 9.27101 3.2765 9.15151 3.372C9.13451 3.3855 9.11151 3.403 9.09601 3.416C9.02901 3.474 8.98751 3.531 8.93101 3.591C8.80801 3.716 8.70601 3.82 8.59451 3.8955C8.54601 3.9235 8.47501 3.914 8.44301 3.912L8.34801 3.9795C7.80112 3.40559 7.0645 3.04972 6.27501 2.978L6.26901 2.8665C6.23651 2.8355 6.19751 2.809 6.18751 2.7415C6.17651 2.6075 6.19501 2.463 6.21601 2.289C6.22751 2.2075 6.24651 2.14 6.25001 2.0515C6.25051 2.0315 6.24951 2.002 6.24951 1.9805C6.24951 1.8275 6.13751 1.703 5.99951 1.703C5.86201 1.703 5.75001 1.8275 5.75001 1.9805L5.75051 1.9875C5.75051 2.008 5.74951 2.0335 5.75051 2.0515C5.75351 2.14 5.77251 2.2075 5.78401 2.289C5.80501 2.463 5.82301 2.6075 5.81201 2.742C5.79782 2.79182 5.76972 2.83657 5.73101 2.871L5.72501 2.9765C4.93046 3.0403 4.18802 3.39726 3.64201 3.978C3.61173 3.95706 3.58173 3.93572 3.55201 3.914C3.50701 3.92 3.46201 3.934 3.40351 3.8995C3.29201 3.8245 3.19001 3.7205 3.06701 3.5955C3.01051 3.5355 2.96951 3.4785 2.90251 3.421C2.88751 3.408 2.86401 3.39 2.84701 3.377C2.79758 3.33692 2.73658 3.31379 2.67301 3.311C2.63526 3.30899 2.59756 3.31591 2.56299 3.3312C2.52841 3.34649 2.49793 3.36972 2.47401 3.399C2.38801 3.507 2.41551 3.672 2.53551 3.7675L2.53901 3.77L2.59101 3.8115C2.66201 3.864 2.72701 3.891 2.79801 3.9325C2.94751 4.025 3.07101 4.1015 3.16951 4.1935C3.20751 4.2345 3.21451 4.3065 3.21951 4.3375L3.29951 4.409C2.85768 5.07149 2.67606 5.87381 2.78951 6.662L2.68551 6.692C2.65801 6.72799 2.61901 6.784 2.57801 6.8005C2.44951 6.841 2.30501 6.8555 2.13051 6.874C2.04851 6.881 1.97801 6.877 1.89051 6.8935C1.87201 6.897 1.84551 6.9035 1.82401 6.9085L1.82201 6.9095L1.81851 6.9105C1.67101 6.946 1.57651 7.0815 1.60701 7.2145C1.63751 7.348 1.78151 7.429 1.92951 7.397L1.93301 7.3965L1.93801 7.395L2.00251 7.3805C2.08751 7.3575 2.14951 7.324 2.22651 7.2945C2.39151 7.2355 2.52851 7.186 2.66151 7.1665C2.71751 7.162 2.77651 7.201 2.80551 7.217L2.91401 7.1985C3.15839 7.95354 3.67058 8.59308 4.35401 8.9965L4.30901 9.1055C4.32551 9.1475 4.34351 9.205 4.33101 9.2465C4.28251 9.3725 4.19951 9.505 4.10501 9.653C4.05951 9.72099 4.01251 9.774 3.97101 9.8525C3.96101 9.871 3.94851 9.9 3.93901 9.9195C3.87501 10.057 3.92201 10.215 4.04551 10.2745C4.16951 10.3345 4.32351 10.271 4.39051 10.1335V10.1325C4.40051 10.113 4.41351 10.0875 4.42151 10.069C4.45651 9.988 4.46851 9.9185 4.49351 9.84C4.55951 9.674 4.59601 9.5 4.68701 9.3915C4.71201 9.3615 4.75201 9.3505 4.79451 9.33899L4.85101 9.2365C5.59225 9.52211 6.41279 9.52425 7.15551 9.2425L7.20851 9.3385C7.25151 9.3525 7.29851 9.3595 7.33651 9.416C7.40451 9.532 7.45101 9.6695 7.50751 9.836C7.53251 9.914 7.54451 9.98349 7.58001 10.0645C7.58801 10.083 7.60151 10.1095 7.61101 10.129C7.67751 10.267 7.83201 10.33 7.95601 10.27C8.07951 10.211 8.12651 10.0525 8.06251 9.915C8.05251 9.8955 8.04001 9.86699 8.03001 9.84799C7.98851 9.76999 7.94151 9.71749 7.89601 9.649C7.80101 9.501 7.72301 9.3785 7.67451 9.25249C7.65451 9.1875 7.67801 9.1475 7.69351 9.1055C7.68451 9.0945 7.66401 9.0335 7.65201 9.0045C8.33794 8.59795 8.85046 7.95339 9.09201 7.1935C9.12401 7.1985 9.18001 7.2085 9.19851 7.2125C9.23601 7.1875 9.27051 7.1555 9.33851 7.1605C9.47151 7.18 9.60851 7.2295 9.77351 7.2885C9.85051 7.3185 9.91201 7.3525 9.99751 7.375C10.0155 7.38 10.0415 7.3845 10.0625 7.389L10.067 7.3905L10.0705 7.391C10.219 7.423 10.3625 7.342 10.393 7.2085C10.423 7.0755 10.329 6.94 10.1815 6.9045ZM8.20001 4.8505L7.22501 5.7235V5.726C7.19488 5.75213 7.17243 5.78595 7.16004 5.82386C7.14766 5.86176 7.14581 5.90232 7.15469 5.9412C7.16358 5.98007 7.18286 6.0158 7.21048 6.04457C7.23811 6.07333 7.27303 6.09404 7.31151 6.1045L7.31301 6.1095L8.57601 6.4735C8.60343 6.19341 8.5852 5.91073 8.52201 5.6365C8.45847 5.35846 8.34969 5.09276 8.20001 4.85V4.8505ZM6.19351 7.513C6.17421 7.47658 6.145 7.44636 6.10926 7.42583C6.07351 7.40531 6.03269 7.39531 5.99151 7.397C5.95302 7.39843 5.91559 7.40995 5.88294 7.4304C5.8503 7.45084 5.8236 7.47949 5.80551 7.5135H5.80451L5.17051 8.6595C5.70951 8.84338 6.29418 8.84391 6.83351 8.661L6.19851 7.513H6.19351ZM7.13751 6.8665C7.09174 6.85806 7.04447 6.86437 7.00251 6.8845C6.95113 6.90905 6.91126 6.95257 6.89131 7.00591C6.87135 7.05925 6.87286 7.11824 6.89551 7.1705L6.89401 7.1725L7.39901 8.3915C7.88154 8.08344 8.24766 7.62337 8.43951 7.084L7.13951 6.864L7.13751 6.8665Z" fill="black"/>
</g>
<defs>
<clipPath id="clip0_43_12820">
<rect width="12" height="12" fill="white"/>
</clipPath>
</defs>
</svg>
