<svg width="12" height="12" viewBox="0 0 12 12" fill="none" xmlns="http://www.w3.org/2000/svg">
<g clip-path="url(#clip0_40_11770)">
<path d="M0.905519 5.11551C0.882019 5.11551 0.876519 5.10401 0.888019 5.08601L1.01102 4.92851C1.02252 4.91101 1.05152 4.89951 1.07502 4.89951H3.16102C3.18402 4.89951 3.19002 4.91701 3.17852 4.93451L3.07902 5.08601C3.06752 5.10401 3.03802 5.12101 3.02052 5.12101L0.905519 5.11551ZM0.0235186 5.65301C1.86488e-05 5.65301 -0.00598135 5.64151 0.00601865 5.62401L0.128519 5.46601C0.140019 5.44851 0.169519 5.43701 0.193019 5.43701H2.85702C2.88052 5.43701 2.89202 5.45451 2.88602 5.47201L2.83952 5.61201C2.83352 5.63551 2.81052 5.64701 2.78702 5.64701L0.0235186 5.65301ZM1.43752 6.19051C1.41402 6.19051 1.40802 6.17301 1.42002 6.15551L1.50152 6.00951C1.51302 5.99201 1.53652 5.97451 1.56002 5.97451H2.72852C2.75202 5.97451 2.76352 5.99201 2.76352 6.01551L2.75202 6.15551C2.75202 6.17901 2.72852 6.19651 2.71102 6.19651L1.43752 6.19051ZM7.50202 5.01051C7.13402 5.10401 6.88252 5.17401 6.52052 5.26751C6.43252 5.29051 6.42702 5.29651 6.35052 5.20901C6.26352 5.10951 6.19902 5.04551 6.07652 4.98701C5.70802 4.80601 5.35152 4.85851 5.01902 5.07451C4.62152 5.33151 4.41702 5.71151 4.42302 6.18451C4.42852 6.65201 4.75002 7.03751 5.21152 7.10201C5.60902 7.15451 5.94152 7.01451 6.20502 6.71701C6.25752 6.65201 6.30402 6.58201 6.36252 6.50001H5.23502C5.11252 6.50001 5.08302 6.42401 5.12402 6.32501C5.20002 6.14401 5.34002 5.84001 5.42202 5.68801C5.43454 5.65985 5.45504 5.63598 5.481 5.61936C5.50695 5.60274 5.5372 5.5941 5.56802 5.59451H7.69452C7.68302 5.75251 7.68302 5.91001 7.65952 6.06801C7.599 6.48397 7.43422 6.87786 7.18052 7.21301C6.76002 7.76801 6.21052 8.11301 5.51552 8.20601C4.94302 8.28201 4.41102 8.17101 3.94402 7.82101C3.51152 7.49351 3.26602 7.06101 3.20202 6.52351C3.12602 5.88651 3.31302 5.31401 3.69852 4.81151C4.11352 4.26851 4.66252 3.92351 5.33452 3.80151C5.88352 3.70151 6.40952 3.76651 6.88252 4.08701C7.19252 4.29201 7.41402 4.57201 7.56052 4.91101C7.59552 4.96351 7.57202 4.99301 7.50202 5.01101M9.43602 8.24151C8.90402 8.22951 8.41902 8.07751 8.01002 7.72701C7.66977 7.44025 7.44549 7.03949 7.37902 6.59951C7.27402 5.93951 7.45502 5.35501 7.85252 4.83501C8.27902 4.27401 8.79302 3.98201 9.48852 3.86001C10.0845 3.75501 10.6455 3.81251 11.1535 4.15751C11.615 4.47251 11.9015 4.89951 11.9775 5.46001C12.0765 6.24901 11.849 6.89151 11.3055 7.44101C10.92 7.83251 10.4465 8.07751 9.90302 8.18851C9.74552 8.21851 9.58802 8.22351 9.43602 8.24151ZM10.826 5.88151C10.8205 5.80501 10.8205 5.74651 10.809 5.68801C10.704 5.10951 10.172 4.78301 9.61702 4.91101C9.07352 5.03351 8.72302 5.37851 8.59452 5.92751C8.48952 6.38351 8.71152 6.84501 9.13202 7.03251C9.45352 7.17251 9.77452 7.15451 10.0845 6.99751C10.546 6.75751 10.797 6.38351 10.8265 5.88101L10.826 5.88151Z" fill="black"/>
</g>
<defs>
<clipPath id="clip0_40_11770">
<rect width="12" height="12" fill="white"/>
</clipPath>
</defs>
</svg>
