<svg width="13" height="12" viewBox="0 0 13 12" fill="none" xmlns="http://www.w3.org/2000/svg">
<g clip-path="url(#clip0_40_11756)">
<path d="M10.4285 10.226H8.65152V7.4415C8.65152 6.7775 8.63802 5.923 7.72552 5.923C6.79902 5.923 6.65752 6.6455 6.65752 7.3925V10.226H4.88052V4.5H6.58752V5.2805H6.61052C6.84902 4.8305 7.42902 4.3555 8.29552 4.3555C10.096 4.3555 10.429 5.5405 10.429 7.083L10.4285 10.226ZM2.87352 3.7165C2.30152 3.7165 1.84202 3.2535 1.84202 2.684C1.84202 2.115 2.30202 1.6525 2.87352 1.6525C3.44352 1.6525 3.90552 2.115 3.90552 2.684C3.90552 3.2535 3.44302 3.7165 2.87352 3.7165ZM3.76452 10.226H1.98252V4.5H3.76452V10.226ZM11.3175 0H1.09052C0.601017 0 0.205017 0.387 0.205017 0.8645V11.1355C0.205017 11.6135 0.601017 12 1.09052 12H11.316C11.805 12 12.205 11.6135 12.205 11.1355V0.8645C12.205 0.387 11.805 0 11.316 0H11.3175Z" fill="black"/>
</g>
<defs>
<clipPath id="clip0_40_11756">
<rect width="12" height="12" fill="white" transform="translate(0.205017)"/>
</clipPath>
</defs>
</svg>
