<svg width="12" height="12" viewBox="0 0 12 12" fill="none" xmlns="http://www.w3.org/2000/svg">
<g clip-path="url(#clip0_40_11768)">
<path d="M3.245 9.52H3.13L2.565 8.95V8.835L3.43 7.98H4.03L4.105 8.055V8.655L3.25 9.52H3.245ZM2.565 3.155V3.05L3.13 2.485H3.245L4.1 3.34V3.94L4.025 4.015H3.425L2.565 3.155ZM7.545 7.7H6.72L6.65 7.635V5.72C6.65 5.38 6.515 5.12 6.1 5.105C5.89 5.105 5.65 5.105 5.385 5.115L5.35 5.155V7.635L5.28 7.705H4.45L4.385 7.635V4.365L4.45 4.295H6.3C6.47114 4.29434 6.64072 4.32748 6.79902 4.39252C6.95732 4.45755 7.10123 4.55321 7.22247 4.67399C7.34372 4.79477 7.43992 4.9383 7.50557 5.09635C7.57121 5.2544 7.605 5.42386 7.605 5.595V7.635L7.54 7.705L7.545 7.7ZM3.36 6.48H0.07L0 6.41V5.59L0.07 5.52H3.36L3.43 5.59V6.41L3.36 6.48ZM11.93 6.48H8.64L8.57 6.41V5.59L8.64 5.52H11.93L12 5.59V6.41L11.93 6.48ZM5.525 3.275V0.82L5.595 0.75H6.42L6.49 0.82V3.27L6.42 3.34H5.595L5.525 3.275ZM5.525 11.18V8.73L5.595 8.66H6.42L6.49 8.725V11.18L6.42 11.25H5.595L5.525 11.18Z" fill="black"/>
</g>
<defs>
<clipPath id="clip0_40_11768">
<rect width="12" height="12" fill="white"/>
</clipPath>
</defs>
</svg>
