<svg width="24" height="24" viewBox="0 0 24 24" fill="none" xmlns="http://www.w3.org/2000/svg">
<path fill-rule="evenodd" clip-rule="evenodd" d="M3.89995 3.60001C3.18387 3.60001 2.49711 3.88447 1.99076 4.39082C1.48441 4.89717 1.19995 5.58392 1.19995 6.30001V17.7C1.19995 18.4161 1.48441 19.1028 1.99076 19.6092C2.49711 20.1155 3.18387 20.4 3.89995 20.4H20.1C20.4545 20.4 20.8056 20.3302 21.1332 20.1945C21.4608 20.0588 21.7584 19.8599 22.0091 19.6092C22.2599 19.3585 22.4587 19.0608 22.5944 18.7332C22.7301 18.4057 22.8 18.0546 22.8 17.7V6.30001C22.8 5.94544 22.7301 5.59434 22.5944 5.26676C22.4587 4.93918 22.2599 4.64154 22.0091 4.39082C21.7584 4.1401 21.4608 3.94122 21.1332 3.80553C20.8056 3.66984 20.4545 3.60001 20.1 3.60001H3.89995ZM5.03155 14.1024C4.95228 14.0146 4.89111 13.912 4.85152 13.8005C4.81193 13.6891 4.79471 13.5709 4.80084 13.4527C4.80697 13.3346 4.83633 13.2188 4.88725 13.112C4.93816 13.0052 5.00962 12.9095 5.09755 12.8304L7.35355 10.8L5.09755 8.76841C5.00692 8.6901 4.93282 8.59449 4.87962 8.48718C4.82641 8.37987 4.79516 8.26302 4.78769 8.14347C4.78023 8.02393 4.7967 7.9041 4.83614 7.791C4.87559 7.67791 4.93721 7.57382 5.0174 7.48485C5.09758 7.39587 5.19472 7.3238 5.30313 7.27285C5.41153 7.22191 5.52901 7.19311 5.64868 7.18815C5.76836 7.18319 5.88782 7.20217 6.00006 7.24398C6.11231 7.28578 6.21508 7.34957 6.30235 7.43161L9.30235 10.1316C9.39594 10.216 9.47076 10.3191 9.52198 10.4342C9.57319 10.5494 9.59966 10.674 9.59966 10.8C9.59966 10.926 9.57319 11.0506 9.52198 11.1658C9.47076 11.2809 9.39594 11.384 9.30235 11.4684L6.30235 14.1684C6.21454 14.2477 6.11196 14.3088 6.00048 14.3484C5.889 14.388 5.77081 14.4052 5.65267 14.3991C5.53453 14.393 5.41876 14.3636 5.31197 14.3127C5.20519 14.2618 5.11069 14.1903 5.03155 14.1024ZM11.7 12.3C11.4613 12.3 11.2323 12.3948 11.0636 12.5636C10.8948 12.7324 10.8 12.9613 10.8 13.2C10.8 13.4387 10.8948 13.6676 11.0636 13.8364C11.2323 14.0052 11.4613 14.1 11.7 14.1H14.7C14.9386 14.1 15.1676 14.0052 15.3363 13.8364C15.5051 13.6676 15.6 13.4387 15.6 13.2C15.6 12.9613 15.5051 12.7324 15.3363 12.5636C15.1676 12.3948 14.9386 12.3 14.7 12.3H11.7Z" fill="black"/>
</svg>
