<svg width="12" height="12" viewBox="0 0 12 12" fill="none" xmlns="http://www.w3.org/2000/svg">
<g clip-path="url(#clip0_40_11750)">
<path d="M4.0255 2.619C3.3615 3.402 2.9325 4.5605 2.9025 5.859V6.141C2.933 7.44 3.3615 8.597 4.0255 9.3805C4.886 10.4985 6.165 11.2075 7.595 11.2075C8.473 11.2075 9.295 10.939 9.9985 10.472C8.9395 11.423 7.537 12 6 12C5.904 12 5.8085 11.998 5.715 11.993C2.532 11.8445 0 9.218 0 6C0 2.6855 2.6865 0 6 0H6.0225C7.55 0.006 8.9425 0.583 9.999 1.5275C9.295 1.0625 8.4735 0.792 7.594 0.792C6.165 0.792 4.8855 1.502 4.024 2.619H4.0255ZM12 6C12 7.778 11.2275 9.374 9.999 10.4725C8.46 11.2225 7.026 10.698 6.551 10.37C8.0625 10.038 9.2045 8.21 9.2045 6C9.2045 3.789 8.063 1.9625 6.551 1.63C7.0255 1.303 8.46 0.7785 9.999 1.5275C11.2275 2.625 12 4.2225 12 6Z" fill="black"/>
</g>
<defs>
<clipPath id="clip0_40_11750">
<rect width="12" height="12" fill="white"/>
</clipPath>
</defs>
</svg>
