<svg width="12" height="12" viewBox="0 0 12 12" fill="none" xmlns="http://www.w3.org/2000/svg">
<g clip-path="url(#clip0_40_11711)">
<path d="M6.00049 2.39999C4.40049 2.39999 3.40049 3.19999 3.00049 4.79999C3.60049 3.99999 4.30049 3.69999 5.10049 3.89999C5.55699 4.01399 5.88299 4.34499 6.24449 4.71199C6.83299 5.30899 7.51349 5.99999 9.00049 5.99999C10.6005 5.99999 11.6005 5.19999 12.0005 3.59999C11.4005 4.39999 10.7005 4.69999 9.90049 4.49999C9.44399 4.38599 9.11799 4.05499 8.75649 3.68799C8.16849 3.09099 7.48799 2.39999 6.00049 2.39999ZM3.00049 5.99999C1.40049 5.99999 0.400488 6.79999 0.000488281 8.39999C0.600488 7.59999 1.30049 7.29999 2.10049 7.49999C2.55699 7.61399 2.88299 7.94499 3.24449 8.31199C3.83299 8.90899 4.51349 9.59999 6.00049 9.59999C7.60049 9.59999 8.60049 8.79999 9.00049 7.19999C8.40049 7.99999 7.70049 8.29999 6.90049 8.09999C6.44399 7.98599 6.11799 7.65499 5.75649 7.28799C5.16849 6.69099 4.48799 5.99999 3.00049 5.99999Z" fill="black"/>
</g>
<defs>
<clipPath id="clip0_40_11711">
<rect width="12" height="12" fill="white"/>
</clipPath>
</defs>
</svg>
