<svg width="12" height="12" viewBox="0 0 12 12" fill="none" xmlns="http://www.w3.org/2000/svg">
<g clip-path="url(#clip0_40_11764)">
<path d="M11.9173 5.85165L11.4137 5.53985C11.4095 5.49087 11.4048 5.44193 11.3995 5.39305L11.8323 4.9896C11.8537 4.96934 11.8695 4.944 11.8784 4.91595C11.8873 4.88789 11.889 4.85804 11.8832 4.82918C11.8775 4.80031 11.8645 4.77338 11.8455 4.7509C11.8265 4.72841 11.8021 4.71111 11.7746 4.7006L11.2213 4.4936C11.2077 4.44575 11.1932 4.39814 11.1778 4.3508L11.523 3.87145C11.5403 3.8475 11.5512 3.81952 11.5547 3.79017C11.5581 3.76082 11.5539 3.73108 11.5426 3.70379C11.5313 3.67649 11.5132 3.65254 11.49 3.63423C11.4668 3.61591 11.4393 3.60383 11.4102 3.59915L10.827 3.50445C10.8043 3.46038 10.7808 3.41667 10.7567 3.37335L11.0017 2.8353C11.014 2.80847 11.0192 2.77891 11.0168 2.74948C11.0144 2.72004 11.0045 2.69172 10.988 2.66725C10.9715 2.64273 10.9491 2.6228 10.9228 2.60933C10.8965 2.59586 10.8672 2.5893 10.8377 2.59025L10.2454 2.61105C10.215 2.57257 10.1838 2.53476 10.1518 2.49765L10.2879 1.92115C10.2946 1.8924 10.2939 1.86241 10.2858 1.83402C10.2777 1.80562 10.2625 1.77976 10.2417 1.75888C10.2208 1.738 10.1949 1.72278 10.1666 1.71468C10.1382 1.70657 10.1082 1.70584 10.0794 1.71255L9.50282 1.84875C9.46518 1.81713 9.42721 1.78592 9.38892 1.7551L9.40967 1.16285C9.41108 1.13322 9.40481 1.10372 9.39147 1.07723C9.37812 1.05074 9.35815 1.02814 9.3335 1.01164C9.30885 0.995137 9.28035 0.985288 9.25077 0.983047C9.22119 0.980806 9.19153 0.986249 9.16467 0.998849L8.62667 1.24435C8.58307 1.22055 8.53957 1.19675 8.49552 1.174L8.40037 0.590349C8.39542 0.561319 8.3832 0.534017 8.36483 0.510997C8.34647 0.487976 8.32257 0.469988 8.29536 0.458715C8.26815 0.447443 8.23853 0.443253 8.20927 0.446538C8.18 0.449823 8.15205 0.460475 8.12802 0.477499L7.64817 0.822749C7.60084 0.807581 7.55325 0.793245 7.50542 0.779749L7.29842 0.226449C7.28792 0.198946 7.27061 0.174556 7.24812 0.155556C7.22563 0.136556 7.1987 0.123568 7.16983 0.117805C7.14095 0.112042 7.11109 0.113692 7.08303 0.122601C7.05497 0.13151 7.02963 0.147387 7.00937 0.168749L6.60592 0.602049C6.55707 0.596539 6.50813 0.591806 6.45912 0.587849L6.14732 0.0841491C6.13181 0.0590265 6.11014 0.0382874 6.08436 0.0239033C6.05858 0.00951931 6.02954 0.00196838 6.00002 0.00196838C5.9705 0.00196838 5.94147 0.00951931 5.91568 0.0239033C5.8899 0.0382874 5.86823 0.0590265 5.85272 0.0841491L5.54092 0.587799C5.49194 0.592007 5.443 0.596741 5.39412 0.601999L4.99017 0.168699C4.97005 0.147075 4.94472 0.130961 4.91661 0.12189C4.8885 0.112819 4.85853 0.111093 4.82957 0.116876C4.8006 0.12266 4.77359 0.135761 4.75112 0.154931C4.72864 0.174102 4.71145 0.198705 4.70117 0.226399L4.49412 0.779649C4.44602 0.793349 4.39897 0.807999 4.35137 0.822649L3.87202 0.477499C3.84799 0.460475 3.82003 0.449823 3.79076 0.446541C3.76149 0.443259 3.73187 0.447453 3.70467 0.458731C3.67746 0.470009 3.65356 0.488003 3.6352 0.51103C3.61683 0.534057 3.60461 0.561365 3.59967 0.590399L3.50452 1.174C3.46045 1.19675 3.41675 1.22021 3.37342 1.24435L2.83532 0.998849C2.80844 0.98655 2.77886 0.981338 2.7494 0.983711C2.71994 0.986085 2.69157 0.995963 2.66701 1.01241C2.64244 1.02885 2.6225 1.05131 2.60908 1.07764C2.59565 1.10398 2.5892 1.13331 2.59032 1.16285L2.61112 1.7551C2.57258 1.78561 2.53461 1.81683 2.49722 1.84875L1.92067 1.7125C1.89192 1.70578 1.86193 1.70651 1.83354 1.71461C1.80515 1.72271 1.77929 1.73791 1.75841 1.75879C1.73754 1.77967 1.72233 1.80553 1.71423 1.83392C1.70613 1.86231 1.7054 1.8923 1.71212 1.92105L1.84777 2.4976C1.81637 2.5351 1.78502 2.57305 1.75462 2.611L1.16237 2.59025C1.13283 2.58912 1.1035 2.59558 1.07716 2.609C1.05083 2.62243 1.02837 2.64237 1.01193 2.66693C0.995485 2.6915 0.985607 2.71986 0.983234 2.74933C0.980861 2.77879 0.986072 2.80837 0.998371 2.83525L1.24387 3.3733C1.21971 3.41662 1.19626 3.46032 1.17352 3.5044L0.590421 3.5991C0.561395 3.60404 0.534096 3.61627 0.511076 3.63462C0.488056 3.65298 0.470067 3.67688 0.458789 3.70408C0.447512 3.73128 0.443315 3.76089 0.446591 3.79015C0.449867 3.81941 0.460509 3.84737 0.477521 3.8714L0.822721 4.35075C0.807688 4.39817 0.793187 4.44576 0.779221 4.4935L0.225971 4.7005C0.198465 4.711 0.174069 4.7283 0.155064 4.75079C0.136059 4.77327 0.123066 4.80021 0.117297 4.82908C0.111529 4.85795 0.113175 4.88781 0.12208 4.91588C0.130986 4.94394 0.146861 4.96929 0.168221 4.98955L0.601021 5.39305C0.595529 5.44189 0.590812 5.49081 0.586871 5.5398L0.0832214 5.8516C0.057862 5.86692 0.036888 5.88853 0.0223297 5.91434C0.00777146 5.94014 0.00012207 5.96927 0.00012207 5.9989C0.00012207 6.02853 0.00777146 6.05766 0.0223297 6.08346C0.036888 6.10927 0.057862 6.13088 0.0832214 6.1462L0.586871 6.458C0.590871 6.5071 0.595971 6.5562 0.601021 6.6048L0.168221 7.00875C0.146598 7.02888 0.130486 7.0542 0.121419 7.08232C0.112351 7.11043 0.11063 7.1404 0.116419 7.16937C0.122207 7.19834 0.135313 7.22534 0.15449 7.24782C0.173666 7.27029 0.198274 7.28748 0.225971 7.29775L0.779221 7.5048C0.792871 7.5529 0.807571 7.6005 0.822721 7.64755L0.477521 8.1269C0.460051 8.15085 0.449042 8.17889 0.445556 8.20833C0.44207 8.23776 0.446225 8.2676 0.457619 8.29497C0.469014 8.32234 0.487264 8.3463 0.510612 8.36457C0.533959 8.38283 0.561618 8.39478 0.590921 8.39925L1.17402 8.4939C1.19682 8.5379 1.22012 8.58145 1.24442 8.625L0.998921 9.1631C0.986622 9.18998 0.981411 9.21956 0.983784 9.24902C0.986157 9.27849 0.996035 9.30685 1.01248 9.33141C1.02892 9.35598 1.05138 9.37592 1.07771 9.38935C1.10405 9.40277 1.13338 9.40923 1.16292 9.4081L1.75462 9.38735C1.78552 9.4258 1.81637 9.46375 1.84827 9.5012L1.71262 10.0782C1.70586 10.107 1.70656 10.137 1.71465 10.1654C1.72275 10.1937 1.73797 10.2196 1.75887 10.2404C1.77977 10.2613 1.80565 10.2764 1.83406 10.2845C1.86246 10.2925 1.89245 10.2931 1.92117 10.2863L2.49767 10.1506C2.53517 10.1825 2.57317 10.2134 2.61162 10.2438L2.59087 10.836C2.58955 10.8656 2.59589 10.8951 2.60927 10.9215C2.62265 10.9479 2.64263 10.9704 2.66727 10.9869C2.69191 11.0033 2.72037 11.0131 2.74991 11.0153C2.77944 11.0176 2.80905 11.0121 2.83587 10.9995L3.37392 10.7545C3.41742 10.7788 3.46097 10.8021 3.50502 10.8249L3.60017 11.408C3.60504 11.4371 3.61721 11.4644 3.63554 11.4875C3.65388 11.5106 3.67777 11.5287 3.70499 11.54C3.73221 11.5513 3.76186 11.5556 3.79116 11.5523C3.82046 11.5491 3.84845 11.5384 3.87252 11.5214L4.35187 11.1762C4.39922 11.1915 4.44681 11.206 4.49462 11.2197L4.70162 11.773C4.71178 11.8008 4.72892 11.8255 4.7514 11.8448C4.77387 11.8641 4.80092 11.8772 4.82995 11.883C4.85897 11.8888 4.889 11.887 4.91715 11.8779C4.9453 11.8687 4.97061 11.8525 4.99067 11.8307L5.39462 11.3979C5.44322 11.4034 5.49232 11.408 5.54142 11.4126L5.85322 11.9162C5.86882 11.9413 5.89052 11.9619 5.91629 11.9762C5.94206 11.9905 5.97105 11.998 6.00052 11.998C6.02999 11.998 6.05898 11.9905 6.08475 11.9762C6.11052 11.9619 6.13223 11.9413 6.14782 11.9162L6.45962 11.4126C6.50872 11.408 6.55782 11.4034 6.60642 11.3979L7.00987 11.8307C7.03013 11.852 7.05547 11.8679 7.08353 11.8768C7.11158 11.8857 7.14143 11.8874 7.17029 11.8816C7.19916 11.8758 7.22609 11.8629 7.24857 11.8439C7.27106 11.8249 7.28836 11.8005 7.29887 11.773L7.50592 11.2197C7.55376 11.206 7.60135 11.1915 7.64867 11.1762L8.12802 11.5214C8.15197 11.5389 8.18001 11.5499 8.20945 11.5534C8.23889 11.5568 8.26873 11.5527 8.29609 11.5413C8.32346 11.5299 8.34743 11.5117 8.36569 11.4883C8.38396 11.465 8.3959 11.4373 8.40037 11.408L8.49552 10.8249C8.53952 10.8021 8.58307 10.7783 8.62662 10.7545L9.16472 10.9995C9.19157 11.0117 9.22107 11.0168 9.25043 11.0144C9.27979 11.0119 9.30806 11.0021 9.33257 10.9857C9.35707 10.9694 9.37701 10.9471 9.39051 10.9209C9.40401 10.8947 9.41062 10.8655 9.40972 10.836L9.38897 10.2438C9.42743 10.2136 9.46522 10.1825 9.50232 10.1506L10.0789 10.2863C10.1076 10.293 10.1375 10.2922 10.1658 10.2842C10.1942 10.2761 10.22 10.2609 10.2408 10.2401C10.2617 10.2193 10.2769 10.1936 10.2851 10.1652C10.2932 10.1369 10.294 10.107 10.2874 10.0783L10.1518 9.5012C10.1832 9.46375 10.2145 9.4258 10.2449 9.3873L10.8372 9.40805C10.8668 9.40946 10.8963 9.40319 10.9228 9.38984C10.9493 9.3765 10.9719 9.35653 10.9884 9.33188C11.0049 9.30723 11.0147 9.27873 11.017 9.24914C11.0192 9.21956 11.0138 9.18991 11.0012 9.16305L10.7562 8.62505C10.7799 8.58145 10.8037 8.53795 10.8265 8.4939L11.4096 8.39925C11.4387 8.39431 11.466 8.38209 11.489 8.36373C11.512 8.34536 11.53 8.32146 11.5413 8.29426C11.5526 8.26705 11.5568 8.23743 11.5535 8.20816C11.5502 8.17889 11.5395 8.15093 11.5225 8.1269L11.1773 7.64755L11.2208 7.5048L11.7741 7.2978C11.8018 7.28753 11.8264 7.27033 11.8456 7.24785C11.8648 7.22537 11.8779 7.19836 11.8837 7.16939C11.8895 7.14041 11.8877 7.11044 11.8787 7.08232C11.8696 7.0542 11.8535 7.02887 11.8318 7.00875L11.399 6.6048C11.4041 6.5562 11.4091 6.5071 11.4132 6.458L11.9168 6.1462C11.9422 6.13088 11.9632 6.10927 11.9777 6.08346C11.9923 6.05766 11.9999 6.02853 11.9999 5.9989C11.9999 5.96927 11.9923 5.94014 11.9777 5.91434C11.9632 5.88853 11.9422 5.86692 11.9168 5.8516L11.9173 5.85165ZM8.54667 10.0292C8.45456 10.009 8.3742 9.95308 8.32316 9.87378C8.27212 9.79447 8.25454 9.69819 8.27427 9.60597C8.29399 9.51374 8.34942 9.43307 8.42844 9.38159C8.50745 9.3301 8.60364 9.31199 8.69597 9.3312C8.74245 9.34038 8.78663 9.35872 8.82595 9.38516C8.86526 9.41159 8.89892 9.44558 8.92497 9.48515C8.95102 9.52472 8.96893 9.56908 8.97765 9.61565C8.98638 9.66221 8.98576 9.71004 8.97581 9.75636C8.96587 9.80268 8.94681 9.84656 8.91973 9.88544C8.89266 9.92431 8.85812 9.95741 8.81813 9.98281C8.77814 10.0082 8.73349 10.0254 8.68679 10.0333C8.64009 10.0413 8.59227 10.0399 8.54612 10.0292H8.54667ZM8.37557 8.8721C8.33382 8.86311 8.29071 8.86245 8.24871 8.87016C8.2067 8.87787 8.16663 8.89379 8.1308 8.91702C8.09496 8.94024 8.06406 8.97031 8.03987 9.00551C8.01568 9.0407 7.99867 9.08032 7.98982 9.1221L7.81117 9.95635C7.25942 10.2068 6.64692 10.3461 6.00152 10.3461C5.36334 10.347 4.7327 10.2081 4.15397 9.9391L3.97527 9.1049C3.96643 9.06314 3.94942 9.02354 3.92522 8.98837C3.90103 8.95321 3.87012 8.92317 3.83428 8.89998C3.79844 8.8768 3.75837 8.86092 3.71637 8.85327C3.67438 8.84562 3.63129 8.84634 3.58957 8.8554L2.85307 9.0133C2.71622 8.87238 2.58905 8.72237 2.47242 8.5643H6.05622C6.09672 8.5643 6.12402 8.55725 6.12402 8.5203V7.2523C6.12402 7.2153 6.09722 7.20825 6.05622 7.20825H5.00792V6.4044H6.14177C6.24502 6.4044 6.69502 6.43375 6.83877 7.0088C6.88382 7.18545 6.98252 7.761 7.05037 7.94525C7.11767 8.15175 7.39202 8.5643 7.68462 8.5643H9.47042C9.49217 8.564 9.51385 8.56181 9.53522 8.55775C9.4114 8.72596 9.27574 8.88513 9.12927 9.03405L8.37557 8.8721ZM3.41847 10.012C3.37232 10.0227 3.3245 10.0241 3.2778 10.0161C3.2311 10.0082 3.18646 9.991 3.14646 9.96561C3.10647 9.94021 3.07193 9.90711 3.04486 9.86824C3.01779 9.82936 2.99872 9.78548 2.98878 9.73916C2.97883 9.69284 2.97821 9.64501 2.98694 9.59844C2.99567 9.55188 3.01358 9.50752 3.03962 9.46795C3.06567 9.42838 3.09933 9.39439 3.13865 9.36796C3.17796 9.34152 3.22215 9.32318 3.26862 9.314C3.36051 9.29584 3.45586 9.31453 3.5341 9.36603C3.61234 9.41752 3.66721 9.49771 3.68687 9.58929C3.70653 9.68087 3.68941 9.77652 3.6392 9.85559C3.58899 9.93466 3.50972 9.99084 3.41847 10.012ZM2.05887 4.4986C2.07949 4.54164 2.09127 4.58839 2.09351 4.63606C2.09575 4.68374 2.0884 4.73138 2.0719 4.77617C2.05539 4.82095 2.03007 4.86197 1.99744 4.8968C1.9648 4.93163 1.92551 4.95955 1.88189 4.97892C1.83827 4.9983 1.7912 5.00872 1.74348 5.00958C1.69576 5.01044 1.64835 5.00172 1.60406 4.98393C1.55977 4.96614 1.5195 4.93965 1.48563 4.90602C1.45176 4.87239 1.42498 4.83231 1.40687 4.78815C1.37176 4.70225 1.37149 4.60605 1.40612 4.51996C1.44076 4.43386 1.50756 4.36464 1.59238 4.32698C1.67719 4.28933 1.77334 4.28619 1.86043 4.31824C1.94752 4.35028 2.0187 4.41495 2.05887 4.4986ZM1.64127 5.48925L2.40862 5.14805C2.44766 5.13072 2.48289 5.10586 2.51231 5.0749C2.54174 5.04394 2.56477 5.00749 2.58009 4.96762C2.59541 4.92776 2.60273 4.88526 2.60162 4.84257C2.60051 4.79987 2.591 4.75781 2.57362 4.7188L2.41572 4.36145H3.03732V7.1627H1.78347C1.62886 6.61903 1.58074 6.05062 1.64177 5.4887L1.64127 5.48925ZM5.00842 5.2174V4.3918H6.48847C6.56497 4.3918 7.02807 4.4804 7.02807 4.82665C7.02807 5.11415 6.67272 5.2174 6.38067 5.2174H5.00842ZM10.3871 5.9605C10.3871 6.06985 10.3831 6.17865 10.375 6.286H9.92497C9.87997 6.286 9.86172 6.3153 9.86172 6.35985V6.56635C9.86172 7.05285 9.58737 7.15865 9.34692 7.18545C9.11812 7.2113 8.86452 7.0898 8.83317 6.9496C8.69797 6.1903 8.47327 6.0278 8.11792 5.7479C8.55877 5.46795 9.01742 5.0549 9.01742 4.50215C9.01742 3.90535 8.60792 3.52925 8.32897 3.3445C7.93772 3.08635 7.50442 3.03475 7.38747 3.03475H2.73412C3.37723 2.31564 4.23965 1.82882 5.18762 1.6498L5.73632 2.2253C5.76572 2.25623 5.80093 2.28105 5.83995 2.29833C5.87896 2.31561 5.921 2.32502 5.96366 2.32601C6.00632 2.327 6.04875 2.31955 6.08852 2.30409C6.1283 2.28864 6.16462 2.26548 6.19542 2.23595L6.80892 1.6488C7.43446 1.76612 8.027 2.01812 8.54541 2.38732C9.06383 2.75653 9.49572 3.2341 9.81112 3.7869L9.39097 4.736C9.35616 4.81483 9.35397 4.90424 9.38489 4.98467C9.41581 5.06511 9.47732 5.13004 9.55597 5.16525L10.3649 5.52465C10.379 5.6684 10.3861 5.81315 10.3861 5.9605H10.3871ZM5.73682 1.16085C5.80522 1.09561 5.89674 1.06021 5.99124 1.06244C6.03803 1.06354 6.08414 1.07385 6.12695 1.09278C6.16976 1.11171 6.20842 1.13888 6.24072 1.17275C6.27303 1.20662 6.29834 1.24652 6.31523 1.29017C6.33212 1.33382 6.34024 1.38037 6.33913 1.42716C6.33803 1.47396 6.32772 1.52007 6.30879 1.56288C6.28986 1.60568 6.26269 1.64434 6.22882 1.67665C6.1595 1.73649 6.06983 1.76739 5.97836 1.76296C5.88689 1.75853 5.80062 1.7191 5.73742 1.65283C5.67421 1.58657 5.63889 1.49854 5.63878 1.40696C5.63867 1.31538 5.67377 1.22727 5.73682 1.16085ZM9.90627 4.51585C9.92514 4.47304 9.95228 4.43439 9.98613 4.40209C10.02 4.3698 10.0599 4.34451 10.1035 4.32767C10.1472 4.31083 10.1937 4.30278 10.2405 4.30396C10.2872 4.30515 10.3333 4.31556 10.376 4.3346C10.4406 4.3631 10.4953 4.41013 10.5332 4.46974C10.571 4.52934 10.5904 4.59883 10.5887 4.66942C10.5871 4.74001 10.5645 4.80852 10.5239 4.86629C10.4833 4.92405 10.4265 4.96847 10.3606 4.99393C10.2947 5.01938 10.2228 5.02473 10.1539 5.00929C10.085 4.99384 10.0222 4.95831 9.97354 4.90718C9.92485 4.85605 9.89242 4.79162 9.88035 4.72205C9.86829 4.65248 9.87713 4.58089 9.90577 4.51635L9.90627 4.51585Z" fill="black"/>
</g>
<defs>
<clipPath id="clip0_40_11764">
<rect width="12" height="12" fill="white"/>
</clipPath>
</defs>
</svg>
