<svg width="24" height="24" viewBox="0 0 24 24" fill="none" xmlns="http://www.w3.org/2000/svg">
<path fill-rule="evenodd" clip-rule="evenodd" d="M18.7451 5.25482C18.07 4.57992 17.1545 4.20079 16.1999 4.20079C15.2453 4.20079 14.3298 4.57992 13.6547 5.25482L5.25474 13.6548C4.5988 14.3336 4.23573 15.2429 4.24371 16.1868C4.25169 17.1307 4.63008 18.0338 5.29739 18.7014C5.96471 19.369 6.86754 19.7478 7.81145 19.7563C8.75536 19.7647 9.66481 19.402 10.3439 18.7464H10.3451L10.9415 18.1464C11.1107 17.9818 11.3378 17.8903 11.5738 17.8915C11.8099 17.8928 12.036 17.9867 12.2034 18.153C12.3709 18.3194 12.4663 18.5448 12.4691 18.7809C12.4718 19.0169 12.3818 19.2446 12.2183 19.4148L11.6207 20.016L11.6183 20.0184C10.6056 21.0311 9.23211 21.6 7.79994 21.6C6.36776 21.6 4.99424 21.0311 3.98154 20.0184C2.96883 19.0057 2.3999 17.6322 2.3999 16.2C2.3999 14.7678 2.96883 13.3943 3.98154 12.3816L12.3815 3.98162C13.3936 2.96828 14.7668 2.39848 16.1989 2.39758C17.6311 2.39668 19.005 2.96475 20.0183 3.97682C21.0317 4.98888 21.6015 6.36205 21.6024 7.79422C21.6033 9.2264 21.0352 10.6003 20.0231 11.6136L15.8771 15.8772C15.5877 16.1825 15.24 16.4267 14.8546 16.5954C14.4692 16.7641 14.0539 16.8539 13.6332 16.8595C13.2125 16.8651 12.795 16.7864 12.4053 16.628C12.0155 16.4696 11.6615 16.2347 11.364 15.9372C11.0665 15.6397 10.8316 15.2856 10.6732 14.8959C10.5148 14.5061 10.436 14.0886 10.4416 13.6679C10.4472 13.2473 10.537 12.832 10.7057 12.4466C10.8744 12.0612 11.1187 11.7135 11.4239 11.424L15.5639 7.28282C15.6469 7.19682 15.7462 7.12821 15.856 7.08099C15.9658 7.03377 16.0838 7.00889 16.2033 7.00779C16.3228 7.0067 16.4414 7.02942 16.552 7.07462C16.6626 7.11982 16.7631 7.1866 16.8477 7.27106C16.9322 7.35552 16.9991 7.45598 17.0444 7.56656C17.0897 7.67715 17.1125 7.79565 17.1116 7.91515C17.1106 8.03465 17.0858 8.15276 17.0387 8.26259C16.9916 8.37241 16.9231 8.47175 16.8371 8.55482L12.6971 12.696C12.5715 12.8211 12.4716 12.9696 12.4034 13.1333C12.3351 13.2969 12.2998 13.4723 12.2993 13.6496C12.2989 13.8269 12.3334 14.0025 12.4008 14.1665C12.4682 14.3305 12.5673 14.4795 12.6923 14.6052C12.8174 14.7309 12.966 14.8307 13.1296 14.899C13.2932 14.9672 13.4687 15.0026 13.6459 15.003C13.8232 15.0035 13.9989 14.969 14.1628 14.9016C14.3268 14.8341 14.4759 14.7351 14.6015 14.61L18.7463 10.3464C19.4212 9.67132 19.8004 8.75581 19.8004 7.80122C19.8004 6.84663 19.4212 5.93112 18.7463 5.25602L18.7451 5.25482Z" fill="black"/>
</svg>
