<svg width="12" height="12" viewBox="0 0 12 12" fill="none" xmlns="http://www.w3.org/2000/svg">
<g clip-path="url(#clip0_40_11717)">
<path d="M6.87012 0.526459C6.84346 0.526395 6.81697 0.530636 6.79167 0.539019C6.74084 0.55586 6.69686 0.588784 6.66639 0.632819L3.79756 4.78079C3.77462 4.81398 3.76024 4.85233 3.7557 4.89242C3.75113 4.93251 3.75657 4.9731 3.77151 5.01057C3.7865 5.04804 3.81052 5.08123 3.84144 5.10716C3.87241 5.13319 3.90931 5.15119 3.94889 5.15957L5.80231 5.55261L5.68758 7.84265C5.68491 7.89596 5.69977 7.94868 5.72991 7.99273C5.76011 8.03687 5.80387 8.06997 5.85456 8.087C5.90535 8.10399 5.96043 8.10422 6.01131 8.08732C6.06214 8.07047 6.10611 8.03754 6.13659 7.99352L9.00527 3.84555C9.02829 3.81238 9.04273 3.77403 9.04729 3.73391C9.05179 3.69384 9.04649 3.65323 9.03148 3.61577C9.01651 3.57829 8.99248 3.5451 8.96155 3.51917C8.93057 3.49316 8.89367 3.47516 8.8541 3.46677L7.00067 3.07372L7.1154 0.783684C7.11809 0.730373 7.10322 0.677651 7.07307 0.633599C7.04289 0.589445 6.99913 0.556348 6.94842 0.539334C6.92318 0.530856 6.89674 0.526505 6.87012 0.526459ZM0.578485 4.89397C0.42525 4.89457 0.27844 4.95586 0.17009 5.06421C0.0617519 5.17252 0.000615543 5.31926 4.63685e-06 5.47245C-0.000607217 5.6257 0.0593556 5.77299 0.166835 5.88223L5.58804 11.3033C5.64191 11.3573 5.70594 11.4001 5.77642 11.4293C5.8469 11.4586 5.92246 11.4736 5.99876 11.4735C5.99918 11.4735 5.99956 11.4734 6.00001 11.4734C6.00037 11.4734 6.00071 11.4735 6.00111 11.4735C6.07741 11.4736 6.15297 11.4586 6.22344 11.4293C6.29394 11.4002 6.35796 11.3573 6.41183 11.3033L11.833 5.88224C11.9405 5.77299 12.0005 5.62572 12 5.47245C11.9993 5.31921 11.9381 5.17257 11.8298 5.06421C11.7214 4.9558 11.5746 4.89461 11.4214 4.89397C11.2682 4.89335 11.1209 4.95332 11.0117 5.0608L8.31113 7.76125C8.30723 7.76495 8.30254 7.76752 8.29872 7.77132L6 10.07L3.70112 7.77132C3.69742 7.76762 3.69282 7.76513 3.68902 7.76155L0.988275 5.0608C0.879027 4.95332 0.731738 4.89336 0.578485 4.89397Z" fill="black"/>
</g>
<defs>
<clipPath id="clip0_40_11717">
<rect width="12" height="12" fill="white"/>
</clipPath>
</defs>
</svg>
