<svg width="12" height="12" viewBox="0 0 12 12" fill="none" xmlns="http://www.w3.org/2000/svg">
<g clip-path="url(#clip0_43_12821)">
<path d="M6.99151 5.53899H8.05101C8.07559 5.53899 8.09917 5.52926 8.11659 5.51193C8.13402 5.49459 8.14388 5.47107 8.14401 5.44649V4.50299C8.14401 4.47832 8.13421 4.45467 8.11677 4.43723C8.09933 4.41979 8.07567 4.40999 8.05101 4.40999H6.99151C6.96698 4.40999 6.94345 4.41973 6.9261 4.43708C6.90875 4.45443 6.89901 4.47796 6.89901 4.50249V5.44649C6.89901 5.49749 6.94051 5.53899 6.99151 5.53899ZM5.51451 2.82399H6.57351C6.59817 2.82399 6.62183 2.81419 6.63927 2.79675C6.65671 2.77931 6.66651 2.75565 6.66651 2.73099V1.78699C6.66638 1.76241 6.65652 1.73888 6.63909 1.72155C6.62167 1.70422 6.59809 1.69449 6.57351 1.69449H5.51451C5.48998 1.69449 5.46645 1.70423 5.4491 1.72158C5.43175 1.73893 5.42201 1.76246 5.42201 1.78699V2.73099C5.42201 2.78199 5.46301 2.82399 5.51451 2.82399ZM5.51451 4.18149H6.57351C6.59813 4.18136 6.62171 4.17152 6.63912 4.1541C6.65654 4.13669 6.66638 4.11311 6.66651 4.08849V3.14499C6.66638 3.12041 6.65652 3.09688 6.63909 3.07955C6.62167 3.06222 6.59809 3.05249 6.57351 3.05249H5.51451C5.48998 3.05249 5.46645 3.06223 5.4491 3.07958C5.43175 3.09693 5.42201 3.12046 5.42201 3.14499V4.08849C5.42201 4.13949 5.46301 4.18099 5.51451 4.18149ZM4.04951 4.18149H5.10951C5.134 4.18123 5.1574 4.17131 5.17462 4.1539C5.19185 4.13649 5.20151 4.11298 5.20151 4.08849V3.14499C5.20151 3.12046 5.19176 3.09693 5.17442 3.07958C5.15707 3.06223 5.13354 3.05249 5.10901 3.05249H4.05001C4.02548 3.05249 4.00195 3.06223 3.9846 3.07958C3.96725 3.09693 3.95751 3.12046 3.95751 3.14499V4.08849C3.95751 4.13949 3.99901 4.18099 4.05001 4.18149M2.56801 4.18149H3.62751C3.65209 4.18136 3.67561 4.1715 3.69295 4.15407C3.71028 4.13665 3.72001 4.11307 3.72001 4.08849V3.14499C3.72001 3.12046 3.71026 3.09693 3.69292 3.07958C3.67557 3.06223 3.65204 3.05249 3.62751 3.05249H2.56801C2.54343 3.05249 2.51985 3.06222 2.50242 3.07955C2.485 3.09688 2.47514 3.12041 2.47501 3.14499V4.08849C2.47501 4.13949 2.51701 4.18099 2.56801 4.18149ZM5.51451 5.53899H6.57351C6.59809 5.53899 6.62167 5.52926 6.63909 5.51193C6.65652 5.49459 6.66638 5.47107 6.66651 5.44649V4.50299C6.66651 4.47832 6.65671 4.45467 6.63927 4.43723C6.62183 4.41979 6.59817 4.40999 6.57351 4.40999H5.51451C5.48998 4.40999 5.46645 4.41973 5.4491 4.43708C5.43175 4.45443 5.42201 4.47796 5.42201 4.50249V5.44649C5.42201 5.49749 5.46301 5.53899 5.51451 5.53899ZM4.04951 5.53899H5.10951C5.13395 5.53886 5.15735 5.52905 5.17459 5.51172C5.19183 5.49439 5.20151 5.47093 5.20151 5.44649V4.50299C5.20157 4.49084 5.19925 4.4788 5.19466 4.46755C5.19007 4.4563 5.18331 4.44607 5.17477 4.43743C5.16623 4.4288 5.15607 4.42193 5.14487 4.41722C5.13367 4.41251 5.12166 4.41005 5.10951 4.40999H4.04951C4.02506 4.41012 4.00166 4.41992 3.98442 4.43726C3.96719 4.45459 3.95751 4.47804 3.95751 4.50249V5.44649C3.95751 5.49749 3.99901 5.53899 4.05001 5.53899M2.56801 5.53899H3.62751C3.65204 5.53899 3.67557 5.52924 3.69292 5.5119C3.71026 5.49455 3.72001 5.47102 3.72001 5.44649V4.50299C3.72007 4.49084 3.71775 4.4788 3.71316 4.46755C3.70857 4.4563 3.70181 4.44607 3.69327 4.43743C3.68473 4.4288 3.67457 4.42193 3.66337 4.41722C3.65217 4.41251 3.64016 4.41005 3.62801 4.40999H2.56801C2.54334 4.40999 2.51969 4.41979 2.50225 4.43723C2.48481 4.45467 2.47501 4.47832 2.47501 4.50299V5.44649C2.47501 5.49749 2.51701 5.53899 2.56801 5.53899ZM1.10801 5.53899H2.16801C2.19245 5.53886 2.21585 5.52905 2.23309 5.51172C2.25033 5.49439 2.26001 5.47093 2.26001 5.44649V4.50299C2.26007 4.49084 2.25775 4.4788 2.25316 4.46755C2.24857 4.4563 2.24181 4.44607 2.23327 4.43743C2.22473 4.4288 2.21457 4.42193 2.20337 4.41722C2.19217 4.41251 2.18016 4.41005 2.16801 4.40999H1.10801C1.08356 4.41012 1.06016 4.41992 1.04292 4.43726C1.02568 4.45459 1.01601 4.47804 1.01601 4.50249V5.44649C1.01601 5.49749 1.05651 5.53899 1.10801 5.53899ZM11.8815 4.94499C11.849 4.91949 11.5455 4.68999 10.9045 4.68999C10.7355 4.69049 10.5665 4.70499 10.3995 4.73349C10.2755 3.88349 9.57301 3.46849 9.54151 3.45049L9.36951 3.35099L9.25651 3.51449C9.11451 3.73349 9.01151 3.97549 8.95051 4.22949C8.83551 4.71449 8.90551 5.17049 9.15201 5.55999C8.85451 5.72599 8.37701 5.76649 8.28001 5.76999H0.375509C0.276266 5.77012 0.181111 5.80953 0.110842 5.87962C0.0405727 5.9497 0.000904869 6.04475 0.000508513 6.14399C-0.00875064 6.83641 0.108506 7.52469 0.346509 8.17499C0.619009 8.88899 1.02401 9.41499 1.55151 9.73699C2.14151 10.0985 3.10151 10.3055 4.18901 10.3055C4.68051 10.307 5.17051 10.2625 5.65401 10.1725C6.32543 10.0491 6.9715 9.81441 7.56551 9.47799C8.05551 9.19449 8.49551 8.83399 8.87051 8.40999C9.49651 7.70099 9.86951 6.91149 10.147 6.20999H10.2575C10.9435 6.20999 11.365 5.93549 11.5975 5.70549C11.752 5.55899 11.8725 5.38049 11.951 5.18249L12 5.03849L11.8815 4.94499Z" fill="black"/>
</g>
<defs>
<clipPath id="clip0_43_12821">
<rect width="12" height="12" fill="white"/>
</clipPath>
</defs>
</svg>
