<svg width="12" height="12" viewBox="0 0 12 12" fill="none" xmlns="http://www.w3.org/2000/svg">
<path d="M11.749 3.09299C11.6812 2.83763 11.5475 2.60456 11.3613 2.41712C11.1751 2.22969 10.9429 2.09446 10.688 2.02499C9.7525 1.77249 6 1.77249 6 1.77249C6 1.77249 2.2475 1.77249 1.3115 2.02499C1.0567 2.09458 0.824647 2.22986 0.638539 2.41728C0.452431 2.60471 0.318796 2.83771 0.251 3.09299C0 4.03499 0 5.99999 0 5.99999C0 5.99999 0 7.96499 0.251 8.90699C0.318793 9.16235 0.452488 9.39542 0.638696 9.58286C0.824904 9.7703 1.05709 9.90552 1.312 9.97499C2.2475 10.2275 6 10.2275 6 10.2275C6 10.2275 9.7525 10.2275 10.6885 9.97499C10.9434 9.90557 11.1756 9.77036 11.3619 9.58291C11.5481 9.39547 11.6818 9.16238 11.7495 8.90699C12 7.96499 12 5.99999 12 5.99999C12 5.99999 12 4.03499 11.749 3.09299ZM4.7725 7.78399V4.21599L7.909 5.99999L4.7725 7.78399Z" fill="black"/>
</svg>
