<svg width="12" height="12" viewBox="0 0 12 12" fill="none" xmlns="http://www.w3.org/2000/svg">
<g clip-path="url(#clip0_40_11744)">
<path d="M4.41199 3.6435C4.41399 3.6435 4.41599 3.6435 4.41199 3.6435V3.6435ZM3.01199 2.9435C3.01349 2.9435 3.01499 2.9435 3.01199 2.9435V2.9435ZM11.389 4.024C11.1365 3.4165 10.624 2.76 10.2225 2.5525C10.5495 3.194 10.739 3.8375 10.811 4.3175L10.812 4.3275C10.155 2.6885 9.03999 2.0275 8.12899 0.589C8.08349 0.5155 8.03699 0.443 7.99249 0.366C7.96929 0.326849 7.94761 0.28682 7.92749 0.246C7.89001 0.172927 7.86114 0.095742 7.84149 0.016C7.84151 0.0122685 7.84014 0.008664 7.83764 0.00589036C7.83515 0.00311672 7.83171 0.00137311 7.82799 0.001C7.82456 1.36949e-05 7.82092 1.36949e-05 7.81749 0.001L7.81449 0.0015C7.81271 0.00207526 7.81102 0.00291821 7.80949 0.004L7.81199 0C6.51949 0.7575 5.98349 2.084 5.84599 2.928C5.44648 2.9505 5.0551 3.05017 4.69349 3.2215C4.66051 3.23776 4.63473 3.26568 4.62116 3.29986C4.60758 3.33404 4.60716 3.37204 4.61999 3.4065C4.64849 3.4875 4.73999 3.5265 4.81799 3.4915C5.13354 3.34279 5.474 3.25412 5.82199 3.23L5.85549 3.2275C6.18559 3.2089 6.51645 3.24644 6.83399 3.3385L6.88149 3.3535C6.98623 3.38567 7.08906 3.42373 7.18949 3.4675C7.22949 3.4855 7.26949 3.504 7.30849 3.5235L7.36199 3.551C7.42458 3.58393 7.48596 3.61911 7.54599 3.6565C7.96725 3.91708 8.31681 4.27867 8.56299 4.7085C8.25299 4.49 7.69649 4.2745 7.16149 4.368C9.25299 5.413 8.69149 9.014 5.79299 8.878C5.53494 8.86744 5.27994 8.81823 5.03649 8.732C4.94436 8.69933 4.8545 8.66057 4.76749 8.616C4.05749 8.2485 3.47099 7.5555 3.39749 6.713C3.39749 6.713 3.66599 5.713 5.31999 5.713C5.49849 5.713 6.00999 5.214 6.01899 5.0695C6.01649 5.022 5.00449 4.6195 4.61049 4.231C4.39949 4.023 4.29949 3.923 4.21049 3.8475C4.16242 3.80697 4.11218 3.76908 4.05999 3.734C3.92757 3.2703 3.92205 2.77956 4.04399 2.313C3.44649 2.585 2.98199 3.0145 2.64399 3.3945H2.64099C2.41099 3.1025 2.42699 2.1395 2.43999 1.938C2.43699 1.9255 2.26849 2.026 2.24549 2.041C2.04249 2.186 1.85199 2.349 1.67749 2.528C1.47899 2.7295 1.29749 2.9475 1.13499 3.1795C0.761004 3.70884 0.495564 4.30702 0.353993 4.9395C0.352493 4.946 0.298993 5.183 0.258993 5.476C0.252493 5.521 0.245993 5.5665 0.240493 5.612C0.224218 5.72262 0.212707 5.83389 0.205993 5.9455L0.204993 5.9625L0.193493 6.156L0.192993 6.186C0.192993 9.3975 2.79649 12 6.00799 12C8.88399 12 11.2715 9.912 11.7395 7.1695C11.7495 7.095 11.757 7.0205 11.7655 6.9455C11.8815 5.9485 11.753 4.9005 11.389 4.0235V4.024Z" fill="black"/>
</g>
<defs>
<clipPath id="clip0_40_11744">
<rect width="12" height="12" fill="white"/>
</clipPath>
</defs>
</svg>
