<svg width="12" height="12" viewBox="0 0 12 12" fill="none" xmlns="http://www.w3.org/2000/svg">
<g clip-path="url(#clip0_7_228)">
<path d="M11.575 1.2935L9.10499 0.104996C8.9654 0.0377747 8.80836 0.0156192 8.65562 0.0415982C8.50288 0.0675771 8.362 0.140405 8.25249 0.249996L3.52249 4.565L1.46249 3.001C1.36955 2.9305 1.25487 2.89476 1.13834 2.89997C1.02181 2.90517 0.910772 2.951 0.824489 3.0295L0.163489 3.6305C0.111979 3.67732 0.0708144 3.73439 0.0426304 3.79804C0.0144464 3.86169 -0.000135924 3.93052 -0.000182991 4.00014C-0.000230058 4.06975 0.0142592 4.1386 0.0423571 4.20229C0.070455 4.26598 0.111542 4.3231 0.162989 4.37L1.94949 6L0.162989 7.63C0.111542 7.67689 0.070455 7.73401 0.0423571 7.7977C0.0142592 7.86139 -0.000230058 7.93024 -0.000182991 7.99986C-0.000135924 8.06947 0.0144464 8.1383 0.0426304 8.20195C0.0708144 8.26561 0.111979 8.32267 0.163489 8.3695L0.824989 8.97C0.911272 9.0485 1.02231 9.09432 1.13884 9.09953C1.25537 9.10473 1.37005 9.06899 1.46299 8.9985L3.52299 7.4345L8.25299 11.7495C8.36239 11.8591 8.50318 11.932 8.65585 11.9579C8.80852 11.9839 8.96549 11.9618 9.10499 11.8945L11.576 10.706C11.7031 10.6446 11.8103 10.5486 11.8854 10.4291C11.9604 10.3095 12.0001 10.1712 12 10.03V1.9695C12 1.82823 11.9601 1.68983 11.8849 1.57024C11.8097 1.45064 11.7023 1.35471 11.575 1.2935ZM9.00199 8.724L5.41299 6L9.00199 3.276V8.724Z" fill="black"/>
</g>
<defs>
<clipPath id="clip0_7_228">
<rect width="12" height="12" fill="white"/>
</clipPath>
</defs>
</svg>
