<svg width="12" height="12" viewBox="0 0 12 12" fill="none" xmlns="http://www.w3.org/2000/svg">
<g clip-path="url(#clip0_40_11727)">
<path d="M10.4726 7.03657C9.71284 6.52229 8.68226 6.72171 8.16754 7.48286C8.16582 7.48514 8.16411 7.48857 8.16183 7.49086C8.15554 7.5 8.14983 7.50857 8.14469 7.51771H8.14354C7.66596 8.20743 6.87131 8.65943 5.97041 8.65943C4.50908 8.65943 3.32426 7.46857 3.32426 6C3.32426 4.53143 4.50908 3.34057 5.97041 3.34057C6.88217 3.34057 7.68595 3.80343 8.16125 4.50857C8.16354 4.51143 8.16582 4.51486 8.16811 4.51829C8.68226 5.27886 9.71284 5.47829 10.4726 4.96343C11.2336 4.44743 11.4341 3.40971 10.9199 2.64457C10.9165 2.63886 10.9125 2.63429 10.9091 2.62857C9.83452 1.04171 8.02358 0 5.97041 0C2.673 0 0 2.68629 0 6C0 9.31371 2.673 12 5.97041 12C8.01786 12 9.82481 10.9646 10.9005 9.38629L10.8994 9.38514C10.9057 9.376 10.9131 9.36629 10.9199 9.35486C11.4335 8.59029 11.233 7.55257 10.4726 7.03657Z" fill="black"/>
</g>
<defs>
<clipPath id="clip0_40_11727">
<rect width="11.205" height="12" fill="white"/>
</clipPath>
</defs>
</svg>
