<svg width="12" height="12" viewBox="0 0 12 12" fill="none" xmlns="http://www.w3.org/2000/svg">
<g clip-path="url(#clip0_40_11695)">
<path d="M11.1255 5.91C11.1249 5.56582 11.0104 5.23152 10.7998 4.95927C10.5892 4.68701 10.2945 4.49212 9.96149 4.405L11.4555 0H4.05199L5.54999 4.419C5.2266 4.51327 4.94247 4.7098 4.74019 4.97915C4.5379 5.2485 4.42836 5.57615 4.42799 5.913C4.42799 6.4345 4.68799 6.8965 5.08449 7.181C4.92498 7.40586 4.74342 7.61423 4.54249 7.803C4.17288 8.15502 3.74036 8.43438 3.26749 8.6265C2.85049 8.345 2.66999 7.8485 2.83299 7.4035C3.18772 7.29332 3.49129 7.05979 3.68877 6.74518C3.88624 6.43057 3.96458 6.05567 3.9096 5.68831C3.85461 5.32095 3.66994 4.98541 3.38901 4.74241C3.10807 4.49941 2.74943 4.365 2.37799 4.3635C1.96534 4.36403 1.56975 4.52819 1.27796 4.81997C0.986174 5.11176 0.822016 5.50735 0.821487 5.92C0.821487 6.344 0.994987 6.733 1.27299 7.011C1.24899 7.0595 1.22449 7.1085 1.19999 7.1605C0.967487 7.64 0.703487 8.182 0.602487 8.79C0.400987 10.006 0.730987 10.982 1.52699 11.5345C1.9578 11.8383 2.4723 12.001 2.99949 12C3.91299 12 4.84049 11.5415 5.73699 11.0965C6.37649 10.7805 7.03649 10.4505 7.68599 10.2905C7.92599 10.2315 8.17599 10.197 8.43999 10.1585C8.97499 10.082 9.52749 10.0025 10.024 9.7135C10.3075 9.55102 10.5521 9.32849 10.7406 9.06151C10.929 8.79454 11.0568 8.48958 11.115 8.168C11.202 7.671 11.115 7.171 10.893 6.733C11.042 6.493 11.1255 6.2125 11.1255 5.91ZM10.448 5.91C10.448 6.3925 10.0555 6.785 9.57299 6.785C9.39129 6.78449 9.21424 6.72753 9.06633 6.62199C8.91842 6.51646 8.80697 6.36756 8.74739 6.19591C8.68781 6.02425 8.68305 5.83833 8.73377 5.66385C8.78449 5.48937 8.88817 5.33497 9.03049 5.222L9.03399 5.2185C9.06199 5.1975 9.09299 5.1765 9.12399 5.156C9.12399 5.156 9.12799 5.156 9.12799 5.1525C9.14199 5.1455 9.15549 5.135 9.16949 5.1275C9.17299 5.1275 9.17649 5.1245 9.17999 5.1245C9.19399 5.1175 9.21149 5.1105 9.22849 5.1035C9.24599 5.0965 9.26349 5.09 9.27749 5.083C9.28099 5.083 9.28399 5.0795 9.28749 5.0795C9.30149 5.076 9.31549 5.069 9.32949 5.0655C9.33299 5.0655 9.33949 5.062 9.34349 5.062C9.36049 5.0585 9.37449 5.055 9.39199 5.052H9.39549L9.44749 5.041C9.45099 5.041 9.45749 5.041 9.46149 5.0375C9.47549 5.0375 9.48899 5.034 9.50299 5.034H9.52049C9.53799 5.034 9.55549 5.0305 9.57599 5.0305H9.62099C9.63499 5.0305 9.64599 5.0305 9.65949 5.034H9.66649C9.69399 5.0375 9.72199 5.041 9.74999 5.048C9.94724 5.09026 10.1241 5.19879 10.2511 5.35553C10.3781 5.51227 10.4476 5.70827 10.448 5.91ZM5.02149 0.695H10.4865L9.23199 4.395C9.17999 4.405 9.12799 4.4225 9.07599 4.44L7.75599 1.7475L6.43199 4.4225C6.37999 4.4055 6.32399 4.395 6.26849 4.3845L5.02149 0.695ZM7.50549 5.6075C7.44157 5.28679 7.27733 4.99472 7.03649 4.7735L7.75549 3.3215L8.48149 4.805C8.26649 5.02 8.10999 5.295 8.04749 5.6075H7.50549ZM5.76499 5.0585C5.78199 5.055 5.79599 5.0515 5.81349 5.0485H5.82349C5.83799 5.0445 5.85149 5.0445 5.86549 5.041H5.87949C5.89349 5.041 5.90399 5.0375 5.91749 5.0375H6.05299C6.06699 5.0375 6.07749 5.041 6.08799 5.041C6.09499 5.041 6.09799 5.041 6.10549 5.0445C6.11899 5.048 6.12949 5.048 6.14349 5.0515C6.14699 5.0515 6.15049 5.0515 6.15749 5.055L6.20599 5.065H6.20949C6.22349 5.069 6.23749 5.0725 6.25099 5.0795C6.25449 5.0795 6.25799 5.083 6.26499 5.083C6.27549 5.0865 6.28949 5.09 6.29999 5.0965C6.30349 5.0965 6.30699 5.1 6.30999 5.1C6.32399 5.107 6.33799 5.1105 6.35199 5.1175H6.35549C6.37154 5.12356 6.38668 5.13181 6.40049 5.142H6.40399C6.41799 5.149 6.43199 5.159 6.44599 5.166C6.44949 5.166 6.44949 5.1695 6.45249 5.1695C6.46649 5.1765 6.47749 5.187 6.49099 5.194L6.49449 5.1975C6.53599 5.2285 6.57449 5.2635 6.61249 5.298L6.61599 5.3015C6.77082 5.46459 6.85678 5.68112 6.85599 5.906C6.84831 6.13308 6.75271 6.34829 6.58936 6.50621C6.42601 6.66413 6.20769 6.75241 5.98049 6.75241C5.75328 6.75241 5.53496 6.66413 5.37161 6.50621C5.20826 6.34829 5.11266 6.13308 5.10499 5.906C5.10444 5.71129 5.16915 5.52201 5.28878 5.36839C5.40842 5.21477 5.57608 5.10567 5.76499 5.0585ZM2.34599 5.034C2.82899 5.034 3.22149 5.427 3.22149 5.9095C3.22149 6.392 2.82899 6.785 2.34649 6.785C1.86399 6.785 1.47049 6.3925 1.47049 5.91C1.47049 5.4275 1.86349 5.034 2.34599 5.034ZM10.4275 8.0465C10.388 8.26878 10.2999 8.4796 10.1696 8.66395C10.0392 8.84829 9.86986 9.00162 9.67349 9.113C9.29449 9.332 8.82899 9.4015 8.33899 9.471C8.06347 9.5063 7.78982 9.55485 7.51899 9.6165C6.79649 9.794 6.10199 10.1415 5.42799 10.475C4.56599 10.902 3.75299 11.305 2.99949 11.305C2.6131 11.3074 2.23594 11.1869 1.92249 10.961C1.15799 10.433 1.19599 9.443 1.28649 8.901C1.36999 8.3935 1.60249 7.918 1.82499 7.4625C1.83899 7.435 1.84949 7.4105 1.86349 7.3825C1.93949 7.4105 2.01949 7.4315 2.10299 7.4455C1.97099 8.182 2.34599 8.9425 3.07599 9.318L3.20799 9.3875L3.34999 9.3355C3.95799 9.12 4.52099 8.769 5.01799 8.3C5.29244 8.04409 5.53502 7.75601 5.74049 7.442C5.82049 7.4555 5.90049 7.459 5.98049 7.459C6.32443 7.4582 6.65845 7.34365 6.93049 7.1332C7.20253 6.92275 7.39732 6.62821 7.48449 6.2955H8.06799C8.15458 6.62872 8.34935 6.92376 8.62174 7.13434C8.89412 7.34491 9.2287 7.45911 9.57299 7.459C9.86099 7.459 10.128 7.379 10.358 7.244C10.448 7.504 10.476 7.7755 10.4275 8.0465Z" fill="black"/>
</g>
<defs>
<clipPath id="clip0_40_11695">
<rect width="12" height="12" fill="white"/>
</clipPath>
</defs>
</svg>
