<svg width="12" height="12" viewBox="0 0 12 12" fill="none" xmlns="http://www.w3.org/2000/svg">
<g clip-path="url(#clip0_40_11713)">
<path d="M1.94499 7.836L3.12749 0.230498C3.13597 0.174082 3.16204 0.121782 3.20198 0.0810481C3.24193 0.0403142 3.29371 0.0132248 3.34994 0.0036393C3.40618 -0.00594625 3.46401 0.002461 3.51519 0.0276633C3.56638 0.0528656 3.6083 0.0935773 3.63499 0.143998L4.90649 2.5295L1.94499 7.836ZM10.342 9.682L9.21699 2.682C9.20928 2.63253 9.18796 2.58618 9.15542 2.54813C9.12288 2.51007 9.08041 2.48182 9.03274 2.46652C8.98506 2.45121 8.93408 2.44947 8.88547 2.46147C8.83686 2.47348 8.79255 2.49876 8.75749 2.5345L1.65799 9.6825L5.58599 11.896C5.70722 11.9641 5.84394 11.9999 5.98299 11.9999C6.12204 11.9999 6.25876 11.9641 6.37999 11.896L10.342 9.682ZM7.14999 3.5735L6.23999 1.8325C6.21703 1.78872 6.18253 1.75205 6.14023 1.72647C6.09792 1.70088 6.04943 1.68736 5.99999 1.68736C5.95055 1.68736 5.90206 1.70088 5.85975 1.72647C5.81745 1.75205 5.78295 1.78872 5.75999 1.8325L1.76499 8.992L7.14999 3.5735Z" fill="black"/>
</g>
<defs>
<clipPath id="clip0_40_11713">
<rect width="12" height="12" fill="white"/>
</clipPath>
</defs>
</svg>
