<svg width="12" height="12" viewBox="0 0 12 12" fill="none" xmlns="http://www.w3.org/2000/svg">
<path d="M4.55149 0.217493C4.76884 0.0218432 5.09499 -0.0506068 5.37759 0.0363432C5.48629 0.0725932 5.58049 0.137843 5.68194 0.202993C5.76169 0.253743 5.85589 0.275493 5.92834 0.333493C5.96459 0.362493 5.93559 0.413193 5.93559 0.449393C6.02979 0.674043 6.08054 0.920443 6.00084 1.15959C5.93559 1.23929 5.81964 1.26109 5.72544 1.29729C5.71094 1.39874 5.74719 1.49294 5.76169 1.59439C5.73994 1.60889 5.72544 1.62339 5.70369 1.63789C5.84139 1.63064 5.97909 1.60164 6.11679 1.57269C6.16749 1.52194 6.24719 1.55094 6.31244 1.54369C6.31969 1.44219 6.35594 1.34799 6.35594 1.24654C6.37044 1.24654 6.39944 1.23929 6.41389 1.23204C6.42114 1.30454 6.41389 1.37704 6.43564 1.44949C6.47184 1.47849 6.52984 1.46399 6.57334 1.47119C6.57334 1.50019 6.57334 1.52919 6.58054 1.55819C7.42119 1.55094 8.26904 1.55819 9.10969 1.55819V1.68139H9.18944V1.21034H9.28364C9.28364 1.34079 9.27639 1.46394 9.28364 1.59439C9.29356 1.60347 9.30645 1.60862 9.31989 1.60889C9.31989 1.62339 9.32709 1.65239 9.32709 1.66689C9.35609 1.63789 9.39234 1.61614 9.43579 1.63064C9.44304 1.65239 9.45029 1.67414 9.45754 1.70314C9.42854 1.73214 9.41404 1.76834 9.42854 1.81179C9.66049 1.81904 9.89239 1.81179 10.1315 1.81179C10.1532 1.78279 10.1895 1.76829 10.2257 1.75379C10.2402 1.76109 10.2619 1.77559 10.2692 1.78279H10.6098C10.6243 1.84079 10.6243 1.89879 10.617 1.94949H10.2692C10.2619 1.95674 10.2402 1.97849 10.2257 1.98574C10.1895 1.96399 10.1605 1.94949 10.1242 1.92774H9.49379C9.37059 1.96399 9.24014 1.95674 9.11694 1.93499V2.07269H8.08064C8.03714 2.10894 7.99369 2.13069 7.93574 2.13794C7.95744 2.24664 7.83424 2.27559 7.79074 2.35534C7.76179 2.39884 7.71834 2.42779 7.67484 2.44229C7.63859 2.66694 7.71834 2.87709 7.77634 3.08729C7.71109 3.10179 7.63859 3.12349 7.57334 3.13799C7.53714 3.28294 7.50089 3.43509 7.47194 3.57999C7.44294 3.71049 7.34144 3.81919 7.21829 3.86989C7.13129 3.97139 7.01539 4.07284 6.87769 4.08009C6.82694 4.09459 6.79069 4.05834 6.75449 4.02934C6.57334 4.04384 6.40664 3.95684 6.24719 3.88439C6.07329 3.80469 5.91384 3.70324 5.74719 3.60904C5.76169 3.71049 5.71094 3.79744 5.67469 3.88439C5.75444 3.92064 5.86314 3.94964 5.90659 4.03659C5.93559 4.10179 5.96459 4.17429 5.96459 4.25399C5.95734 4.51489 5.92834 4.77574 5.91384 5.03664C5.92109 5.22509 5.82689 5.41349 5.69644 5.55114C5.60949 5.54394 5.53704 5.50769 5.45729 5.47144C5.42829 5.53669 5.36309 5.60194 5.39929 5.68164C5.42829 5.77584 5.42829 5.87729 5.47179 5.96424C5.71819 6.22514 5.92834 6.51499 6.08054 6.84109C6.23269 7.15274 6.34864 7.47884 6.47184 7.80494C6.49359 7.80494 6.53709 7.79769 6.55884 7.79769C6.58784 7.89189 6.55884 8.00059 6.61684 8.08759C6.66754 8.16729 6.65304 8.26149 6.65304 8.35569C6.63854 8.57309 6.62404 8.79049 6.60229 9.00789C6.58779 9.16009 6.55159 9.31229 6.52984 9.46449C6.53709 9.58039 6.58784 9.69634 6.58054 9.81229C6.57334 9.92104 6.57334 10.0369 6.48634 10.1167C6.49359 10.3631 6.42834 10.6094 6.51534 10.8486C6.63134 11.008 6.76174 11.1602 6.89944 11.2979C7.05159 11.3704 7.23279 11.3849 7.36324 11.5153C7.41394 11.595 7.38494 11.6892 7.37049 11.7762C7.06039 11.8197 6.74574 11.8197 6.43564 11.7762C6.31244 11.7472 6.19649 11.6965 6.07329 11.682C5.90659 11.6892 5.71094 11.7545 5.55879 11.6385C5.54429 11.4428 5.61674 11.2544 5.65299 11.066C5.66749 11.0008 5.73269 10.9573 5.72544 10.8921C5.71094 10.6674 5.69644 10.4355 5.68194 10.2109C5.65294 10.1964 5.60224 10.1819 5.60949 10.1384C5.60949 10.0297 5.57324 9.92104 5.54429 9.81954C5.49354 9.54419 5.47179 9.26154 5.46454 8.97894C5.45729 8.89919 5.50804 8.84124 5.56604 8.79049C5.58054 8.66729 5.59504 8.53689 5.60224 8.41369C5.58049 8.34844 5.52974 8.29769 5.50074 8.23974C5.37034 8.25424 5.18194 8.28324 5.10224 8.14554C4.91379 7.86289 4.71814 7.57304 4.52974 7.29044C4.44999 7.28319 4.35579 7.29044 4.28334 7.23969C4.20359 7.15269 4.15284 7.03679 4.10214 6.92809C4.08039 7.01504 4.06589 7.10924 4.01514 7.18169C3.97169 7.25419 3.89924 7.30489 3.84849 7.37014C3.79779 7.48609 3.75429 7.60204 3.71084 7.71799C3.66009 7.86289 3.58764 8.00784 3.57314 8.16729C3.56589 8.24699 3.55139 8.31949 3.52239 8.39194C3.48619 8.44994 3.42094 8.47164 3.36299 8.50064C3.31949 8.59484 3.29049 8.68904 3.22529 8.76879C3.18179 8.81949 3.10929 8.83399 3.08034 8.89919C3.05134 8.98619 3.00784 9.06589 2.97164 9.14559C2.95714 9.23259 3.01514 9.32679 2.98614 9.41374C2.93539 9.63114 2.82669 9.83404 2.72524 10.0297C2.67454 10.1746 2.63829 10.3268 2.56584 10.4645C2.53684 10.5225 2.46434 10.537 2.40639 10.5442C2.34119 10.7037 2.26869 10.8558 2.22524 11.0225C2.20349 11.1819 2.20349 11.3486 2.21074 11.508C2.21074 11.5805 2.25424 11.6385 2.28324 11.7037C2.31219 11.7907 2.29044 11.8776 2.27594 11.9646C1.99334 12.0008 1.70344 12.0298 1.42809 11.9429C1.39909 11.9211 1.40634 11.8849 1.39909 11.8559C1.37734 11.7255 1.36284 11.5878 1.40634 11.4646C1.50054 11.124 1.58024 10.7834 1.67444 10.4428C1.63824 10.4065 1.58749 10.3776 1.58749 10.3196C1.58024 10.2254 1.58749 10.1239 1.60924 10.0297C1.65274 9.87024 1.76869 9.74709 1.82664 9.59489C1.84839 9.52969 1.84114 9.46444 1.84839 9.39924C1.84839 9.24704 1.93539 9.12384 2.00059 8.99344C2.06579 8.88474 2.11649 8.76879 2.20349 8.67454C2.26149 8.62384 2.26149 8.54414 2.30494 8.47889C2.34844 8.39919 2.42089 8.33394 2.42089 8.23974C2.43539 8.12379 2.39189 8.00784 2.40639 7.89189C2.43539 7.55129 2.50059 7.21794 2.55859 6.87739C2.52959 6.84109 2.48609 6.80489 2.47159 6.75414C2.47884 6.71794 2.48609 6.68894 2.49334 6.65269L2.42814 6.54399C2.45714 6.50049 2.48614 6.44979 2.51514 6.40629C2.48614 6.38454 2.44989 6.35559 2.42089 6.33379C2.45714 6.22514 2.44264 6.06569 2.57304 6.01499C2.58754 6.02224 2.62379 6.02949 2.63829 6.03669C2.61654 5.84829 2.61654 5.65264 2.59479 5.46419C2.54409 5.26129 2.53679 5.05119 2.55859 4.84819C2.63104 4.73954 2.76874 4.69604 2.89194 4.68879C2.73249 4.65259 2.57304 4.63809 2.42089 4.58734C2.41364 4.45689 2.43539 4.32644 2.45714 4.19604C2.52234 3.94239 2.49334 3.68154 2.52959 3.42059C2.56584 3.34814 2.66004 3.33364 2.73974 3.34814C2.83394 3.36264 2.92814 3.33364 3.02239 3.30464C3.02239 3.26844 3.02964 3.22494 3.02239 3.18869C2.96439 2.93509 2.97889 2.67419 3.02239 2.42779C3.08039 2.10894 3.21079 1.79729 3.44989 1.57269C3.60939 1.42049 3.84124 1.34799 4.05869 1.35524C4.13114 1.35524 4.17459 1.42774 4.23259 1.47124C4.26159 1.44224 4.29059 1.41324 4.31229 1.38424C4.27609 1.26104 4.21809 1.13059 4.22534 1.00019C4.23984 0.710293 4.33409 0.413193 4.55149 0.217493ZM6.81244 2.26834C6.82694 2.28284 6.82694 2.28284 6.81244 2.26834V2.26834ZM6.91394 2.28284C6.92114 2.33359 6.93564 2.38434 6.90669 2.42779C6.87044 2.44229 6.82694 2.44229 6.79069 2.46404C6.89219 2.46404 6.99364 2.47129 7.09509 2.46404C7.17479 2.44229 7.14584 2.34084 7.14584 2.28284C7.09509 2.22484 6.98639 2.26109 6.91394 2.28284ZM6.66029 2.58724C6.73279 2.66694 6.76899 2.79014 6.83419 2.86984C6.92839 2.74664 7.00089 2.61619 7.10959 2.50749C6.97914 2.50024 6.84869 2.51474 6.71824 2.50024C6.69649 2.52924 6.68209 2.55824 6.66029 2.58724Z" fill="black"/>
</svg>
