<svg width="12" height="12" viewBox="0 0 12 12" fill="none" xmlns="http://www.w3.org/2000/svg">
<g clip-path="url(#clip0_40_11774)">
<path d="M11.135 9.6925H0.865C0.751407 9.6925 0.638925 9.67012 0.533979 9.62665C0.429032 9.58318 0.333675 9.51946 0.253353 9.43914C0.17303 9.35882 0.109315 9.26346 0.0658442 9.15852C0.0223739 9.05357 0 8.94109 0 8.8275L0 3.1725C0 2.94308 0.0911337 2.72307 0.253353 2.56085C0.415572 2.39863 0.635588 2.3075 0.865 2.3075H11.135C11.2486 2.3075 11.3611 2.32987 11.466 2.37334C11.571 2.41681 11.6663 2.48053 11.7466 2.56085C11.827 2.64117 11.8907 2.73653 11.9342 2.84147C11.9776 2.94642 12 3.0589 12 3.1725V8.8265C12.0001 8.94013 11.9777 9.05267 11.9343 9.15767C11.8909 9.26267 11.8272 9.35809 11.7468 9.43847C11.6665 9.51884 11.5711 9.5826 11.4661 9.6261C11.3612 9.6696 11.2486 9.6925 11.135 9.6925ZM2.8845 7.9615V5.7115L4.0385 7.154L5.192 5.7115V7.9615H6.346V4.039H5.192L4.0385 5.4815L2.8845 4.039H1.73V7.9625L2.8845 7.9615ZM10.616 6H9.4615V4.0385H8.308V6H7.154L8.8845 8.0195L10.616 6Z" fill="black"/>
</g>
<defs>
<clipPath id="clip0_40_11774">
<rect width="12" height="12" fill="white"/>
</clipPath>
</defs>
</svg>
