<svg width="12" height="12" viewBox="0 0 12 12" fill="none" xmlns="http://www.w3.org/2000/svg">
<g clip-path="url(#clip0_40_11742)">
<path d="M5.98949 0C2.83899 0 0.255486 2.43 0.0109863 5.5185L3.22699 6.8475C3.49949 6.662 3.82849 6.5525 4.18299 6.5525C4.21449 6.5525 4.24549 6.5545 4.27699 6.5555L5.70749 4.4845V4.455C5.70749 3.2075 6.72149 2.193 7.96949 2.193C9.21649 2.193 10.2315 3.2085 10.2315 4.4565C10.2315 5.7045 9.21649 6.719 7.96949 6.719H7.91699L5.87899 8.1745C5.87899 8.2005 5.88099 8.227 5.88099 8.254C5.88099 9.1915 5.12349 9.952 4.18599 9.952C3.36849 9.952 2.67799 9.3655 2.52049 8.5885L0.217986 7.635C0.930986 10.1535 3.24299 12 5.98949 12C9.30299 12 11.989 9.3135 11.989 6C11.989 2.6865 9.30249 0 5.98949 0ZM3.76999 9.105L3.03349 8.8C3.16449 9.0715 3.39049 9.2995 3.69049 9.425C4.33899 9.6945 5.08699 9.387 5.35649 8.7375C5.48799 8.4225 5.48849 8.078 5.35899 7.763C5.22949 7.448 4.98399 7.2025 4.67049 7.0715C4.35849 6.9415 4.02549 6.947 3.73149 7.0565L4.49299 7.3715C4.97099 7.5715 5.19749 8.1215 4.99749 8.599C4.79899 9.0775 4.24849 9.304 3.76999 9.105ZM9.47749 4.4535C9.47749 3.6225 8.80099 2.946 7.96999 2.946C7.13749 2.946 6.46249 3.6225 6.46249 4.4535C6.46249 5.286 7.13749 5.961 7.96999 5.961C8.80149 5.961 9.47749 5.286 9.47749 4.4535ZM6.84099 4.451C6.84099 3.825 7.34749 3.318 7.97349 3.318C8.59799 3.318 9.10649 3.825 9.10649 4.451C9.10649 5.0765 8.59799 5.5835 7.97349 5.5835C7.34699 5.5835 6.84099 5.0765 6.84099 4.451Z" fill="black"/>
</g>
<defs>
<clipPath id="clip0_40_11742">
<rect width="12" height="12" fill="white"/>
</clipPath>
</defs>
</svg>
