<svg width="12" height="12" viewBox="0 0 12 12" fill="none" xmlns="http://www.w3.org/2000/svg">
<path d="M4.17899 10.081C3.58599 9.546 3.41299 8.423 3.65999 7.609C4.08799 8.122 4.68149 8.285 5.29599 8.3765C6.24449 8.518 7.17599 8.465 8.05699 8.0375C8.15799 7.9885 8.25099 7.923 8.36099 7.8575C8.44399 8.094 8.46549 8.3325 8.43649 8.576C8.36649 9.1685 8.06749 9.626 7.59249 9.973C7.40249 10.1115 7.20149 10.2355 7.00499 10.3665C6.40249 10.7685 6.23949 11.24 6.46599 11.926L6.48799 12C6.19968 11.8763 5.95477 11.6695 5.78449 11.406C5.60733 11.1365 5.51278 10.821 5.51249 10.4985C5.51049 10.3385 5.51049 10.1775 5.48849 10.0195C5.43549 9.635 5.25249 9.463 4.90799 9.453C4.55449 9.443 4.27449 9.6585 4.20049 9.998C4.19449 10.0245 4.18649 10.05 4.17799 10.0805H4.17899V10.081ZM1.19849 7.8585C1.19849 7.8585 2.81849 7.071 4.44349 7.071L5.66899 3.2885C5.71499 3.1055 5.84899 2.9815 5.99999 2.9815C6.15099 2.9815 6.28499 3.1055 6.33099 3.2885L7.55599 7.071C9.48099 7.071 10.8015 7.8585 10.8015 7.8585L8.04399 0.3635C7.96499 0.1425 7.83149 0 7.65149 0H4.34849C4.16849 0 4.04099 0.1425 3.95649 0.3635L1.19849 7.8585Z" fill="black"/>
</svg>
