<svg width="12" height="12" viewBox="0 0 12 12" fill="none" xmlns="http://www.w3.org/2000/svg">
<g clip-path="url(#clip0_40_11746)">
<path d="M10.226 1.7225C9.85993 1.34697 9.44203 1.02572 8.98501 0.768503C8.47201 0.498503 7.54901 0.0465026 6.23851 0.0160026C5.87151 0.00750261 5.51001 0.0310026 5.15151 0.0880026C4.79151 0.145003 4.45251 0.234003 4.09251 0.368003C3.58401 0.556503 3.09451 0.855503 2.80551 1.145C3.09701 0.970503 3.54351 0.778503 4.08051 0.649003C4.69139 0.505369 5.32373 0.477051 5.94501 0.565503C7.11551 0.735503 8.03401 1.256 8.68501 1.878C8.93421 2.11382 9.15231 2.38047 9.33401 2.6715C10.068 3.8625 9.99901 5.3595 9.42601 6.2425C9.00101 6.8985 8.09101 7.5145 7.24101 7.5075C6.94951 7.496 6.52201 7.4315 6.11601 7.2245C4.80151 6.553 4.60551 4.8805 5.55701 4.0715C5.24101 4.0035 4.64701 4.1365 4.23401 4.753C3.86301 5.3065 3.88401 6.161 4.11301 6.767C3.96655 6.46821 3.86705 6.14862 3.81801 5.8195C3.72255 5.17141 3.79414 4.50968 4.02601 3.897C4.18944 3.4611 4.42581 3.05616 4.72501 2.6995C5.17301 2.165 5.67901 1.8395 6.10001 1.697C5.83001 1.4615 5.39451 1.328 4.88951 1.3135C4.15501 1.2915 3.16351 1.5305 2.35001 2.205C1.94601 2.53995 1.61053 2.94979 1.36201 3.412C1.13451 3.83 1.01651 4.2415 1.01351 4.251C1.07451 3.5285 1.36551 2.754 1.63751 2.2235C1.24251 2.43 0.724008 3.0575 0.432508 3.7445C0.0475082 4.685 -0.0999918 5.804 0.0700082 6.9945C0.553008 9.8285 3.02001 11.9855 5.99151 11.9855C9.31001 11.9855 12 9.2955 12 5.978C12.0015 5.18646 11.8453 4.40254 11.5408 3.67193C11.2362 2.94132 10.7893 2.27864 10.226 1.7225Z" fill="black"/>
</g>
<defs>
<clipPath id="clip0_40_11746">
<rect width="12" height="12" fill="white"/>
</clipPath>
</defs>
</svg>
