<svg width="12" height="12" viewBox="0 0 12 12" fill="none" xmlns="http://www.w3.org/2000/svg">
<g clip-path="url(#clip0_40_11703)">
<path d="M6 0C2.6875 0 0 2.6875 0 6C0 9.3125 2.6875 12 6 12C9.3125 12 12 9.3125 12 6C12 2.6875 9.3125 0 6 0ZM6.384 2.0525C6.4755 2.0525 6.5655 2.079 6.6465 2.131C6.709 2.1725 6.79 2.2235 7.024 2.708C7.179 2.664 7.258 2.687 7.2995 2.6985C7.4015 2.7265 7.4825 2.7935 7.531 2.886C7.7695 3.3445 7.802 4.1625 7.698 4.6885C7.5775 5.3045 7.3205 5.703 7.1325 5.9765C7.2945 6.141 7.5215 6.426 7.691 6.889C7.83 7.276 7.846 7.628 7.8275 7.8965C7.93115 7.84797 8.03168 7.79303 8.1285 7.732C8.425 7.549 8.872 7.2735 9.405 7.2665C9.762 7.262 10.0395 7.489 10.0815 7.818C10.1018 7.96998 10.0646 8.12407 9.97721 8.25006C9.8898 8.37604 9.75848 8.46482 9.609 8.499C9.2845 8.578 9.134 8.638 8.6985 8.9205C8.0825 9.319 7.429 9.5415 7.1925 9.6155C7.09025 9.6995 6.96967 9.75825 6.8405 9.787C6.472 9.8775 5.2075 9.9445 5.1075 9.9445H5.0845C4.693 9.9445 4.4775 9.824 4.3595 9.699C4.0305 9.8635 3.6045 9.794 3.2985 9.632C3.19443 9.58006 3.10996 9.49585 3.05769 9.39195C3.00542 9.28804 2.98817 9.17002 3.0085 9.0555C2.97982 9.02563 2.95419 8.99297 2.932 8.958C2.851 8.833 2.668 8.49 2.705 7.985C2.733 7.6235 2.983 7.3015 3.145 7.13C3.13334 6.74387 3.20284 6.35959 3.349 6.002C3.502 5.6385 3.7915 5.328 4.009 5.1335C3.849 4.865 3.687 4.45 3.8445 4.0285C3.958 3.7275 4.0505 3.5605 4.2545 3.4885H4.252C4.3515 3.4515 4.4465 3.412 4.495 3.359C4.79256 3.03389 5.20422 2.8363 5.644 2.8075C5.6625 2.761 5.6835 2.715 5.7065 2.666C5.8615 2.337 6.026 2.1515 6.2185 2.082C6.27094 2.06231 6.32648 2.05215 6.3825 2.052L6.384 2.0525ZM6.387 2.4025C6.1335 2.4105 5.8865 3.162 5.8865 3.162C5.8865 3.162 5.2515 3.06 4.7535 3.5975C4.654 3.7065 4.5195 3.7645 4.3805 3.8175C4.341 3.8315 4.2925 3.829 4.172 4.1535C3.9865 4.649 4.4845 5.2005 4.4845 5.2005C4.4845 5.2005 3.8915 5.62 3.6715 6.141C3.4285 6.713 3.5025 7.2715 3.5025 7.2715C3.5025 7.2715 3.081 7.6375 3.053 8.015C3.0275 8.3465 3.1225 8.615 3.2245 8.7725C3.338 8.944 3.4795 8.8605 3.4795 8.8605C3.4795 8.8605 3.199 9.187 3.461 9.326C3.6995 9.451 4.1025 9.523 4.316 9.3075C4.471 9.1525 4.5015 8.807 4.559 8.666C4.573 8.6335 4.619 8.7215 4.6635 8.7655C4.712 8.812 4.7955 8.863 4.7955 8.863C4.7955 8.863 4.418 9.025 4.573 9.396C4.624 9.519 4.807 9.5975 5.106 9.595C5.217 9.5925 6.438 9.5255 6.7625 9.447C6.95 9.403 7.015 9.3055 7.015 9.3055C7.015 9.3055 7.798 9.09 8.514 8.627C8.9725 8.328 9.1605 8.247 9.531 8.159C9.837 8.085 9.816 7.61 9.4105 7.617C8.991 7.6215 8.623 7.837 8.3125 8.0295C7.731 8.3885 7.4415 8.3655 7.4415 8.3655L7.4325 8.3495C7.393 8.2845 7.618 7.703 7.3655 7.0105C7.092 6.253 6.659 6.07 6.6935 6.012C6.842 5.762 7.2125 5.3635 7.3605 4.622C7.4485 4.1725 7.4255 3.4335 7.226 3.0465C7.189 2.9745 6.86 3.167 6.86 3.167C6.86 3.167 6.552 2.4815 6.466 2.4255C6.44283 2.40993 6.41491 2.4019 6.387 2.4025Z" fill="black"/>
</g>
<defs>
<clipPath id="clip0_40_11703">
<rect width="12" height="12" fill="white"/>
</clipPath>
</defs>
</svg>
