<svg width="12" height="12" viewBox="0 0 12 12" fill="none" xmlns="http://www.w3.org/2000/svg">
<g clip-path="url(#clip0_40_11721)">
<path d="M11.773 5.46488L6.5335 0.225881C6.2315 -0.0756191 5.7425 -0.0756191 5.4395 0.225881L4.354 1.31338L5.734 2.69338C6.0565 2.58588 6.4235 2.65838 6.6785 2.91388C6.9365 3.17138 7.0075 3.54288 6.8975 3.86388L8.2265 5.19388C8.549 5.08238 8.92 5.15488 9.1765 5.41138C9.537 5.77138 9.537 6.35338 9.1765 6.71338C8.817 7.07288 8.236 7.07288 7.8765 6.71338C7.607 6.44288 7.5395 6.04488 7.6745 5.71538L6.43 4.47738V7.73988C6.518 7.78288 6.601 7.84138 6.674 7.91388C7.0305 8.27438 7.0305 8.85538 6.674 9.21388C6.3145 9.57438 5.7295 9.57438 5.3695 9.21388C5.01 8.85438 5.01 8.27438 5.3695 7.91488C5.4605 7.82488 5.563 7.75688 5.672 7.71188V4.41738C5.5635 4.37188 5.46 4.30638 5.372 4.21688C5.0995 3.94438 5.034 3.54588 5.174 3.21238L3.818 1.84988L0.225 5.44038C-0.075 5.74288 -0.075 6.23238 0.225 6.53488L5.465 11.7734C5.767 12.0754 6.256 12.0754 6.558 11.7734L11.773 6.55838C12.0755 6.25688 12.0755 5.76738 11.773 5.46488Z" fill="black"/>
</g>
<defs>
<clipPath id="clip0_40_11721">
<rect width="12" height="12" fill="white"/>
</clipPath>
</defs>
</svg>
