<svg width="12" height="12" viewBox="0 0 12 12" fill="none" xmlns="http://www.w3.org/2000/svg">
<path d="M9.8525 1.0735V10.9265H0V1.0735H9.8525ZM0.0705 10.856H9.782V1.144H0.0705V10.856ZM1.351 5.634C1.565 5.634 1.731 5.6905 1.849 5.803C1.967 5.9155 2.0325 6.044 2.0455 6.187H1.8225C1.80205 6.08642 1.74876 5.99549 1.671 5.9285C1.596 5.8645 1.49 5.833 1.3535 5.833C1.187 5.833 1.0525 5.8915 0.9495 6.009C0.8475 6.1255 0.7965 6.304 0.7965 6.546C0.7965 6.744 0.8425 6.9045 0.9345 7.028C1.0275 7.1505 1.1655 7.212 1.3485 7.212C1.5175 7.212 1.646 7.147 1.734 7.0175C1.781 6.9495 1.8155 6.8595 1.839 6.7485H2.062C2.042 6.9265 1.976 7.0755 1.864 7.196C1.73 7.341 1.549 7.413 1.321 7.413C1.125 7.413 0.96 7.354 0.8265 7.235C0.6515 7.0775 0.563 6.835 0.563 6.507C0.563 6.2575 0.629 6.0535 0.761 5.894C0.9035 5.7205 1.1005 5.634 1.351 5.634ZM2.491 6.824C2.496 6.92 2.519 6.998 2.5585 7.0575C2.6345 7.1695 2.7685 7.2255 2.96 7.2255C3.046 7.2255 3.124 7.2135 3.195 7.189C3.331 7.1415 3.3995 7.056 3.3995 6.9335C3.3995 6.8415 3.3705 6.776 3.313 6.737C3.255 6.6985 3.1635 6.665 3.0395 6.637L2.8105 6.585C2.661 6.5515 2.5555 6.514 2.493 6.4735C2.386 6.403 2.332 6.2975 2.332 6.157C2.332 6.0055 2.3845 5.8805 2.4895 5.7835C2.5945 5.686 2.7435 5.6375 2.936 5.6375C3.113 5.6375 3.2635 5.68 3.387 5.766C3.511 5.851 3.573 5.9875 3.573 6.176H3.358C3.35239 6.10122 3.32703 6.02927 3.2845 5.9675C3.2145 5.879 3.096 5.835 2.9295 5.835C2.7945 5.835 2.697 5.8635 2.638 5.92C2.61019 5.94496 2.58794 5.97548 2.5727 6.00959C2.55745 6.0437 2.54955 6.08064 2.5495 6.118C2.5495 6.201 2.5845 6.2615 2.653 6.3C2.698 6.3245 2.8005 6.355 2.96 6.392L3.197 6.446C3.3115 6.472 3.3995 6.5075 3.462 6.553C3.569 6.632 3.6225 6.7465 3.6225 6.8965C3.6225 7.084 3.5545 7.2175 3.4175 7.298C3.27363 7.38071 3.10991 7.42255 2.944 7.419C2.734 7.419 2.569 7.365 2.4505 7.258C2.332 7.1515 2.2735 7.007 2.2755 6.8245H2.4905L2.491 6.824ZM4.0595 6.824C4.065 6.92 4.0875 6.998 4.1275 7.0575C4.2035 7.1695 4.3375 7.2255 4.529 7.2255C4.6145 7.2255 4.693 7.2135 4.7635 7.189C4.9 7.1415 4.9685 7.056 4.9685 6.9335C4.9685 6.8415 4.9395 6.776 4.882 6.737C4.8235 6.6985 4.732 6.665 4.608 6.637L4.3795 6.585C4.2295 6.5515 4.124 6.514 4.062 6.4735C3.9545 6.403 3.901 6.2975 3.901 6.157C3.901 6.0055 3.9535 5.8805 4.0585 5.7835C4.1635 5.686 4.3125 5.6375 4.5045 5.6375C4.682 5.6375 4.832 5.68 4.9555 5.766C5.08 5.851 5.142 5.9875 5.142 6.176H4.927C4.92124 6.10117 4.89571 6.02922 4.853 5.9675C4.783 5.879 4.665 5.835 4.498 5.835C4.363 5.835 4.266 5.8635 4.207 5.92C4.17919 5.94496 4.15694 5.97548 4.1417 6.00959C4.12645 6.0437 4.11855 6.08064 4.1185 6.118C4.1185 6.201 4.153 6.2615 4.222 6.3C4.267 6.3245 4.3695 6.355 4.529 6.392L4.766 6.446C4.88 6.472 4.968 6.5075 5.0305 6.553C5.1375 6.632 5.1915 6.7465 5.1915 6.8965C5.1915 7.084 5.123 7.2175 4.9865 7.298C4.84263 7.38071 4.67891 7.42255 4.513 7.419C4.303 7.419 4.138 7.365 4.0195 7.258C3.9005 7.1515 3.842 7.007 3.8445 6.8245H4.0595V6.824ZM0.961 8.624L1.446 10.0525L1.9285 8.624H2.2525V10.314H2.0355V9.3165C2.0355 9.2815 2.036 9.225 2.0375 9.145C2.039 9.065 2.04 8.98 2.04 8.8885L1.558 10.3135H1.3315L0.8465 8.8885V8.9405C0.8465 8.982 0.8465 9.0455 0.8485 9.1305C0.8505 9.2145 0.852 9.2765 0.852 9.3165V10.3135H0.6335V8.624H0.961ZM3.3325 8.5785C3.631 8.5785 3.8515 8.674 3.995 8.866C4.107 9.0155 4.163 9.2065 4.163 9.4395C4.163 9.692 4.099 9.9015 3.971 10.069C3.821 10.265 3.606 10.3635 3.328 10.3635C3.068 10.3635 2.8635 10.2775 2.715 10.1055C2.5825 9.9405 2.516 9.7305 2.516 9.4775C2.516 9.249 2.5725 9.0535 2.686 8.891C2.832 8.6825 3.0475 8.5785 3.3325 8.5785ZM3.3555 10.1585C3.557 10.1585 3.703 10.0865 3.7925 9.9425C3.883 9.7975 3.9285 9.631 3.9285 9.443C3.9285 9.2445 3.876 9.0845 3.772 8.9635C3.6685 8.8425 3.527 8.782 3.3465 8.782C3.1715 8.782 3.029 8.842 2.9185 8.962C2.8085 9.082 2.753 9.259 2.753 9.4925C2.753 9.68 2.8 9.8375 2.8945 9.9665C2.9895 10.0945 3.143 10.1585 3.3555 10.1585ZM5.083 10.1185C5.1605 10.1185 5.2245 10.11 5.274 10.094C5.36433 10.063 5.44139 10.0022 5.4925 9.9215C5.5375 9.8535 5.5705 9.766 5.5905 9.6595C5.60144 9.60096 5.60713 9.54156 5.6075 9.482C5.6075 9.273 5.566 9.1105 5.4825 8.9945C5.3995 8.879 5.2655 8.821 5.081 8.821H4.675V10.1185H5.083ZM4.445 8.6235H5.129C5.3615 8.6235 5.5415 8.706 5.6695 8.871C5.784 9.0195 5.841 9.2105 5.841 9.4425C5.841 9.6225 5.8075 9.784 5.74 9.929C5.621 10.185 5.4165 10.3135 5.127 10.3135H4.445V8.6235ZM6.385 8.6235V9.668C6.385 9.7905 6.408 9.893 6.454 9.974C6.522 10.0965 6.6375 10.158 6.799 10.158C6.993 10.158 7.125 10.0915 7.1945 9.959C7.2325 9.887 7.251 9.79 7.251 9.668V8.6235H7.4835V9.5725C7.4835 9.78 7.4555 9.94 7.3995 10.0525C7.2965 10.256 7.1025 10.3575 6.8175 10.3575C6.5325 10.3575 6.3385 10.256 6.2365 10.0525C6.1805 9.94 6.1525 9.78 6.1525 9.5725V8.6235H6.385ZM8.0635 8.6235V10.112H8.919V10.313H7.834V8.6235H8.0635ZM9.1675 8.6235H10.399V8.8305H9.3905V9.3435H10.323V9.539H9.3905V10.112H10.4165V10.313H9.1675V8.6235ZM10.8685 9.7685C10.8735 9.8635 10.8965 9.942 10.936 10.0015C11.012 10.1135 11.146 10.1695 11.3375 10.1695C11.4235 10.1695 11.5015 10.157 11.5725 10.1325C11.7085 10.085 11.777 10 11.777 9.8775C11.777 9.7855 11.748 9.72 11.6905 9.6805C11.6325 9.6425 11.541 9.609 11.417 9.5805L11.188 9.529C11.0385 9.495 10.933 9.458 10.8705 9.4175C10.763 9.347 10.7095 9.2415 10.7095 9.101C10.7095 8.949 10.762 8.8245 10.867 8.727C10.972 8.63 11.121 8.581 11.3135 8.581C11.4905 8.581 11.641 8.624 11.764 8.71C11.8885 8.795 11.9505 8.9315 11.9505 9.1195H11.7355C11.7298 9.04489 11.7044 8.97312 11.662 8.9115C11.592 8.823 11.4735 8.779 11.3065 8.779C11.1715 8.779 11.0745 8.8075 11.0155 8.864C10.9877 8.88896 10.9654 8.91948 10.9502 8.95359C10.935 8.9877 10.927 9.02464 10.927 9.062C10.927 9.1445 10.9615 9.2055 11.0305 9.2435C11.0755 9.2685 11.178 9.2985 11.3375 9.3355L11.5745 9.3895C11.6885 9.416 11.777 9.4515 11.839 9.4965C11.9465 9.5755 12 9.6905 12 9.8405C12 10.0275 11.932 10.1615 11.795 10.242C11.6511 10.3245 11.4874 10.3662 11.3215 10.3625C11.1115 10.3625 10.9465 10.309 10.828 10.2015C10.709 10.095 10.651 9.9505 10.653 9.768H10.868L10.8685 9.7685Z" fill="black"/>
</svg>
