<svg width="12" height="12" viewBox="0 0 12 12" fill="none" xmlns="http://www.w3.org/2000/svg">
<path d="M8.107 3.381L8.0695 3.5765C8.0115 3.947 8.0325 4.053 8.1915 4.1905L8.345 4.3175L8.186 5.0265C8.091 5.4495 7.9745 5.804 7.9005 5.9205C7.837 6.021 7.763 6.169 7.747 6.2485C7.7205 6.3435 7.6305 6.439 7.493 6.5235C7.3715 6.5925 7.133 6.7775 6.964 6.926C6.829 7.0475 6.736 7.122 6.6855 7.154L6.5205 7.2845C6.4675 7.3695 6.4375 7.438 6.426 7.49C6.4145 7.5435 6.421 7.579 6.438 7.605C6.4545 7.63 6.483 7.6475 6.522 7.6585C6.56817 7.66932 6.61569 7.67319 6.663 7.67C6.77003 7.66268 6.87597 7.64391 6.979 7.614C7.014 7.6045 7.0415 7.5955 7.0655 7.5875C7.1025 7.542 7.188 7.456 7.3395 7.3065C7.7415 6.91 7.895 6.693 7.7365 6.7515C7.678 6.7725 7.7045 6.7195 7.805 6.6135C8.017 6.407 8.1385 6.095 8.3925 5.1165C8.5935 4.344 8.5935 4.333 8.7415 4.333C8.811 4.333 9.0075 4.345 9.0075 4.345V3.381H8.5565H8.107ZM10.0265 4.9635C9.9945 4.9635 9.9415 5.0115 9.91 5.0645C9.852 5.1595 9.9205 5.2175 10.7935 5.7625C11.312 6.091 11.73 6.371 11.7195 6.3925C11.709 6.408 11.2855 6.6835 10.778 7.001C9.857 7.572 9.852 7.5775 9.9365 7.694C10.0425 7.8315 9.9365 7.879 11.132 7.133L12 6.5775V6.1595L11.0315 5.5615C10.508 5.2335 10.053 4.969 10.0265 4.9635ZM1.984 5.022C1.9575 5.022 1.5025 5.292 0.979 5.6145L0 6.2125V6.6305L0.9735 7.239C1.5135 7.572 1.9685 7.8475 1.9895 7.8475C2.0105 7.8475 2.053 7.7995 2.0955 7.7415C2.159 7.641 2.1055 7.5985 1.2115 7.0325C0.36 6.498 0.27 6.424 0.355 6.366C0.408 6.329 0.81 6.08 1.244 5.8105C2.2335 5.202 2.1805 5.244 2.101 5.117C2.0695 5.0645 2.016 5.017 1.9845 5.022H1.984ZM6.326 5.0335C6.18 5.0325 5.866 5.255 4.926 6.0225C4.8855 6.119 4.882 6.1855 4.9005 6.2285C4.9125 6.258 4.9345 6.2785 4.965 6.2935C4.995 6.3085 5.034 6.3175 5.077 6.321C5.1625 6.3285 5.2635 6.315 5.345 6.299L5.4 6.2865C5.41883 6.26125 5.44355 6.24099 5.472 6.2275C5.53 6.1955 5.7735 5.9735 6.017 5.7355C6.4455 5.3015 6.546 5.1055 6.3715 5.042C6.35718 5.0363 6.34141 5.03342 6.326 5.0335ZM7.424 5.335C7.2955 5.3385 7.064 5.4875 6.6675 5.804C6.4685 5.9655 6.3425 6.0525 6.275 6.0705L6.013 6.2775C5.9145 6.4575 5.9 6.569 5.926 6.6305C5.93251 6.64567 5.94196 6.6594 5.9538 6.6709C5.96564 6.6824 5.97964 6.69144 5.995 6.6975C6.0332 6.71258 6.07393 6.72022 6.115 6.72C6.21314 6.71895 6.31069 6.70465 6.405 6.6775C6.45415 6.66431 6.5027 6.64896 6.5505 6.6315L6.565 6.6255L6.5915 6.6115C6.6415 6.547 6.7565 6.4255 6.9005 6.2855C7.3555 5.8465 7.588 5.5345 7.5405 5.418C7.519 5.3615 7.482 5.333 7.424 5.335ZM6.212 5.875C6.175 5.879 6.092 5.943 5.9425 6.074C5.7265 6.265 5.491 6.375 5.4095 6.326C5.39056 6.33028 5.37156 6.33428 5.3525 6.338C5.2695 6.3545 5.166 6.368 5.0735 6.3605C5.02992 6.35786 4.9872 6.34718 4.9475 6.329C4.91006 6.31188 4.88018 6.28164 4.8635 6.244C4.845 6.199 4.845 6.143 4.866 6.0715L4.541 6.3385L3.8055 6.947V7.9335L6.2155 6.035C6.21503 6.01421 6.21773 5.99347 6.2235 5.9735C6.242 5.9065 6.241 5.8725 6.212 5.8755V5.875ZM7.249 6.1945C7.2125 6.1945 7.1515 6.246 7.054 6.3495C6.9215 6.491 6.713 6.628 6.6025 6.656L6.5855 6.665C6.56736 6.67249 6.54902 6.67949 6.5305 6.686C6.5005 6.696 6.4615 6.708 6.4165 6.72C6.3265 6.7445 6.2145 6.767 6.1145 6.7645C6.06736 6.76444 6.02067 6.75527 5.977 6.7375C5.93584 6.72053 5.90286 6.68827 5.885 6.6475C5.856 6.578 5.8675 6.4805 5.931 6.342L3.805 8.0165V8.619H4.739L6.72 7.063C6.7715 7.006 6.849 6.928 6.9535 6.8305C7.2335 6.571 7.297 6.4815 7.297 6.349C7.297 6.246 7.2855 6.194 7.249 6.194V6.1945ZM7.7205 7.1695L7.551 7.3385C7.456 7.4285 7.2865 7.5395 7.1705 7.587L7.1475 7.597L7.146 7.5995L7.141 7.6045C7.1365 7.608 7.1345 7.6085 7.131 7.61C7.08469 7.62752 7.03765 7.64304 6.99 7.6565C6.88406 7.68733 6.77509 7.70661 6.665 7.714C6.61295 7.71733 6.56069 7.71278 6.51 7.7005C6.46601 7.69081 6.42717 7.66516 6.401 7.6285C6.377 7.5915 6.37 7.542 6.3835 7.481C6.39424 7.43757 6.41019 7.3956 6.431 7.356L4.8325 8.619H6.9585L7.2125 8.328C7.5615 7.921 7.7205 7.63 7.7205 7.381V7.1695Z" fill="black"/>
</svg>
